<svg width="64" height="58" viewBox="0 0 64 58" fill="none" xmlns="http://www.w3.org/2000/svg">
<path fill-rule="evenodd" clip-rule="evenodd" d="M32.4013 57.5362C46.6191 57.5362 58.223 50.3495 58.223 41.5043C58.223 32.6591 46.6191 25.4724 32.4013 25.4724C18.1834 25.4724 6.57947 32.6591 6.57947 41.5043C6.57947 50.3495 18.1834 57.5362 32.4013 57.5362Z" fill="#CF6030"/>
<path fill-rule="evenodd" clip-rule="evenodd" d="M32.4013 25.4299C46.2626 25.4299 57.5894 32.2339 58.223 40.7388C57.629 49.2438 46.3022 56.0478 32.4013 56.0478C18.5003 56.0478 7.21313 49.2438 6.57947 40.7388C7.21313 32.2339 18.5399 25.4299 32.4013 25.4299Z" fill="#E47B06"/>
<path fill-rule="evenodd" clip-rule="evenodd" d="M32.4011 53.2412C46.6981 53.2412 58.3417 46.7774 58.3417 38.8252C58.3417 30.8731 46.6981 24.4093 32.4011 24.4093C18.1041 24.4093 6.46051 30.8731 6.46051 38.8252C6.46051 46.7349 18.1041 53.2412 32.4011 53.2412Z" fill="#F6D695"/>
<path fill-rule="evenodd" clip-rule="evenodd" d="M1.11391 36.3588C-0.351436 37.2944 -0.39104 38.7827 1.11391 39.6758L28.9159 57.0259C30.3812 57.9615 32.7971 57.9615 34.2624 57.0259L62.8961 39.293C64.3614 38.3575 64.401 36.8691 62.8961 35.9761L35.0941 18.6259C33.6288 17.7329 31.2129 17.7329 29.7476 18.6259L1.11391 36.3588Z" fill="#FEBD30"/>
<path fill-rule="evenodd" clip-rule="evenodd" d="M1.11391 34.8279C-0.351436 35.7635 -0.39104 37.2518 1.11391 38.1448L28.9159 55.495C30.3812 56.4306 32.7971 56.4306 34.2624 55.495L62.8961 37.7621C64.3614 36.8266 64.401 35.3382 62.8961 34.4452L35.0941 17.095C33.6288 16.202 31.2129 16.202 29.7476 17.095L1.11391 34.8279Z" fill="#FCD041"/>
<path fill-rule="evenodd" clip-rule="evenodd" d="M32.52 22.4531C46.619 22.4531 58.025 29.1721 58.025 37.4219C58.025 38.8252 57.7081 40.101 57.1933 41.2917L40.8368 51.4126C40.3616 51.4976 39.8468 51.6677 39.7279 51.7103C39.6487 51.7528 39.6091 51.7953 39.4903 51.7953C39.1735 51.7953 33.9854 52.0079 33.7873 52.2206C33.7081 52.1355 33.1537 52.2631 33.0745 52.3056H33.1141C32.2824 52.3056 29.3913 51.8378 28.718 52.2206H28.7576C28.4408 52.2206 27.7675 52.0505 27.4903 52.093C26.8963 51.7528 24.6784 51.8378 24.0052 51.5402C23.926 51.4551 22.421 51.1149 21.4309 50.8598L9.3517 43.3329C9.23289 42.8226 8.75764 42.695 8.40121 42.3973C7.52992 40.9089 6.97546 39.2505 6.97546 37.4644C6.97546 29.1721 18.421 22.4531 32.52 22.4531Z" fill="#D69508"/>
<path fill-rule="evenodd" clip-rule="evenodd" d="M61.0346 33.2545C61.3119 33.5522 61.4703 33.8499 61.3119 34.105C61.1931 34.2751 61.0742 34.3602 60.9554 34.4027H60.9158C60.8762 34.4027 60.8762 34.4027 60.8366 34.4027C60.2426 34.5728 59.4109 34.6153 58.698 34.5728C59.0544 35.0406 59.4901 35.5509 59.8069 35.9336C60.5594 36.8266 60.599 37.0392 60.2822 36.9542C60.2426 37.0818 59.3713 36.9967 58.3812 36.7841C58.7772 37.1668 58.9752 37.507 58.5792 37.507C58.5396 37.5921 57.3515 37.6771 56.1237 37.6346C56.2822 37.6771 56.401 37.7196 56.5594 37.7622C58.7376 38.3575 59.0148 38.8678 58.4208 38.9954C58.1039 39.1655 56.3614 39.2505 55.4109 39.0379C55.2129 40.1436 54.9356 42.0146 54.5 42.1422C54.4604 42.1422 54.4208 42.1422 54.3812 42.1422C54.3416 42.1422 54.3416 42.0997 54.302 42.0572C53.9059 41.7595 53.4703 41.3343 52.9554 40.7814C52.8762 41.4618 52.797 42.0572 52.5594 41.8446C52.0445 41.6319 51.6881 41.5044 51.3713 41.4193C51.2921 42.1422 51.2525 42.9502 50.8564 42.7376C46.5792 41.4618 40.5594 39.7608 36.5198 38.5276C35.6089 38.2299 33.8663 37.7196 33.5891 37.1243C33.3515 36.6565 32.9554 36.2738 32.7574 35.721C32.6386 35.4233 32.3218 34.02 32.2822 34.105C33.7475 32.4465 35.2525 31.6811 36.9554 31.3409C38.9356 30.7881 41.1931 30.9582 44.2426 31.1708C48.6782 31.4685 51.6485 31.0007 55.8861 30.2778H56.0049L61.0346 33.2545Z" fill="#D69508"/>
<path fill-rule="evenodd" clip-rule="evenodd" d="M3.60895 33.297C3.33172 33.6372 3.01489 34.02 2.77726 34.2751C2.02479 35.1681 1.98518 35.3808 2.30201 35.2957C2.34162 35.4233 3.21291 35.3382 4.203 35.1256C3.80697 35.5083 3.60895 35.8485 4.00499 35.8485C4.04459 35.9336 5.23271 36.0186 6.46043 35.9761C6.30201 36.0186 6.1832 36.0612 6.02479 36.1037C3.84657 36.699 3.56934 37.2093 4.1634 37.3369C4.48023 37.507 6.22281 37.5921 7.1733 37.3794C7.37132 38.4851 7.64855 40.3562 8.08419 40.4837C8.1238 40.4837 8.1634 40.4837 8.203 40.4837C8.24261 40.4837 8.24261 40.4412 8.28221 40.3987C8.67825 40.101 9.1139 39.6758 9.62875 39.123C9.70795 39.7608 9.78716 40.3987 10.0248 40.1861C10.5396 39.9734 10.8961 39.8459 11.2129 39.7608C11.2921 40.4837 11.3317 41.2917 11.7278 41.0791C16.005 39.8033 22.0248 38.1024 26.0644 36.8691C26.9753 36.5715 28.7179 36.0612 28.9951 35.4658C29.2327 34.998 29.6287 34.6153 29.8268 34.0625C29.9456 33.7648 30.2624 32.3615 30.302 32.4465C28.8367 30.7881 27.3317 30.0226 25.6287 29.6824C23.6485 29.1296 21.3911 29.2997 18.3416 29.5123C15.3317 29.7249 12.9951 29.5548 10.5 29.2146L3.60895 33.297Z" fill="#D69508"/>
<path fill-rule="evenodd" clip-rule="evenodd" d="M32.4008 21.9003C46.4998 21.9003 57.9058 28.6193 57.9058 36.8691C57.9058 42.5674 52.7969 46.5648 48.2424 48.606C47.8068 48.606 47.0939 48.8611 46.7771 49.2013L46.8959 49.0738C46.6582 49.0738 46.381 49.0312 46.1434 49.1588C45.9058 49.2864 45.6285 49.4565 45.4701 49.6691C45.4701 49.6691 44.48 49.8392 44.4404 49.8392C43.9256 50.0943 43.2919 49.9242 42.8167 50.4345C42.8167 50.4345 41.6681 50.7747 41.6285 50.7747C41.5097 50.6472 39.9256 51.0299 39.6483 51.1575C39.5691 51.2 39.5295 51.2425 39.4107 51.2425C39.0939 51.2425 33.9058 51.4551 33.7077 51.6678C33.6285 51.5827 33.0741 51.7103 32.9949 51.7528H33.0345C32.2028 51.7528 29.3117 51.285 28.6384 51.6678H28.678C28.3612 51.6678 27.6879 51.4977 27.4107 51.5402C26.8167 51.2 24.5988 51.285 23.9256 50.9874C23.8464 50.9023 20.9949 50.2645 20.6384 50.0944C20.4404 49.8817 19.3315 49.6266 18.9355 49.4565C18.8563 49.414 18.7374 49.3289 18.6186 49.2864C17.2325 48.7761 15.0939 48.1382 14.0246 47.0751C14.0246 46.9475 13.6285 46.6073 13.5097 46.5223C13.3117 46.3947 12.9553 46.3522 12.7572 46.4797C12.1236 46.012 11.5691 45.2465 10.8563 44.8213C10.7374 44.6086 10.6978 44.3535 10.4998 44.2259C10.3414 44.0558 9.98497 44.0558 9.90576 43.8857V43.9282C9.90576 43.4179 9.50972 43.2478 9.2325 42.9076L9.35131 43.0352C9.35131 42.3548 8.79685 42.2272 8.36121 41.887C7.48992 40.3987 6.93547 38.7402 6.93547 36.9542C6.89586 28.6193 18.3018 21.9003 32.4008 21.9003Z" fill="#753033"/>
<path fill-rule="evenodd" clip-rule="evenodd" d="M32.4008 18.796C46.4998 18.796 57.9058 25.1322 57.9058 32.9994C57.9058 40.3987 47.6879 46.5223 34.6582 47.1176C33.7077 46.7774 32.2424 47.4153 31.3315 47.0326C30.7771 46.6924 30.1434 47.4153 29.6681 46.9901C29.1929 46.3097 28.5196 47.2452 27.9256 46.8625C27.6087 46.6924 27.0939 46.6073 26.7374 46.7774H26.7771C26.2226 46.7774 24.9157 46.4372 24.3612 46.2246C23.886 45.6718 23.3315 46.0545 23.0543 45.8844L23.0939 45.8419C22.6582 45.8419 21.9058 45.119 21.5889 45.5867C20.9949 45.4166 20.2028 45.4592 19.6087 45.2465C19.2523 44.6087 18.5394 45.1615 18.1038 44.6937C17.985 44.6937 17.7077 44.4811 17.5097 44.4811C11.0939 41.8871 6.93547 37.7196 6.93547 32.9568C6.89586 25.1322 18.3018 18.796 32.4008 18.796Z" fill="#883C3D"/>
<path fill-rule="evenodd" clip-rule="evenodd" d="M28.2031 29.2146C28.1635 29.1721 28.1635 29.1721 28.1239 29.1296L28.0843 29.087L28.0447 29.0445C28.0051 29.002 27.9655 28.9169 27.9259 28.8319C27.8071 28.6618 27.6883 28.4492 27.5695 28.194V28.1515V28.109V28.0664V28.0239V27.9814V27.9389C26.3814 26.1953 24.5596 23.3462 20.7576 23.3887C10.6982 23.5163 7.7279 29.3422 7.17344 33.8924C7.13384 34.2751 7.13384 34.7003 7.21305 35.1256C7.21305 35.2106 7.21305 35.2531 7.17344 35.3382C6.65859 39.3355 12.2031 43.9282 17.5497 44.5661C23.5695 45.289 32.1239 42.4824 33.7873 37.8472C34.1437 36.9116 34.1833 36.1462 34.0249 35.5083C34.5794 32.404 31.6091 31.4684 29.5101 30.2777H29.4705L29.4309 30.2352H29.3913H29.3517H29.3121H29.2724L29.1932 30.1927H29.1536H29.114L29.0348 30.1502L28.9556 30.1076H28.916H28.8764C28.7972 30.0651 28.718 30.0226 28.6388 29.9801C28.5596 29.9375 28.4804 29.895 28.4408 29.81C28.4012 29.7674 28.3616 29.7674 28.3616 29.7249C28.322 29.6824 28.2823 29.6824 28.2823 29.6399C28.2427 29.5973 28.2427 29.5973 28.2031 29.5548C28.2427 29.2571 28.2031 29.2571 28.2031 29.2146Z" fill="#652D2D"/>
<path fill-rule="evenodd" clip-rule="evenodd" d="M33.2328 32.6591C33.2724 32.6166 33.2724 32.6166 33.312 32.5741L33.3516 32.5316L33.3912 32.489C33.4308 32.4465 33.4704 32.3615 33.51 32.2764C33.6289 32.1063 33.7477 31.8937 33.8665 31.6385V31.596V31.5535V31.511V31.4684V31.4259V31.3834C34.8962 29.5973 36.718 26.7907 40.5199 26.8332C50.5794 26.9608 53.5497 32.7867 54.1041 37.3369C54.1437 37.7196 54.1437 38.1449 54.0645 38.5701C54.0645 38.6552 54.0645 38.6977 54.1041 38.7827C54.619 42.7801 49.0744 47.3728 43.7279 48.0106C37.7081 48.7336 29.1536 45.9269 27.4902 41.2917C27.1338 40.3561 27.0942 39.5907 27.2526 38.9528C26.6982 35.8485 29.6685 34.913 31.7675 33.7223H31.8071L31.8467 33.6797H31.8863H31.9259H31.9655H32.0051L32.0843 33.6372H32.1239H32.1635L32.2427 33.5947L32.3219 33.5522H32.3615H32.4011C32.4803 33.5096 32.5595 33.4671 32.6388 33.4246C32.718 33.3821 32.7972 33.3395 32.8368 33.2545C32.8764 33.212 32.916 33.212 32.916 33.1694C32.9556 33.1269 32.9952 33.1269 32.9952 33.0844C33.0348 33.0419 33.0348 33.0419 33.0744 32.9993C33.1932 32.7017 33.2328 32.6591 33.2328 32.6591Z" fill="#652D2D"/>
<path fill-rule="evenodd" clip-rule="evenodd" d="M26.2622 29.5122C25.4701 28.6617 23.886 23.6438 18.8167 23.6863C8.75728 23.8139 5.78698 29.6398 5.23252 34.19C4.71767 38.1873 10.2622 42.78 15.6088 43.4179C21.6286 44.1408 30.183 41.3342 31.8464 36.6989C33.6286 31.9787 28.1236 31.4684 26.2622 29.5122Z" fill="#C4262E"/>
<path fill-rule="evenodd" clip-rule="evenodd" d="M26.2622 28.1089C25.4701 27.2584 23.8859 22.2405 18.8166 22.283C8.75721 22.4106 5.78691 28.2365 5.23246 32.7867C4.75721 36.7415 10.2622 41.3342 15.6483 41.9721C21.6681 42.695 30.2226 39.8883 31.8859 35.2531C33.6285 30.5329 28.1235 30.0651 26.2622 28.1089Z" fill="#E9311A"/>
<path fill-rule="evenodd" clip-rule="evenodd" d="M25.5098 28.4916C24.7969 27.7262 23.3712 23.1335 18.6979 23.176C9.54939 23.2611 6.85632 28.5767 6.34147 32.7441C5.90583 36.4013 10.9355 40.5687 15.8464 41.1641C21.3514 41.8019 29.1533 39.2505 30.6979 35.0405C32.2425 30.7029 27.2128 30.2777 25.5098 28.4916Z" fill="#F07464"/>
<path fill-rule="evenodd" clip-rule="evenodd" d="M20.9155 28.9595C20.2819 28.0664 19.2918 27.0458 17.7472 27.0033C12.6383 26.7907 11.4106 29.895 11.3314 32.3615C11.2918 34.5302 14.3017 37.1668 17.074 37.6771C20.2027 38.2299 24.8759 37.2943 25.5096 34.8279C25.8264 33.5096 24.7571 32.3615 23.965 31.8086C24.9947 30.8731 26.2621 29.895 27.6878 29.1296C27.1334 28.8319 26.6185 28.4917 26.2621 28.109C26.0641 27.8963 25.7868 27.4286 25.47 26.7907C23.9254 27.5987 22.5789 28.4066 20.9155 28.9595Z" fill="#FFB596"/>
<path fill-rule="evenodd" clip-rule="evenodd" d="M20.4404 28.4917C21.8661 24.5794 18.3414 22.7933 12.7572 26.1953C8.87602 28.5767 8.63839 30.8306 9.58889 33.9349C10.1433 35.8485 13.4701 33.9349 12.7572 32.5315C10.579 28.3641 18.1433 24.5369 18.0641 29.087C17.9849 29.9375 19.9651 29.7674 20.4404 28.4917Z" fill="#E52614"/>
<path fill-rule="evenodd" clip-rule="evenodd" d="M24.5589 32.5741C29.9054 33.3395 30.5391 36.4864 23.9253 38.6977C19.3312 40.2286 16.4797 39.3781 13.153 37.3794C11.0936 36.1462 14.8559 34.7854 16.2421 35.891C20.3213 39.1654 28.3213 35.8485 22.7371 33.8923C21.747 33.5521 22.8163 32.3189 24.5589 32.5741Z" fill="#E52614"/>
<path fill-rule="evenodd" clip-rule="evenodd" d="M36.6784 34.4451C37.4705 33.5946 39.0546 28.5767 44.1239 28.6192C54.1833 28.7468 57.1536 34.5727 57.7081 39.1229C58.223 43.1202 52.6784 47.7129 47.3319 48.3508C41.3121 49.0737 32.7576 46.2671 31.0942 41.6319C29.3121 36.8691 34.817 36.4013 36.6784 34.4451Z" fill="#C4262E"/>
<path fill-rule="evenodd" clip-rule="evenodd" d="M36.6784 32.9993C37.4705 32.1488 39.0546 27.1309 44.1239 27.1734C54.1833 27.301 57.1536 33.1269 57.7081 37.677C58.223 41.6744 52.6784 46.2671 47.3319 46.905C41.3121 47.6279 32.7576 44.8212 31.0942 40.186C29.3121 35.4232 34.817 34.9555 36.6784 32.9993Z" fill="#E9311A"/>
<path fill-rule="evenodd" clip-rule="evenodd" d="M37.4311 33.382C38.144 32.6166 39.5697 28.0239 44.243 28.0664C53.4311 28.1514 56.1242 33.4671 56.639 37.6345C57.0747 41.2916 52.045 45.4591 47.1341 46.0544C41.6291 46.6923 33.8271 44.1408 32.2826 39.9308C30.6984 35.5933 35.7281 35.1681 37.4311 33.382Z" fill="#F07464"/>
<path fill-rule="evenodd" clip-rule="evenodd" d="M42.0247 33.8498C42.6584 32.9568 43.6485 31.9362 45.193 31.8937C50.3019 31.6811 51.5297 34.7854 51.6089 37.2518C51.6485 39.4206 48.6386 42.0571 45.8663 42.5674C42.7376 43.1203 38.0643 42.1847 37.4307 39.7183C37.1138 38.4 38.1831 37.2518 38.9752 36.699C37.9455 35.7635 36.6782 34.7854 35.2524 34.0199C35.8069 33.7223 36.3217 33.3821 36.6782 32.9993C36.8762 32.7867 37.1138 32.3189 37.4703 31.6811C39.0544 32.489 40.3614 33.297 42.0247 33.8498Z" fill="#FFB596"/>
<path fill-rule="evenodd" clip-rule="evenodd" d="M42.5398 33.4246C41.1141 29.5123 44.6389 27.7262 50.223 31.1282C54.1042 33.5096 54.3418 35.7635 53.3913 38.8678C52.8369 40.7814 49.5101 38.8678 50.223 37.4645C52.4012 33.297 44.8369 29.4698 44.9161 34.0199C44.9557 34.8279 42.9755 34.7003 42.5398 33.4246Z" fill="#E52614"/>
<path fill-rule="evenodd" clip-rule="evenodd" d="M38.3811 37.4644C33.0346 38.2299 32.4009 41.3767 39.0148 43.588C43.6089 45.1189 46.4604 44.2684 49.7871 42.2698C51.8465 41.0365 48.0841 39.6757 46.698 40.7814C42.6188 44.0558 34.6188 40.7389 40.2029 38.7827C41.193 38.4425 40.1237 37.2093 38.3811 37.4644Z" fill="#E52614"/>
<path fill-rule="evenodd" clip-rule="evenodd" d="M37.5493 31.1282C39.6879 31.1282 41.4701 30.1502 41.4701 28.9595C41.4701 27.7688 39.7275 26.7907 37.5493 26.7907C35.4107 26.7907 33.6285 27.7688 33.6285 28.9595C33.6285 30.1502 35.4107 31.1282 37.5493 31.1282Z" fill="#ED1C24"/>
<path fill-rule="evenodd" clip-rule="evenodd" d="M2.06447 23.5588C5.35159 23.1336 8.04466 23.1761 4.75753 23.3037C3.84664 23.3462 1.27239 27.0884 2.18328 27.3861C3.25258 27.7263 4.99516 27.4286 5.62882 26.8758C8.87635 23.899 5.23278 27.9814 4.4011 29.6399C3.92585 30.5754 3.17338 30.8306 3.21298 31.0432C3.411 31.511 8.24268 29.2997 8.87635 28.4492C10.2229 26.6206 9.11397 27.3861 6.97536 29.5123C6.26249 30.1927 4.95555 31.2558 5.11397 31.6385C5.19318 31.8937 8.99516 31.511 10.1437 30.8306C12.9952 29.087 11.2526 30.2777 8.12387 31.8937C6.30209 32.8292 5.19318 33.5947 5.51001 33.8073C6.02486 34.1475 10.0645 33.6797 9.19318 32.5316C8.99516 32.2339 9.86644 38.4 10.3417 37.8047C10.9754 36.9542 11.6882 35.7209 12.5595 33.8924C13.3516 34.0199 11.7674 37.4645 12.2427 37.1243C16.4011 34.0625 13.1536 38.7402 14.1833 38.1874C18.5793 35.7209 24.8367 32.404 28.9556 30.0651C29.906 29.5123 31.6486 28.4917 31.8862 27.5987C32.0843 26.9183 32.4011 26.2379 32.5199 25.4299C32.5991 24.9621 32.7179 22.8784 32.7971 22.9635C28.9952 18.4133 25.8268 19.2213 20.2031 20.412C15.4506 21.4326 12.2031 21.1349 7.52981 20.7096C4.79714 20.4545 1.62882 20.6671 2.06447 23.5588Z" fill="#699B42"/>
<path fill-rule="evenodd" clip-rule="evenodd" d="M2.06445 23.5588C2.85653 20.5395 5.27237 21.6877 3.96544 23.1761C3.37138 23.814 1.03475 25.9402 1.70802 26.9608C2.10406 27.5562 2.5001 27.5987 3.09416 27.0459C6.34168 24.0691 4.40109 27.8113 3.5694 29.5123C1.94564 32.8293 4.28227 30.0651 5.15356 28.8744C6.5001 27.0459 8.32188 27.216 6.18326 29.3422C5.03475 30.4904 3.76742 32.7017 6.61891 30.9582C9.47039 29.2146 10.4605 30.1077 7.33178 31.7236C3.13376 33.8924 5.94564 34.7429 8.40109 32.3615C8.63871 32.1063 10.0645 40.6964 10.6585 36.7841C10.8169 35.7209 9.43079 33.5522 10.9357 33.8498C11.7278 33.9774 11.9258 39.1655 12.4803 36.4013C13.4308 31.7236 13.3912 39.0804 14.2229 38.1874C17.1536 34.998 24.0446 32.2764 28.1635 29.895C29.114 29.3422 30.8565 28.3216 31.0942 27.4286C31.2922 26.7482 31.609 26.0678 31.7278 25.2598C31.807 24.792 31.9258 22.7083 32.005 22.7934C28.2031 18.2432 25.0347 19.0512 19.411 20.2419C14.6585 21.2625 11.411 20.9648 6.73772 20.5395C4.00505 20.3269 1.62881 20.6671 2.06445 23.5588Z" fill="#99CC33"/>
<path fill-rule="evenodd" clip-rule="evenodd" d="M4.40099 21.305C8.12376 20.7947 10.2624 21.6878 12.7178 21.9429C13.6287 22.028 14.6584 21.8153 15.5297 21.8579C16.1634 21.9004 16.995 21.6452 15.8069 21.9429C12.4406 22.7509 9.35148 22.028 6.18316 22.6658C4.87623 22.921 3.5297 24.707 4.08415 23.729C4.32178 23.0911 5.03465 21.6027 4.40099 21.305Z" fill="#D1DB39"/>
<path fill-rule="evenodd" clip-rule="evenodd" d="M5.1142 25.7701C6.61915 24.9622 8.20331 24.8346 9.27261 24.5794C11.4112 24.0691 13.5894 23.5163 15.6885 22.8784C18.1043 22.113 13.6687 23.6864 13.1142 23.899C11.0548 24.6645 9.90628 25.0047 7.84687 25.9402C7.45083 26.1103 5.54984 27.216 5.27261 27.301C5.03499 26.8333 5.54984 26.0678 5.1142 25.7701Z" fill="#D1DB39"/>
<path fill-rule="evenodd" clip-rule="evenodd" d="M7.29234 27.4711C8.8765 26.7057 10.4211 26.493 11.4508 26.1528C11.926 26.0253 12.3617 25.7701 12.8369 25.6C13.2725 25.4299 13.7478 25.2598 12.9953 25.6851C11.7676 26.3655 10.5003 27.1309 9.31215 27.8113L6.97551 29.0871C6.8171 29.1721 7.8072 27.8538 7.29234 27.4711Z" fill="#D1DB39"/>
<path fill-rule="evenodd" clip-rule="evenodd" d="M10.5399 33.6372C11.2131 33.0844 12.0052 32.7442 12.6785 32.1914L17.5498 28.3216L19.1339 27.0884L18.223 27.9814L12.0844 33.6372C10.8567 34.7854 11.8864 33.4246 10.5399 33.6372Z" fill="#D1DB39"/>
<path fill-rule="evenodd" clip-rule="evenodd" d="M13.1931 34.5302C13.7475 34.19 14.8168 33.7223 15.2525 33.297C16.203 32.404 17.1535 31.8087 18.302 31.0007C20.005 29.8525 16.3614 32.8718 15.8465 33.4671C15.4109 33.9774 14.9753 34.8279 14.6188 35.4233C14.1832 36.2738 14.104 36.2738 13.8267 35.3807C13.7871 35.0831 12.9554 34.5302 13.1931 34.5302Z" fill="#D1DB39"/>
<path fill-rule="evenodd" clip-rule="evenodd" d="M8.63852 32.2764C9.74743 31.2558 11.49 30.9582 12.4405 29.8525C13.0742 29.1296 14.2227 28.8744 14.9752 28.5342C15.7276 28.194 14.3811 29.0871 14.2623 29.2146C12.8761 30.1927 11.3316 31.8087 10.1435 33.0419C9.78704 33.4246 9.62862 33.8924 9.35139 32.9568C9.27218 32.6592 8.59892 32.2764 8.63852 32.2764Z" fill="#D1DB39"/>
<path fill-rule="evenodd" clip-rule="evenodd" d="M61.7873 22.5807C58.7377 22.5807 56.2823 22.9209 59.2922 22.6658C60.1239 22.6232 62.8566 25.685 62.0249 26.0252C61.0744 26.4505 59.4506 26.3654 58.817 25.9402C55.5298 23.6438 59.2922 26.8757 60.2427 28.2791C60.7576 29.0445 61.51 29.2146 61.4704 29.3847C61.3516 29.8099 56.6783 28.3641 56.0051 27.6837C54.5793 26.1953 55.6882 26.7482 57.8665 28.4066C58.5793 28.9595 59.8863 29.7674 59.7674 30.1076C59.6882 30.3202 56.2031 30.4478 55.0942 29.9375C52.3219 28.7043 54.0249 29.5973 57.0348 30.6604C58.817 31.2983 59.8863 31.8511 59.609 32.0638C59.1734 32.4465 55.4506 32.4465 56.1239 31.3408C56.2823 31.0432 56.1239 36.699 55.609 36.1887C54.9358 35.5083 54.1833 34.4452 53.1932 32.9568C52.4803 33.1694 54.2625 36.1036 53.8269 35.8485C49.7476 33.5947 53.1536 37.4219 52.1635 36.9967C47.8863 35.2957 41.8665 33.0418 37.8269 31.3834C36.916 31.0006 35.1734 30.2777 34.8962 29.5123C34.6585 28.9169 34.2625 28.3641 34.0645 27.6412C33.9457 27.2159 33.6288 25.3874 33.5892 25.4724C36.5991 20.9648 39.609 21.305 44.8368 21.7727C49.2724 22.1555 52.2427 21.5176 56.4803 20.6246C58.9754 20.1568 61.8665 19.9867 61.7873 22.5807Z" fill="#699B42"/>
<path fill-rule="evenodd" clip-rule="evenodd" d="M61.7871 22.5807C60.7574 19.9867 58.6584 21.2625 60.005 22.4532C60.599 22.9635 62.9753 24.6219 62.4208 25.6C62.104 26.1954 61.7475 26.2804 61.1535 25.8126C57.8663 23.5163 60.0446 26.6631 60.9555 28.0664C62.7772 30.8731 60.3614 28.6618 59.4505 27.6837C58.0248 26.1954 56.401 26.5356 58.5792 28.194C59.7673 29.087 61.1139 30.9581 58.3416 29.6824C55.5693 28.4492 54.7376 29.3422 57.7475 30.4478C61.7871 31.8937 59.3317 32.9993 56.8366 31.1708C56.599 31.0007 56.1238 38.8253 55.2129 35.3807C54.9753 34.4452 56.005 32.3615 54.6584 32.7442C53.9456 32.9568 54.302 37.6346 53.5099 35.2106C52.1634 31.1282 52.9555 37.7196 52.0842 36.9967C49.0743 34.4452 42.5 32.8292 38.5 31.1708C37.5891 30.788 35.8465 30.0651 35.5693 29.2997C35.3317 28.7043 34.9357 28.1515 34.7376 27.4286C34.6188 27.0033 34.302 25.1748 34.2624 25.2598C37.2723 20.7522 40.2822 21.0924 45.5099 21.5601C49.9456 21.9429 52.9159 21.305 57.1535 20.412C59.6881 19.9017 61.8664 19.9867 61.7871 22.5807Z" fill="#99CC33"/>
<path fill-rule="evenodd" clip-rule="evenodd" d="M59.4112 20.8372C55.9657 20.7947 54.1043 21.8578 51.8469 22.3256C51.0152 22.4957 50.0647 22.4106 49.2726 22.5807C48.6786 22.6658 47.8865 22.5807 49.035 22.7083C52.2033 23.0485 54.936 22.0704 57.9459 22.2405C59.1736 22.3256 60.5597 23.7714 59.9657 22.9209C59.6488 22.4532 58.8568 21.1774 59.4112 20.8372Z" fill="#D1DB39"/>
<path fill-rule="evenodd" clip-rule="evenodd" d="M59.2128 24.9196C57.7474 24.3668 56.2821 24.4518 55.2524 24.3242C53.2326 24.1116 51.2128 23.8565 49.193 23.5163C46.8959 23.1335 51.1336 24.0266 51.6484 24.1116C53.6286 24.5794 54.7375 24.7495 56.6781 25.3448C57.0742 25.4724 58.8959 26.2379 59.1732 26.2804C59.3712 25.8551 58.8167 25.2173 59.2128 24.9196Z" fill="#D1DB39"/>
<path fill-rule="evenodd" clip-rule="evenodd" d="M57.3516 26.7057C55.8467 26.1954 54.3813 26.1529 53.3912 26.0253C52.9556 25.9402 52.5199 25.7701 52.0447 25.6851C51.609 25.6 51.1734 25.515 51.8863 25.7701C53.114 26.2379 54.3021 26.7907 55.4902 27.2585L57.7476 28.109C57.9853 28.1941 56.9556 27.0884 57.3516 26.7057Z" fill="#D1DB39"/>
<path fill-rule="evenodd" clip-rule="evenodd" d="M55.015 32.6166C54.3417 32.1914 53.5892 31.9787 52.916 31.5535L48.0447 28.6193L46.4605 27.6837L47.411 28.3641L53.5892 32.7442C54.8566 33.6797 53.7476 32.5316 55.015 32.6166Z" fill="#D1DB39"/>
<path fill-rule="evenodd" clip-rule="evenodd" d="M52.6782 33.7223C52.1238 33.4671 51.1337 33.1695 50.6584 32.8293C49.6683 32.1489 48.797 31.6811 47.6485 31.1283C45.9851 30.3203 49.6287 32.5741 50.1436 33.0419C50.6188 33.4671 51.0941 34.1475 51.4505 34.6578C51.9653 35.3808 52.005 35.3382 52.1634 34.5303C52.203 34.2751 52.9158 33.6798 52.6782 33.7223Z" fill="#D1DB39"/>
<path fill-rule="evenodd" clip-rule="evenodd" d="M56.5992 31.1707C55.4903 30.3628 53.8269 30.3202 52.8764 29.4272C52.2428 28.8319 51.1339 28.7468 50.421 28.5342C49.6685 28.279 51.0151 28.9595 51.1339 29.0445C52.52 29.7674 54.1042 31.0432 55.2923 31.9787C55.6883 32.2764 55.8467 32.6591 56.0052 31.8086C56.0844 31.596 56.6784 31.1707 56.5992 31.1707Z" fill="#D1DB39"/>
<path fill-rule="evenodd" clip-rule="evenodd" d="M44.282 40.9515C43.1731 38.3575 41.787 36.4439 43.2127 38.9103C43.6088 39.5907 40.4405 43.2479 39.6484 42.7376C38.6979 42.0997 38.183 40.7389 38.5395 40.016C40.4801 36.1887 37.4702 40.8239 35.886 42.2698C35.0147 43.0352 35.0543 43.7582 34.8167 43.8007C34.183 43.8857 34.4207 39.293 35.0939 38.4425C36.5989 36.5714 36.2424 37.7621 34.7771 40.3136C34.3018 41.1641 33.6682 42.61 33.1929 42.695C32.8365 42.7376 31.4108 39.8459 31.6484 38.6977C32.3216 35.806 31.7276 37.6346 31.3711 40.6964C31.1731 42.4824 30.7771 43.6306 30.381 43.503C29.7078 43.2904 28.282 40.1435 30.0642 40.2286C30.4999 40.2286 22.7375 42.61 23.2523 41.9721C23.9256 41.1216 25.0741 39.9734 26.7771 38.4425C26.2226 37.9322 22.8959 40.7389 23.0939 40.2711C24.6781 35.806 20.7177 40.4412 20.8761 39.3781C21.6286 34.998 22.4603 28.917 23.2127 24.792C23.3711 23.8565 23.7276 22.0704 24.6781 21.4751C25.4306 21.0073 26.0246 20.4545 26.9355 19.9442C27.4504 19.6465 29.8266 18.5409 29.7078 18.5409C36.9949 19.0512 37.6286 21.7302 38.9751 26.3655C40.1236 30.2778 42.0642 32.4891 44.9157 35.6359C46.5395 37.507 47.886 39.8884 44.282 40.9515Z" fill="#699B42"/>
<path fill-rule="evenodd" clip-rule="evenodd" d="M44.2821 40.9515C47.4505 38.9103 44.9158 37.7621 43.8069 39.4206C43.3317 40.1435 41.9455 42.8651 40.401 42.8651C39.4901 42.8651 39.2524 42.61 39.6089 41.8871C41.5495 38.0598 38.0247 41.3342 36.4802 42.7376C33.3515 45.5442 35.4505 42.4824 36.4406 41.2917C37.9455 39.4206 36.8762 38.1874 35.4109 40.7814C34.6188 42.1847 32.599 44.1409 33.2722 41.2492C33.9455 38.3575 32.3614 38.0598 32.0049 41.1216C31.4901 45.204 29.0742 43.5881 30.698 40.6538C30.8564 40.3562 19.9653 43.503 24.3217 41.1641C25.5099 40.5263 28.7574 40.4837 27.6881 39.5482C27.1336 39.0379 20.8762 41.4618 23.8861 39.6758C28.995 36.7415 20.2425 40.3562 20.9158 39.293C23.2524 35.5934 23.0544 29.3422 23.8465 25.2173C24.0049 24.2817 24.3614 22.4957 25.3118 21.9003C26.0643 21.4326 26.6584 20.8797 27.5693 20.3694C28.0841 20.0718 30.4604 18.9661 30.3416 18.9661C37.6287 19.4764 38.2623 22.1555 39.6089 26.7907C40.7574 30.703 42.698 32.9143 45.5495 36.0611C47.1336 38.0173 47.8861 39.8884 44.2821 40.9515Z" fill="#99CC33"/>
<path fill-rule="evenodd" clip-rule="evenodd" d="M45.7871 38.1874C44.5594 35.2532 42.4207 34.1475 40.9158 32.4891C40.3613 31.8937 40.1237 31.0432 39.6485 30.4479C39.292 30.0226 39.1336 29.2997 39.4108 30.3203C40.1237 33.1695 42.4999 34.998 43.3712 37.592C43.7277 38.6552 42.2623 40.4837 43.1732 39.6332C43.6485 39.0804 45.1138 37.8897 45.7871 38.1874Z" fill="#D1DB39"/>
<path fill-rule="evenodd" clip-rule="evenodd" d="M40.1234 39.8033C40.361 38.3149 39.6878 37.1242 39.4501 36.2312C38.9749 34.4452 38.5392 32.6166 38.3016 30.788C37.9848 28.7043 38.3412 32.6591 38.3808 33.1269C38.46 35.0405 38.6581 36.0186 38.5788 37.9322C38.5788 38.3149 38.1828 40.2286 38.262 40.4412C38.8957 40.3987 39.5689 39.6757 40.1234 39.8033Z" fill="#D1DB39"/>
<path fill-rule="evenodd" clip-rule="evenodd" d="M36.9952 39.0804C37.114 37.592 36.6387 36.3588 36.4803 35.4232C36.4011 34.998 36.4803 34.5727 36.4407 34.1475C36.4011 33.7648 36.3615 33.3395 36.2427 34.0624C36.0447 35.2957 35.7278 36.5714 35.5694 37.7621L35.2526 40.0585C35.213 40.2711 36.2823 38.9103 36.9952 39.0804Z" fill="#D1DB39"/>
<path fill-rule="evenodd" clip-rule="evenodd" d="M28.0442 39.7608C28.3611 38.9953 28.4007 38.2724 28.7175 37.507L30.8957 32.1063L31.569 30.3628L30.9749 31.4684L27.2917 38.6126C26.4997 40.101 27.6482 38.6551 28.0442 39.7608Z" fill="#D1DB39"/>
<path fill-rule="evenodd" clip-rule="evenodd" d="M25.6684 38.2724C25.7872 37.7196 25.8268 36.7415 26.104 36.1887C26.6981 35.0405 26.9753 34.105 27.2922 32.8718C27.807 31.0857 26.0248 35.1681 25.5892 35.806C25.1931 36.3588 24.4011 37.1243 23.8466 37.6346C23.0545 38.3575 23.0941 38.4425 24.2823 38.1874C24.7179 38.1023 25.8268 38.4425 25.6684 38.2724Z" fill="#D1DB39"/>
<path fill-rule="evenodd" clip-rule="evenodd" d="M30.6186 40.4412C31.2918 39.1229 30.7374 37.7622 31.6087 36.5289C32.1631 35.721 31.8859 34.7854 31.9255 34.0625C31.9651 33.3396 31.5294 34.7429 31.4898 34.913C31.0146 36.4014 29.8661 38.315 28.9948 39.7183C28.7176 40.1861 28.2423 40.4837 29.5096 40.2286C29.8265 40.1861 30.6582 40.4837 30.6186 40.4412Z" fill="#D1DB39"/>
<path fill-rule="evenodd" clip-rule="evenodd" d="M6.38108 21.9429C6.30187 22.8359 5.74741 23.814 5.74741 24.6645C5.74741 25.1748 6.89593 24.707 7.41078 24.707C7.84642 24.707 7.21276 27.0884 7.6484 27.0459C8.40088 26.9608 8.91573 27.1309 8.99494 27.9814C9.23256 30.9156 9.98504 30.2778 11.5692 30.5754C12.0048 30.6605 11.9256 32.4891 12.6781 32.1914C14.2623 31.596 13.9058 34.1901 14.2227 33.9349C17.985 31.1708 16.2425 36.614 18.4207 35.3808C19.688 34.6578 21.2722 34.4452 22.3811 33.4671C23.6088 32.404 18.8563 26.1954 18.1435 25.1323C16.7969 23.1336 12.5593 18.3708 10.2227 18.3708C8.99494 18.3708 7.41078 20.2419 5.6286 20.497C6.5791 21.1349 6.38108 21.9429 6.38108 21.9429Z" fill="#699B42"/>
<path fill-rule="evenodd" clip-rule="evenodd" d="M21.8269 36.1462C22.6982 36.3163 23.6091 35.8485 24.3616 36.1887C24.7972 36.3588 25.3517 36.0611 25.7873 36.0611C26.619 36.0611 25.3913 37.7196 26.421 37.3794C27.0546 37.1667 28.0843 36.3588 28.5992 35.9761C29.1141 35.5508 28.4012 35.5933 29.0348 35.9761C29.2725 36.1462 28.4804 37.3368 28.4804 37.677C28.4804 38.0598 29.4309 37.2518 29.5497 37.1667C29.8665 36.9541 30.421 36.5714 30.7774 36.4864C31.3715 36.4438 31.1735 36.3163 31.1735 36.9541C31.1735 37.1242 30.8566 38.0598 30.9754 38.1873C31.0942 38.3149 31.9259 37.5069 32.0051 37.3794C32.3616 36.9541 32.7972 36.3588 33.2725 36.8691C33.5497 37.1667 33.8269 38.0172 33.9061 38.4C34.8962 37.8046 35.7279 36.9116 36.52 36.4864C36.9556 36.2737 36.7972 36.8691 36.7972 37.1667C36.7972 37.4644 37.0348 37.8471 36.916 37.9322C37.3913 37.592 37.3121 37.8046 37.6289 37.3369C37.8665 36.9967 38.7378 35.6359 39.1735 35.891C39.6883 36.1887 39.5299 37.5069 39.8863 37.9747C40.2032 38.5701 41.1141 36.699 41.3121 36.4438C41.7873 35.8485 42.3814 34.9129 43.2527 34.9129C43.8071 34.9129 43.7279 35.1681 44.0844 35.3382C46.1438 36.2312 42.421 32.8292 42.619 32.7442C41.7477 30.5329 42.6982 29.6398 40.5596 28.7043C36.2824 26.8757 27.9259 27.8538 23.7675 29.98C21.8269 31.0432 21.7873 33.8498 21.8269 36.1462Z" fill="#699B42"/>
<path fill-rule="evenodd" clip-rule="evenodd" d="M58.4602 20.2419C58.1829 20.9223 57.7077 21.7728 58.4206 22.6233C58.6978 22.9635 59.0542 23.4738 59.2919 23.899C59.6087 24.4944 59.6483 24.707 59.2126 24.9196C59.0146 24.792 59.0542 24.7495 58.777 24.707C58.4206 24.707 56.4008 24.1542 57.3513 25.6425C57.5493 25.9402 57.5889 25.9827 57.5889 26.3655C57.074 27.0459 57.6285 26.5781 57.3117 26.5781C57.074 26.5781 56.7176 26.408 56.4008 26.408C56.0839 26.408 55.7275 26.2379 55.4107 26.2804C55.1334 26.6631 54.6186 27.216 55.0146 27.8538C55.0938 27.9814 55.7671 28.2366 55.6879 28.4067C55.5691 28.6618 53.5889 28.5342 54.2225 29.1296C54.6186 29.5123 55.2919 29.81 55.1334 30.5329L54.9354 30.4904C51.2522 29.3422 54.8166 32.6166 52.9552 31.511C52.3612 31.1708 51.2522 30.6605 51.3711 31.7236C51.5691 33.8924 51.8859 33.4671 49.7869 32.3615C48.7572 31.8087 49.5493 34.02 48.8364 34.5303C47.8859 35.2532 42.8958 34.1901 43.8067 32.7017C45.7473 29.5123 49.3909 26.7482 52.2423 24.5369C53.7473 23.3887 55.2126 21.5601 56.6384 20.6671C57.0344 20.6246 57.3117 20.412 57.5889 20.3269C57.9057 20.1568 58.1829 20.1143 58.4602 20.2419Z" fill="#699B42"/>
<path fill-rule="evenodd" clip-rule="evenodd" d="M32.4013 0C50.5003 0 58.223 12.6724 58.8171 21.0924C58.1834 29.5123 46.5795 36.2312 32.4013 36.2312C18.1834 36.2312 6.57947 29.5123 5.98541 21.0924C6.57947 12.6724 14.3022 0 32.4013 0Z" fill="#CF6030"/>
<path fill-rule="evenodd" clip-rule="evenodd" d="M33.6292 0.340158C46.6589 0.170058 56.7183 11.0139 57.2728 17.988C56.7183 24.9621 46.3421 30.5329 33.6292 30.5329C20.9164 30.5329 10.5401 24.9621 9.98566 17.988C10.5401 10.9714 20.5995 0.510257 33.6292 0.340158Z" fill="#FC9E14"/>
<path fill-rule="evenodd" clip-rule="evenodd" d="M35.9259 1.65846C42.4605 1.61593 47.4902 5.3156 47.7675 7.73952C47.4902 10.1209 42.3021 12.0345 35.9259 12.0345C29.5496 12.0345 24.3615 10.1209 24.0843 7.73952C24.4011 5.35813 29.4308 1.74351 35.9259 1.65846Z" fill="#FEBD30"/>
<path fill-rule="evenodd" clip-rule="evenodd" d="M21.1538 20.0718C21.9854 20.0718 22.6587 19.6465 22.6587 19.1787C22.6587 18.6684 21.9854 18.2857 21.1538 18.2857C20.3221 18.2857 19.6488 18.711 19.6488 19.1787C19.6488 19.689 20.3221 20.0718 21.1538 20.0718Z" fill="#E47B06"/>
<path fill-rule="evenodd" clip-rule="evenodd" d="M21.4707 19.604C22.3024 19.604 22.9757 19.1787 22.9757 18.711C22.9757 18.2007 22.3024 17.8179 21.4707 17.8179C20.639 17.8179 19.9658 18.2432 19.9658 18.711C19.9658 19.1787 20.639 19.604 21.4707 19.604Z" fill="#F8DAB0"/>
<path d="M31.2153 15.1414C31.3893 14.685 30.9069 14.0408 30.1378 13.7025C29.3686 13.3643 28.604 13.4601 28.4299 13.9165C28.2558 14.3729 28.7382 15.0171 29.5074 15.3553C30.2765 15.6936 31.0412 15.5978 31.2153 15.1414Z" fill="#E47B06"/>
<path d="M31.6954 14.838C31.8695 14.3816 31.3871 13.7374 30.6179 13.3991C29.8488 13.0609 29.0841 13.1567 28.9101 13.6131C28.736 14.0695 29.2184 14.7137 29.9875 15.0519C30.7567 15.3902 31.5213 15.2944 31.6954 14.838Z" fill="#F8DAB0"/>
<path d="M40.1823 19.2278C40.0132 18.7692 39.2496 18.6638 38.4768 18.9923C37.704 19.3208 37.2146 19.9589 37.3837 20.4175C37.5528 20.8761 38.3163 20.9815 39.0891 20.653C39.8619 20.3245 40.3514 19.6864 40.1823 19.2278Z" fill="#E47B06"/>
<path d="M40.3184 18.6911C40.1494 18.2325 39.3858 18.127 38.613 18.4555C37.8402 18.7841 37.3508 19.4221 37.5198 19.8807C37.6889 20.3393 38.4525 20.4447 39.2253 20.1162C39.9981 19.7877 40.4875 19.1496 40.3184 18.6911Z" fill="#F8DAB0"/>
<path d="M46.8442 12.4016C46.9161 11.9145 46.3091 11.4063 45.4882 11.2665C44.6674 11.1266 43.9436 11.4081 43.8716 11.8952C43.7996 12.3823 44.4067 12.8905 45.2276 13.0303C46.0484 13.1702 46.7722 12.8887 46.8442 12.4016Z" fill="#E47B06"/>
<path d="M47.2285 11.9871C47.3005 11.5 46.6934 10.9918 45.8725 10.8519C45.0517 10.7121 44.3279 10.9936 44.2559 11.4807C44.184 11.9678 44.791 12.476 45.6119 12.6158C46.4327 12.7557 47.1565 12.4742 47.2285 11.9871Z" fill="#F8DAB0"/>
<path d="M23.2211 7.05687C23.0162 6.61545 22.2471 6.58028 21.5032 6.97832C20.7593 7.37636 20.3223 8.05687 20.5272 8.49829C20.7321 8.93971 21.5012 8.97487 22.2451 8.57683C22.989 8.1788 23.4259 7.49828 23.2211 7.05687Z" fill="#E47B06"/>
<path d="M23.3359 6.43979C23.131 5.99832 22.3618 5.96312 21.6179 6.36116C20.8739 6.75919 20.4368 7.43975 20.6417 7.88121C20.8466 8.32268 21.6157 8.35788 22.3597 7.95985C23.1037 7.56181 23.5407 6.88125 23.3359 6.43979Z" fill="#F8DAB0"/>
<path d="M38.2756 12.0975C38.6452 11.6648 38.3697 10.7479 37.6605 10.0495C36.9512 9.35114 36.0766 9.1358 35.7071 9.56853C35.3375 10.0013 35.613 10.9182 36.3222 11.6165C37.0315 12.3149 37.9061 12.5302 38.2756 12.0975Z" fill="#E47B06"/>
<path d="M38.9111 11.9678C39.2807 11.5351 39.0053 10.6181 38.296 9.91962C37.5867 9.22116 36.7121 9.00574 36.3425 9.43846C35.973 9.87119 36.2483 10.7882 36.9576 11.4867C37.6669 12.1851 38.5415 12.4005 38.9111 11.9678Z" fill="#F8DAB0"/>
<path fill-rule="evenodd" clip-rule="evenodd" d="M50.5794 6.88904C51.3319 7.22924 51.7675 7.82459 51.5695 8.20731C51.3715 8.59004 50.619 8.67509 49.8665 8.33489C49.1141 7.99469 48.6784 7.39934 48.8764 7.01662C49.0745 6.63389 49.8269 6.59137 50.5794 6.88904Z" fill="#E47B06"/>
<path fill-rule="evenodd" clip-rule="evenodd" d="M51.0546 6.67643C51.807 7.01663 52.2427 7.61198 52.0447 7.9947C51.8466 8.37743 51.0942 8.46248 50.3417 8.12228C49.5892 7.78208 49.1536 7.18673 49.3516 6.80401C49.5496 6.37876 50.3417 6.33623 51.0546 6.67643Z" fill="#F8DAB0"/>
<path fill-rule="evenodd" clip-rule="evenodd" d="M13.7875 10.8013C14.54 11.1415 14.9757 11.7369 14.7776 12.1196C14.5796 12.5023 13.8271 12.5874 13.0747 12.2472C12.3222 11.907 11.8865 11.3116 12.0846 10.9289C12.2826 10.5462 13.0351 10.4611 13.7875 10.8013Z" fill="#E47B06"/>
<path fill-rule="evenodd" clip-rule="evenodd" d="M14.3025 10.5462C15.055 10.8864 15.4907 11.4817 15.2926 11.8644C15.0946 12.2472 14.3421 12.3322 13.5897 11.992C12.8372 11.6518 12.4016 11.0565 12.5996 10.6738C12.758 10.291 13.5501 10.206 14.3025 10.5462Z" fill="#F8DAB0"/>
<path d="M30.2811 1.6198C29.9266 1.30622 29.2108 1.6104 28.6823 2.29921C28.1539 2.98801 28.0129 3.8006 28.3674 4.11418C28.7219 4.42776 29.4377 4.12358 29.9661 3.43477C30.4946 2.74597 30.6356 1.93338 30.2811 1.6198Z" fill="#E47B06"/>
<path d="M30.1859 1.04528C29.8314 0.731699 29.1156 1.03588 28.5872 1.72468C28.0587 2.41348 27.9177 3.22607 28.2722 3.53965C28.6267 3.85323 29.3425 3.54905 29.871 2.86025C30.3994 2.17145 30.5404 1.35886 30.1859 1.04528Z" fill="#F8DAB0"/>
<path d="M42.1384 2.62673C42.2104 2.13965 41.6034 1.63134 40.7825 1.4914C39.9617 1.35147 39.2378 1.63289 39.1658 2.11997C39.0938 2.60706 39.7008 3.11536 40.5217 3.2553C41.3425 3.39524 42.0664 3.11382 42.1384 2.62673Z" fill="#E47B06"/>
<path d="M42.5236 2.2122C42.5957 1.72511 41.9886 1.21681 41.1678 1.07687C40.3469 0.936931 39.6231 1.21835 39.5511 1.70544C39.479 2.19253 40.0861 2.70083 40.9069 2.84077C41.7278 2.98071 42.4516 2.69929 42.5236 2.2122Z" fill="#F8DAB0"/>
<path fill-rule="evenodd" clip-rule="evenodd" d="M28.7576 8.76015C29.5101 8.41995 30.223 8.505 30.3418 8.93025C30.4606 9.3555 29.9853 9.99337 29.2329 10.3336C28.4804 10.6738 27.7675 10.5887 27.6487 10.1635C27.5299 9.73822 28.0051 9.10035 28.7576 8.76015Z" fill="#E47B06"/>
<path fill-rule="evenodd" clip-rule="evenodd" d="M28.9162 8.20729C29.6687 7.86709 30.3816 7.95214 30.5004 8.37739C30.6192 8.80264 30.1439 9.44052 29.3915 9.78072C28.639 10.1209 27.9261 10.0359 27.8073 9.61062C27.6885 9.18537 28.2033 8.54749 28.9162 8.20729Z" fill="#F8DAB0"/>
<path fill-rule="evenodd" clip-rule="evenodd" d="M41.5892 6.29365C42.3813 6.16608 43.0545 6.46375 43.0545 6.889C43.0545 7.35678 42.4209 7.82455 41.6288 7.9096C40.8367 8.03717 40.1634 7.7395 40.1634 7.31425C40.1238 6.889 40.7575 6.42123 41.5892 6.29365Z" fill="#E47B06"/>
<path fill-rule="evenodd" clip-rule="evenodd" d="M41.8666 5.82594C42.6587 5.69837 43.3319 5.99604 43.3319 6.42129C43.3319 6.88906 42.6983 7.35684 41.9062 7.44189C41.1141 7.56946 40.4409 7.27179 40.4409 6.84654C40.4409 6.42129 41.0745 5.95351 41.8666 5.82594Z" fill="#F8DAB0"/>
<path fill-rule="evenodd" clip-rule="evenodd" d="M51.4114 12.1621C51.9658 12.8 52.1638 13.5229 51.8074 13.8206C51.4906 14.1183 50.7381 13.8206 50.1836 13.1827C49.6292 12.5449 49.4312 11.8219 49.7876 11.5243C50.144 11.2266 50.8569 11.5243 51.4114 12.1621Z" fill="#E47B06"/>
<path fill-rule="evenodd" clip-rule="evenodd" d="M51.9656 12.1196C52.5201 12.7575 52.7181 13.4804 52.3617 13.7781C52.0448 14.0757 51.2923 13.778 50.7379 13.1402C50.1834 12.5023 49.9854 11.7794 50.3419 11.4817C50.6587 11.2266 51.4112 11.5242 51.9656 12.1196Z" fill="#F8DAB0"/>
<path fill-rule="evenodd" clip-rule="evenodd" d="M21.5101 1.36077C22.3022 1.06309 23.0547 1.14814 23.1735 1.57339C23.3319 1.95612 22.7775 2.50894 22.025 2.76409C21.2329 3.06177 20.4804 2.97672 20.3616 2.55147C20.2032 2.21127 20.7577 1.65844 21.5101 1.36077Z" fill="#E47B06"/>
<path fill-rule="evenodd" clip-rule="evenodd" d="M21.7083 0.893041C22.5004 0.595367 23.2528 0.680417 23.3716 1.10567C23.5301 1.48839 22.9756 2.04121 22.2231 2.29636C21.4311 2.59404 20.6786 2.50899 20.5598 2.08374C20.4013 1.74354 20.9162 1.19072 21.7083 0.893041Z" fill="#F8DAB0"/>
<path fill-rule="evenodd" clip-rule="evenodd" d="M15.7282 4.80535C16.6787 4.7203 17.4708 5.01797 17.5104 5.44322C17.5104 5.86847 16.7579 6.29372 15.8074 6.37877C14.8569 6.46382 14.0648 6.16615 14.0252 5.7409C13.9856 5.31565 14.7381 4.8904 15.7282 4.80535Z" fill="#E47B06"/>
<path fill-rule="evenodd" clip-rule="evenodd" d="M16.0845 4.3801C17.035 4.29505 17.8271 4.59273 17.8667 5.01797C17.8667 5.44322 17.1142 5.86847 16.1637 5.95352C15.2132 6.03857 14.4212 5.7409 14.3816 5.31565C14.3419 4.8904 15.134 4.46515 16.0845 4.3801Z" fill="#F8DAB0"/>
<path fill-rule="evenodd" clip-rule="evenodd" d="M32.4011 0C49.9456 0 57.708 11.8645 58.7377 20.2844C56.7179 27.9389 45.708 33.7648 32.4407 33.7648C19.0149 33.7648 7.92584 27.8113 6.06445 20.0718C7.21297 11.6944 15.0149 0 32.4011 0Z" fill="#E47B06"/>
<path fill-rule="evenodd" clip-rule="evenodd" d="M33.6286 0.340158C46.6583 0.170058 56.7177 11.0139 57.2722 17.988C56.7177 24.9621 46.3415 30.5329 33.6286 30.5329C20.9157 30.5329 10.5395 24.9621 9.98505 17.988C10.5395 10.9714 20.5989 0.510257 33.6286 0.340158Z" fill="#FC9E14"/>
<path fill-rule="evenodd" clip-rule="evenodd" d="M35.9259 1.65846C42.4605 1.61593 47.4902 5.3156 47.7675 7.73952C47.4902 10.1209 42.3021 12.0345 35.9259 12.0345C29.5496 12.0345 24.3615 10.1209 24.0843 7.73952C24.4011 5.35813 29.4308 1.74351 35.9259 1.65846Z" fill="#FEBD30"/>
<path d="M21.1537 20.0718C21.9849 20.0718 22.6586 19.6719 22.6586 19.1787C22.6586 18.6855 21.9849 18.2857 21.1537 18.2857C20.3225 18.2857 19.6487 18.6855 19.6487 19.1787C19.6487 19.6719 20.3225 20.0718 21.1537 20.0718Z" fill="#E47B06"/>
<path d="M21.4701 19.604C22.3013 19.604 22.9751 19.2042 22.9751 18.711C22.9751 18.2178 22.3013 17.8179 21.4701 17.8179C20.6389 17.8179 19.9651 18.2178 19.9651 18.711C19.9651 19.2042 20.6389 19.604 21.4701 19.604Z" fill="#F8DAB0"/>
<path d="M31.2165 15.1428C31.3906 14.6864 30.9082 14.0422 30.139 13.704C29.3698 13.3657 28.6052 13.4615 28.4311 13.9179C28.257 14.3744 28.7394 15.0186 29.5086 15.3568C30.2777 15.695 31.0424 15.5992 31.2165 15.1428Z" fill="#E47B06"/>
<path d="M31.6965 14.8406C31.8707 14.3842 31.3884 13.7399 30.6193 13.4015C29.8503 13.0631 29.0856 13.1587 28.9114 13.615C28.7373 14.0714 29.2195 14.7157 29.9886 15.0541C30.7577 15.3925 31.5223 15.2969 31.6965 14.8406Z" fill="#F8DAB0"/>
<path d="M40.1832 19.2303C40.0141 18.7718 39.2506 18.6664 38.4779 18.995C37.7051 19.3236 37.2158 19.9617 37.3849 20.4203C37.5541 20.8788 38.3176 20.9841 39.0903 20.6555C39.863 20.3269 40.3524 19.6888 40.1832 19.2303Z" fill="#E47B06"/>
<path d="M40.317 18.6935C40.1479 18.235 39.3844 18.1297 38.6117 18.4583C37.8389 18.7869 37.3496 19.425 37.5187 19.8835C37.6878 20.342 38.4514 20.4474 39.2241 20.1188C39.9968 19.7901 40.4861 19.1521 40.317 18.6935Z" fill="#F8DAB0"/>
<path d="M46.8479 12.4028C46.9199 11.9157 46.3128 11.4074 45.492 11.2675C44.6711 11.1275 43.9473 11.4089 43.8753 11.896C43.8033 12.3831 44.4103 12.8914 45.2312 13.0314C46.052 13.1713 46.7758 12.8899 46.8479 12.4028Z" fill="#E47B06"/>
<path d="M47.2299 11.9834C47.3018 11.4962 46.6946 10.9881 45.8736 10.8484C45.0527 10.7088 44.3289 10.9904 44.2571 11.4776C44.1852 11.9647 44.7924 12.4728 45.6133 12.6125C46.4343 12.7522 47.158 12.4705 47.2299 11.9834Z" fill="#F8DAB0"/>
<path d="M23.22 7.05487C23.0152 6.6134 22.246 6.5782 21.502 6.97624C20.758 7.37427 20.321 8.05483 20.5259 8.49629C20.7307 8.93776 21.4999 8.97296 22.2439 8.57493C22.9878 8.17689 23.4249 7.49633 23.22 7.05487Z" fill="#E47B06"/>
<path d="M23.3369 6.44163C23.132 6.00021 22.3629 5.96505 21.619 6.36309C20.8752 6.76113 20.4382 7.44164 20.643 7.88306C20.8479 8.32447 21.617 8.35964 22.3609 7.9616C23.1048 7.56356 23.5418 6.88305 23.3369 6.44163Z" fill="#F8DAB0"/>
<path d="M38.2778 12.0966C38.6474 11.6639 38.3722 10.7469 37.663 10.0483C36.9538 9.34976 36.0792 9.13421 35.7096 9.56688C35.3399 9.99955 35.6152 10.9166 36.3244 11.6152C37.0336 12.3137 37.9081 12.5293 38.2778 12.0966Z" fill="#E47B06"/>
<path d="M38.912 11.9697C39.2816 11.537 39.0062 10.62 38.2969 9.92152C37.5877 9.22306 36.7131 9.00764 36.3435 9.44037C35.9739 9.8731 36.2492 10.7901 36.9585 11.4886C37.6678 12.187 38.5424 12.4024 38.912 11.9697Z" fill="#F8DAB0"/>
<path fill-rule="evenodd" clip-rule="evenodd" d="M50.5794 6.88904C51.3319 7.22924 51.7675 7.82459 51.5695 8.20731C51.3715 8.59004 50.619 8.67509 49.8665 8.33489C49.1141 7.99469 48.6784 7.39934 48.8764 7.01662C49.0745 6.63389 49.8269 6.59137 50.5794 6.88904Z" fill="#E47B06"/>
<path fill-rule="evenodd" clip-rule="evenodd" d="M51.0545 6.67643C51.807 7.01663 52.2426 7.61198 52.0446 7.9947C51.8466 8.37743 51.0941 8.46248 50.3416 8.12228C49.5892 7.78208 49.1535 7.18673 49.3515 6.80401C49.5495 6.37876 50.3416 6.33623 51.0545 6.67643Z" fill="#F8DAB0"/>
<path fill-rule="evenodd" clip-rule="evenodd" d="M13.7869 10.8013C14.5394 11.1415 14.975 11.7369 14.777 12.1196C14.579 12.5023 13.8265 12.5874 13.074 12.2472C12.3216 11.907 11.8859 11.3116 12.084 10.9289C12.282 10.5462 13.0344 10.4611 13.7869 10.8013Z" fill="#E47B06"/>
<path fill-rule="evenodd" clip-rule="evenodd" d="M14.3019 10.5462C15.0544 10.8864 15.4901 11.4817 15.292 11.8644C15.094 12.2472 14.3415 12.3322 13.5891 11.992C12.8366 11.6518 12.4009 11.0565 12.599 10.6738C12.7574 10.291 13.5495 10.206 14.3019 10.5462Z" fill="#F8DAB0"/>
<path d="M30.2784 1.61925C29.9238 1.30567 29.208 1.60992 28.6795 2.29882C28.1511 2.98771 28.0101 3.80037 28.3647 4.11395C28.7192 4.42753 29.435 4.12327 29.9635 3.43438C30.492 2.74549 30.6329 1.93283 30.2784 1.61925Z" fill="#E47B06"/>
<path d="M30.183 1.04463C29.8284 0.731055 29.1126 1.03531 28.5841 1.7242C28.0557 2.41309 27.9147 3.22575 28.2693 3.53933C28.6238 3.85291 29.3397 3.54866 29.8681 2.85977C30.3966 2.17088 30.5375 1.35821 30.183 1.04463Z" fill="#F8DAB0"/>
<path d="M42.1388 2.62699C42.2108 2.13991 41.6037 1.6316 40.7829 1.49166C39.962 1.35173 39.2382 1.63315 39.1662 2.12023C39.0942 2.60732 39.7012 3.11562 40.5221 3.25556C41.3429 3.3955 42.0667 3.11408 42.1388 2.62699Z" fill="#E47B06"/>
<path d="M42.524 2.21244C42.596 1.72536 41.989 1.21705 41.1681 1.07711C40.3473 0.937175 39.6235 1.21859 39.5514 1.70568C39.4794 2.19277 40.0865 2.70107 40.9073 2.84101C41.7282 2.98095 42.452 2.69953 42.524 2.21244Z" fill="#F8DAB0"/>
<path fill-rule="evenodd" clip-rule="evenodd" d="M28.7576 8.76015C29.5101 8.41995 30.223 8.505 30.3418 8.93025C30.4606 9.3555 29.9853 9.99337 29.2329 10.3336C28.4804 10.6738 27.7675 10.5887 27.6487 10.1635C27.5299 9.73822 28.0051 9.10035 28.7576 8.76015Z" fill="#E47B06"/>
<path fill-rule="evenodd" clip-rule="evenodd" d="M28.9156 8.20729C29.6681 7.86709 30.381 7.95214 30.4998 8.37739C30.6186 8.80264 30.1433 9.44052 29.3909 9.78072C28.6384 10.1209 27.9255 10.0359 27.8067 9.61062C27.6879 9.18537 28.2027 8.54749 28.9156 8.20729Z" fill="#F8DAB0"/>
<path fill-rule="evenodd" clip-rule="evenodd" d="M41.5891 6.29365C42.3812 6.16608 43.0545 6.46375 43.0545 6.889C43.0545 7.35678 42.4208 7.82455 41.6287 7.9096C40.8366 8.03717 40.1634 7.7395 40.1634 7.31425C40.1238 6.889 40.7574 6.42123 41.5891 6.29365Z" fill="#E47B06"/>
<path fill-rule="evenodd" clip-rule="evenodd" d="M41.8666 5.82594C42.6587 5.69837 43.3319 5.99604 43.3319 6.42129C43.3319 6.88906 42.6983 7.35684 41.9062 7.44189C41.1141 7.56946 40.4409 7.27179 40.4409 6.84654C40.4409 6.42129 41.0745 5.95351 41.8666 5.82594Z" fill="#F8DAB0"/>
<path fill-rule="evenodd" clip-rule="evenodd" d="M51.4108 12.1621C51.9652 12.8 52.1632 13.5229 51.8068 13.8206C51.49 14.1183 50.7375 13.8206 50.183 13.1827C49.6286 12.5449 49.4305 11.8219 49.787 11.5243C50.1434 11.2266 50.8563 11.5243 51.4108 12.1621Z" fill="#E47B06"/>
<path fill-rule="evenodd" clip-rule="evenodd" d="M51.9656 12.1196C52.5201 12.7575 52.7181 13.4804 52.3617 13.7781C52.0448 14.0757 51.2923 13.778 50.7379 13.1402C50.1834 12.5023 49.9854 11.7794 50.3419 11.4817C50.6587 11.2266 51.4112 11.5242 51.9656 12.1196Z" fill="#F8DAB0"/>
<path fill-rule="evenodd" clip-rule="evenodd" d="M21.5101 1.36077C22.3022 1.06309 23.0547 1.14814 23.1735 1.57339C23.3319 1.95612 22.7775 2.50894 22.025 2.76409C21.2329 3.06177 20.4804 2.97672 20.3616 2.55147C20.2032 2.21127 20.7577 1.65844 21.5101 1.36077Z" fill="#E47B06"/>
<path fill-rule="evenodd" clip-rule="evenodd" d="M21.7083 0.893041C22.5004 0.595367 23.2528 0.680417 23.3716 1.10567C23.5301 1.48839 22.9756 2.04121 22.2231 2.29636C21.4311 2.59404 20.6786 2.50899 20.5598 2.08374C20.4013 1.74354 20.9162 1.19072 21.7083 0.893041Z" fill="#F8DAB0"/>
<path fill-rule="evenodd" clip-rule="evenodd" d="M15.7276 4.80535C16.6781 4.7203 17.4702 5.01797 17.5098 5.44322C17.5098 5.86847 16.7573 6.29372 15.8068 6.37877C14.8563 6.46382 14.0642 6.16615 14.0246 5.7409C13.985 5.31565 14.7375 4.8904 15.7276 4.80535Z" fill="#E47B06"/>
<path fill-rule="evenodd" clip-rule="evenodd" d="M16.0845 4.3801C17.035 4.29505 17.827 4.59273 17.8666 5.01797C17.8666 5.44322 17.1142 5.86847 16.1637 5.95352C15.2132 6.03857 14.4211 5.7409 14.3815 5.31565C14.3419 4.8904 15.134 4.46515 16.0845 4.3801Z" fill="#F8DAB0"/>
<path fill-rule="evenodd" clip-rule="evenodd" d="M14.1832 46.0545C14.4208 46.0545 14.5793 45.7143 14.5793 45.2891C14.5793 44.8638 14.3812 44.5236 14.1832 44.5236C13.9456 44.5236 13.7872 44.8638 13.7872 45.2891C13.7476 45.7143 13.9456 46.0545 14.1832 46.0545Z" fill="#883C3D"/>
<path d="M14.1833 45.6293C14.402 45.6293 14.5793 45.3818 14.5793 45.0764C14.5793 44.7711 14.402 44.5236 14.1833 44.5236C13.9645 44.5236 13.7872 44.7711 13.7872 45.0764C13.7872 45.3818 13.9645 45.6293 14.1833 45.6293Z" fill="#652D2D"/>
<path d="M15.3713 47.3727C15.5463 47.3727 15.6881 47.0872 15.6881 46.7349C15.6881 46.3826 15.5463 46.097 15.3713 46.097C15.1963 46.097 15.0544 46.3826 15.0544 46.7349C15.0544 47.0872 15.1963 47.3727 15.3713 47.3727Z" fill="#883C3D"/>
<path d="M15.3713 46.99C15.5463 46.99 15.6881 46.7996 15.6881 46.5648C15.6881 46.3299 15.5463 46.1395 15.3713 46.1395C15.1963 46.1395 15.0544 46.3299 15.0544 46.5648C15.0544 46.7996 15.1963 46.99 15.3713 46.99Z" fill="#652D2D"/>
<path d="M26.3815 49.6691C26.6002 49.6691 26.7775 49.3264 26.7775 48.9037C26.7775 48.4809 26.6002 48.1382 26.3815 48.1382C26.1627 48.1382 25.9854 48.4809 25.9854 48.9037C25.9854 49.3264 26.1627 49.6691 26.3815 49.6691Z" fill="#883C3D"/>
<path d="M26.3815 49.2439C26.6002 49.2439 26.7775 48.9964 26.7775 48.6911C26.7775 48.3857 26.6002 48.1382 26.3815 48.1382C26.1627 48.1382 25.9854 48.3857 25.9854 48.6911C25.9854 48.9964 26.1627 49.2439 26.3815 49.2439Z" fill="#652D2D"/>
<path d="M38.0247 51.3276C38.1996 51.3276 38.3415 51.042 38.3415 50.6897C38.3415 50.3374 38.1996 50.0518 38.0247 50.0518C37.8497 50.0518 37.7078 50.3374 37.7078 50.6897C37.7078 51.042 37.8497 51.3276 38.0247 51.3276Z" fill="#883C3D"/>
<path d="M38.0247 50.9449C38.1996 50.9449 38.3415 50.7545 38.3415 50.5196C38.3415 50.2848 38.1996 50.0944 38.0247 50.0944C37.8497 50.0944 37.7078 50.2848 37.7078 50.5196C37.7078 50.7545 37.8497 50.9449 38.0247 50.9449Z" fill="#652D2D"/>
<path d="M25.0743 49.7967C25.2493 49.7967 25.3911 49.5111 25.3911 49.1588C25.3911 48.8065 25.2493 48.5209 25.0743 48.5209C24.8993 48.5209 24.7574 48.8065 24.7574 49.1588C24.7574 49.5111 24.8993 49.7967 25.0743 49.7967Z" fill="#883C3D"/>
<path d="M25.0743 49.414C25.2493 49.414 25.3911 49.2236 25.3911 48.9887C25.3911 48.7539 25.2493 48.5635 25.0743 48.5635C24.8993 48.5635 24.7574 48.7539 24.7574 48.9887C24.7574 49.2236 24.8993 49.414 25.0743 49.414Z" fill="#652D2D"/>
<path d="M36.2823 49.5415C36.4573 49.5415 36.5991 49.2559 36.5991 48.9037C36.5991 48.5514 36.4573 48.2658 36.2823 48.2658C36.1073 48.2658 35.9655 48.5514 35.9655 48.9037C35.9655 49.2559 36.1073 49.5415 36.2823 49.5415Z" fill="#883C3D"/>
<path d="M36.2823 49.1163C36.4573 49.1163 36.5991 48.9259 36.5991 48.691C36.5991 48.4562 36.4573 48.2658 36.2823 48.2658C36.1073 48.2658 35.9655 48.4562 35.9655 48.691C35.9655 48.9259 36.1073 49.1163 36.2823 49.1163Z" fill="#652D2D"/>
<path fill-rule="evenodd" clip-rule="evenodd" d="M23.3715 48.9037C23.6884 48.9037 23.926 48.4359 23.926 47.8405C23.926 47.2452 23.6884 46.7774 23.3715 46.7774C23.0547 46.7774 22.8171 47.2452 22.8171 47.8405C22.8171 48.4359 23.0547 48.9037 23.3715 48.9037Z" fill="#883C3D"/>
<path fill-rule="evenodd" clip-rule="evenodd" d="M23.3715 48.3083C23.6884 48.3083 23.926 47.9681 23.926 47.5429C23.926 47.1176 23.6884 46.7774 23.3715 46.7774C23.0547 46.7774 22.8171 47.1176 22.8171 47.5429C22.8171 47.9681 23.0547 48.3083 23.3715 48.3083Z" fill="#652D2D"/>
<path d="M20.9557 49.0737C21.1307 49.0737 21.2725 48.7882 21.2725 48.4359C21.2725 48.0836 21.1307 47.798 20.9557 47.798C20.7807 47.798 20.6389 48.0836 20.6389 48.4359C20.6389 48.7882 20.7807 49.0737 20.9557 49.0737Z" fill="#883C3D"/>
<path d="M20.9557 48.6485C21.1307 48.6485 21.2725 48.4581 21.2725 48.2232C21.2725 47.9884 21.1307 47.798 20.9557 47.798C20.7807 47.798 20.6389 47.9884 20.6389 48.2232C20.6389 48.4581 20.7807 48.6485 20.9557 48.6485Z" fill="#652D2D"/>
<path fill-rule="evenodd" clip-rule="evenodd" d="M34.2226 49.1163C34.4602 49.1163 34.6186 48.7761 34.6186 48.3508C34.6186 47.9256 34.4206 47.5854 34.2226 47.5854C34.0246 47.5854 33.8265 47.9256 33.8265 48.3508C33.8265 48.7761 34.0246 49.1163 34.2226 49.1163Z" fill="#883C3D"/>
<path d="M34.2226 48.691C34.4413 48.691 34.6186 48.4435 34.6186 48.1382C34.6186 47.8329 34.4413 47.5854 34.2226 47.5854C34.0038 47.5854 33.8265 47.8329 33.8265 48.1382C33.8265 48.4435 34.0038 48.691 34.2226 48.691Z" fill="#652D2D"/>
<path fill-rule="evenodd" clip-rule="evenodd" d="M31.2921 51.4126C31.5297 51.4126 31.6881 51.0724 31.6881 50.6471C31.6881 50.2219 31.4901 49.8817 31.2921 49.8817C31.0545 49.8817 30.8961 50.2219 30.8961 50.6471C30.8961 51.0724 31.0545 51.4126 31.2921 51.4126Z" fill="#883C3D"/>
<path d="M31.2921 50.9873C31.5108 50.9873 31.6881 50.7398 31.6881 50.4345C31.6881 50.1292 31.5108 49.8817 31.2921 49.8817C31.0734 49.8817 30.8961 50.1292 30.8961 50.4345C30.8961 50.7398 31.0734 50.9873 31.2921 50.9873Z" fill="#652D2D"/>
<path fill-rule="evenodd" clip-rule="evenodd" d="M23.9255 52.0079C25.7077 53.1136 27.4503 54.3893 29.3117 55.3249C30.9354 56.1329 32.3612 56.0903 33.3513 55.4525C35.2127 54.3043 36.282 53.3262 38.1037 52.3056C33.5097 53.6239 29.2325 53.5814 23.9255 52.0079Z" fill="#FFF38A"/>
</svg>
