<svg width="40" height="63" viewBox="0 0 40 63" fill="none" xmlns="http://www.w3.org/2000/svg">
<path fill-rule="evenodd" clip-rule="evenodd" d="M2.17224 34.2469H37.749L31.8767 56.3117H31.7623C31.7623 59.4842 26.2333 62.0565 19.4077 62.0565C13.2304 62.0565 8.12077 59.9415 7.20561 57.1977C7.12935 57.0262 7.01495 56.5403 6.93869 56.2831L2.17224 34.2469Z" fill="#CAD5DD"/>
<path fill-rule="evenodd" clip-rule="evenodd" d="M2.17224 34.2469H37.749L32.6012 53.6251H32.525C32.525 53.768 32.525 53.9109 32.4868 54.0823L32.3343 54.7111C31.2666 57.5693 25.8519 59.77 19.4077 59.77C13.3448 59.77 8.27329 57.8551 6.74803 55.2828L2.17224 34.2469Z" fill="#CAD5DD"/>
<path fill-rule="evenodd" clip-rule="evenodd" d="M37.2588 36.1332L31.8822 56.3116C31.8059 56.5403 31.8059 56.7975 31.7297 57.0547C30.9289 59.8843 25.7049 62.085 19.4132 62.085C16.172 62.085 13.2359 61.5134 11.0242 60.5702C10.8336 60.1129 10.7573 59.627 10.7954 59.1411H10.681L7.66864 36.1332H37.2588Z" fill="#D7DFE2"/>
<path fill-rule="evenodd" clip-rule="evenodd" d="M37.2577 36.1332L32.6057 53.625L32.4913 54.0537L32.3388 54.6825C31.2329 57.5406 25.8564 59.7128 19.4122 59.7128C16.0184 59.7128 12.9298 59.1126 10.6038 58.1408L7.7439 36.1332H37.2577Z" fill="#D7DFE2"/>
<path fill-rule="evenodd" clip-rule="evenodd" d="M33.1366 36.1332L29.171 59.8843C26.9212 61.2276 23.4131 62.085 19.4474 62.085C17.6171 62.085 15.9012 61.9135 14.3378 61.5706L12.8125 36.6477L18.6466 36.1618H33.1366V36.1332Z" fill="#CD8C5D"/>
<path fill-rule="evenodd" clip-rule="evenodd" d="M33.1366 36.1332L29.171 59.8843C26.9212 61.2276 23.4131 62.085 19.4474 62.085C17.6171 62.085 15.9012 61.9135 14.3378 61.5706L12.8125 36.6477L18.6466 36.1618H33.1366V36.1332Z" fill="#F4F4F7"/>
<path fill-rule="evenodd" clip-rule="evenodd" d="M33.1366 36.1332L29.5523 57.512C27.15 58.8839 23.4893 59.7414 19.4093 59.7414C17.5408 59.7414 15.7868 59.5699 14.1852 59.2269L12.8125 36.6191L18.6466 36.1332H33.1366Z" fill="#EAECED"/>
<path fill-rule="evenodd" clip-rule="evenodd" d="M33.6021 34.2469L29.5983 57.4835C27.196 58.8554 23.4972 59.7414 19.379 59.7414C15.8709 59.7414 12.6678 59.1127 10.3037 58.0551L7.36755 34.2469H33.6021Z" fill="#F2AD01"/>
<path fill-rule="evenodd" clip-rule="evenodd" d="M29.5523 57.512C27.15 58.8839 23.4893 59.7414 19.4093 59.7414C17.5408 59.7414 15.7868 59.5699 14.1852 59.2269L12.8125 36.6191L18.6466 36.1332H33.1366L29.5523 57.512Z" fill="#FFCB05"/>
<path fill-rule="evenodd" clip-rule="evenodd" d="M33.6021 34.2469L30.0559 54.8255C27.4629 56.2545 23.6116 57.1405 19.3027 57.1405C15.7565 57.1405 12.4772 56.5118 9.99864 55.5114L7.36755 34.2469H33.6021Z" fill="#DA242C"/>
<path fill-rule="evenodd" clip-rule="evenodd" d="M29.9718 54.8826C27.3788 56.2831 23.5657 57.1691 19.2949 57.1691C17.4265 57.1691 15.6343 56.9976 13.9946 56.6832L12.7744 36.6477L18.6085 36.1618H33.0986L29.9718 54.8826Z" fill="#ED1C24"/>
<path fill-rule="evenodd" clip-rule="evenodd" d="M20.5181 43.1642L21.2426 44.8507H23.6068L21.7002 45.9083L22.4247 47.5948L20.5181 46.5372L18.5734 47.5948L19.3361 45.9083L17.3914 44.8507H19.7936L20.5181 43.1642Z" fill="#FFCB05"/>
<path d="M13.6514 53.8542C13.4226 53.7971 13.2319 53.7113 13.0794 53.597C12.9269 53.4826 12.8125 53.3111 12.7362 53.1396C12.6599 52.9395 12.6218 52.7109 12.6218 52.4536C12.6218 52.2821 12.6599 52.082 12.6981 51.8819C12.7362 51.6818 12.8125 51.4532 12.8887 51.2245C12.965 50.9958 13.0794 50.7671 13.1938 50.5385C13.3082 50.3098 13.4607 50.0811 13.6132 49.881L13.537 48.4804C13.4988 48.5376 13.4226 48.5662 13.3844 48.6233C13.1175 48.852 12.8887 49.0807 12.6599 49.3379C12.4311 49.5952 12.2405 49.8524 12.0498 50.1097C11.8592 50.367 11.7066 50.6528 11.5923 50.9101C11.4779 51.1673 11.3635 51.4532 11.3253 51.7104C11.2491 51.9677 11.2109 52.1963 11.2109 52.425C11.2109 52.7394 11.2872 53.0539 11.4016 53.3683C11.5541 53.6541 11.7448 53.9114 11.9736 54.1401C12.2024 54.3687 12.5074 54.5403 12.8887 54.6546C13.1938 54.7689 13.537 54.7975 13.9183 54.7975L13.8802 53.9114C13.7658 53.8542 13.6895 53.8542 13.6514 53.8542Z" fill="#EAECED"/>
<path d="M14.7215 48.6809C14.9122 48.538 15.141 48.395 15.3697 48.3093C15.5985 48.195 15.8273 48.1378 16.0561 48.1092C16.2468 48.0806 16.4374 48.0806 16.5518 48.1092C16.7044 48.1378 16.8187 48.1664 16.895 48.2521C16.9713 48.3093 17.0475 48.395 17.0857 48.4808C17.1238 48.5666 17.1619 48.6809 17.1619 48.7952C17.1619 48.9953 17.1238 49.1954 17.0094 49.3955C16.895 49.5956 16.7425 49.7385 16.59 49.91C16.4374 50.0529 16.2086 50.1673 16.018 50.2816C15.7892 50.3674 15.5985 50.4245 15.3697 50.4531C15.2935 50.4531 15.2172 50.4531 15.1791 50.4531C15.141 50.4531 15.1028 50.4531 15.0647 50.4245C15.0266 50.4245 14.9884 50.4245 14.9503 50.3959C14.9122 50.3959 14.874 50.3959 14.8359 50.3959C14.7596 50.3959 14.7215 50.4245 14.6834 50.4531C14.6452 50.4817 14.6071 50.5103 14.6071 50.5674C14.6071 50.596 14.569 50.6532 14.569 50.7104C14.569 50.7675 14.569 50.7961 14.569 50.8533C14.569 50.8819 14.569 50.9105 14.569 50.939C14.569 50.9676 14.569 50.9962 14.569 50.9962C14.569 51.1105 14.6452 51.1963 14.7978 51.2249C14.9503 51.282 15.1791 51.282 15.446 51.2535C15.6748 51.2249 15.9036 51.1677 16.1324 51.082C16.3612 50.9962 16.59 50.8819 16.7806 50.7389C16.9713 50.596 17.2001 50.4531 17.3526 50.253C17.5432 50.0815 17.6958 49.8814 17.8102 49.7099C17.9246 49.5098 18.039 49.3097 18.1152 49.1096C18.1915 48.9096 18.2296 48.7095 18.2296 48.538C18.2296 48.2807 18.1534 48.052 18.039 47.8805C17.9246 47.709 17.772 47.5661 17.5814 47.4804C17.3907 47.3946 17.1619 47.3088 16.9331 47.2803C16.7044 47.2517 16.4374 47.2517 16.2086 47.2803C15.8655 47.3374 15.4841 47.4232 15.1791 47.5375C14.8359 47.6519 14.5308 47.8234 14.2258 47.9949C13.997 48.1378 13.7682 48.2807 13.5394 48.4522L13.6157 49.8528C13.7682 49.6242 13.9589 49.4241 14.1114 49.224C14.3021 49.0239 14.4927 48.8524 14.7215 48.6809Z" fill="#F4F4F7"/>
<path d="M30.3919 48.1088C30.2394 48.3375 30.0869 48.5661 29.8962 48.7662C29.8199 48.8519 29.7437 48.9377 29.6674 49.0234C29.5912 49.1092 29.5149 49.1949 29.4386 49.2521C29.3624 49.3378 29.2861 49.395 29.2098 49.4522C29.1336 49.5093 29.0573 49.5379 28.9811 49.5665C28.9048 49.5951 28.8285 49.5951 28.7904 49.5379C28.7523 49.4807 28.7523 49.395 28.7523 49.2807C28.7523 49.1378 28.7904 48.9663 28.8285 48.7662C28.8667 48.5661 28.9429 48.3661 28.9811 48.1946C29.0192 48.0231 29.0573 47.8802 29.0954 47.7087C29.1336 47.5658 29.1336 47.4229 29.1336 47.3086C29.1336 47.2228 29.1336 47.1656 29.0954 47.1371C29.0954 47.1085 29.0573 47.0799 29.0192 47.0513C28.9811 47.0513 28.9429 47.0513 28.9048 47.0513C28.8667 47.0513 28.8285 47.0799 28.7523 47.1085C28.7141 47.1371 28.676 47.1371 28.6379 47.1656C28.5997 47.1942 28.5616 47.1942 28.5235 47.2228C28.4853 47.2514 28.4472 47.2514 28.4091 47.28C28.3709 47.28 28.3328 47.3086 28.2947 47.3086C28.2566 47.3086 28.2184 47.3086 28.1803 47.28C28.1422 47.2514 28.1422 47.2514 28.104 47.2228C28.0659 47.1942 28.0278 47.1942 27.9896 47.1942C27.9515 47.1942 27.8752 47.1942 27.799 47.2228C27.5702 47.3086 27.3414 47.4229 27.1507 47.5944C26.9219 47.7373 26.7313 47.9088 26.5406 48.1088C26.5025 48.1374 26.4644 48.1946 26.4262 48.2232C26.2737 48.3946 26.1212 48.5376 26.0068 48.7376C25.9305 48.8234 25.8924 48.9091 25.8161 49.0234C25.7399 49.1663 25.6255 49.3092 25.5492 49.4807C25.4348 49.7094 25.3586 49.9095 25.2823 50.0809C25.2823 50.1381 25.2442 50.1667 25.2442 50.2238C25.206 50.3953 25.1679 50.5382 25.1679 50.7097C25.1298 50.7383 25.0535 50.7955 25.0154 50.8241C24.901 50.9098 24.8247 50.967 24.7484 51.0241L24.7103 51.0527C24.6341 51.1099 24.5578 51.1384 24.4815 51.1956C24.4053 51.2528 24.329 51.2814 24.2527 51.2814C24.2146 51.2814 24.2146 51.2814 24.1765 51.2528C24.1383 51.2242 24.1383 51.1956 24.1002 51.167C24.0621 51.1384 24.0621 51.0813 24.0239 51.0241C24.0239 50.967 23.9858 50.9098 23.9858 50.8526C23.9858 50.8241 23.9858 50.8241 23.9858 50.7955C23.9858 50.7383 24.0239 50.6811 24.0239 50.624C24.0239 50.5668 24.0621 50.5097 24.0621 50.4525C24.0621 50.3953 24.1002 50.3668 24.1002 50.3096C24.1002 50.2524 24.1383 50.2238 24.1383 50.1953C24.2909 49.938 24.4434 49.6522 24.6341 49.3664V49.3378C24.7866 49.052 24.9772 48.7662 25.1298 48.4804L25.2442 48.3089C25.3967 48.0803 25.5111 47.823 25.6636 47.5944C25.7017 47.5086 25.7399 47.4229 25.8161 47.3371C25.9305 47.1371 26.0068 46.937 26.1212 46.7369C26.2356 46.4511 26.35 46.1653 26.4262 45.9081C26.4262 45.8509 26.4644 45.7937 26.4644 45.7366C26.5025 45.5365 26.5406 45.3364 26.5406 45.165C26.5406 45.0792 26.5406 44.9935 26.5025 44.9077C26.5025 44.8791 26.4644 44.8506 26.4644 44.822C26.4262 44.7934 26.4262 44.7362 26.3881 44.7077C26.35 44.6505 26.2356 44.6219 26.1593 44.6219C26.0831 44.6219 25.9687 44.6219 25.8543 44.6505C25.8161 44.6505 25.8161 44.6505 25.778 44.6791C25.6255 44.7362 25.4729 44.822 25.2823 44.9077C25.2442 44.9363 25.206 44.9649 25.1679 44.9935C25.0154 45.1078 24.8247 45.2793 24.6722 45.4508C24.6341 45.4794 24.5959 45.5079 24.5959 45.5651C24.4053 45.7652 24.2527 46.0224 24.0621 46.2796C23.9096 46.5369 23.757 46.8227 23.6045 47.0799C23.452 47.3657 23.2994 47.7373 23.1851 48.166L23.1088 48.4232C23.0325 48.6805 22.9944 48.8234 22.9944 48.8234C22.9944 48.8234 22.9563 49.0234 22.8419 49.4522C22.8419 49.5093 22.8037 49.5951 22.8037 49.6522C22.6512 49.5665 22.4987 49.5093 22.308 49.4522C22.0792 49.395 21.8123 49.3664 21.5454 49.3378C21.2785 49.3378 20.9734 49.3664 20.6684 49.4236C20.5158 49.4521 20.3633 49.5093 20.2108 49.5665C20.0201 49.6236 19.8676 49.7094 19.6769 49.7951C19.3719 49.9666 19.1431 50.1381 18.9524 50.3382C18.9143 50.3953 18.8381 50.4525 18.7999 50.5097C18.6855 50.6811 18.5711 50.8526 18.4949 51.0241C18.3805 51.2814 18.3423 51.5386 18.3423 51.853C18.1136 51.9959 17.8848 52.1388 17.6941 52.3103C17.4272 52.4818 17.1984 52.6533 16.9315 52.8533C16.6646 53.0248 16.4358 53.1963 16.1307 53.3392C15.8638 53.4821 15.5969 53.5964 15.2918 53.7108C14.9868 53.7965 14.6817 53.8823 14.3385 53.9108C14.1479 53.9394 13.9572 53.9108 13.8047 53.9108L13.8428 54.7968C13.881 54.7968 13.9572 54.7968 13.9953 54.7968C14.3767 54.7683 14.758 54.7111 15.063 54.6539C15.4062 54.5682 15.6731 54.4825 15.9782 54.3967C16.2451 54.2824 16.512 54.1966 16.7027 54.0537C16.9315 53.9394 17.1221 53.7965 17.3128 53.6822C17.5035 53.5679 17.6941 53.4249 17.8466 53.282C17.9992 53.1391 18.1517 52.9962 18.3042 52.8819C18.3423 52.8247 18.4186 52.7962 18.4567 52.739C18.4949 52.8247 18.5711 52.9105 18.6474 52.9962C18.6855 53.0248 18.7237 53.0534 18.7618 53.082C18.8762 53.1677 19.0287 53.2249 19.1812 53.282C19.3719 53.3392 19.6388 53.3392 19.9057 53.282C19.982 53.2535 20.0964 53.2535 20.1727 53.1963C20.2871 53.1677 20.3633 53.1106 20.4777 53.082C20.6684 52.9962 20.8209 52.8819 20.9734 52.7676C21.1259 52.6533 21.2403 52.5103 21.3547 52.3674C21.4691 52.2245 21.5835 52.0816 21.6598 51.9101C21.7361 51.7672 21.8123 51.5957 21.8504 51.4528C21.8886 51.2814 21.9267 51.1384 21.9267 50.9955C21.9267 50.7955 21.8886 50.624 21.8504 50.4811C21.8123 50.3382 21.7361 50.1953 21.6217 50.0809C21.6217 50.0524 21.6598 50.0524 21.6598 50.0238C21.7742 50.0524 21.9267 50.0809 22.0792 50.1381C22.2318 50.1953 22.4224 50.2524 22.5749 50.3382C22.6131 50.3668 22.6512 50.3668 22.6893 50.3953C22.6893 50.4525 22.6893 50.5097 22.6893 50.5382C22.6893 50.8241 22.7275 51.0813 22.8037 51.3099C22.88 51.5386 22.9563 51.7387 23.0707 51.9101C23.0707 51.9387 23.1088 51.9673 23.1088 51.9959C23.2232 52.1102 23.3376 52.2245 23.452 52.2817C23.6045 52.3674 23.757 52.3674 23.9477 52.3103C24.0621 52.2817 24.1765 52.2245 24.329 52.1674C24.4434 52.1102 24.5959 52.0245 24.7103 51.9673C24.8628 51.8816 24.9772 51.7958 25.1298 51.7101C25.206 51.6529 25.2823 51.6243 25.3204 51.5672C25.3586 51.5386 25.3967 51.51 25.4348 51.4814C25.4729 51.51 25.5111 51.5386 25.5492 51.5386C25.6255 51.5957 25.7399 51.5957 25.8543 51.6243C25.8924 51.6243 25.8924 51.6243 25.9305 51.6243C26.0831 51.6243 26.2356 51.5957 26.3881 51.5386C26.4262 51.5386 26.4644 51.51 26.4644 51.51C26.5788 51.4528 26.6932 51.3957 26.8076 51.3385C26.9601 51.2528 27.1126 51.1384 27.227 51.0527C27.3795 50.9384 27.4939 50.8241 27.6083 50.7097C27.7227 50.5954 27.8371 50.4811 27.9134 50.3953C28.0278 50.5382 28.1422 50.6526 28.2947 50.6811C28.4472 50.7383 28.6379 50.7097 28.8285 50.624C29.0192 50.5382 29.1717 50.4525 29.3624 50.3096C29.553 50.1667 29.7056 49.9952 29.8581 49.8523C30.0106 49.6808 30.1631 49.5093 30.2775 49.3664C30.3919 49.1949 30.5063 49.052 30.5826 48.9377C30.5826 48.5947 30.5063 48.3375 30.3919 48.1088ZM20.9734 51.3671C20.9353 51.5672 20.859 51.7387 20.7828 51.8816C20.7065 52.0245 20.6302 52.1674 20.5158 52.2531C20.4396 52.3389 20.3633 52.396 20.2871 52.4246C20.2489 52.4246 20.2489 52.4532 20.2108 52.4532C20.0964 52.4818 19.982 52.4818 19.8676 52.4532C19.7913 52.4246 19.7151 52.396 19.6388 52.3389C19.6007 52.2817 19.5244 52.2245 19.5244 52.1388C19.4863 52.053 19.4863 51.9673 19.4863 51.853C19.4863 51.6529 19.5244 51.4528 19.5626 51.2814C19.6007 51.1099 19.6769 50.9384 19.7913 50.7955C19.8676 50.6526 19.982 50.5097 20.0964 50.3953C20.1345 50.3382 20.2108 50.3096 20.2489 50.281C20.3252 50.2524 20.4014 50.2238 20.4396 50.1953C20.554 50.1667 20.6302 50.1667 20.7065 50.1953C20.7828 50.2238 20.8209 50.2524 20.8972 50.3382C20.9353 50.3953 20.9734 50.4811 21.0116 50.5668C21.0497 50.6526 21.0497 50.7669 21.0497 50.8812C21.0497 50.9955 21.0116 51.167 20.9734 51.3671ZM24.1383 48.3946C24.2146 48.0517 24.2527 47.8516 24.2527 47.8516C24.2527 47.8516 24.329 47.6515 24.4815 47.2514C24.5578 46.9942 24.6722 46.7655 24.7484 46.594C24.7866 46.5083 24.8247 46.4225 24.8628 46.3654C24.9772 46.1653 25.0535 46.0224 25.1679 45.8795C25.2442 45.7937 25.2823 45.7366 25.3586 45.708C25.3967 45.6794 25.4348 45.6794 25.4729 45.6508C25.5111 45.6508 25.5111 45.6508 25.5111 45.708C25.5111 45.7652 25.5111 45.8223 25.5111 45.8795C25.5111 46.0796 25.4348 46.2796 25.3586 46.5083C25.3586 46.5654 25.3204 46.6226 25.2823 46.6798C25.1679 46.9656 25.0535 47.28 24.901 47.5944C24.8628 47.7087 24.7866 47.823 24.7103 47.9373C24.6341 48.1374 24.5197 48.3089 24.4053 48.4804C24.2527 48.7662 24.1002 49.052 23.9477 49.2807C24.0239 49.052 24.0621 48.7376 24.1383 48.3946ZM27.6846 49.2521C27.6464 49.3378 27.6464 49.4521 27.6083 49.5665C27.5702 49.7094 27.4939 49.8523 27.4177 49.9666C27.3414 50.1095 27.2651 50.2238 27.1507 50.3382C27.0363 50.4525 26.9601 50.5382 26.8076 50.5668C26.7313 50.5954 26.655 50.5954 26.6169 50.5954C26.5788 50.5954 26.5406 50.5668 26.5025 50.5097C26.4644 50.4811 26.4644 50.4239 26.4644 50.3953C26.4644 50.3382 26.4644 50.281 26.4644 50.2238C26.4644 50.1095 26.5025 49.9952 26.5406 49.8523V49.8237C26.5788 49.7094 26.655 49.5379 26.7313 49.3664C26.8076 49.1663 26.9219 48.9948 26.9982 48.8519C27.0745 48.709 27.1889 48.5661 27.3033 48.4518C27.4177 48.3375 27.5321 48.2232 27.6464 48.1088C27.7608 48.0231 27.9134 47.9373 28.0278 47.8802C27.9134 48.3661 27.799 48.7948 27.6846 49.2521Z" fill="#F4F4F7"/>
<path fill-rule="evenodd" clip-rule="evenodd" d="M2.17224 34.2469H37.749L37.0245 36.9339C33.5545 39.6494 27.1866 41.4502 19.9416 41.4502C12.6203 41.4502 6.25232 39.6208 2.74421 36.9053L2.17224 34.2469Z" fill="#B6C3CC"/>
<path fill-rule="evenodd" clip-rule="evenodd" d="M33.603 34.3326L32.726 39.3634C29.256 40.7069 24.7946 41.5358 19.9138 41.5358C15.4905 41.5358 11.3723 40.8498 8.05485 39.7064L7.40662 34.3326H33.603Z" fill="#C8252F"/>
<path fill-rule="evenodd" clip-rule="evenodd" d="M38.7373 1.92147C40.4151 0.606731 37.8984 -0.650845 36.602 0.378081L24.2855 9.98139L26.4208 11.5248L38.7373 1.92147Z" fill="#F8BB33"/>
<path fill-rule="evenodd" clip-rule="evenodd" d="M19.9809 21.0138C28.9418 21.0138 36.5682 23.7861 39.0848 27.5589H39.9237V29.5881C39.9619 29.8168 40 30.074 40 30.3027C40 35.4473 31.0391 39.5916 20.0191 39.5916C8.99905 39.5916 0 35.4187 0 30.3027V27.5589H0.877026C3.39371 23.7576 10.9819 21.0138 19.9809 21.0138Z" fill="#CAD5DD"/>
<path fill-rule="evenodd" clip-rule="evenodd" d="M39.8856 29.874V30.1313C39.8856 30.1884 39.8856 30.217 39.9238 30.2742C39.2755 35.1335 30.6197 38.9924 19.981 38.9924C8.96093 39.0209 0 34.8477 0 29.7025C0 29.6167 0 29.5024 0 29.4167C0.305053 34.4189 9.11345 38.4493 19.9428 38.4493C30.4671 38.4493 39.0849 34.6762 39.8856 29.874Z" fill="#A2B3BC"/>
<path fill-rule="evenodd" clip-rule="evenodd" d="M19.9809 36.1332C30.9628 36.1332 39.9619 31.9603 39.9619 26.8443C39.9619 21.7283 31.001 17.5554 19.9809 17.5554C8.96092 17.5554 0 21.7283 0 26.8443C0 31.9603 8.96092 36.1332 19.9809 36.1332Z" fill="url(#paint0_linear_2_2400)"/>
<path fill-rule="evenodd" clip-rule="evenodd" d="M19.9849 18.1842C30.2423 18.1842 38.5932 22.0713 38.5932 26.8444C38.5932 31.6174 30.2423 35.5045 19.9849 35.5045V34.9614C29.5941 34.9614 37.4111 31.3316 37.4111 26.8444C37.4111 22.3571 29.5941 18.7273 19.9849 18.7273V18.1842ZM19.9849 35.5045C9.72753 35.5045 1.37671 31.6174 1.37671 26.8444C1.37671 22.0713 9.72753 18.1842 19.9849 18.1842V18.7273C10.3758 18.7273 2.55879 22.3571 2.55879 26.8444C2.55879 31.3316 10.3758 34.9614 19.9849 34.9614V35.5045Z" fill="#CAD5DD"/>
<path fill-rule="evenodd" clip-rule="evenodd" d="M19.9791 33.0751C27.3766 33.0751 33.4014 30.2741 33.4014 26.8443C33.4014 23.4146 27.3766 20.6136 19.9791 20.6136C12.5816 20.6136 6.55676 23.4146 6.55676 26.8443C6.55676 30.2741 12.5816 33.0751 19.9791 33.0751Z" fill="#CAD5DD"/>
<path fill-rule="evenodd" clip-rule="evenodd" d="M19.9781 22.1856C26.8037 22.1856 32.4471 24.5579 33.286 27.6161C32.4471 30.6742 26.8037 33.0465 19.9781 33.0465C13.1525 33.0465 7.50906 30.6742 6.67017 27.6161C7.50906 24.5579 13.1525 22.1856 19.9781 22.1856Z" fill="#EAECED"/>
<path fill-rule="evenodd" clip-rule="evenodd" d="M19.9771 31.7897C24.5529 31.7897 28.2898 30.0461 28.2898 27.9308C28.2898 25.787 24.5529 24.072 19.9771 24.072C15.4013 24.072 11.6644 25.8156 11.6644 27.9308C11.6644 30.0461 15.4013 31.7897 19.9771 31.7897Z" fill="#CAD5DD"/>
<path fill-rule="evenodd" clip-rule="evenodd" d="M19.9771 30.7036C24.5529 30.7036 28.2898 28.96 28.2898 26.8447C28.2898 24.7009 24.5529 22.9859 19.9771 22.9859C15.4013 22.9859 11.6644 24.7295 11.6644 26.8447C11.6644 28.96 15.4013 30.7036 19.9771 30.7036Z" fill="url(#paint1_linear_2_2400)"/>
<path fill-rule="evenodd" clip-rule="evenodd" d="M20.129 27.902C21.3873 27.902 22.3787 27.4447 22.3787 26.8444C22.3787 26.2727 21.3492 25.7868 20.129 25.7868C18.8706 25.7868 17.8792 26.2442 17.8792 26.8444C17.8792 27.4447 18.8706 27.902 20.129 27.902Z" fill="#98ABB6"/>
<path fill-rule="evenodd" clip-rule="evenodd" d="M26.9665 10.9541C27.4241 9.52503 24.5261 9.15347 24.0685 10.3825L18.5394 27.5884C19.5309 28.0171 20.5604 28.0171 21.59 27.6741L26.9665 10.9541Z" fill="url(#paint2_linear_2_2400)"/>
<defs>
<linearGradient id="paint0_linear_2_2400" x1="19.9696" y1="17.5454" x2="19.9696" y2="36.1356" gradientUnits="userSpaceOnUse">
<stop stop-color="#F4F4F7"/>
<stop offset="1" stop-color="white"/>
</linearGradient>
<linearGradient id="paint1_linear_2_2400" x1="19.9658" y1="22.97" x2="19.9658" y2="30.7123" gradientUnits="userSpaceOnUse">
<stop stop-color="#F4F4F7"/>
<stop offset="1" stop-color="white"/>
</linearGradient>
<linearGradient id="paint2_linear_2_2400" x1="42.4323" y1="-1.26634" x2="15.5962" y2="48.0128" gradientUnits="userSpaceOnUse">
<stop stop-color="#F18C2C"/>
<stop offset="1" stop-color="#E02F2B"/>
</linearGradient>
</defs>
</svg>
