<svg width="56" height="58" viewBox="0 0 56 58" fill="none" xmlns="http://www.w3.org/2000/svg">
<path fill-rule="evenodd" clip-rule="evenodd" d="M2.99347 28.7957L52.0486 27.9413L43.3811 49.0894C41.5206 53.6609 35.1221 57.506 26.6361 57.506C18.1956 57.506 11.4794 53.789 9.89113 49.1322L2.99347 28.7957Z" fill="#CAD5DD"/>
<path fill-rule="evenodd" clip-rule="evenodd" d="M38.935 54.1308C37.1198 55.3271 34.8509 56.3097 32.2642 56.8652C30.4037 57.2497 28.407 57.4206 26.3196 57.4206C25.8658 57.4206 25.3666 57.4206 24.9128 57.3778C20.7379 57.1215 17.1075 55.968 14.4302 54.259L10.4368 30.6328L45.1066 30.0774L38.935 54.1308Z" fill="#D7DFE2"/>
<path fill-rule="evenodd" clip-rule="evenodd" d="M36.6198 55.4126C35.3038 56.0107 33.8063 56.5234 32.218 56.8652C30.3575 57.2497 28.3608 57.4206 26.2733 57.4206C25.8195 57.4206 25.3204 57.4206 24.8666 57.3779C22.5976 57.2497 20.4648 56.8224 18.5588 56.1816L18.1958 30.5474L40.6132 30.1629L36.6198 55.4126Z" fill="#F3F6F9"/>
<path fill-rule="evenodd" clip-rule="evenodd" d="M2.99347 28.7957L52.0486 27.9413L44.0164 47.0387C41.3844 51.1829 34.8044 54.1736 26.8176 54.1736C18.2863 54.1736 11.1164 50.7557 9.07431 46.1415L2.99347 28.7957Z" fill="#C8252F"/>
<path fill-rule="evenodd" clip-rule="evenodd" d="M39.708 51.012C36.3953 52.9773 31.9027 54.1736 26.8202 54.1736C21.7378 54.1736 17.1091 52.9773 13.7964 51.012L10.3475 30.6756L45.0174 30.1201L39.708 51.012Z" fill="#DA242C"/>
<path fill-rule="evenodd" clip-rule="evenodd" d="M30.3711 43.8602C30.2349 43.6465 30.0534 43.5184 29.8719 43.3902C29.7811 43.3475 29.6904 43.3047 29.5542 43.262C29.4635 43.2193 29.4181 43.2193 29.3273 43.2193C29.282 43.2193 29.1912 43.1766 29.1458 43.1766H29.1004C28.8282 43.1339 28.5559 43.1339 28.2836 43.1766C28.1928 43.1766 28.1475 43.2193 28.1021 43.2193C27.9206 43.262 27.6937 43.3047 27.5122 43.3475C27.376 43.3902 27.2399 43.4329 27.1037 43.4756C26.9676 43.5184 26.8315 43.6038 26.7407 43.6893C26.5592 43.7747 26.4231 43.9029 26.2869 44.031C26.06 44.2447 25.8785 44.4583 25.7877 44.6719C25.697 44.8855 25.6062 45.1419 25.6062 45.3555C25.6062 45.5691 25.6516 45.74 25.7424 45.9109C25.7424 45.9536 25.7424 45.9963 25.7877 45.9963C25.8331 46.0818 25.8785 46.1245 25.9239 46.21C26.0146 46.3381 26.1054 46.4236 26.1962 46.509C26.3777 46.6372 26.5592 46.8081 26.7861 46.8935C27.013 47.0217 27.2399 47.1072 27.4668 47.1926C27.5122 47.1926 27.5575 47.2353 27.6029 47.2353C27.7844 47.3208 27.966 47.4062 28.1475 47.4489C28.3744 47.5344 28.5559 47.6198 28.7374 47.748C28.8282 47.8335 28.9643 47.8762 29.0097 47.9616C29.0551 48.0043 29.1004 48.0471 29.1458 48.0898C29.1458 48.1325 29.1912 48.1752 29.1912 48.1752C29.2366 48.3034 29.282 48.4316 29.282 48.6025C29.282 48.7734 29.2366 48.9443 29.1458 49.0724C29.1458 49.1152 29.1004 49.1579 29.1004 49.2006C29.0551 49.2433 29.0551 49.2861 29.0097 49.3288C28.9189 49.457 28.7828 49.5851 28.6466 49.7133C28.5105 49.8415 28.329 49.9269 28.1475 50.0124C28.1021 50.0551 28.0567 50.0551 28.0113 50.0978C27.7844 50.1833 27.5575 50.226 27.2853 50.2687C27.1037 50.3114 26.8768 50.2687 26.6953 50.2687C26.65 50.2687 26.6046 50.226 26.5592 50.226C26.4231 50.1833 26.3323 50.1405 26.1962 50.0978C26.1508 50.0551 26.1054 50.0551 26.06 50.0124C25.9693 49.9269 25.8785 49.8842 25.8331 49.756C25.7424 49.6278 25.697 49.4569 25.697 49.2433C25.697 49.1579 25.697 49.0724 25.697 48.987C25.697 48.9443 25.697 48.9015 25.697 48.8588C25.697 48.8161 25.697 48.8161 25.697 48.7734C25.697 48.7306 25.7424 48.6452 25.7424 48.6025C25.7424 48.5598 25.7424 48.517 25.7424 48.517V48.4743C25.7424 48.3889 25.697 48.3034 25.6516 48.2607C25.6062 48.218 25.5155 48.1752 25.4247 48.1752C25.3793 48.1752 25.3793 48.1752 25.3339 48.1752C25.2886 48.1752 25.1978 48.218 25.1524 48.2607C25.0617 48.3034 24.9709 48.3889 24.8802 48.4743C24.7894 48.5598 24.744 48.6879 24.6533 48.8161C24.6079 48.9443 24.5625 49.1152 24.5625 49.2861C24.5625 49.6278 24.6533 49.9269 24.7894 50.1833C24.9255 50.4396 25.1071 50.6105 25.3793 50.7814L25.4247 50.8241C25.697 50.995 25.9693 51.1232 26.2869 51.1659C26.6046 51.2086 26.9676 51.2513 27.2853 51.2086C27.3306 51.2086 27.3306 51.2086 27.376 51.2086C27.5575 51.1659 27.7391 51.1659 27.9206 51.0804C27.966 51.0804 28.0113 51.0805 28.0567 51.0377C28.2836 50.9523 28.5105 50.8668 28.7374 50.7387C28.7828 50.6959 28.8282 50.6959 28.8735 50.6532C29.0551 50.5678 29.1912 50.4396 29.3727 50.3114C29.5542 50.1405 29.7357 49.9696 29.8719 49.756C29.9173 49.7133 29.9626 49.6278 30.008 49.5851C30.0988 49.457 30.1442 49.2861 30.2349 49.1579C30.2803 49.0297 30.3257 48.9443 30.3257 48.8161C30.3257 48.6879 30.3711 48.5598 30.3711 48.4316C30.3711 48.4316 30.3711 48.4316 30.3711 48.3889C30.3711 48.1752 30.3257 48.0471 30.2803 47.8762C30.2803 47.8335 30.2349 47.748 30.2349 47.7053C30.1895 47.6198 30.1442 47.5344 30.0534 47.4489C29.9626 47.3635 29.9173 47.278 29.7811 47.1926C29.5996 47.0644 29.4181 46.9363 29.1912 46.8508C29.1004 46.8081 28.9643 46.7654 28.8735 46.7226C28.7374 46.6799 28.6466 46.6372 28.5105 46.5517C28.329 46.4663 28.1475 46.4236 27.966 46.3381C27.9206 46.3381 27.8752 46.2954 27.8298 46.2954C27.6029 46.21 27.4214 46.1245 27.2399 45.9963C27.0584 45.9109 26.9222 45.7827 26.8315 45.6118C26.7407 45.4836 26.6953 45.3128 26.6953 45.1419C26.6953 45.0991 26.6953 45.0564 26.6953 45.0137V44.971C26.6953 44.9282 26.7407 44.8855 26.7407 44.8428C26.7861 44.8001 26.7861 44.7573 26.8315 44.7146C26.8768 44.6719 26.9222 44.6292 26.9676 44.5865L27.013 44.5437C27.0584 44.501 27.1037 44.4583 27.1491 44.4583L27.1945 44.4156C27.2853 44.3728 27.3306 44.3301 27.4214 44.2874C27.5575 44.2447 27.6937 44.2019 27.8752 44.1592C27.9206 44.1592 28.0113 44.1165 28.0567 44.1165C28.2836 44.0738 28.4651 44.0738 28.692 44.0738C28.8282 44.0738 28.9643 44.1165 29.0551 44.1165C29.1004 44.1165 29.1458 44.1165 29.1912 44.1592C29.282 44.2019 29.3273 44.2447 29.3727 44.2874C29.4181 44.3301 29.4635 44.3728 29.5089 44.4156C29.5089 44.4583 29.5542 44.4583 29.5542 44.501C29.5996 44.5865 29.645 44.6719 29.645 44.7573C29.645 44.8428 29.645 44.971 29.5996 45.0564C29.5996 45.0991 29.5542 45.1419 29.5542 45.1846C29.5542 45.2273 29.5089 45.3128 29.4635 45.3555C29.4635 45.3982 29.4181 45.3982 29.4181 45.4409C29.4181 45.4836 29.3727 45.4837 29.3727 45.5264C29.3273 45.6118 29.282 45.6973 29.2366 45.7827V45.8254C29.2366 45.8682 29.1912 45.9109 29.1912 45.9536V45.9963C29.1912 46.0391 29.1912 46.0818 29.1912 46.1245V46.1672C29.1912 46.2527 29.2366 46.2954 29.282 46.3381C29.3273 46.3381 29.3273 46.3808 29.3727 46.3808C29.4181 46.3808 29.4181 46.3808 29.4635 46.3808C29.5542 46.3808 29.6904 46.2954 29.8265 46.1672C29.8719 46.1245 29.9173 46.0818 29.9173 46.0391C30.008 45.9536 30.0988 45.8254 30.1895 45.6973C30.3257 45.4837 30.3711 45.3128 30.4618 45.0991C30.4618 45.0564 30.4618 45.0137 30.5072 44.971C30.5526 44.8428 30.5526 44.7146 30.5526 44.5865C30.5526 44.2874 30.5072 44.031 30.3711 43.8602Z" fill="#FFF3AD"/>
<path fill-rule="evenodd" clip-rule="evenodd" d="M2.99347 28.7957H51.6855L49.1443 34.8625C44.1526 38.7076 36.2112 41.1856 27.3168 41.1856C18.1048 41.1856 9.93651 38.494 4.94478 34.4352L2.99347 28.7957Z" fill="#C8252F"/>
<path fill-rule="evenodd" clip-rule="evenodd" d="M27.4091 32.0427C42.4751 32.0427 54.8183 24.8651 54.8183 16.0214C54.8183 7.17757 42.4751 0 27.4091 0C12.3432 0 0 7.17757 0 16.0214C0 24.8651 12.2978 32.0427 27.4091 32.0427Z" fill="url(#paint0_linear_2_1645)"/>
<path fill-rule="evenodd" clip-rule="evenodd" d="M27.4091 30.8037C41.2952 30.8037 52.64 24.1388 52.64 16.0214C52.64 7.90387 41.2952 1.23898 27.4091 1.23898C13.4777 1.23898 2.13281 7.86115 2.13281 16.0214C2.13281 24.1816 13.4777 30.8037 27.4091 30.8037Z" fill="#CAD5DD"/>
<path fill-rule="evenodd" clip-rule="evenodd" d="M27.4091 5.93857C39.707 5.93857 48.0568 11.4072 51.5056 17.9439H54.7275V20.7209C54.7729 21.1482 54.8183 21.5327 54.8183 21.9599C54.8183 30.8037 42.5659 37.9813 27.4091 37.9813C12.2524 37.9813 0 30.8037 0 21.9599V17.9439H4.26566C7.71449 11.4072 15.066 5.93857 27.4091 5.93857Z" fill="#E2E7EB"/>
<path fill-rule="evenodd" clip-rule="evenodd" d="M41.5202 2.1789C41.5202 4.3578 41.8379 6.1522 41.611 3.97329C41.5656 3.37516 44.606 2.05073 44.9691 2.73431C45.3775 3.50333 45.3321 4.65687 44.8783 4.99866C42.564 6.83577 45.7859 4.82776 47.1927 4.48597C47.9641 4.27236 48.1456 3.8024 48.2818 3.84512C48.6902 4.01601 47.2834 7.04939 46.6027 7.34846C45.1052 8.07476 45.6498 7.39118 47.3288 6.19492C47.8733 5.81041 48.6902 5.04138 49.0078 5.16955C49.2347 5.255 49.3255 7.77569 48.8263 8.45927C47.5557 10.1682 48.4633 9.14285 49.5524 7.22029C50.1877 6.10947 50.7776 5.46862 50.9591 5.68224C51.3222 6.06675 51.3676 8.71561 50.2331 8.03204C49.9608 7.86114 55.5425 9.14285 55.0433 9.39919C54.3626 9.74098 53.3189 10.04 51.8214 10.4673C52.0482 11.0227 54.9525 10.3391 54.6803 10.6382C52.4113 13.0734 56.2232 11.4499 55.8147 12.0481C54.0903 14.7396 51.8667 18.542 50.1877 21.0627C49.8247 21.6609 49.0986 22.729 48.3271 22.7717C47.7372 22.8144 47.1927 22.9853 46.4666 22.9426C46.0582 22.9426 44.243 22.8144 44.2884 22.8571C39.7958 19.781 40.1588 17.7303 40.6126 14.0988C40.9757 11.0227 40.3857 8.80106 39.4782 5.59679C39.0697 3.67423 38.9336 1.53804 41.5202 2.1789Z" fill="#699B42"/>
<path fill-rule="evenodd" clip-rule="evenodd" d="M41.5223 2.17888C38.9357 2.3925 40.2063 4.10145 41.3862 3.41787C41.8854 3.1188 43.519 1.75165 44.5174 2.34978C45.1073 2.69157 45.1527 2.94791 44.7443 3.2897C42.4299 5.12681 45.6065 4.22962 46.9679 3.88783C49.736 3.16153 47.5578 4.44324 46.6048 4.87047C45.1073 5.59677 45.4703 6.79304 47.1494 5.59677C48.057 4.95592 49.8721 4.35779 48.6469 6.06673C47.3763 7.77568 48.3292 8.5447 49.4183 6.62214C50.8705 4.05872 51.9596 6.02401 50.099 7.43389C49.9175 7.56206 57.7228 9.52735 54.3193 9.48462C53.3663 9.48462 51.2789 8.28836 51.7327 9.31373C51.9596 9.86914 56.5883 10.5954 54.1832 10.6382C50.099 10.7236 56.679 11.5354 55.953 12.0053C53.4117 13.6288 51.7781 17.9439 50.099 20.4646C49.736 21.0627 49.0099 22.1308 48.2385 22.1735C47.6485 22.2163 47.104 22.3872 46.3779 22.3444C45.9695 22.3444 44.1543 22.2163 44.1997 22.259C39.7071 19.1829 40.0702 17.1322 40.524 13.5006C40.887 10.4245 40.2971 8.20291 39.3895 4.99864C38.8449 3.07608 38.9357 1.53803 41.5223 2.17888Z" fill="#99CC33"/>
<path fill-rule="evenodd" clip-rule="evenodd" d="M39.7962 3.50331C39.7508 5.93855 40.7945 7.51933 41.2937 9.18555C41.4752 9.8264 41.3844 10.4673 41.5206 11.0654C41.6113 11.4926 41.5206 12.048 41.6567 11.2363C42.0198 9.05738 41.0214 6.9212 41.2029 4.82774C41.2937 3.97327 42.7004 3.28969 41.8836 3.50331C41.3844 3.63148 40.1138 3.93054 39.7962 3.50331Z" fill="#D1DB39"/>
<path fill-rule="evenodd" clip-rule="evenodd" d="M43.8363 4.48596C43.2918 5.38316 43.3372 6.49397 43.2464 7.17755C43.0195 8.54471 42.7926 9.95459 42.4296 11.3217C42.0212 12.8598 42.9287 10.04 43.0649 9.69825C43.5641 8.37381 43.7002 7.64751 44.2901 6.3658C44.4263 6.10946 45.1977 4.95592 45.1977 4.78503C44.7893 4.52869 44.154 4.82775 43.8363 4.48596Z" fill="#D1DB39"/>
<path fill-rule="evenodd" clip-rule="evenodd" d="M45.6071 6.15221C45.1079 7.13485 45.0625 8.11749 44.9264 8.80107C44.8356 9.10014 44.6995 9.35648 44.6087 9.65555C44.4726 9.99733 44.3818 10.2537 44.6541 9.82644C45.1533 9.05741 45.6978 8.33111 46.1516 7.56209L47.0138 6.15221C47.1046 6.02404 46.0155 6.53672 45.6071 6.15221Z" fill="#D1DB39"/>
<path fill-rule="evenodd" clip-rule="evenodd" d="M51.5056 9.0574C51.0971 9.44192 50.8702 9.91188 50.4618 10.3391L47.5576 13.2016L46.65 14.1415L47.3307 13.5861L51.7325 10.1255C52.5493 9.39919 51.4602 9.9546 51.5056 9.0574Z" fill="#D1DB39"/>
<path fill-rule="evenodd" clip-rule="evenodd" d="M52.5968 10.9372C52.3699 11.279 52.0522 11.9199 51.7346 12.1762C51.0539 12.7316 50.6001 13.287 50.0102 13.9706C49.1933 14.996 51.4623 12.8598 51.9161 12.6034C52.3245 12.3471 53.0506 12.1762 53.5498 12.0053C54.2304 11.7917 54.2304 11.749 53.4136 11.4926C53.1413 11.4072 52.5514 10.7663 52.5968 10.9372Z" fill="#D1DB39"/>
<path fill-rule="evenodd" clip-rule="evenodd" d="M50.0553 7.60477C49.2838 8.24562 49.193 9.39916 48.3308 9.86912C47.7409 10.2109 47.6501 10.9799 47.4232 11.4499C47.1963 11.9199 47.877 11.1081 47.9678 11.0227C48.6939 10.2109 49.9645 9.31371 50.9175 8.67286C51.2351 8.45924 51.5982 8.41652 50.7359 8.11745C50.4637 8.11745 50.0553 7.60477 50.0553 7.60477Z" fill="#D1DB39"/>
<path fill-rule="evenodd" clip-rule="evenodd" d="M15.6567 1.79437C15.6567 3.97327 15.3391 5.72494 15.566 3.58876C15.6114 2.99063 12.5709 1.15351 12.2079 1.70892C11.7995 2.3925 11.8449 3.54603 12.2987 3.97327C14.613 6.23762 11.3911 3.67421 9.98431 3.07607C9.21286 2.73429 9.03134 2.2216 8.8952 2.26433C8.48679 2.34977 9.89355 5.63949 10.5742 6.06673C12.0718 7.04937 11.5272 6.28035 9.84817 4.78502C9.30362 4.31506 8.48679 3.41786 8.16913 3.50331C7.94224 3.54603 7.85148 6.06673 8.35065 6.83575C9.62127 8.75832 8.71369 7.56206 7.62458 5.4686C6.98927 4.22961 6.39934 3.50331 6.21782 3.67421C5.85478 4.01599 5.80941 6.66486 6.94389 6.15218C7.21617 6.02401 1.6345 6.36579 2.13368 6.70758C2.81437 7.17754 3.85809 7.6475 5.35561 8.33108C5.12871 8.84377 2.22443 7.69023 2.49671 7.98929C4.76568 10.8091 0.953812 8.50198 1.36223 9.22828C3.08664 12.2189 5.31023 16.4058 6.98927 19.2256C7.3523 19.8665 8.07837 21.0627 8.84982 21.2336C9.43976 21.3618 9.98431 21.6181 10.7104 21.7463C11.1188 21.789 12.934 22.0026 12.8886 22.0026C17.3811 19.6956 17.0181 17.6021 16.5643 13.8424C16.2013 10.6809 16.7912 8.58742 17.6988 5.51132C18.1072 3.71693 18.2434 1.62347 15.6567 1.79437Z" fill="#699B42"/>
<path fill-rule="evenodd" clip-rule="evenodd" d="M15.6586 1.79439C18.2453 2.43524 16.9747 3.97329 15.7948 3.03337C15.2956 2.64886 13.662 1.02536 12.6636 1.40988C12.0737 1.66622 12.0283 1.87984 12.4367 2.30707C14.7511 4.57142 11.5745 3.11882 10.2131 2.52069C7.44498 1.32443 9.62319 2.94793 10.5762 3.58878C12.0737 4.57142 11.7106 5.72496 10.0316 4.22964C9.12402 3.41789 7.30884 2.52069 8.53408 4.44325C9.80471 6.36582 8.85174 7.00667 7.76263 4.87049C6.31049 2.05073 5.22139 3.84512 7.08194 5.55407C7.26346 5.72496 -0.541796 6.32309 2.86166 6.83578C3.81463 6.96395 5.8567 6.1522 5.44828 7.13484C5.22139 7.64753 0.592689 7.56208 2.9978 8.03204C7.08194 8.84379 0.50193 8.502 1.228 9.10013C3.76925 11.1936 5.44828 15.8077 7.08194 18.6275C7.44498 19.2684 8.17105 20.4646 8.9425 20.6355C9.53243 20.7637 10.077 21.02 10.8031 21.1482C11.2115 21.1909 13.0266 21.4045 12.9813 21.4045C17.4738 19.0975 17.1108 17.004 16.657 13.2443C16.294 10.0828 16.8839 7.98932 17.7915 4.91321C18.336 3.16155 18.2453 1.62349 15.6586 1.79439Z" fill="#99CC33"/>
<path fill-rule="evenodd" clip-rule="evenodd" d="M17.3802 3.41788C17.4256 5.85313 16.3819 7.22028 15.8827 8.84378C15.7012 9.44191 15.792 10.1255 15.6558 10.6809C15.5651 11.1081 15.6558 11.6635 15.5197 10.8518C15.1567 8.58744 16.155 6.62215 15.9735 4.52869C15.8827 3.67422 14.476 2.7343 15.2928 3.11881C15.792 3.28971 17.0626 3.80239 17.3802 3.41788Z" fill="#D1DB39"/>
<path fill-rule="evenodd" clip-rule="evenodd" d="M13.3415 3.71693C13.886 4.7423 13.8407 5.76767 13.9314 6.49397C14.1583 7.90385 14.3852 9.35645 14.7482 10.7663C15.1567 12.3898 14.2491 9.39918 14.1129 9.05739C13.6138 7.64751 13.4776 6.87848 12.8877 5.51133C12.7516 5.25498 11.9801 3.97328 11.9801 3.75966C12.3885 3.58876 13.0238 3.97328 13.3415 3.71693Z" fill="#D1DB39"/>
<path fill-rule="evenodd" clip-rule="evenodd" d="M11.5723 5.0841C12.0715 6.15219 12.1168 7.17756 12.253 7.86114C12.3437 8.1602 12.4799 8.45927 12.5706 8.80106C12.6614 9.10012 12.7522 9.39919 12.4799 8.92923C11.9807 8.07475 11.4362 7.26301 10.9824 6.40853L10.1202 4.82776C10.0748 4.65686 11.1639 5.38317 11.5723 5.0841Z" fill="#D1DB39"/>
<path fill-rule="evenodd" clip-rule="evenodd" d="M5.67284 6.96396C6.08125 7.43392 6.30815 7.9466 6.71657 8.41656L9.62084 11.749L10.5284 12.8171L9.84774 12.1335L5.44594 7.90388C4.62911 7.09213 5.71822 7.86115 5.67284 6.96396Z" fill="#D1DB39"/>
<path fill-rule="evenodd" clip-rule="evenodd" d="M4.58551 8.63016C4.8124 9.01467 5.13006 9.69825 5.44772 10.04C6.12841 10.7236 6.5822 11.3217 7.17213 12.1335C7.98896 13.287 5.71999 10.7663 5.2662 10.4246C4.85778 10.1255 4.13171 9.7837 3.63254 9.57008C2.95185 9.22829 2.95185 9.18557 3.76868 9.0574C4.04096 9.01467 4.63089 8.50199 4.58551 8.63016Z" fill="#D1DB39"/>
<path fill-rule="evenodd" clip-rule="evenodd" d="M7.12422 5.76768C7.89567 6.5367 7.98643 7.69024 8.84864 8.3311C9.43857 8.75833 9.52933 9.52736 9.75623 10.04C9.98313 10.5527 9.30243 9.65553 9.21167 9.52736C8.48561 8.58744 7.21498 7.47662 6.26202 6.7076C5.94436 6.45126 5.58133 6.32308 6.44353 6.19491C6.71581 6.15219 7.12422 5.72495 7.12422 5.76768Z" fill="#D1DB39"/>
<path fill-rule="evenodd" clip-rule="evenodd" d="M19.3775 2.60617C20.1036 4.91325 21.1019 6.62219 20.1036 4.44329C19.7859 3.84516 23.0986 0.854501 23.7793 1.36718C24.5508 1.96532 24.8684 3.2043 24.46 3.80243C22.2364 6.96398 25.5491 3.16158 27.1374 2.05076C28.045 1.40991 28.045 0.811778 28.2719 0.811778C28.8618 0.769054 28.0904 4.69963 27.3643 5.42593C25.776 6.96398 26.2298 5.93861 27.8635 3.80243C28.408 3.11885 29.1341 1.87987 29.5879 1.87987C29.9055 1.83714 30.8585 4.44329 30.4955 5.42593C29.5425 7.9039 30.2686 6.32313 30.9946 3.71698C31.403 2.22166 31.9022 1.23901 32.2199 1.36718C32.8098 1.5808 33.7174 4.35784 32.1291 4.18694C31.7207 4.14422 39.0268 2.56345 38.4822 3.11885C37.7562 3.84516 36.5763 4.69963 34.8519 5.93861C35.3057 6.40857 38.6184 4.18694 38.4368 4.61418C36.4855 8.37386 40.6151 4.61418 40.3428 5.51138C39.1175 9.22833 37.6654 14.4406 36.4855 17.944C36.2133 18.7557 35.7141 20.251 34.7611 20.721C34.035 21.0628 33.4451 21.5327 32.5375 21.8745C32.0384 22.0881 29.724 22.8999 29.8601 22.8999C23.3255 22.0027 23.0986 19.6529 22.4179 15.5942C21.8734 12.1335 20.3759 10.1255 18.1976 7.22032C16.8816 5.42593 15.9741 3.28975 19.3775 2.60617Z" fill="#699B42"/>
<path fill-rule="evenodd" clip-rule="evenodd" d="M19.3765 2.60616C16.2453 4.18694 18.4235 5.34048 19.6487 3.97332C20.1479 3.37519 21.7362 1.11084 23.143 1.23901C23.9598 1.28173 24.1413 1.53807 23.7329 2.1362C21.5093 5.29775 25.0943 2.69161 26.6826 1.5808C29.8591 -0.640833 27.5901 1.83714 26.5464 2.81978C24.9581 4.35783 25.775 5.46865 27.454 3.33246C28.3616 2.17893 30.4037 0.598152 29.4507 3.0334C28.4977 5.51137 29.9045 5.81044 30.5852 3.24702C31.5381 -0.213597 33.5348 1.28173 31.7197 3.71698C31.5381 3.97332 41.7485 1.92258 37.5282 3.67425C36.3484 4.14421 33.4441 4.01604 34.2609 4.87052C34.7147 5.34048 40.6594 3.67425 37.7097 4.99869C32.7634 7.22031 41.0678 4.6569 40.3417 5.51137C37.8005 8.54475 37.2106 13.9706 36.0307 17.4313C35.7584 18.243 35.2593 19.7383 34.3063 20.2083C33.5802 20.5501 32.9903 21.02 32.0827 21.3618C31.5835 21.5755 29.2692 22.3872 29.4053 22.3872C22.8707 21.49 22.6438 19.1402 21.9631 15.0815C21.4185 11.6208 19.921 9.61284 17.7428 6.70763C16.4268 4.95596 15.973 3.28974 19.3765 2.60616Z" fill="#99CC33"/>
<path fill-rule="evenodd" clip-rule="evenodd" d="M17.6505 4.91326C18.422 7.5194 20.2371 8.58749 21.3716 10.1255C21.78 10.681 21.9162 11.45 22.2792 11.9627C22.5515 12.3472 22.5969 12.988 22.5061 12.0908C22.1885 9.61286 20.2825 7.86119 19.8287 5.55411C19.6472 4.61419 21.1901 3.11887 20.2371 3.80244C19.6926 4.22968 18.2404 5.21232 17.6505 4.91326Z" fill="#D1DB39"/>
<path fill-rule="evenodd" clip-rule="evenodd" d="M22.9645 3.84515C22.6014 5.08414 23.0552 6.19495 23.146 6.96397C23.3275 8.54475 23.509 10.1255 23.5544 11.7063C23.5998 13.5434 23.7359 10.1255 23.7813 9.69829C23.9175 8.07479 23.8721 7.22032 24.1897 5.5541C24.2351 5.25503 24.825 3.63153 24.7797 3.41791C24.1443 3.37519 23.4637 4.01604 22.9645 3.84515Z" fill="#D1DB39"/>
<path fill-rule="evenodd" clip-rule="evenodd" d="M25.6853 4.65691C25.3676 5.93862 25.6853 7.04944 25.7307 7.81846C25.7307 8.16025 25.6399 8.54476 25.5945 8.92928C25.5945 9.27107 25.5491 9.61286 25.7307 9.01472C26.0483 7.94663 26.5021 6.87854 26.7744 5.85317L27.3643 3.88789C27.5004 3.71699 26.3206 4.87053 25.6853 4.65691Z" fill="#D1DB39"/>
<path fill-rule="evenodd" clip-rule="evenodd" d="M33.8989 4.61417C33.5359 5.25502 33.3998 5.85315 33.0367 6.49401L30.4047 11.0654L29.5879 12.518L30.2232 11.5781L34.4435 5.63953C35.3057 4.44327 34.1258 5.59681 33.8989 4.61417Z" fill="#D1DB39"/>
<path fill-rule="evenodd" clip-rule="evenodd" d="M35.85 6.02405C35.6685 6.49401 35.5323 7.34848 35.2147 7.81844C34.534 8.75836 34.1709 9.57011 33.7171 10.5955C33.0364 12.0908 35.1239 8.67291 35.6231 8.16023C36.0315 7.69027 36.8483 7.09214 37.4383 6.70762C38.2097 6.10949 38.2097 6.06677 37.1206 6.19494C36.6668 6.23766 35.7592 5.89588 35.85 6.02405Z" fill="#D1DB39"/>
<path fill-rule="evenodd" clip-rule="evenodd" d="M31.6766 3.88789C30.9051 4.95598 31.2228 6.19497 30.3152 7.22034C29.6799 7.86119 29.8614 8.71566 29.7252 9.31379C29.5891 9.95465 30.179 8.75839 30.2244 8.63022C30.8597 7.39123 32.085 5.81046 33.0379 4.65692C33.3556 4.27241 33.8094 4.05879 32.6295 4.18696C32.3119 4.14423 31.6312 3.84517 31.6766 3.88789Z" fill="#D1DB39"/>
<path fill-rule="evenodd" clip-rule="evenodd" d="M5.08294 14.8251C5.08294 12.9025 6.17204 13.4152 7.8057 13.2016C8.53177 13.1161 8.21411 8.75833 12.0714 11.0654C14.2496 12.3471 16.2009 9.82642 16.2009 7.30573C16.2009 4.22963 26.139 10.5954 27.6365 8.24565C31.1761 2.56341 32.4921 12.7316 36.7577 7.94658C38.2099 6.32309 42.2033 9.0574 40.3427 10.51C38.3914 11.9626 45.2437 10.3391 45.6067 10.2537C48.3749 9.44191 47.1496 13.7997 47.6034 14.0133C49.6001 14.9533 52.1867 14.1842 52.1867 18.7129C52.1867 33.3671 31.1761 36.6569 17.1539 32.5554C11.8898 31.0173 5.21907 28.4539 2.45093 24.2243C0.681135 21.4473 1.95176 13.7143 5.08294 14.8251Z" fill="#FFF3AD"/>
<path fill-rule="evenodd" clip-rule="evenodd" d="M39.0723 14.6969C38.6185 14.6115 33.0822 17.9866 33.4906 18.6702C33.9898 19.6529 35.0789 19.3538 36.168 19.6529C37.0756 19.9092 36.8941 22.0881 38.7546 22.0881C40.5244 22.0881 39.8891 20.5501 40.6152 20.5501C41.5682 20.5501 43.1564 21.1482 44.1094 21.4045C44.6086 21.5327 48.4658 20.6782 48.7835 20.3792C49.328 19.8238 48.9196 19.1829 48.4204 18.7129C47.286 17.5167 45.8792 17.7303 48.0574 16.5768C50.5079 15.295 47.5129 14.3551 45.7431 14.4406C44.064 14.526 42.6119 14.1842 41.069 14.1842C40.5244 14.1842 40.0706 13.9706 39.4807 14.0561C39.2992 14.0561 38.8 14.6542 39.0723 14.6969Z" fill="#EABB36"/>
<path fill-rule="evenodd" clip-rule="evenodd" d="M2.63036 15.8932C2.31271 17.2604 2.31271 17.7731 3.35643 18.9693C3.81023 19.5247 5.12623 20.251 5.94306 20.251C7.07754 20.251 8.57506 23.5407 11.2978 23.5407C13.2945 23.5407 15.8358 23.8825 16.6526 21.6182C17.6963 18.5848 11.797 17.5167 9.89106 16.1068C6.66913 13.6289 4.85395 15.5942 2.63036 15.8932Z" fill="#EABB36"/>
<path fill-rule="evenodd" clip-rule="evenodd" d="M13.5664 10.8518C14.837 12.3471 16.7883 14.3124 18.8304 14.9105C22.9599 16.1923 21.6439 10.3391 20.0102 8.63017C18.8304 7.43391 16.6976 8.03204 15.3362 8.71562C14.7916 8.97196 13.9748 9.27103 13.7025 9.74099C13.2487 10.4673 13.6571 10.4673 13.5664 10.8518Z" fill="#EABB36"/>
<path d="M10.0557 17.504C10.5697 16.1735 9.13423 14.4608 6.84953 13.6785C4.56484 12.8962 2.29606 13.3406 1.78208 14.6711C1.2681 16.0016 2.70355 17.7144 4.98825 18.4967C7.27295 19.279 9.54173 18.8345 10.0557 17.504Z" fill="#ED4E28"/>
<path d="M10.2786 16.9133C10.7927 15.5828 9.35737 13.8698 7.07267 13.0873C4.78798 12.3048 2.51908 12.749 2.00495 14.0795C1.49082 15.41 2.92615 17.123 5.21085 17.9055C7.49555 18.688 9.76445 18.2438 10.2786 16.9133Z" fill="#F58220"/>
<path d="M21.2297 12.1938C22.2052 11.1793 21.5954 9.16308 19.8675 7.69042C18.1397 6.21777 15.9482 5.84636 14.9727 6.86086C13.9972 7.87537 14.607 9.89161 16.3349 11.3643C18.0627 12.8369 20.2542 13.2083 21.2297 12.1938Z" fill="#ED4E28"/>
<path d="M21.694 11.7444C22.6696 10.7299 22.0597 8.71365 20.3319 7.24099C18.6041 5.76834 16.4126 5.39693 15.4371 6.41143C14.4615 7.42593 15.0714 9.44218 16.7992 10.9148C18.527 12.3875 20.7185 12.7589 21.694 11.7444Z" fill="#F58220"/>
<path d="M34.2304 26.1935C35.2059 25.179 34.596 23.1628 32.8682 21.6901C31.1404 20.2175 28.9489 19.8461 27.9734 20.8606C26.9978 21.8751 27.6077 23.8913 29.3355 25.364C31.0633 26.8366 33.2548 27.208 34.2304 26.1935Z" fill="#ED4E28"/>
<path d="M34.6947 25.7441C35.6702 24.7296 35.0604 22.7134 33.3326 21.2407C31.6047 19.768 29.4132 19.3966 28.4377 20.4111C27.4622 21.4256 28.0721 23.4419 29.7999 24.9145C31.5277 26.3872 33.7192 26.7586 34.6947 25.7441Z" fill="#F58220"/>
<path fill-rule="evenodd" clip-rule="evenodd" d="M29.1776 9.48465C27.6347 10.5955 30.1305 12.1335 31.0381 12.3471C31.8096 12.518 32.4449 12.3471 32.4449 11.5354C32.581 8.88652 30.9927 8.16022 29.1776 9.48465Z" fill="#FDB913"/>
<path fill-rule="evenodd" clip-rule="evenodd" d="M29.3603 9.99732C28.7704 10.4246 29.7233 10.98 30.041 11.0654C30.3132 11.1509 30.5401 11.0654 30.5855 10.7663C30.6309 9.7837 30.041 9.48464 29.3603 9.99732Z" fill="#FFF6BA"/>
<path fill-rule="evenodd" clip-rule="evenodd" d="M10.4818 22.6008C12.66 22.6008 14.4298 20.9346 14.4298 18.8839C14.4298 16.8331 12.66 15.1669 10.4818 15.1669C8.30361 15.1669 6.53381 16.8331 6.53381 18.8839C6.53381 20.9346 8.30361 22.6008 10.4818 22.6008Z" fill="#D00209"/>
<path fill-rule="evenodd" clip-rule="evenodd" d="M10.8918 21.02C12.5255 21.02 13.8869 19.7383 13.8869 18.2003C13.8869 16.6622 12.5255 15.3805 10.8918 15.3805C9.25817 15.3805 7.89679 16.6622 7.89679 18.2003C7.89679 19.7811 9.25817 21.02 10.8918 21.02Z" fill="#EE6305"/>
<path d="M12.3598 16.1198C11.9049 15.7866 11.3615 15.7277 11.146 15.9884C10.9305 16.2491 11.1246 16.7306 11.5795 17.0639C12.0345 17.3972 12.5779 17.456 12.7934 17.1953C13.0089 16.9346 12.8148 16.4531 12.3598 16.1198Z" fill="#FDF1DE"/>
<path fill-rule="evenodd" clip-rule="evenodd" d="M40.2954 32.2564C42.4736 32.2564 44.2434 30.5901 44.2434 28.5394C44.2434 26.4887 42.4736 24.8224 40.2954 24.8224C38.1172 24.8224 36.3474 26.4887 36.3474 28.5394C36.3474 30.5901 38.1172 32.2564 40.2954 32.2564Z" fill="#D00209"/>
<path fill-rule="evenodd" clip-rule="evenodd" d="M40.7046 30.6756C42.3383 30.6756 43.6997 29.3939 43.6997 27.8558C43.6997 26.3178 42.3383 25.0361 40.7046 25.0361C39.071 25.0361 37.7096 26.3178 37.7096 27.8558C37.7096 29.3939 39.0256 30.6756 40.7046 30.6756Z" fill="#EE6305"/>
<path d="M42.1688 25.7573C41.7139 25.4241 41.1704 25.3652 40.9549 25.6259C40.7395 25.8866 40.9336 26.3682 41.3885 26.7014C41.8434 27.0347 42.3869 27.0935 42.6024 26.8328C42.8178 26.5721 42.6237 26.0906 42.1688 25.7573Z" fill="#FDF1DE"/>
<path d="M48.7341 16.7698C48.2323 15.6119 46.2265 15.2875 44.254 16.0452C42.2816 16.803 41.0894 18.3559 41.5912 19.5138C42.0931 20.6717 44.0989 20.9961 46.0713 20.2384C48.0438 19.4806 49.2359 17.9277 48.7341 16.7698Z" fill="#ED4E28"/>
<path d="M48.5153 16.2603C48.0135 15.1024 46.0077 14.778 44.0353 15.5357C42.0628 16.2935 40.8706 17.8464 41.3725 19.0043C41.8743 20.1622 43.8801 20.4866 45.8526 19.7289C47.825 18.9712 49.0172 17.4182 48.5153 16.2603Z" fill="#F58220"/>
<path fill-rule="evenodd" clip-rule="evenodd" d="M39.8435 19.7383C42.0217 19.7383 43.7915 18.0721 43.7915 16.0214C43.7915 13.9706 42.0217 12.3044 39.8435 12.3044C37.6653 12.3044 35.8955 13.9706 35.8955 16.0214C35.8955 18.0294 37.6653 19.7383 39.8435 19.7383Z" fill="#D00209"/>
<path fill-rule="evenodd" clip-rule="evenodd" d="M40.253 18.1576C41.8866 18.1576 43.248 16.8758 43.248 15.3378C43.248 13.7997 41.8866 12.518 40.253 12.518C38.6193 12.518 37.2579 13.7997 37.2579 15.3378C37.2579 16.8758 38.5739 18.1576 40.253 18.1576Z" fill="#EE6305"/>
<path d="M41.721 13.2264C41.2661 12.8931 40.7226 12.8343 40.5071 13.095C40.2917 13.3557 40.4858 13.8372 40.9407 14.1705C41.3956 14.5038 41.9391 14.5626 42.1545 14.3019C42.37 14.0412 42.1759 13.5597 41.721 13.2264Z" fill="#FDF1DE"/>
<path fill-rule="evenodd" clip-rule="evenodd" d="M29.8445 19.7386C32.0227 19.7386 33.7925 18.0724 33.7925 16.0216C33.7925 13.9709 32.0227 12.3047 29.8445 12.3047C27.6663 12.3047 25.8965 13.9709 25.8965 16.0216C25.8965 18.0297 27.6663 19.7386 29.8445 19.7386Z" fill="#D00209"/>
<path fill-rule="evenodd" clip-rule="evenodd" d="M30.2539 18.1578C31.8876 18.1578 33.249 16.8761 33.249 15.3381C33.249 13.8 31.8876 12.5183 30.2539 12.5183C28.6203 12.5183 27.2589 13.8 27.2589 15.3381C27.2589 16.8761 28.5749 18.1578 30.2539 18.1578Z" fill="#EE6305"/>
<path d="M31.722 13.2267C31.267 12.8934 30.7236 12.8346 30.5081 13.0953C30.2926 13.356 30.4868 13.8375 30.9417 14.1708C31.3966 14.504 31.9401 14.5629 32.1555 14.3022C32.371 14.0415 32.1769 13.5599 31.722 13.2267Z" fill="#FDF1DE"/>
<path fill-rule="evenodd" clip-rule="evenodd" d="M29.8445 10.7386C32.0227 10.7386 33.7925 9.07238 33.7925 7.02164C33.7925 4.97091 32.0227 3.30469 29.8445 3.30469C27.6663 3.30469 25.8965 4.97091 25.8965 7.02164C25.8965 9.02965 27.6663 10.7386 29.8445 10.7386Z" fill="#D00209"/>
<path fill-rule="evenodd" clip-rule="evenodd" d="M30.2539 9.15783C31.8876 9.15783 33.249 7.87612 33.249 6.33807C33.249 4.80002 31.8876 3.51831 30.2539 3.51831C28.6203 3.51831 27.2589 4.80002 27.2589 6.33807C27.2589 7.87612 28.5749 9.15783 30.2539 9.15783Z" fill="#EE6305"/>
<path d="M31.722 4.22667C31.267 3.8934 30.7236 3.83457 30.5081 4.09527C30.2926 4.35598 30.4868 4.83749 30.9417 5.17076C31.3966 5.50403 31.9401 5.56286 32.1555 5.30216C32.371 5.04145 32.1769 4.55994 31.722 4.22667Z" fill="#FDF1DE"/>
<path fill-rule="evenodd" clip-rule="evenodd" d="M38.2087 19.2683C36.6658 20.3792 39.1617 21.9172 40.0693 22.1308C40.8407 22.3017 41.4761 22.1308 41.4761 21.3191C41.6122 18.6702 40.0693 17.9439 38.2087 19.2683Z" fill="#FDB913"/>
<path fill-rule="evenodd" clip-rule="evenodd" d="M38.3915 19.781C37.8015 20.2083 38.7545 20.7637 39.0722 20.8491C39.3444 20.9346 39.5713 20.8491 39.6167 20.5501C39.6621 19.5247 39.0722 19.2683 38.3915 19.781Z" fill="#FFF6BA"/>
<path fill-rule="evenodd" clip-rule="evenodd" d="M45.4246 19.9947C45.6969 21.7891 48.3289 20.5074 49.0096 19.8665C49.5541 19.3111 49.6903 18.713 48.9642 18.2857C46.5591 16.9186 45.1523 17.8158 45.4246 19.9947Z" fill="#FDB913"/>
<path fill-rule="evenodd" clip-rule="evenodd" d="M46.6039 18.7984C46.6947 19.482 47.693 19.012 47.9199 18.7557C48.1468 18.5421 48.1922 18.3285 47.9199 18.1576C47.0124 17.6449 46.4678 17.9867 46.6039 18.7984Z" fill="#FFF6BA"/>
<path fill-rule="evenodd" clip-rule="evenodd" d="M9.62048 12.9453C11.1634 14.0561 8.66751 15.5941 7.75992 15.8077C6.98847 15.9786 6.35316 15.8077 6.35316 14.996C6.21702 12.3471 7.75992 11.6208 9.62048 12.9453Z" fill="#FDB913"/>
<path fill-rule="evenodd" clip-rule="evenodd" d="M9.43961 13.4579C10.0295 13.8852 9.07658 14.4406 8.75892 14.526C8.48665 14.6115 8.25975 14.526 8.21437 14.227C8.16899 13.2016 8.75892 12.9453 9.43961 13.4579Z" fill="#FFFAC0"/>
<path fill-rule="evenodd" clip-rule="evenodd" d="M22.9147 16.534C22.8693 14.6542 23.0055 13.4152 23.55 11.6635C23.9131 10.5955 22.1433 10.5527 22.1433 9.86916C22.1433 9.74099 21.6441 9.86916 21.5987 9.86916C21.1449 9.69826 21.9164 9.44192 20.9634 9.35647C20.4188 9.31375 20.0558 8.33111 19.8743 8.67289C19.6474 9.14285 19.8743 9.57009 19.3297 9.65554C18.9667 9.69826 19.3751 10.3818 19.1482 10.5527C18.8759 10.7664 19.1028 10.98 19.2844 11.1509C19.5566 11.4927 18.5583 11.279 19.1936 12.0481C19.3751 12.3044 18.8306 12.1762 19.0121 12.3899L19.5113 12.988C20.1012 13.6716 20.1466 13.4152 20.8273 13.6716C21.1449 13.7997 21.0995 14.1415 21.3264 14.3551C21.508 14.526 22.234 14.7824 22.1886 15.1242C22.1433 15.3805 22.3248 15.8077 22.4155 16.0641C21.8256 15.0387 22.2794 16.1923 21.871 15.7223C21.3718 15.1242 21.3264 14.8251 21.0088 14.3124C20.8726 14.1415 19.9651 13.3298 19.602 13.6288C19.239 13.9279 19.602 13.7143 18.9213 13.4152C18.649 13.287 19.1028 13.8425 18.286 13.4152C17.9684 13.287 17.5146 14.1842 18.0591 14.3124C18.1953 14.3551 19.0121 14.4406 18.5583 14.526C18.1045 14.5688 17.5146 15.0814 18.286 15.2951C18.6944 15.4232 19.0121 15.2951 19.4205 15.3805C20.1466 15.5087 19.1936 15.8077 18.8759 15.8077C18.6037 15.8077 18.1499 15.8505 18.649 16.1068C19.1936 16.4059 18.5129 16.3204 18.7852 16.6622C18.8759 16.7904 19.1482 16.8758 19.2844 17.004C19.8289 17.4312 18.9213 17.773 19.6474 17.8585C20.5096 17.9439 21.6895 16.235 22.6878 16.8331C23.187 17.9439 23.9131 19.012 25.2291 19.9947C25.3198 19.9947 25.456 19.9947 25.5467 19.9947C24.2761 19.012 23.4593 18.0294 22.9601 17.0894V17.1322C24.4122 16.7049 24.6845 17.474 25.7736 17.6021C25.9551 17.6449 26.4089 17.6876 26.5904 17.5594C27.2711 17.1749 26.0459 17.004 26.2274 16.9186C26.5451 16.7904 26.8627 16.9613 27.0896 16.7904C27.3619 16.5768 26.9535 16.3631 27.4073 16.235C27.7249 16.1495 27.6342 16.0641 27.3619 15.765C27.0442 15.466 28.2695 15.3378 27.9518 14.9533C27.8157 14.7824 28.1787 14.4406 28.2241 14.1415C28.2695 13.9279 27.9064 13.9279 27.9972 13.6288C28.2241 12.9025 27.9518 13.1162 27.3165 13.0734C26.9535 13.0307 26.9535 13.0307 26.5451 13.3298C26.2728 13.5434 26.2728 12.9453 26.0459 12.988C25.2744 13.1162 24.14 13.0307 24.14 14.3551C24.0946 14.9105 23.3231 16.2777 22.9147 16.534Z" fill="#A6CE39"/>
<path fill-rule="evenodd" clip-rule="evenodd" d="M20.0115 9.14284C20.2384 10.4673 21.9175 12.1335 22.1897 13.8424C22.2805 14.3551 22.5528 14.996 22.462 15.5514C22.3713 16.1495 22.6435 15.8505 22.3259 15.0814C22.0536 14.4833 21.6452 14.3124 21.3729 13.7143C21.2821 13.5007 20.6468 13.4579 20.4199 13.3725C19.9661 13.2016 21.1006 13.2443 21.2368 13.2443C21.4637 13.2443 20.1477 12.7316 19.9208 12.6462C19.1947 12.4326 20.3292 12.4753 20.4653 12.4753C20.8737 12.4326 19.9661 12.0481 19.7846 11.8344C19.7392 11.749 19.6485 11.279 19.6939 11.1936C19.9208 10.7236 19.3762 10.6382 19.6485 10.1255C19.7392 9.95459 20.0115 9.10012 20.0115 9.14284Z" fill="#82B941"/>
<path fill-rule="evenodd" clip-rule="evenodd" d="M18.5158 13.7997C19.1057 14.0133 19.2419 13.9706 19.8772 14.0561C20.6486 14.1415 21.0117 15.466 21.6016 15.9359C22.1915 16.4486 21.3747 15.9786 21.1478 15.765C21.057 15.6796 20.1495 15.1242 20.1948 15.1669C20.5579 15.5087 20.331 15.466 19.9679 15.2523C19.6957 15.0814 19.4234 15.0814 19.1057 15.0387C19.015 15.0387 18.425 14.9533 18.6066 14.9533C19.3326 14.996 18.7427 14.3979 18.5158 14.1842C18.425 14.0988 18.2435 13.9706 18.2889 13.8425C18.2889 13.757 18.6519 13.757 18.5158 13.7997Z" fill="#82B941"/>
<path fill-rule="evenodd" clip-rule="evenodd" d="M23.7771 16.5768C24.0947 15.8932 24.9569 15.9359 25.3654 15.4659C25.7284 15.0814 26.0914 14.6542 26.5906 14.4406C26.999 14.2697 27.3167 13.8852 27.5436 13.6715C27.8612 13.4152 27.2713 13.6288 27.1805 13.7143C26.5906 14.0561 27.1352 13.3725 27.0444 13.4152C26.6814 13.6288 26.3637 13.8424 26.0914 14.0561C26.0007 14.1415 25.4561 14.7824 25.5469 14.4406C25.5923 14.2269 25.7284 14.0561 25.7738 13.8424C25.9099 13.1161 25.5469 13.5861 25.32 13.9706C25.2746 14.0561 25.2292 13.6715 25.1838 13.6288C25.1838 13.6288 24.5939 15.5087 24.6393 14.6542C24.6393 14.5687 24.4124 14.0988 24.5032 14.4406C24.6393 15.2096 23.9132 15.6796 23.7771 16.1922C23.7317 16.3631 23.2779 16.7049 23.1418 16.7904C23.0056 16.8758 23.4594 16.7049 23.5048 16.6622C23.5956 16.534 23.8225 16.4913 23.7771 16.5768Z" fill="#82B941"/>
<path d="M30.8259 29.9702C30.9952 28.611 29.2562 27.2998 26.9417 27.0414C24.6271 26.7831 22.6135 27.6756 22.4442 29.0348C22.2748 30.394 24.0139 31.7052 26.3284 31.9636C28.643 32.2219 30.6566 31.3294 30.8259 29.9702Z" fill="#ED4E28"/>
<path d="M30.9077 29.3546C31.0772 27.9954 29.3383 26.6839 27.0237 26.4254C24.7092 26.1669 22.6955 27.0592 22.526 28.4184C22.3565 29.7776 24.0954 31.089 26.41 31.3475C28.7245 31.6061 30.7382 30.7138 30.9077 29.3546Z" fill="#F58220"/>
<path fill-rule="evenodd" clip-rule="evenodd" d="M6.39917 21.2336C7.71517 22.8144 9.07656 24.0107 7.57904 22.5154C7.17062 22.0881 8.89504 19.6529 9.57573 19.9519C10.3926 20.2937 11.0279 21.1909 10.8917 21.6609C10.1203 24.1388 11.5724 21.1055 12.48 20.1656C12.9792 19.6529 12.843 19.1829 13.0246 19.1829C13.4784 19.0975 14.159 22.0027 13.796 22.6008C13.0246 23.8398 13.0699 23.0708 13.7053 21.4045C13.9321 20.8491 14.1137 19.9092 14.4767 19.8665C14.7036 19.8238 16.3373 21.6182 16.3373 22.3445C16.3373 24.2243 16.4734 23.028 16.2011 21.0627C16.0196 19.9092 16.1104 19.1829 16.428 19.2256C16.9726 19.3538 18.6062 21.2764 17.2448 21.2764C16.9272 21.2764 22.2819 19.5247 22.0551 19.9519C21.692 20.5073 21.0567 21.2764 20.0584 22.3017C20.5575 22.6008 22.5542 20.721 22.5088 21.02C22.1458 23.9252 24.2786 20.8491 24.324 21.5327C24.5509 24.3097 25.0501 28.2403 25.2316 30.8465C25.277 31.4446 25.3224 32.5981 24.7324 32.9826C24.2786 33.2817 23.9156 33.6662 23.3257 34.008C23.008 34.2216 21.4197 34.9907 21.5105 34.9907C15.9742 34.9052 15.0213 33.239 13.1607 30.3338C11.6178 27.8985 9.71187 26.5314 7.03448 24.6515C5.31007 23.498 3.90331 22.0027 6.39917 21.2336Z" fill="#699B42"/>
<path fill-rule="evenodd" clip-rule="evenodd" d="M6.39539 21.2336C4.3987 22.6435 6.48615 23.2844 7.0307 22.2163C7.2576 21.7463 7.80215 19.9519 8.93664 19.9092C9.61733 19.8665 9.84423 20.0374 9.70809 20.5073C8.93664 22.9853 10.9787 20.8064 11.9317 19.8665C13.7922 17.9866 12.7485 19.9946 12.2493 20.7637C11.4779 22.0026 12.4762 22.7289 13.1115 21.0627C13.4746 20.1655 14.6091 18.8411 14.6091 20.6782C14.6091 22.5581 15.8797 22.6435 15.6074 20.7209C15.2444 18.1148 17.3318 19.0547 16.6511 20.9773C16.6058 21.1482 24.1841 18.7984 21.3252 20.3791C20.5538 20.8064 18.1487 20.9773 19.1016 21.5327C19.6008 21.8317 23.8665 20.1228 21.9151 21.3191C18.6478 23.3698 24.5018 20.7637 24.2295 21.4472C23.1404 23.8398 24.411 27.8131 24.5925 30.4619C24.6379 31.0601 24.6833 32.2136 24.0934 32.5981C23.6396 32.8972 23.2765 33.2817 22.6866 33.6235C22.3236 33.8371 20.7807 34.6061 20.8714 34.6061C15.2898 34.5634 14.3368 32.8972 12.4762 29.992C10.9333 27.5567 9.0274 26.1896 6.35001 24.3097C4.80711 23.1989 3.89953 22.0026 6.39539 21.2336Z" fill="#99CC33"/>
<path fill-rule="evenodd" clip-rule="evenodd" d="M5.8089 23.028C7.26104 24.8224 9.07622 25.4633 10.483 26.4887C11.0275 26.8732 11.3452 27.3858 11.799 27.7704C12.162 28.0267 12.3889 28.4967 12.0259 27.8558C10.9821 26.0614 8.8947 24.9933 7.76021 23.3698C7.30642 22.6862 8.07787 21.49 7.53332 22.0881C7.21566 22.3872 6.35345 23.1989 5.8089 23.028Z" fill="#D1DB39"/>
<path fill-rule="evenodd" clip-rule="evenodd" d="M9.70807 21.789C9.79883 22.7289 10.5249 23.498 10.8426 24.0534C11.5232 25.1642 12.1586 26.3177 12.7031 27.4713C13.3384 28.7957 12.3401 26.3177 12.2039 25.9759C11.7955 24.7797 11.4779 24.1388 11.2056 22.9426C11.1602 22.7289 11.0695 21.49 10.9787 21.3191C10.5249 21.3618 10.1619 21.8745 9.70807 21.789Z" fill="#D1DB39"/>
<path fill-rule="evenodd" clip-rule="evenodd" d="M12.2074 22.1735C12.3889 23.1135 12.9788 23.8825 13.2511 24.4806C13.3873 24.737 13.3873 25.036 13.5234 25.2924C13.6142 25.5487 13.7049 25.805 13.6595 25.3351C13.5688 24.5661 13.5688 23.7543 13.5234 22.9853L13.3873 21.5327C13.3419 21.3618 12.7519 22.259 12.2074 22.1735Z" fill="#D1DB39"/>
<path fill-rule="evenodd" clip-rule="evenodd" d="M18.7853 21.4472C18.6945 21.9172 18.7853 22.3872 18.6945 22.8998L18.0592 26.4032L17.8777 27.514L18.1046 26.7877L19.5567 22.1308C19.8744 21.1909 19.2844 22.1308 18.7853 21.4472Z" fill="#D1DB39"/>
<path fill-rule="evenodd" clip-rule="evenodd" d="M20.8274 22.3017C20.8274 22.6862 21.0089 23.2843 20.8727 23.6261C20.6459 24.3524 20.6005 24.9933 20.5551 25.7623C20.5097 26.9159 21.0996 24.267 21.2812 23.8398C21.4627 23.4552 21.9165 22.9853 22.2341 22.6008C22.6879 22.1308 22.6425 22.0881 21.8257 22.259C21.5534 22.3872 20.6912 22.2163 20.8274 22.3017Z" fill="#D1DB39"/>
<path fill-rule="evenodd" clip-rule="evenodd" d="M16.7422 21.0627C16.4699 21.9172 17.1506 22.7717 16.6968 23.5834C16.4245 24.0961 16.8329 24.6942 16.9237 25.1642C17.0144 25.6341 17.1052 24.6942 17.1052 24.6088C17.196 23.6689 17.6951 22.4299 18.1036 21.49C18.2397 21.1909 18.512 20.9773 17.6498 21.1909C17.3775 21.2336 16.6968 21.0627 16.7422 21.0627Z" fill="#D1DB39"/>
<path fill-rule="evenodd" clip-rule="evenodd" d="M54.6821 17.5167V20.7637C54.7275 21.1909 54.7729 21.5754 54.7729 22.0027C54.7729 30.8465 42.5205 38.024 27.3638 38.024C12.2524 37.9813 0 30.8037 0 21.96V17.5167H2.26897C3.53959 24.9933 14.2945 30.8037 27.4091 30.8037C40.5238 30.8037 51.2787 24.9933 52.5493 17.5167H54.6821Z" fill="#CAD5DD"/>
<path fill-rule="evenodd" clip-rule="evenodd" d="M54.6369 17.5167C53.3662 25.6342 41.6584 32.0427 27.4092 32.0427C13.1601 32.0427 1.40685 25.6342 0.13623 17.5167H2.26906C3.53968 24.9933 14.2946 30.8037 27.4092 30.8037C40.5239 30.8037 51.2788 24.9933 52.5494 17.5167H54.6369Z" fill="#F7F8F9"/>
<path fill-rule="evenodd" clip-rule="evenodd" d="M54.6822 21.2336V21.7036C54.6822 21.789 54.6822 21.8745 54.7275 21.9599C53.8653 30.3338 41.9305 36.9559 27.4091 36.9559C12.2524 36.9559 0 29.8211 0 20.9773C0 20.8064 0 20.6355 0 20.5073C0.453794 29.0948 12.5247 36.016 27.4091 36.016C41.7944 36.016 53.6384 29.4793 54.6822 21.2336Z" fill="#A2B3BC"/>
<path fill-rule="evenodd" clip-rule="evenodd" d="M44.3375 22.7717C46.1527 23.5834 47.2872 24.2243 48.6939 25.4633C49.5562 26.2323 50.373 24.737 51.0083 25.0788C51.1444 25.1215 51.2352 24.6515 51.2352 24.6515C51.5982 24.3525 51.5075 25.1215 52.0066 24.3525C52.2789 23.9252 53.4134 24.0534 53.1411 23.7116C52.7781 23.3271 52.2789 23.3271 52.4151 22.8144C52.5058 22.5154 51.689 22.5153 51.6436 22.259C51.5528 21.9599 51.2806 22.0454 51.0083 22.0881C50.5545 22.1736 51.1898 21.4045 50.1915 21.6182C49.8738 21.7036 50.2368 21.2336 49.9192 21.3191L49.1477 21.49C48.2402 21.6609 48.467 21.8318 47.9225 22.3017C47.6956 22.5154 47.3326 22.3017 47.0603 22.3872C46.8334 22.4726 46.2435 22.9853 45.9712 22.7717C45.7443 22.6008 45.2451 22.5581 45.0182 22.5581C46.2435 22.5153 44.9275 22.3872 45.6082 22.259C46.425 22.0881 46.6973 22.2163 47.2872 22.1736C47.5141 22.1736 48.6939 21.7463 48.5578 21.3191C48.467 20.8919 48.467 21.2764 49.057 20.8491C49.3293 20.6782 48.5578 20.8491 49.3293 20.3364C49.6015 20.1655 48.9208 19.3538 48.5578 19.7383C48.467 19.8665 48.0133 20.4646 48.1494 20.0801C48.2855 19.6529 48.0586 18.9693 47.5595 19.5247C47.2872 19.8238 47.2418 20.1228 47.0149 20.4219C46.6065 20.9773 46.6973 20.0374 46.8788 19.781C47.0149 19.5674 47.151 19.1829 46.6973 19.4392C46.1527 19.7383 46.5611 19.2256 46.1073 19.3111C45.9258 19.3538 45.7443 19.5247 45.5628 19.6101C44.9275 19.9092 44.9728 18.9693 44.5644 19.5247C44.0653 20.2083 45.2451 21.9599 44.2014 22.5581C42.9308 22.4726 41.5694 22.6008 40.0719 23.3271C40.0265 23.4125 39.9811 23.498 39.9357 23.5834C41.4786 22.9426 42.7039 22.6862 43.8384 22.6862H43.793C43.5661 24.1388 42.7039 24.0107 42.1139 24.8224C42.0232 24.9933 41.7509 25.3351 41.7963 25.5487C41.887 26.275 42.5677 25.3351 42.5677 25.5487C42.5224 25.8478 42.2501 26.0614 42.2955 26.3178C42.3862 26.6595 42.7493 26.4032 42.6585 26.8304C42.6131 27.1295 42.7493 27.1295 43.1123 27.0013C43.5207 26.8732 43.1123 27.984 43.6115 27.8558C43.8384 27.8131 44.0199 28.283 44.2468 28.4539C44.4283 28.5821 44.6098 28.283 44.8367 28.4967C45.4266 29.0093 45.3359 28.7103 45.6989 28.1976C45.8804 27.8985 45.9258 27.9413 45.7897 27.4713C45.6989 27.1722 46.2435 27.3858 46.3342 27.1722C46.5611 26.4886 47.1057 25.5487 45.8804 24.9506C45.3813 24.4806 44.4283 23.2417 44.3375 22.7717Z" fill="#A6CE39"/>
<path fill-rule="evenodd" clip-rule="evenodd" d="M52.6848 23.6262C51.3234 23.1989 49.0091 23.8825 47.2393 23.4125C46.6947 23.2416 46.014 23.1989 45.5149 22.8998C44.9703 22.5581 45.1518 22.9426 46.014 22.9853C46.6947 23.028 47.0578 22.7717 47.7384 22.7717C48.0107 22.7717 48.3284 22.259 48.5099 22.0881C48.8729 21.7463 48.3284 22.729 48.2376 22.8571C48.1469 23.028 49.236 22.1735 49.3721 22.0027C49.8713 21.49 49.3267 22.4299 49.2813 22.5153C49.1452 22.8999 49.9167 22.259 50.1889 22.259C50.2797 22.259 50.7335 22.3872 50.8242 22.4726C51.1419 22.8998 51.5049 22.4299 51.868 22.8998C52.0041 23.028 52.7302 23.6262 52.6848 23.6262Z" fill="#82B941"/>
<path fill-rule="evenodd" clip-rule="evenodd" d="M48.9199 20.251C48.4207 20.6782 48.4207 20.8064 48.0577 21.2764C47.6039 21.8745 46.2425 21.6182 45.5164 21.8745C44.745 22.1736 45.5618 21.6609 45.8795 21.5754C46.0156 21.5327 46.9232 21.02 46.8778 21.02C46.3786 21.1909 46.5602 20.9773 46.9232 20.8064C47.1955 20.6782 47.3316 20.4219 47.5131 20.1656C47.5585 20.0801 47.8762 19.6101 47.7854 19.781C47.4224 20.3792 48.2846 20.1656 48.5569 20.0374C48.693 19.9947 48.8745 19.9092 49.0106 20.0374C49.056 20.0801 48.8745 20.4219 48.9199 20.251Z" fill="#82B941"/>
<path fill-rule="evenodd" clip-rule="evenodd" d="M43.9301 23.498C44.4292 24.0534 44.0208 24.7797 44.2931 25.3351C44.52 25.805 44.7469 26.3177 44.7469 26.8304C44.7469 27.2576 44.9738 27.6849 45.0645 27.984C45.2007 28.3685 45.2007 27.7703 45.2007 27.6422C45.1553 27.0013 45.5183 27.7703 45.5183 27.6849C45.4729 27.3004 45.4276 26.9159 45.3368 26.5741C45.2914 26.4459 44.9284 25.7196 45.2007 25.9332C45.3822 26.0614 45.4729 26.2323 45.6998 26.4032C46.3352 26.8304 46.0629 26.3177 45.7452 25.9759C45.6998 25.8905 46.0629 26.0187 46.1536 26.0187C46.1536 26.0187 44.6561 24.6942 45.4276 25.1215C45.5183 25.1642 46.0629 25.1642 45.6998 25.0787C44.9284 24.8651 44.7923 24.0534 44.3385 23.6689C44.2023 23.5407 44.0662 23.028 44.0662 22.8998C44.0662 22.7717 44.0208 23.1989 44.0662 23.2844C44.0208 23.3698 43.9754 23.5834 43.9301 23.498Z" fill="#82B941"/>
<path fill-rule="evenodd" clip-rule="evenodd" d="M37.8464 11.279C38.1186 11.279 38.3455 10.9373 38.3455 10.51C38.3455 10.0828 38.1186 9.741 37.8464 9.741C37.5741 9.741 37.3472 10.0828 37.3472 10.51C37.3018 10.9373 37.5287 11.279 37.8464 11.279Z" fill="#EABB36"/>
<path d="M25.0942 11.4352C24.8435 11.0821 24.4545 10.9128 24.2253 11.057C23.9961 11.2012 24.0135 11.6044 24.2642 11.9575C24.5149 12.3106 24.9039 12.48 25.1331 12.3357C25.3623 12.1915 25.3449 11.7883 25.0942 11.4352Z" fill="#EABB36"/>
<path d="M36.6262 11.5424C36.35 11.2066 35.9494 11.0631 35.7314 11.222C35.5134 11.3809 35.5606 11.782 35.8368 12.1178C36.113 12.4536 36.5136 12.5971 36.7315 12.4382C36.9495 12.2793 36.9024 11.8782 36.6262 11.5424Z" fill="#EABB36"/>
<path d="M22.117 18.1966C21.8663 17.8435 21.4773 17.6741 21.2481 17.8184C21.0189 17.9626 21.0363 18.3658 21.287 18.7189C21.5377 19.072 21.9267 19.2414 22.1559 19.0971C22.3851 18.9529 22.3677 18.5497 22.117 18.1966Z" fill="#EABB36"/>
<path d="M38.1272 23.1548C37.7621 22.9054 37.3348 22.8735 37.1729 23.0836C37.011 23.2936 37.1757 23.6662 37.5409 23.9156C37.906 24.165 38.3333 24.1969 38.4952 23.9869C38.6571 23.7768 38.4924 23.4043 38.1272 23.1548Z" fill="#EABB36"/>
<path d="M37.5307 24.3503C37.428 23.9368 37.1271 23.6494 36.8587 23.7085C36.5903 23.7676 36.4559 24.1508 36.5586 24.5643C36.6614 24.9779 36.9622 25.2652 37.2307 25.2061C37.4991 25.147 37.6334 24.7639 37.5307 24.3503Z" fill="#EABB36"/>
<path d="M25.2 8.38538C25.0973 7.97183 24.7964 7.68449 24.528 7.74359C24.2596 7.80269 24.1252 8.18585 24.2279 8.5994C24.3307 9.01295 24.6316 9.3003 24.9 9.2412C25.1684 9.1821 25.3028 8.79894 25.2 8.38538Z" fill="#EABB36"/>
<path d="M32.2104 8.45593C32.6587 8.50329 33.0471 8.33258 33.0778 8.07464C33.1086 7.81669 32.77 7.5692 32.3217 7.52184C31.8734 7.47449 31.485 7.6452 31.4543 7.90314C31.4236 8.16109 31.7621 8.40858 32.2104 8.45593Z" fill="#EABB36"/>
<path d="M40.5134 11.103C40.9617 11.1503 41.3501 10.9796 41.3808 10.7217C41.4115 10.4637 41.073 10.2162 40.6247 10.1689C40.1764 10.1215 39.788 10.2922 39.7573 10.5502C39.7265 10.8081 40.0651 11.0556 40.5134 11.103Z" fill="#EABB36"/>
<defs>
<linearGradient id="paint0_linear_2_1645" x1="27.3873" y1="0" x2="27.3873" y2="32.0239" gradientUnits="userSpaceOnUse">
<stop stop-color="#F4F4F7"/>
<stop offset="1" stop-color="white"/>
</linearGradient>
</defs>
</svg>
