<svg width="57" height="55" viewBox="0 0 57 55" fill="none" xmlns="http://www.w3.org/2000/svg">
<path fill-rule="evenodd" clip-rule="evenodd" d="M4.35608 26.6401C13.035 36.0207 23.3538 44.4816 34.7322 52.5011C44.2688 59.2331 57.0853 48.2339 48.2298 41.134L17.8538 15.273C9.57855 9.01926 -3.26317 18.3999 4.35608 26.6401Z" fill="#B96137"/>
<path fill-rule="evenodd" clip-rule="evenodd" d="M4.12525 24.9109C13.0817 34.6962 23.7537 43.525 35.46 51.618C45.0472 58.2397 57.8132 47.3508 48.9577 40.251L17.6229 13.5438C9.34771 7.29007 -3.46877 16.5971 4.12525 24.9109Z" fill="#E47B06"/>
<path fill-rule="evenodd" clip-rule="evenodd" d="M4.26942 23.0714C13.352 32.7096 24.2006 41.5016 35.907 49.8522C45.4184 56.6577 58.2601 45.5849 49.4047 38.4851L17.7923 11.7044C9.49189 5.45061 -3.40029 14.9416 4.26942 23.0714Z" fill="#F6D290"/>
<path fill-rule="evenodd" clip-rule="evenodd" d="M0.219358 14.9784C1.73312 14.7209 2.94412 14.7209 1.45559 14.8313C1.05193 14.8681 -0.133852 17.1856 0.295046 17.3695C0.799632 17.5903 1.58174 17.4063 1.85926 17.0385C3.34779 15.1991 1.65743 17.7006 1.30422 18.7307C1.10238 19.3192 0.749174 19.4664 0.774403 19.5767C0.850091 19.871 3.07027 18.4731 3.34779 17.9581C3.97853 16.8177 3.44871 17.296 2.49 18.6203C2.16202 19.0617 1.58174 19.7239 1.6322 19.9446C1.68266 20.0918 3.39825 19.871 3.92807 19.4296C5.21476 18.326 4.43265 19.0985 2.99458 20.0918C2.16202 20.6803 1.65743 21.1586 1.8088 21.2689C2.0611 21.4897 3.87761 21.1954 3.49917 20.4964C3.39825 20.3125 3.80192 24.1383 4.00376 23.7704C4.30651 23.2554 4.60926 22.4829 5.01293 21.3425C5.39137 21.4161 4.65972 23.5497 4.86155 23.3658C6.75375 21.4897 5.26522 24.359 5.74458 24.0279C7.73769 22.4829 10.5886 20.4596 12.4808 18.9882C12.9097 18.6571 13.717 18.0317 13.818 17.4799C13.8936 17.0385 14.0703 16.6338 14.1207 16.1556C14.1459 15.8613 14.2216 14.5738 14.2469 14.6473C12.506 11.778 11.068 12.293 8.49457 13.0287C6.32485 13.6541 4.83632 13.4702 2.71706 13.2127C1.48082 13.0655 0.042753 13.2127 0.219358 14.9784Z" fill="#699B42"/>
<path fill-rule="evenodd" clip-rule="evenodd" d="M0.212592 14.9788C0.591032 13.1027 1.67589 13.8384 1.07039 14.7581C0.818095 15.1627 -0.266765 16.4871 0.061216 17.1124C0.237821 17.4803 0.414426 17.5171 0.691949 17.1492C2.18048 15.3099 1.27222 17.6274 0.893783 18.6575C0.136904 20.7175 1.22176 18.9886 1.62543 18.2896C2.25617 17.1492 3.0635 17.2596 2.07956 18.5839C1.54975 19.2828 0.9947 20.6807 2.2814 19.5771C3.56809 18.4735 4.02222 19.0621 2.60938 20.0554C0.717178 21.3797 1.97864 21.9315 3.08873 20.46C3.21488 20.3129 3.84561 25.6102 4.12314 23.1822C4.19882 22.5201 3.56809 21.1958 4.24928 21.3429C4.62772 21.4165 4.70341 24.6537 4.9557 22.9247C5.3846 20.0186 5.35937 24.5801 5.73781 24.0283C7.07497 22.0419 10.2034 20.3497 12.0956 18.915C12.5245 18.5839 13.3318 17.9585 13.4328 17.4067C13.5084 16.9653 13.685 16.5606 13.7355 16.0824C13.7607 15.7881 13.8364 14.5006 13.8617 14.5742C12.1208 11.7784 10.6828 12.2566 8.1346 12.9923C5.96488 13.6177 4.47635 13.4338 2.35708 13.1763C1.09562 12.9923 0.0359867 13.213 0.212592 14.9788Z" fill="#99CC33"/>
<path fill-rule="evenodd" clip-rule="evenodd" d="M1.27054 13.5811C2.9609 13.25 3.94484 13.8386 5.05493 13.949C5.4586 13.9858 5.93796 13.8754 6.34163 13.9122C6.61915 13.949 7.02282 13.8018 6.46777 13.9858C4.92879 14.5008 3.54117 14.0593 2.07787 14.4272C1.47237 14.5744 0.866867 15.678 1.11916 15.0894C1.24531 14.7215 1.57329 13.7651 1.27054 13.5811Z" fill="#D1DB39"/>
<path fill-rule="evenodd" clip-rule="evenodd" d="M1.62946 16.3397C2.31065 15.8247 3.0423 15.7511 3.52165 15.604C4.5056 15.2729 5.48954 14.9418 6.44826 14.5372C7.55835 14.0589 5.51477 15.0522 5.28771 15.1625C4.32899 15.6408 3.82441 15.8615 2.86569 16.4501C2.68909 16.5604 1.83129 17.2594 1.67991 17.2962C1.579 17.0019 1.80606 16.5236 1.62946 16.3397Z" fill="#D1DB39"/>
<path fill-rule="evenodd" clip-rule="evenodd" d="M2.61105 17.4068C3.31747 16.9286 4.02389 16.7815 4.50325 16.5975C4.73031 16.524 4.93214 16.34 5.13398 16.2665C5.33581 16.1561 5.53765 16.0825 5.20967 16.3032C4.62939 16.7447 4.07435 17.2229 3.5193 17.6276L2.4849 18.4001C2.38398 18.4737 2.83811 17.6276 2.61105 17.4068Z" fill="#D1DB39"/>
<path fill-rule="evenodd" clip-rule="evenodd" d="M4.1015 21.2323C4.40425 20.9012 4.75746 20.6805 5.08545 20.3494L7.30563 17.9583L8.03728 17.1858L7.60838 17.7376L4.83315 21.2323C4.22765 21.9313 4.70701 21.0852 4.1015 21.2323Z" fill="#D1DB39"/>
<path fill-rule="evenodd" clip-rule="evenodd" d="M5.28446 21.7842C5.53676 21.5635 6.01612 21.306 6.21795 21.0117C6.67208 20.4599 7.07575 20.092 7.60556 19.577C8.38767 18.8781 6.72254 20.7542 6.49547 21.0853C6.29364 21.4164 6.0918 21.9314 5.94043 22.2992C5.73859 22.8143 5.68813 22.8143 5.58722 22.2625C5.56199 22.1153 5.18355 21.7842 5.28446 21.7842Z" fill="#D1DB39"/>
<path fill-rule="evenodd" clip-rule="evenodd" d="M3.21354 20.3864C3.71813 19.761 4.52546 19.5771 4.95436 18.8782C5.23188 18.4367 5.7617 18.2896 6.11491 18.0689C6.46812 17.8481 5.86262 18.4367 5.78693 18.4735C5.1562 19.0989 4.44978 20.0553 3.91996 20.8279C3.74336 21.0854 3.6929 21.3429 3.56675 20.7543C3.51629 20.6071 3.18831 20.3864 3.21354 20.3864Z" fill="#D1DB39"/>
<path fill-rule="evenodd" clip-rule="evenodd" d="M4.86098 24.2123C6.29905 23.5133 7.48483 23.1822 6.04676 23.6972C5.64309 23.8444 4.83575 26.4562 5.26465 26.493C5.76923 26.5298 6.52611 26.1252 6.75318 25.7205C7.96418 23.4765 6.65226 26.4195 6.45043 27.5598C6.32428 28.1852 5.9963 28.4427 6.04676 28.5531C6.1729 28.8106 8.14079 26.7873 8.34262 26.1987C8.79675 24.9112 8.36785 25.4998 7.58575 27.1184C7.33345 27.6334 6.85409 28.4427 6.92978 28.6634C7.00547 28.8106 8.64538 28.0749 9.0995 27.4863C10.2096 26.0516 9.55363 27.008 8.29217 28.4059C7.56052 29.2152 7.13162 29.8406 7.28299 29.9142C7.56052 30.0613 9.30134 29.2152 8.82198 28.6634C8.69583 28.5163 9.62932 32.1214 9.7807 31.68C10.0078 31.0914 10.1844 30.2453 10.4367 28.9945C10.8151 28.9577 10.3862 31.2753 10.5628 31.0178C12.1523 28.5899 11.0926 31.9007 11.5215 31.3857C13.2623 29.2888 15.76 26.4562 17.3999 24.4698C17.7784 24.0283 18.4848 23.1454 18.51 22.5936C18.5353 22.1522 18.6362 21.7108 18.611 21.1957C18.611 20.9014 18.4848 19.6139 18.51 19.6875C16.416 17.4435 15.0789 18.3632 12.6821 19.8714C10.6385 21.1222 9.17519 21.4165 7.05593 21.7843C5.81969 21.9683 4.43208 22.5568 4.86098 24.2123Z" fill="#699B42"/>
<path fill-rule="evenodd" clip-rule="evenodd" d="M4.85633 24.2147C4.95724 22.3018 6.11779 22.6329 5.66367 23.7365C5.46183 24.2147 4.60403 25.7965 5.0077 26.3116C5.23477 26.6059 5.41137 26.6059 5.63844 26.1644C6.84944 23.9204 6.2944 26.4587 6.06733 27.5991C5.61321 29.8431 6.42054 27.8566 6.7233 27.0105C7.17742 25.723 7.98476 25.5758 7.20265 27.1577C6.77375 28.0038 6.42054 29.512 7.53063 28.0773C8.64072 26.6426 9.17054 27.0473 7.90907 28.4452C6.24394 30.3213 7.55586 30.4685 8.43889 28.7027C8.53981 28.5188 9.90219 33.5218 9.8265 31.057C9.80127 30.3949 9.01916 29.2545 9.70035 29.2177C10.0788 29.1809 10.6086 32.3078 10.6086 30.542C10.6338 27.5623 11.2393 32.0503 11.5421 31.3881C12.5765 29.0706 15.4022 26.4955 17.0421 24.509C17.4205 24.0676 18.1269 23.1847 18.1522 22.6329C18.1774 22.1915 18.2783 21.75 18.2531 21.235C18.2531 20.9407 18.1269 19.6532 18.1522 19.7267C16.0581 17.4828 14.721 18.3656 12.3242 19.8739C10.2806 21.1246 8.81733 21.4189 6.69807 21.7868C5.4366 22.0075 4.42743 22.5593 4.85633 24.2147Z" fill="#99CC33"/>
<path fill-rule="evenodd" clip-rule="evenodd" d="M5.71464 22.5197C7.32932 21.7104 8.36372 21.9679 9.47381 21.784C9.87748 21.7104 10.3316 21.4529 10.71 21.3425C10.9876 21.2689 11.366 21.0114 10.8362 21.3793C9.39812 22.3358 7.98528 22.299 6.59767 23.1083C6.0174 23.4394 5.5885 24.6901 5.73987 24.0279C5.84079 23.6233 6.0174 22.63 5.71464 22.5197Z" fill="#D1DB39"/>
<path fill-rule="evenodd" clip-rule="evenodd" d="M6.41852 25.1316C7.02402 24.4326 7.73044 24.1383 8.18457 23.8441C9.09283 23.2555 10.0263 22.6301 10.9093 21.9311C11.9185 21.1586 10.0768 22.7037 9.84971 22.8876C8.99191 23.6601 8.51255 23.9912 7.67998 24.8373C7.52861 24.9844 6.77173 25.9409 6.64558 26.0145C6.46898 25.7937 6.64558 25.2787 6.41852 25.1316Z" fill="#D1DB39"/>
<path fill-rule="evenodd" clip-rule="evenodd" d="M7.55924 25.8673C8.18998 25.2052 8.87117 24.8373 9.30007 24.5062C9.5019 24.3591 9.67851 24.1384 9.88034 23.9912C10.0569 23.8441 10.2588 23.6601 9.95603 24.028C9.45144 24.6166 8.97209 25.242 8.49273 25.8305L7.55924 26.8974C7.48356 27.0077 7.81154 26.0513 7.55924 25.8673Z" fill="#D1DB39"/>
<path fill-rule="evenodd" clip-rule="evenodd" d="M9.52423 29.1787C9.77652 28.7741 10.1045 28.443 10.3568 28.0016L12.1985 24.985L12.804 24.0286L12.4508 24.6907L10.2054 28.958C9.77652 29.8409 10.1045 28.8476 9.52423 29.1787Z" fill="#D1DB39"/>
<path fill-rule="evenodd" clip-rule="evenodd" d="M10.7868 29.3621C11.0139 29.0678 11.4428 28.6632 11.5942 28.3321C11.9474 27.6699 12.3006 27.1549 12.7547 26.5296C13.4107 25.6099 12.0483 27.9275 11.8717 28.3321C11.7203 28.7 11.5942 29.2886 11.4932 29.6932C11.3671 30.2818 11.3419 30.2818 11.14 29.7668C11.0896 29.6196 10.6859 29.3989 10.7868 29.3621Z" fill="#D1DB39"/>
<path fill-rule="evenodd" clip-rule="evenodd" d="M8.5676 28.6266C8.97127 27.8541 9.72815 27.4494 10.0561 26.6401C10.258 26.0883 10.7626 25.794 11.0653 25.4997C11.3681 25.1687 10.8635 25.9412 10.813 26.0147C10.2832 26.7873 9.72815 27.9644 9.29925 28.8841C9.17311 29.1784 9.14788 29.4727 8.94604 28.9209C8.87036 28.7737 8.54237 28.6266 8.5676 28.6266Z" fill="#D1DB39"/>
<path fill-rule="evenodd" clip-rule="evenodd" d="M12.0084 28.2584C13.4465 27.5595 14.6323 27.2284 13.1942 27.7434C12.7905 27.8906 11.9832 30.5024 12.4121 30.5392C12.9167 30.576 13.6736 30.1713 13.9006 29.7667C15.1116 27.5227 13.7997 30.4656 13.5979 31.606C13.4717 32.2314 13.1438 32.4889 13.1942 32.5992C13.3204 32.8568 15.2882 30.8335 15.4901 30.2449C15.9442 28.9574 15.5153 29.546 14.7332 31.1646C14.4809 31.6796 14.0016 32.4889 14.0772 32.7096C14.1529 32.8568 15.7928 32.121 16.247 31.5324C17.3571 30.0978 16.7011 31.0542 15.4396 32.4521C14.708 33.2614 14.2791 33.8868 14.4305 33.9604C14.708 34.1075 16.4488 33.2614 15.9694 32.7096C15.8433 32.5625 16.7768 36.1676 16.9282 35.7261C17.1552 35.1375 17.3318 34.2914 17.5841 33.0407C17.9626 33.0039 17.5337 35.3215 17.7103 35.064C19.2997 32.636 18.2401 35.9468 18.669 35.4318C20.4098 33.335 22.9075 30.5024 24.5474 28.5159C24.9258 28.0745 25.6323 27.1916 25.6575 26.6398C25.6827 26.1984 25.7836 25.7569 25.7584 25.2419C25.7584 24.9476 25.6323 23.6601 25.6575 23.7337C23.5635 21.4897 22.2263 22.4093 19.8295 23.9176C17.7859 25.1683 16.3227 25.4626 14.2034 25.8305C12.9672 26.0144 11.5795 26.5662 12.0084 28.2584Z" fill="#699B42"/>
<path fill-rule="evenodd" clip-rule="evenodd" d="M12.0029 28.2677C12.1038 26.3548 13.2643 26.6859 12.8102 27.7895C12.6084 28.2677 11.7506 29.8496 12.1542 30.3646C12.3813 30.6589 12.5579 30.6589 12.785 30.2174C13.996 27.9735 13.4409 30.5117 13.2139 31.6521C12.7598 33.8961 13.5671 31.9096 13.8698 31.0635C14.324 29.776 15.1313 29.6289 14.3492 31.2107C13.9203 32.0568 13.5671 33.565 14.6772 32.1303C15.7873 30.6957 16.3171 31.1003 15.0556 32.4982C13.3905 34.3743 14.7024 34.5215 15.5854 32.7557C15.6864 32.5718 17.0487 37.5748 16.973 35.1101C16.9478 34.4479 16.1657 33.3075 16.8469 33.2707C17.2253 33.2339 17.7552 36.3608 17.7552 34.5951C17.7804 31.6153 18.3859 36.1033 18.6886 35.4411C19.723 33.1236 22.5487 30.5485 24.1886 28.562C24.5671 28.1206 25.2735 27.2377 25.2987 26.6859C25.3239 26.2445 25.4249 25.803 25.3996 25.288C25.3996 24.9937 25.2735 23.7062 25.2987 23.7798C23.2047 21.5358 21.8675 22.4554 19.4707 23.9637C17.4272 25.2144 15.9639 25.5087 13.8446 25.8766C12.5831 26.0605 11.574 26.5756 12.0029 28.2677Z" fill="#99CC33"/>
<path fill-rule="evenodd" clip-rule="evenodd" d="M12.8602 26.5662C14.4749 25.7569 15.5093 26.0144 16.6194 25.8304C17.023 25.7569 17.4772 25.4993 17.8556 25.389C18.1331 25.3154 18.5116 25.0579 17.9818 25.4258C16.5437 26.3822 15.1308 26.3454 13.7432 27.1547C13.163 27.4858 12.7341 28.7366 12.8854 28.0744C12.9864 27.6698 13.163 26.6765 12.8602 26.5662Z" fill="#D1DB39"/>
<path fill-rule="evenodd" clip-rule="evenodd" d="M13.5562 29.1778C14.1617 28.4789 14.8681 28.1846 15.3222 27.8903C16.2305 27.3017 17.1639 26.6763 18.047 25.9774C19.0561 25.2048 17.2144 26.7499 16.9873 26.9338C16.1295 27.7063 15.6502 28.0374 14.7924 28.8835C14.641 29.0307 13.8841 29.9871 13.758 30.0607C13.6066 29.84 13.758 29.2882 13.5562 29.1778Z" fill="#D1DB39"/>
<path fill-rule="evenodd" clip-rule="evenodd" d="M14.6733 29.9134C15.304 29.2513 15.9852 28.8834 16.4141 28.5523C16.6159 28.4052 16.7925 28.1845 16.9944 28.0373C17.171 27.8902 17.3728 27.7062 17.0701 28.0741C16.5655 28.6627 16.0861 29.2881 15.6068 29.8766L14.6985 30.9067C14.5976 31.017 14.9508 30.0606 14.6733 29.9134Z" fill="#D1DB39"/>
<path fill-rule="evenodd" clip-rule="evenodd" d="M16.6578 33.2244C16.9101 32.8198 17.2381 32.4887 17.4904 32.0472L19.3321 29.0307L19.9376 28.0743L19.5844 28.7364L17.339 33.0037C16.9101 33.8866 17.2381 32.8933 16.6578 33.2244Z" fill="#D1DB39"/>
<path fill-rule="evenodd" clip-rule="evenodd" d="M17.9264 33.4085C18.1535 33.1142 18.5824 32.7095 18.7338 32.3784C19.087 31.7163 19.4402 31.2012 19.8943 30.5759C20.5503 29.6562 19.1879 31.9738 19.0113 32.3784C18.8599 32.7463 18.7338 33.3349 18.6329 33.7395C18.5067 34.3281 18.4815 34.3281 18.2796 33.8131C18.2292 33.6292 17.8003 33.4085 17.9264 33.4085Z" fill="#D1DB39"/>
<path fill-rule="evenodd" clip-rule="evenodd" d="M15.7112 32.6362C16.1149 31.8637 16.8718 31.459 17.1997 30.6497C17.4016 30.0979 17.9062 29.8036 18.2089 29.5093C18.5117 29.1782 18.0071 29.9507 17.9566 30.0243C17.4268 30.7968 16.8718 31.974 16.4429 32.8937C16.3167 33.188 16.2915 33.4823 16.0897 32.9305C16.014 32.7833 15.686 32.6362 15.7112 32.6362Z" fill="#D1DB39"/>
<path fill-rule="evenodd" clip-rule="evenodd" d="M17.433 37.3082C18.6188 36.2782 19.6532 35.6896 18.417 36.5357C18.089 36.7564 17.9881 39.5522 18.417 39.4786C18.9216 39.405 19.5271 38.8532 19.628 38.375C20.183 35.8735 19.7289 39.1108 19.8046 40.2511C19.855 40.9133 19.6027 41.2444 19.6784 41.318C19.855 41.5387 21.2174 39.1108 21.2426 38.4854C21.3183 37.0875 21.066 37.8232 20.7633 39.5522C20.6624 40.104 20.4101 41.0237 20.5615 41.2076C20.6624 41.318 22.05 40.2144 22.3275 39.5522C23.0087 37.86 22.6303 39.0004 21.7977 40.6558C21.3183 41.649 21.0913 42.348 21.2426 42.3848C21.5202 42.4583 22.9835 41.2444 22.378 40.8029C22.2266 40.6926 24.0683 44.0402 24.0936 43.5987C24.144 42.9734 24.0936 42.0905 24.0179 40.8029C24.3711 40.6926 24.5729 43.0837 24.6738 42.7526C25.5316 40.0304 25.4055 43.4884 25.683 42.8998C26.7931 40.4351 28.4078 37.0507 29.4422 34.7331C29.6692 34.1813 30.1234 33.1881 29.9972 32.5995C29.8963 32.1581 29.8711 31.6798 29.7197 31.2016C29.644 30.9073 29.1899 29.6934 29.2403 29.7301C26.667 28.0012 25.6325 29.2151 23.7404 31.2016C22.1509 32.8938 20.8137 33.5192 18.8963 34.3653C17.761 34.8803 16.5752 35.7632 17.433 37.3082Z" fill="#699B42"/>
<path fill-rule="evenodd" clip-rule="evenodd" d="M17.4425 37.3084C17.0389 35.3955 18.2246 35.4691 18.0733 36.6463C17.9976 37.1613 17.6191 38.927 18.1237 39.3685C18.4265 39.626 18.5779 39.5524 18.6788 39.0742C19.2338 36.5727 19.36 39.2213 19.4609 40.3985C19.6375 42.7161 19.8645 40.5456 19.9402 39.6628C20.0159 38.2649 20.7476 37.9338 20.4448 39.6995C20.2682 40.656 20.3187 42.201 20.9999 40.5456C21.6811 38.8535 22.2866 39.1477 21.454 40.8399C20.3439 43.0839 21.6558 42.9 22.0343 40.9503C22.0847 40.7664 24.7086 45.3647 23.9769 42.9736C23.7751 42.3114 22.7155 41.3917 23.3714 41.2078C23.7246 41.0974 25.0365 44.0772 24.5824 42.3114C23.8003 39.3685 25.5916 43.6725 25.6925 42.9368C26.071 40.3985 28.0641 37.1981 29.0985 34.8805C29.3255 34.3287 29.7797 33.3355 29.6535 32.7469C29.5526 32.3054 29.5274 31.8272 29.376 31.349C29.3003 31.0547 28.8462 29.8407 28.8966 29.8775C26.3232 28.1485 25.2636 29.3625 23.3966 31.349C21.8072 33.0412 20.47 33.6665 18.5526 34.5126C17.4173 34.9909 16.5847 35.7634 17.4425 37.3084Z" fill="#99CC33"/>
<path fill-rule="evenodd" clip-rule="evenodd" d="M17.8031 35.469C19.115 34.2918 20.1747 34.3286 21.1838 33.8872C21.5623 33.7032 21.8903 33.3721 22.2435 33.1882C22.4958 33.0779 22.7733 32.71 22.3696 33.1882C21.2595 34.439 19.8971 34.77 18.787 35.8369C18.3329 36.2783 18.2572 37.6394 18.232 36.9405C18.232 36.5358 18.1311 35.5058 17.8031 35.469Z" fill="#D1DB39"/>
<path fill-rule="evenodd" clip-rule="evenodd" d="M19.156 37.8596C19.5344 37.0503 20.1399 36.6088 20.4932 36.2042C21.1996 35.3949 21.906 34.5856 22.5872 33.7027C23.3441 32.7094 21.9817 34.6591 21.8303 34.8798C21.1996 35.8363 20.8464 36.2777 20.2661 37.3078C20.1652 37.4917 19.6858 38.5953 19.5849 38.7057C19.3831 38.5217 19.4083 37.9699 19.156 37.8596Z" fill="#D1DB39"/>
<path fill-rule="evenodd" clip-rule="evenodd" d="M20.4244 38.3377C20.8533 37.5284 21.3831 37.0133 21.7363 36.6087C21.8877 36.4248 21.9886 36.1672 22.14 35.9465C22.2661 35.7626 22.4175 35.5419 22.2157 35.9465C21.8877 36.6455 21.6102 37.3812 21.2822 38.0434L20.6767 39.3309C20.6514 39.4781 20.7271 38.448 20.4244 38.3377Z" fill="#D1DB39"/>
<path fill-rule="evenodd" clip-rule="evenodd" d="M23.1918 41.1706C23.318 40.6924 23.545 40.3245 23.6712 39.8095L24.6299 36.4251L24.9579 35.3583L24.8065 36.094L23.7973 40.8027C23.5955 41.7592 23.6712 40.7291 23.1918 41.1706Z" fill="#D1DB39"/>
<path fill-rule="evenodd" clip-rule="evenodd" d="M24.4313 41.0603C24.5574 40.7292 24.8602 40.2142 24.9359 39.8463C25.0873 39.1106 25.3143 38.522 25.5666 37.7863C25.9451 36.7195 25.2639 39.3313 25.2134 39.7728C25.1629 40.1774 25.1882 40.766 25.2134 41.2074C25.2386 41.796 25.2134 41.8328 24.9106 41.3546C24.8097 41.2442 24.3304 41.1339 24.4313 41.0603Z" fill="#D1DB39"/>
<path fill-rule="evenodd" clip-rule="evenodd" d="M22.1357 40.8394C22.3123 39.9933 22.943 39.4047 23.0187 38.5586C23.0692 37.97 23.4728 37.5653 23.6747 37.1975C23.8765 36.7928 23.599 37.6757 23.5485 37.7493C23.2458 38.6322 23.0187 39.9197 22.8673 40.9129C22.8169 41.244 22.8673 41.5015 22.5394 41.0601C22.4637 40.9129 22.1105 40.8394 22.1357 40.8394Z" fill="#D1DB39"/>
<path fill-rule="evenodd" clip-rule="evenodd" d="M26.4865 41.3181C27.9246 40.6192 29.1104 40.2881 27.6723 40.8031C27.2686 40.9502 26.4613 43.5621 26.8902 43.5989C27.3948 43.6357 28.1517 43.231 28.3787 42.8264C29.5897 40.5824 28.2778 43.5253 28.076 44.6657C27.9498 45.2911 27.6218 45.5486 27.6723 45.6589C27.7985 45.9164 29.7663 43.8932 29.9682 43.3046C30.4223 42.017 29.9934 42.6056 29.2113 44.2242C28.959 44.7393 28.4796 45.5486 28.5553 45.7693C28.631 45.9164 30.2709 45.1807 30.7251 44.5921C31.8351 43.1574 31.1792 44.1139 29.9177 45.5118C29.1861 46.3211 28.7572 46.9465 28.9085 47.02C29.1861 47.1672 30.9269 46.3211 30.4475 45.7693C30.3214 45.6221 31.2549 49.2272 31.4062 48.7858C31.6333 48.1972 31.8099 47.3511 32.0622 46.1004C32.4407 46.0636 32.0118 48.3811 32.1884 48.1236C33.7778 45.6957 32.7182 49.0065 33.1471 48.4915C34.8879 46.3947 37.3856 43.5621 39.0255 41.5756C39.4039 41.1342 40.1104 40.2513 40.1356 39.6995C40.1608 39.258 40.2617 38.8166 40.2365 38.3016C40.2365 38.0073 40.1104 36.7198 40.1356 36.7933C38.0416 34.5493 36.7044 35.469 34.3076 36.9773C32.264 38.228 30.8007 38.5223 28.6815 38.8902C27.4452 39.0741 26.0576 39.6259 26.4865 41.3181Z" fill="#699B42"/>
<path fill-rule="evenodd" clip-rule="evenodd" d="M26.4833 41.3181C26.5842 39.4052 27.7447 39.7363 27.2906 40.8399C27.0888 41.3181 26.231 42.8999 26.6346 43.4149C26.8617 43.7092 27.0383 43.7092 27.2654 43.2678C28.4764 41.0238 27.9213 43.5621 27.6943 44.7025C27.2401 46.9465 28.0475 44.96 28.3502 44.1139C28.8044 42.8264 29.6117 42.6792 28.8296 44.261C28.4007 45.1071 28.0475 46.6154 29.1576 45.1807C30.2677 43.746 30.7975 44.1507 29.536 45.5486C27.8709 47.4247 29.1828 47.5718 30.0658 45.8061C30.1667 45.6221 31.5291 50.6251 31.4534 48.1604C31.4282 47.4983 30.6461 46.3579 31.3273 46.3211C31.7057 46.2843 32.2356 49.4112 32.2356 47.6454C32.2608 44.6657 32.8663 49.1537 33.169 48.4915C34.2034 46.1372 37.0291 43.5621 38.669 41.5756C39.0475 41.1342 39.7539 40.2513 39.7791 39.6995C39.8043 39.258 39.9053 38.8166 39.88 38.3016C39.88 38.0073 39.7539 36.7198 39.7791 36.7933C37.6851 34.5494 36.3479 35.469 33.9511 36.9773C31.9076 38.228 30.4443 38.5223 28.325 38.8902C27.0888 39.1109 26.0544 39.6259 26.4833 41.3181Z" fill="#99CC33"/>
<path fill-rule="evenodd" clip-rule="evenodd" d="M27.3409 39.6256C28.9555 38.8163 29.9899 39.0738 31.1 38.8899C31.5037 38.8163 31.9578 38.5588 32.3363 38.4485C32.6138 38.3749 32.9922 38.1174 32.4624 38.4853C31.0243 39.4417 29.6115 39.4049 28.2239 40.2142C27.6436 40.5453 27.2147 41.7961 27.3661 41.1339C27.467 40.7292 27.6436 39.736 27.3409 39.6256Z" fill="#D1DB39"/>
<path fill-rule="evenodd" clip-rule="evenodd" d="M28.0397 42.2375C28.6452 41.5386 29.3517 41.2443 29.8058 40.95C30.714 40.3614 31.6475 39.736 32.5305 39.0371C33.5397 38.2645 31.698 39.8096 31.4709 39.9935C30.6131 40.766 30.1338 41.0971 29.276 41.9432C29.1246 42.0904 28.3677 43.0468 28.2416 43.1204C28.0902 42.8997 28.2668 42.3479 28.0397 42.2375Z" fill="#D1DB39"/>
<path fill-rule="evenodd" clip-rule="evenodd" d="M29.1735 42.9734C29.8042 42.3112 30.4854 41.9434 30.9143 41.6123C31.1162 41.4651 31.2928 41.2444 31.4946 41.0973C31.6712 40.9501 31.873 40.7662 31.5703 41.134C31.0657 41.7226 30.5863 42.348 30.107 42.9366L29.1735 44.0034C29.0978 44.077 29.4258 43.1205 29.1735 42.9734Z" fill="#D1DB39"/>
<path fill-rule="evenodd" clip-rule="evenodd" d="M31.1385 46.2842C31.3908 45.8795 31.7188 45.5484 31.9711 45.107L33.8128 42.0905L34.4183 41.134L34.0651 41.7962L31.8197 46.0635C31.3908 46.9463 31.7188 45.9531 31.1385 46.2842Z" fill="#D1DB39"/>
<path fill-rule="evenodd" clip-rule="evenodd" d="M32.4003 46.4682C32.6274 46.1739 33.0563 45.7692 33.2076 45.4382C33.5608 44.776 33.9141 44.261 34.3682 43.6356C35.0241 42.7159 33.6618 45.0335 33.4852 45.4382C33.3338 45.806 33.2076 46.3946 33.1067 46.7993C32.9806 47.3879 32.9553 47.3879 32.7535 46.8728C32.7283 46.6889 32.2994 46.4682 32.4003 46.4682Z" fill="#D1DB39"/>
<path fill-rule="evenodd" clip-rule="evenodd" d="M30.1878 45.6957C30.5914 44.9232 31.3483 44.5186 31.6763 43.7093C31.8781 43.1575 32.3827 42.8632 32.6854 42.5689C32.9882 42.2378 32.4836 43.0103 32.4332 43.0839C31.9033 43.8564 31.3483 45.0336 30.9194 45.9533C30.7933 46.2475 30.768 46.5418 30.5662 45.99C30.5157 45.8429 30.1625 45.6957 30.1878 45.6957Z" fill="#D1DB39"/>
<path fill-rule="evenodd" clip-rule="evenodd" d="M33.9291 49.3744C35.0139 48.0869 36.0231 47.2408 34.8625 48.3812C34.5346 48.6755 34.7616 51.3609 35.1905 51.1769C35.6951 50.993 36.2502 50.2941 36.3006 49.8158C36.5781 47.3143 36.4772 50.478 36.7043 51.5448C36.8304 52.1334 36.6286 52.5381 36.7043 52.6116C36.9061 52.7588 38.0162 50.1101 37.991 49.4848C37.9153 48.1604 37.7387 48.8962 37.6125 50.6251C37.5621 51.1769 37.4107 52.1334 37.5873 52.2438C37.6882 52.3173 39.0002 50.9194 39.202 50.2205C39.7066 48.4547 39.4543 49.5951 38.7983 51.3977C38.4199 52.4645 38.2433 53.1634 38.4199 53.1634C38.7226 53.1634 40.0598 51.6184 39.3786 51.3609C39.202 51.2873 41.4726 54.0095 41.4474 53.5313C41.4222 52.9059 41.296 52.0966 41.0437 50.9194C41.3969 50.7355 41.8763 52.9059 41.952 52.6116C42.5323 49.7791 42.7846 53.1266 43.0116 52.5013C43.8694 49.8894 45.1561 46.2475 45.9382 43.746C46.1148 43.1575 46.4428 42.0906 46.2662 41.5756C46.1148 41.171 46.0391 40.7295 45.8373 40.3249C45.7111 40.0674 45.1309 39.0373 45.1561 39.0373C42.3304 38.0809 41.3969 39.4788 39.6813 41.9067C38.2433 43.9668 36.9314 44.8864 35.0644 46.174C33.9795 46.9833 32.8694 48.1237 33.9291 49.3744Z" fill="#699B42"/>
<path fill-rule="evenodd" clip-rule="evenodd" d="M33.9238 49.3748C33.2678 47.6458 34.5293 47.4251 34.5041 48.5654C34.5041 49.0437 34.3022 50.8462 34.8573 51.1405C35.1853 51.2877 35.3619 51.1773 35.4123 50.7359C35.6899 48.2344 36.144 50.6991 36.3458 51.7659C36.7747 53.8995 36.7747 51.8027 36.7495 50.9566C36.6738 49.6323 37.4054 49.1172 37.2793 50.8462C37.2036 51.7659 37.4559 53.2741 37.9353 51.5084C38.4398 49.7426 39.0958 49.853 38.4398 51.6555C37.5568 54.0467 38.8687 53.5684 39.0454 51.6187C39.0706 51.4348 42.2747 55.1135 41.2655 53.0166C40.988 52.4281 39.8022 51.8395 40.433 51.5084C40.7862 51.3244 42.4765 53.7892 41.7953 52.2441C40.6853 49.669 42.9811 53.2374 43.0064 52.5384C43.082 50.0369 44.7976 46.4686 45.5797 43.9671C45.7564 43.3785 46.0843 42.3117 45.9077 41.7967C45.7564 41.392 45.6807 40.9506 45.4788 40.5459C45.3527 40.2884 44.7724 39.2584 44.7976 39.2584C41.972 38.3019 41.0385 39.6998 39.3229 42.1278C37.8848 44.1878 36.5729 45.1075 34.7059 46.395C33.621 47.1675 32.8642 48.124 33.9238 49.3748Z" fill="#99CC33"/>
<path fill-rule="evenodd" clip-rule="evenodd" d="M34.074 47.5346C35.285 46.0632 36.3698 45.8056 37.3538 45.1435C37.707 44.886 38.035 44.4445 38.363 44.187C38.6153 44.0031 38.8423 43.5984 38.4891 44.1502C37.4799 45.6585 36.1428 46.2839 35.1336 47.6082C34.7299 48.16 34.7804 49.4475 34.6795 48.8222C34.629 48.4175 34.402 47.461 34.074 47.5346Z" fill="#D1DB39"/>
<path fill-rule="evenodd" clip-rule="evenodd" d="M35.7382 49.4479C36.041 48.565 36.596 47.9765 36.924 47.535C37.5547 46.5786 38.1855 45.6221 38.7657 44.6289C39.4217 43.4885 38.2611 45.6957 38.135 45.9532C37.6052 47.02 37.2772 47.535 36.8231 48.6754C36.7222 48.8961 36.369 50.0365 36.2933 50.1837C36.041 49.9997 35.9905 49.4479 35.7382 49.4479Z" fill="#D1DB39"/>
<path fill-rule="evenodd" clip-rule="evenodd" d="M37.0991 49.5582C37.4271 48.6753 37.9317 48.0499 38.2344 47.5717C38.3606 47.351 38.4615 47.0935 38.5876 46.836C38.7138 46.6152 38.8147 46.3945 38.6886 46.836C38.4363 47.5717 38.2344 48.3442 37.9821 49.0799L37.5028 50.441C37.4523 50.5514 37.4019 49.5949 37.0991 49.5582Z" fill="#D1DB39"/>
<path fill-rule="evenodd" clip-rule="evenodd" d="M40.2585 51.5081C40.3342 51.0299 40.5108 50.5884 40.6118 50.1102L41.2173 46.6523L41.4191 45.5487L41.3434 46.2844L40.8641 51.0299C40.7127 51.9495 40.6622 50.9563 40.2585 51.5081Z" fill="#D1DB39"/>
<path fill-rule="evenodd" clip-rule="evenodd" d="M41.4882 51.1037C41.5891 50.7726 41.8414 50.1841 41.8666 49.8162C41.9423 49.0804 42.0937 48.4551 42.2703 47.7193C42.5478 46.6157 42.1441 49.2644 42.1441 49.7058C42.1441 50.1105 42.245 50.6623 42.3207 51.0669C42.4216 51.6187 42.3964 51.6555 42.018 51.2877C41.8918 51.1405 41.4125 51.1405 41.4882 51.1037Z" fill="#D1DB39"/>
<path fill-rule="evenodd" clip-rule="evenodd" d="M39.1227 51.4715C39.2236 50.6254 39.7787 49.9264 39.7787 49.0435C39.7787 48.4917 40.1319 47.9767 40.3085 47.5721C40.4851 47.1674 40.2833 48.0503 40.258 48.1239C40.0562 49.0435 39.9805 50.3311 39.9301 51.3243C39.9048 51.6186 40.0057 51.8761 39.6021 51.545C39.4759 51.4347 39.0975 51.4715 39.1227 51.4715Z" fill="#D1DB39"/>
<path fill-rule="evenodd" clip-rule="evenodd" d="M55.7395 47.1302C54.6294 46.2106 53.6202 45.6588 54.806 46.4313C55.134 46.652 54.9574 49.3742 54.5285 49.3374C54.0239 49.3007 53.4436 48.7856 53.3931 48.3074C53.0652 45.8795 53.2165 49.0064 53.0147 50.1467C52.9138 50.7721 53.1156 51.1032 53.0399 51.1768C52.8381 51.3975 51.6776 49.1167 51.7028 48.4913C51.7532 47.1302 51.9298 47.8292 52.1064 49.5214C52.1569 50.0732 52.3335 50.9561 52.1569 51.14C52.056 51.2503 50.7188 50.2571 50.517 49.6317C49.9872 48.0131 50.2647 49.0799 50.9459 50.6618C51.3496 51.5814 51.5262 52.2804 51.3496 52.3172C51.0468 52.3907 49.6844 51.2871 50.3404 50.8089C50.517 50.6986 48.2968 54.0829 48.2968 53.6415C48.2968 53.0161 48.423 52.1332 48.65 50.9193C48.2968 50.8457 47.8427 53.1633 47.7922 52.869C47.1615 50.2203 46.9597 53.6415 46.7326 53.0529C45.8243 50.6985 44.4872 47.4981 43.6546 45.2541C43.4528 44.7391 43.0996 43.7826 43.3014 43.1941C43.4528 42.7526 43.5032 42.3112 43.7051 41.7962C43.8312 41.5019 44.3863 40.2879 44.361 40.3247C47.1867 38.4854 48.1202 39.6257 49.861 41.4651C51.3496 43.0469 52.6615 43.5619 54.5537 44.2977C55.6386 44.7759 56.7739 45.5484 55.7395 47.1302Z" fill="#699B42"/>
<path fill-rule="evenodd" clip-rule="evenodd" d="M55.7411 47.1302C56.3466 45.2173 55.1104 45.3645 55.1356 46.5049C55.1608 46.9831 55.3879 48.7121 54.8076 49.1535C54.4796 49.411 54.3283 49.3742 54.2526 48.896C53.9246 46.4681 53.5209 49.0799 53.3191 50.2203C52.9154 52.5011 52.8902 50.4043 52.9154 49.5214C52.9659 48.1603 52.2342 47.9028 52.3856 49.5582C52.4613 50.4778 52.2595 52.0229 51.7296 50.4043C51.1998 48.7856 50.5439 49.1167 51.225 50.6986C52.1333 52.8322 50.8214 52.7586 50.6195 50.8457C50.5943 50.6618 47.4407 55.3337 48.4246 52.9425C48.7021 52.2804 49.8627 51.3239 49.2319 51.1768C48.8787 51.1032 47.2388 54.0829 47.8696 52.354C48.9544 49.4478 46.709 53.7151 46.6838 53.0161C46.5576 50.5514 44.7916 47.5349 43.959 45.2909C43.7572 44.7759 43.404 43.8194 43.6058 43.2309C43.7572 42.7894 43.8076 42.348 44.0095 41.833C44.1356 41.5387 44.6907 40.3247 44.6654 40.3615C47.4911 38.5222 48.4246 39.6626 50.1654 41.5019C51.6539 43.0837 52.9659 43.5987 54.8581 44.3345C55.9934 44.8495 56.7755 45.5484 55.7411 47.1302Z" fill="#99CC33"/>
<path fill-rule="evenodd" clip-rule="evenodd" d="M55.538 45.3276C54.3017 44.2608 53.2169 44.3344 52.2077 43.9665C51.8293 43.8194 51.5265 43.4883 51.1733 43.3412C50.921 43.2308 50.6687 42.8997 51.0472 43.3412C52.0816 44.5183 53.444 44.7391 54.4531 45.7691C54.882 46.1737 54.8316 47.4981 54.9325 46.7991C55.0082 46.3945 55.21 45.4012 55.538 45.3276Z" fill="#D1DB39"/>
<path fill-rule="evenodd" clip-rule="evenodd" d="M53.9023 47.7556C53.5996 46.9831 53.0193 46.5784 52.6913 46.2106C52.0353 45.4748 51.3794 44.7023 50.7991 43.893C50.1179 42.9733 51.3289 44.7759 51.4551 44.9966C52.0101 45.8795 52.3381 46.3209 52.8175 47.2774C52.9184 47.4613 53.2968 48.4913 53.3725 48.6017C53.6248 48.4178 53.65 47.866 53.9023 47.7556Z" fill="#D1DB39"/>
<path fill-rule="evenodd" clip-rule="evenodd" d="M52.5583 48.3074C52.2051 47.5348 51.7005 47.0934 51.3725 46.6887C51.2463 46.5048 51.1454 46.2841 51.0193 46.0634C50.8931 45.8794 50.767 45.6955 50.9184 46.0634C51.1707 46.7255 51.3977 47.4245 51.6752 48.0499L52.1546 49.2638C52.2303 49.411 52.2555 48.4177 52.5583 48.3074Z" fill="#D1DB39"/>
<path fill-rule="evenodd" clip-rule="evenodd" d="M49.4407 51.2136C49.3397 50.7721 49.1631 50.4043 49.0622 49.926L48.4063 46.652L48.1792 45.622L48.2801 46.3209L48.8604 50.8825C48.9865 51.839 49.0118 50.8089 49.4407 51.2136Z" fill="#D1DB39"/>
<path fill-rule="evenodd" clip-rule="evenodd" d="M48.1728 51.1768C48.0719 50.8825 47.8196 50.3675 47.7691 50.0364C47.6682 49.3007 47.5168 48.7856 47.315 48.0867C47.0122 47.0935 47.4664 49.5949 47.4916 50.0364C47.4916 50.441 47.4159 51.0296 47.3402 51.4343C47.2645 52.0229 47.2898 52.0229 47.643 51.5814C47.7943 51.3607 48.2737 51.2136 48.1728 51.1768Z" fill="#D1DB39"/>
<path fill-rule="evenodd" clip-rule="evenodd" d="M50.5764 50.8089C50.4755 49.9628 49.8953 49.4478 49.8953 48.6017C49.8953 48.0499 49.5168 47.682 49.3402 47.3142C49.1636 46.9463 49.3907 47.7556 49.4159 47.866C49.643 48.7489 49.7439 49.9628 49.7943 50.9193C49.8196 51.2136 49.7186 51.5079 50.1223 51.0296C50.2232 50.9193 50.6017 50.8457 50.5764 50.8089Z" fill="#D1DB39"/>
<path fill-rule="evenodd" clip-rule="evenodd" d="M6.08913 22.6302C6.29097 22.7773 6.44234 22.998 6.44234 23.3291C6.44234 24.0649 6.69464 24.3592 6.99739 24.6167C7.30014 24.3959 7.57766 24.3224 7.85518 24.1384C8.05702 23.9913 8.53638 23.6234 8.73821 23.5866C9.36894 23.4763 8.9905 24.4327 9.31848 24.5431C9.69692 24.3592 10.1763 23.8441 10.4538 23.8074C10.7566 23.7338 10.8575 23.1084 10.8575 22.5934C10.8575 21.5266 7.65335 21.4162 6.99739 21.4162C6.4928 21.3794 6.0639 21.9312 6.08913 22.6302Z" fill="#699B42"/>
<path fill-rule="evenodd" clip-rule="evenodd" d="M15.8827 30.4289C16.2107 30.5761 15.9584 31.4957 16.1854 31.6797C16.3873 31.8636 17.0685 31.1647 17.2451 31.0543C17.3712 30.9807 17.3712 31.6797 17.3712 31.8636C17.3712 32.5993 18.2795 30.5025 18.3804 31.6797C18.4309 32.4154 19.2886 32.0475 19.6923 31.974C20.6006 31.7532 21.4584 30.7232 21.4584 29.2885C21.4584 27.5963 17.7244 29.1782 17.0937 29.4725C16.6143 29.6564 16.2611 30.3921 15.8827 30.4289Z" fill="#699B42"/>
<path fill-rule="evenodd" clip-rule="evenodd" d="M18.9287 34.9538C19.1053 35.3584 19.2315 35.5791 19.2315 36.2045C19.2315 36.3517 19.2062 36.6459 19.2567 36.7563C19.2819 36.8667 19.4585 37.0874 19.4333 37.1977C19.509 37.161 19.5594 37.161 19.6099 37.0506C19.6351 36.977 19.7613 36.8667 19.837 36.7931C19.9883 36.6459 20.3668 36.0941 20.5182 36.1677C20.4929 36.3884 20.4677 36.7563 20.4172 36.9035C20.3163 37.1242 20.2659 37.3817 20.2154 37.6392C20.1397 37.9703 20.3668 38.1542 20.4425 38.3014C20.5686 38.0438 20.8209 37.676 21.0227 37.5288C21.0984 37.4553 21.1741 37.3449 21.2246 37.2713C21.3003 37.1978 21.3507 37.161 21.3255 37.0506C21.3255 37.161 21.5273 37.3817 21.5273 37.676C21.5273 37.9703 21.4769 38.191 21.4769 38.5956C21.4769 39.0739 22.0067 38.6324 22.1076 38.5956C22.6374 38.4485 22.4608 39.221 22.6627 39.221C22.9654 39.221 23.142 38.3014 23.3186 38.191C23.5204 38.5221 23.142 39.4785 23.4952 39.4785C23.8484 39.4785 23.9241 38.6324 24.126 38.5956C24.5548 38.5221 23.8232 40.7293 24.5296 40.0303C24.7567 39.8096 25.1351 38.9267 25.337 38.9635C25.564 39.0003 25.4379 39.9935 25.7659 39.9935C25.9172 39.9935 26.6993 39.2578 26.9264 39.1107C27.2796 38.8899 27.6328 38.6324 27.9608 38.2646C28.4149 37.7495 28.3645 37.2345 28.6168 36.6827C28.5915 36.6827 28.3645 35.9838 28.2888 35.8366C27.431 34.2916 19.509 32.4155 18.9287 34.9538Z" fill="#699B42"/>
<path fill-rule="evenodd" clip-rule="evenodd" d="M32.8119 46.3575C33.1903 48.0865 33.7958 46.6518 34.4518 47.0565C34.9564 47.3876 35.0573 48.0129 35.461 48.3808C36.1422 49.0062 37.6055 46.7622 37.1766 45.4746C36.8234 44.371 34.25 44.8861 33.5688 45.3275C33.3165 45.5114 32.8623 46.4311 32.8119 46.3575Z" fill="#699B42"/>
<path fill-rule="evenodd" clip-rule="evenodd" d="M4.6309 14.5376C5.00934 13.9858 5.71576 10.8222 8.08731 10.8589C12.7547 10.9325 14.1171 14.6112 14.3946 17.4805C14.6217 19.982 12.0735 22.8882 9.57584 23.2928C6.77539 23.7343 2.81439 21.9685 2.03228 19.0256C1.22494 16.0459 3.7731 15.7516 4.6309 14.5376Z" fill="#C40202"/>
<path fill-rule="evenodd" clip-rule="evenodd" d="M4.63151 13.6179C5.00995 13.0661 5.71637 9.90249 8.08792 9.93928C12.7553 10.0128 14.1177 13.6915 14.3953 16.5609C14.6223 19.0624 12.0742 21.9685 9.57645 22.3732C6.776 22.8146 2.815 21.0489 2.03289 18.1427C1.22555 15.163 3.77371 14.8687 4.63151 13.6179Z" fill="url(#paint0_linear_2_2020)"/>
<path fill-rule="evenodd" clip-rule="evenodd" d="M4.98592 13.875C5.3139 13.3967 5.9951 10.4906 8.13959 10.5274C12.4033 10.6009 13.6396 13.9485 13.8919 16.5604C14.0937 18.8412 11.7726 21.4898 9.47674 21.8577C6.92858 22.2623 3.29556 20.6437 2.58914 17.9951C1.88272 15.2729 4.20381 15.0153 4.98592 13.875Z" fill="#F07464"/>
<path fill-rule="evenodd" clip-rule="evenodd" d="M7.11985 14.1695C7.4226 13.5809 7.87673 12.9556 8.58315 12.9188C10.9547 12.7716 11.535 14.7213 11.5602 16.3031C11.5854 17.6643 10.1726 19.3564 8.8859 19.6507C7.44783 20.0186 5.25288 19.43 4.97536 17.8482C4.82398 17.0021 5.32857 16.3031 5.70701 15.9353C5.22765 15.3467 4.62215 14.7213 3.96619 14.2431C4.21848 14.0592 4.47077 13.8384 4.62215 13.5809C4.72307 13.4338 4.82398 13.1395 5.00059 12.7716C5.73224 13.3234 6.33774 13.8016 7.11985 14.1695Z" fill="#FFB596"/>
<path fill-rule="evenodd" clip-rule="evenodd" d="M7.35398 13.8749C6.69802 11.4102 8.33792 10.2698 10.9113 12.4402C12.7026 13.9485 12.8035 15.3832 12.3998 17.3329C12.1476 18.5468 10.5833 17.3329 10.9365 16.45C11.9457 13.8381 8.43884 11.4102 8.4893 14.2796C8.4893 14.7946 7.58104 14.6842 7.35398 13.8749Z" fill="#E52614"/>
<path fill-rule="evenodd" clip-rule="evenodd" d="M5.43767 16.4503C2.9652 16.9285 2.66245 18.915 5.74042 20.3129C7.85969 21.2693 9.19684 20.7543 10.7358 19.5035C11.6945 18.731 9.95372 17.8849 9.29776 18.5471C7.40556 20.6071 3.69685 18.5103 6.27024 17.2596C6.7496 17.0756 6.24501 16.2663 5.43767 16.4503Z" fill="#E52614"/>
<path fill-rule="evenodd" clip-rule="evenodd" d="M19.8613 22.483C19.4828 21.9312 18.7764 18.7675 16.4048 18.8043C11.7374 18.8779 10.375 22.5566 10.0975 25.4259C9.87044 27.9274 12.4186 30.8336 14.9163 31.2382C17.7168 31.6797 21.6778 29.9139 22.4599 27.0077C23.2924 24.028 20.719 23.7337 19.8613 22.483Z" fill="#C40202"/>
<path fill-rule="evenodd" clip-rule="evenodd" d="M19.8632 21.6C19.4848 21.0482 18.7783 17.8846 16.4068 17.9214C11.7394 17.9949 10.377 21.6736 10.0995 24.543C9.8724 27.0445 12.4206 29.9506 14.9183 30.3553C17.7187 30.7967 21.6797 29.0309 22.4618 26.1248C23.2944 23.1083 20.721 22.814 19.8632 21.6Z" fill="url(#paint1_linear_2_2020)"/>
<path fill-rule="evenodd" clip-rule="evenodd" d="M19.5429 21.8213C19.2149 21.3431 18.5337 18.4369 16.3892 18.4737C12.1254 18.5473 10.864 21.8949 10.6369 24.5067C10.4351 26.7875 12.7562 29.4362 15.052 29.804C17.6002 30.2087 21.2332 28.5901 21.9396 25.9414C22.6461 23.2192 20.325 22.9617 19.5429 21.8213Z" fill="#F07464"/>
<path fill-rule="evenodd" clip-rule="evenodd" d="M17.3951 22.1516C17.0923 21.563 16.6382 20.9376 15.9318 20.9008C13.5602 20.7537 12.98 22.7034 12.9547 24.2852C12.9295 25.6463 14.3424 27.3385 15.629 27.6328C17.0671 28.0006 19.2621 27.4121 19.5396 25.8302C19.691 24.9841 19.1864 24.2852 18.8079 23.9173C19.2873 23.3287 19.8928 22.7034 20.5488 22.2251C20.2965 22.0412 20.0442 21.8205 19.8928 21.563C19.7919 21.4158 19.691 21.1215 19.5144 20.7537C18.7827 21.2687 18.152 21.7837 17.3951 22.1516Z" fill="#FFB596"/>
<path fill-rule="evenodd" clip-rule="evenodd" d="M17.1657 21.858C17.8217 19.3933 16.1818 18.2529 13.6084 20.4233C11.8171 21.9316 11.7162 23.3662 12.1199 25.3159C12.3722 26.5299 13.9364 25.3159 13.5832 24.4331C12.574 21.8212 16.0809 19.3933 16.0304 22.2626C16.0304 22.7409 16.9387 22.6673 17.1657 21.858Z" fill="#E52614"/>
<path fill-rule="evenodd" clip-rule="evenodd" d="M19.0856 24.3961C21.5581 24.8743 21.8608 26.8608 18.7829 28.2587C16.6636 29.2519 15.3517 28.7001 13.7875 27.4494C12.8288 26.6769 14.5696 25.8308 15.2255 26.4929C17.1177 28.553 20.8264 26.4561 18.2278 25.2422C17.7737 25.0215 18.2783 24.2489 19.0856 24.3961Z" fill="#E52614"/>
<path fill-rule="evenodd" clip-rule="evenodd" d="M21.4047 30.0243C21.7831 29.4725 22.4896 26.3089 24.8611 26.3457C29.5285 26.4192 30.8909 30.0979 31.1684 32.9673C31.3955 35.4688 28.8474 38.3749 26.3496 38.7796C23.5492 39.221 19.5882 37.4552 18.8061 34.5491C17.9987 31.5694 20.5469 31.2751 21.4047 30.0243Z" fill="#C40202"/>
<path fill-rule="evenodd" clip-rule="evenodd" d="M21.4058 29.1414C21.7842 28.5896 22.4907 25.4259 24.8622 25.4627C29.5296 25.5363 30.892 29.215 31.1695 32.0843C31.3966 34.5858 28.8484 37.492 26.3507 37.8966C23.5503 38.3381 19.5893 36.5723 18.8072 33.6662C17.9998 30.6496 20.548 30.3553 21.4058 29.1414Z" fill="url(#paint2_linear_2_2020)"/>
<path fill-rule="evenodd" clip-rule="evenodd" d="M21.7524 29.3626C22.0803 28.8843 22.7615 25.9782 24.906 26.015C29.1698 26.0885 30.406 29.4361 30.6583 32.048C30.8601 34.3288 28.5391 36.9774 26.2432 37.3453C23.695 37.7499 20.062 36.1313 19.3556 33.4827C18.6239 30.7605 20.9703 30.503 21.7524 29.3626Z" fill="#F07464"/>
<path fill-rule="evenodd" clip-rule="evenodd" d="M23.9087 29.6564C24.2114 29.0678 24.6655 28.4425 25.372 28.4057C27.7435 28.2585 28.3238 30.2082 28.349 31.7901C28.3743 33.1512 26.9614 34.8434 25.6747 35.1376C24.2366 35.5055 22.0417 34.9169 21.7642 33.3351C21.6128 32.489 22.1174 31.7901 22.4958 31.4222C22.0165 30.8336 21.411 30.2082 20.755 29.73C21.0073 29.5461 21.2596 29.3254 21.411 29.0679C21.5119 28.9207 21.6128 28.6264 21.7894 28.2585C22.4958 28.8103 23.1266 29.3254 23.9087 29.6564Z" fill="#FFB596"/>
<path fill-rule="evenodd" clip-rule="evenodd" d="M24.108 29.3993C23.452 26.9346 25.092 25.7942 27.6653 27.9646C29.4566 29.4728 29.5575 30.9075 29.1539 32.8572C28.9016 34.0712 27.3374 32.8572 27.6906 31.9743C28.6997 29.3625 25.1929 26.9346 25.2433 29.8039C25.2433 30.2821 24.3351 30.1718 24.108 29.3993Z" fill="#E52614"/>
<path fill-rule="evenodd" clip-rule="evenodd" d="M22.1857 31.9373C19.7132 32.4155 19.4104 34.402 22.4884 35.7999C24.6077 36.7564 25.9448 36.2414 27.4838 34.9906C28.4425 34.2181 26.7017 33.372 26.0457 34.0341C24.1535 36.0942 20.4448 33.9974 23.0435 32.7834C23.4976 32.5627 22.993 31.7902 22.1857 31.9373Z" fill="#E52614"/>
<path fill-rule="evenodd" clip-rule="evenodd" d="M37.0018 38.4482C36.6234 37.8964 35.917 34.7328 33.5454 34.7695C28.878 34.8431 27.5156 38.5218 27.2381 41.3912C27.011 43.8927 29.5592 46.7988 32.0569 47.2035C34.8573 47.6449 38.8183 45.8791 39.6004 42.973C40.4078 39.9933 37.8596 39.6622 37.0018 38.4482Z" fill="#C40202"/>
<path fill-rule="evenodd" clip-rule="evenodd" d="M37.0072 37.5287C36.6288 36.9769 35.9224 33.8132 33.5508 33.85C28.8834 33.9236 27.521 37.6022 27.2435 40.4716C27.0164 42.9731 29.5646 45.8793 32.0623 46.2839C34.8628 46.7253 38.8238 44.9596 39.6059 42.0534C40.4132 39.0737 37.865 38.7794 37.0072 37.5287Z" fill="url(#paint3_linear_2_2020)"/>
<path fill-rule="evenodd" clip-rule="evenodd" d="M36.6496 37.7864C36.3216 37.3081 35.6404 34.402 33.4959 34.4388C29.2322 34.5123 27.9707 37.8599 27.7437 40.4718C27.5418 42.7526 29.8629 45.4012 32.1588 45.7691C34.707 46.1737 38.34 44.5551 39.0464 41.9065C39.778 39.1843 37.4317 38.9268 36.6496 37.7864Z" fill="#F07464"/>
<path fill-rule="evenodd" clip-rule="evenodd" d="M34.5048 38.0805C34.2021 37.4919 33.748 36.8665 33.0415 36.8297C30.67 36.6826 30.0897 38.6323 30.0645 40.2141C30.0393 41.5752 31.4521 43.2674 32.7388 43.5617C34.1769 43.9296 36.3718 43.341 36.6493 41.7592C36.8007 40.9131 36.2961 40.2141 35.9177 39.8463C36.397 39.2577 37.0025 38.6323 37.6585 38.1541C37.4062 37.9701 37.1539 37.7494 37.0025 37.4919C36.9016 37.3448 36.8007 37.0505 36.6241 36.6826C35.9177 37.2344 35.2869 37.7126 34.5048 38.0805Z" fill="#FFB596"/>
<path fill-rule="evenodd" clip-rule="evenodd" d="M34.2765 37.7864C34.9325 35.3217 33.2926 34.1813 30.7192 36.3518C28.9279 37.86 28.827 39.2947 29.2307 41.2444C29.483 42.4583 31.0472 41.2444 30.694 40.3615C29.6848 37.7496 33.1917 35.3217 33.1412 38.1911C33.1664 38.7061 34.0747 38.5957 34.2765 37.7864Z" fill="#E52614"/>
<path fill-rule="evenodd" clip-rule="evenodd" d="M36.2153 40.3612C38.6877 40.8395 38.9905 42.826 35.9125 44.2238C33.7933 45.1803 32.4561 44.6653 30.9171 43.4145C29.9584 42.642 31.6992 41.7959 32.3552 42.4581C34.2474 44.5181 37.9561 42.4213 35.3575 41.2073C34.9033 40.9866 35.4079 40.1773 36.2153 40.3612Z" fill="#E52614"/>
<path fill-rule="evenodd" clip-rule="evenodd" d="M38.8138 43.2306C39.1923 42.6788 39.8987 39.5151 42.2702 39.5519C46.9377 39.6255 48.3 43.3042 48.5776 46.1735C48.8046 48.675 46.2565 51.5812 43.7588 51.9858C40.9583 52.4273 36.9973 50.6615 36.2152 47.7554C35.4079 44.7756 37.956 44.4814 38.8138 43.2306Z" fill="#C40202"/>
<path fill-rule="evenodd" clip-rule="evenodd" d="M38.8137 42.3479C39.1921 41.7961 39.8986 38.6324 42.2701 38.6692C46.9375 38.7428 48.2999 42.4214 48.5774 45.2908C48.8045 47.7923 46.2563 50.6984 43.7586 51.1031C40.9582 51.5445 36.9972 49.7788 36.2151 46.8726C35.4077 43.8561 37.9559 43.5618 38.8137 42.3479Z" fill="url(#paint4_linear_2_2020)"/>
<path fill-rule="evenodd" clip-rule="evenodd" d="M39.1642 42.5688C39.4922 42.0905 40.1734 39.1844 42.3179 39.2212C46.5816 39.2947 47.8431 42.6423 48.0702 45.2542C48.272 47.535 45.9509 50.1836 43.655 50.5515C41.1069 50.9561 37.4738 49.3375 36.7674 46.6889C36.061 43.9666 38.3821 43.7091 39.1642 42.5688Z" fill="#F07464"/>
<path fill-rule="evenodd" clip-rule="evenodd" d="M41.315 42.8629C41.6178 42.2743 42.0719 41.6489 42.7783 41.6122C45.1499 41.465 45.7302 43.4147 45.7554 44.9965C45.7806 46.3576 44.3678 48.0498 43.0811 48.3441C41.643 48.712 39.4481 48.1234 39.1705 46.5416C39.0192 45.6955 39.5238 44.9965 39.9022 44.6287C39.4228 44.0401 38.8173 43.4147 38.1614 42.9365C38.4137 42.7525 38.666 42.5318 38.8173 42.2743C38.9183 42.1272 39.0192 41.8329 39.1958 41.465C39.9274 42.0168 40.5329 42.495 41.315 42.8629Z" fill="#FFB596"/>
<path fill-rule="evenodd" clip-rule="evenodd" d="M41.5362 42.6056C40.8803 40.1409 42.5202 39.0005 45.0936 41.1709C46.8848 42.6792 46.9858 44.1139 46.5821 46.0636C46.3298 47.2775 44.7656 46.0636 45.1188 45.1807C46.128 42.5688 42.6211 40.1409 42.6716 43.0103C42.6716 43.4885 41.7381 43.3781 41.5362 42.6056Z" fill="#E52614"/>
<path fill-rule="evenodd" clip-rule="evenodd" d="M39.6179 45.1437C37.1454 45.6219 36.8427 47.6084 39.9207 49.0063C42.0399 49.9628 43.3771 49.4478 44.9161 48.197C45.8748 47.4245 44.134 46.5784 43.478 47.2406C41.5858 49.3006 37.8771 47.2038 40.4757 45.9898C40.9046 45.7691 40.4252 44.9966 39.6179 45.1437Z" fill="#E52614"/>
<path fill-rule="evenodd" clip-rule="evenodd" d="M7.4999 18.6208C17.6169 29.289 29.0205 39.7732 41.8118 48.3445C51.7017 54.9661 52.4333 45.3648 45.9746 40.4353C33.8898 31.1651 21.9058 22.2627 11.3348 10.9692C4.49761 3.61185 0.158166 10.8588 7.4999 18.6208Z" fill="#94230F"/>
<path fill-rule="evenodd" clip-rule="evenodd" d="M7.00211 15.0889C16.9172 26.787 29.3048 38.8898 42.4493 46.284C47.5708 49.1901 49.2864 45.9161 45.4516 43.2675C33.0892 35.9837 16.4126 22.6301 8.91954 11.7045C4.58009 5.41396 2.63744 10.5641 7.00211 15.0889Z" fill="#C95838"/>
<path fill-rule="evenodd" clip-rule="evenodd" d="M9.42598 14.7728C19.5429 25.4409 28.4489 36.0723 41.5934 43.4664C46.7149 46.3726 44.5452 43.0985 42.8548 41.9214C29.4833 33.8283 18.231 24.4845 8.89617 12.5288C5.31361 7.93047 5.03608 10.2848 9.42598 14.7728Z" fill="#DB8061"/>
<path d="M44.3867 44.7024C43.8821 44.7024 42.9233 44.2977 41.561 43.5252C30.2078 37.1243 22.0587 28.4059 13.4555 19.1356C12.1436 17.7009 10.756 16.2662 9.3936 14.7948C7.19865 12.5508 6.01287 10.6379 6.13901 10.1229C6.16424 10.0493 6.18947 9.97572 6.31562 9.97572C6.61837 9.97572 7.47617 10.6379 8.93947 12.4772C13.5312 18.3631 18.5771 23.6236 24.3798 28.5898C29.8798 33.2985 35.9096 37.6393 42.8477 41.8698C43.7055 42.4952 44.9165 43.8195 44.8155 44.4081C44.7651 44.592 44.6389 44.7024 44.3867 44.7024ZM6.31562 10.0493C6.23993 10.0493 6.2147 10.1229 6.2147 10.1229C6.13901 10.4539 6.87066 12.0358 9.44405 14.7212C10.8064 16.1927 12.1688 17.6273 13.506 19.062C22.1092 28.2955 30.233 37.0139 41.5862 43.4148C42.9486 44.1873 43.9073 44.592 44.3867 44.592C44.538 44.592 44.6894 44.5552 44.7146 44.4081C44.7903 43.9666 43.7811 42.6791 42.7972 41.9801C35.8591 37.7497 29.8041 33.4088 24.3293 28.7001C18.5266 23.6972 13.4555 18.4367 8.86378 12.5508C7.42571 10.7114 6.59314 10.0493 6.31562 10.0493Z" fill="#B96B0B"/>
<path d="M6.06035 16.119C5.9342 16.2294 5.78283 16.303 5.63145 16.3398C5.17732 15.6776 4.82411 15.0154 4.52136 14.3901C4.59705 14.0222 4.74843 13.7279 4.97549 13.5072C6.08558 12.5507 8.15438 11.0057 10.0718 10.5643C10.3241 10.4907 10.6016 10.4539 10.8539 10.4539C11.0053 10.601 11.1567 10.7482 11.308 10.9321C12.2415 11.9254 13.2002 12.9186 14.159 13.8751C14.1085 13.9854 14.058 14.0958 13.9824 14.1694C13.8057 14.4269 13.503 14.6108 13.0489 14.8683C12.2163 15.3465 10.5512 16.2294 10.2232 16.9651C10.2232 17.0019 10.198 17.0019 10.198 17.0387C11.636 16.1558 13.3769 14.9787 14.9663 15.0154C15.0924 15.0154 15.1934 15.0154 15.3195 15.0154C16.1773 15.8615 17.0603 16.7076 17.9434 17.5537V17.6273C17.9181 19.6138 16.3035 20.3863 16.1268 22.851C16.4044 22.7406 16.7323 22.5935 17.1108 22.4096C18.4732 21.3795 20.1131 20.791 21.8539 21.122C22.6865 21.8578 23.519 22.5935 24.3768 23.3292C24.3516 23.4764 24.3264 23.6235 24.3011 23.8075C24.2255 24.065 24.0741 24.4328 23.8218 24.9478C23.1911 26.2722 21.425 29.583 22.3585 28.8104C23.6704 27.7804 25.5878 26.309 27.9342 26.3457C28.5649 26.8608 29.2209 27.4126 29.8516 27.9276C29.8516 28.0011 29.8516 28.1115 29.8516 28.1851C29.8264 28.3322 29.8011 28.4794 29.7759 28.5897C29.2209 30.5762 29.2209 33.0409 29.4732 34.8435C29.5488 35.3585 29.6498 35.7999 29.7507 36.131C30.0282 35.8735 30.3057 35.5424 30.6337 35.2113C32.0465 33.7031 33.7369 31.9373 34.9984 32.1948C36.1337 32.4523 36.7897 33.7399 36.4869 36.7932C36.1085 40.5086 36.1337 41.7226 36.3355 41.7594C36.6635 41.8329 37.5213 41.0972 38.4296 40.2879C39.4135 39.4418 40.4227 38.5589 41.4571 38.1911C41.9617 38.0071 42.4158 37.9335 42.7942 37.9703L44.5603 39.3314C44.7873 39.8097 44.9387 40.3983 45.0396 41.0604C45.2162 42.0904 45.2162 43.3044 45.2162 44.5551C45.2162 45.8795 45.2162 47.3141 45.4433 48.2706C45.5947 48.9695 45.4181 49.7053 44.9892 50.0732C44.535 49.8892 44.0305 49.6685 43.5006 49.3742C43.5006 49.3374 43.4754 49.3006 43.4754 49.2638C43.1222 47.7924 43.1222 46.137 43.1222 44.5551C43.1222 43.4883 43.1222 42.4583 42.9961 41.7226C42.9204 41.1708 42.6428 40.8765 41.9112 41.134C41.2048 41.3915 40.3218 42.164 39.464 42.863C38.48 43.7091 37.5465 44.5184 36.6635 44.7023C35.9571 44.1873 35.2759 43.6723 34.5947 43.1573C34.1658 41.8697 34.0649 39.7361 34.4181 36.2781C34.4938 35.432 34.7965 35.1378 34.6956 35.1378C34.2667 35.0274 32.9296 36.4253 31.8195 37.6025C31.2897 38.1543 30.7851 38.7061 30.3814 39.0371C30.1796 39.2211 29.9525 39.3314 29.7254 39.3682C29.1956 38.9268 28.6406 38.4853 28.1108 38.0439C28.0603 37.9703 28.0351 37.86 27.9846 37.7864C27.7323 37.161 27.5557 36.3517 27.4043 35.4321C27.1521 33.7031 27.1016 31.4591 27.4043 29.3622C25.7392 29.5094 24.3011 30.6498 23.292 31.4223C22.636 31.9373 22.081 32.342 21.6016 32.4523C21.097 32.0109 20.5924 31.5327 20.1131 31.0912C19.558 29.1783 20.7186 26.1986 21.6016 24.2121C20.214 24.065 19.0282 24.2857 17.7163 25.2789C16.909 25.6468 16.253 25.9779 15.6475 25.9779C14.5626 25.9779 13.9571 25.2789 13.9571 23.4028C13.9319 21.122 14.6888 20.0552 15.2943 18.7677C15.5718 18.1791 15.8241 17.6273 15.8493 17.5537C15.8493 17.2594 12.292 18.3262 11.8126 18.5838C10.7278 19.1723 9.79429 20.0552 9.03741 20.2024C8.53282 19.6874 8.02824 19.1723 7.54888 18.6205C7.29659 16.5973 9.36539 14.0222 10.3493 13.1761C8.70943 13.4336 6.86769 15.0522 6.06035 16.119Z" fill="#AC3019"/>
<path d="M5.35643 16.312C4.87707 16.7535 4.22111 16.496 3.94359 15.797C3.64084 15.0981 3.81744 14.1416 4.2968 13.737C5.40689 12.7805 7.47569 11.2355 9.39312 10.794C10.8564 10.463 12.2693 10.7573 13.3037 12.2655C13.8082 13.0012 13.783 13.7002 13.3037 14.4359C13.1271 14.6934 12.8243 14.8774 12.3702 15.1349C11.5376 15.6131 9.87248 16.496 9.54449 17.2317C9.54449 17.2685 9.51927 17.2685 9.51927 17.3053C10.9573 16.4224 12.6982 15.2452 14.2876 15.282C16.5582 15.3556 17.2899 16.312 17.2647 17.8939C17.2394 19.8804 15.6248 20.6529 15.4482 23.1176C15.7257 23.0072 16.0537 22.8601 16.4321 22.6761C18.2738 21.2782 20.5697 20.7264 23.0169 22.0876C23.0422 22.0876 23.0674 22.1243 23.0926 22.1243C23.6981 22.4922 23.8747 23.1544 23.6224 24.074C23.5468 24.3315 23.3954 24.6994 23.1431 25.2144C22.5124 26.5387 20.7463 29.8495 21.6798 29.077C23.1683 27.9366 25.4642 26.1341 28.3151 26.7595C28.8701 26.8698 29.2738 27.6423 29.1981 28.4884C29.1729 28.6356 29.1477 28.7827 29.1224 28.8931C28.5674 30.8796 28.5674 33.3443 28.8197 35.1468C28.8954 35.6618 28.9963 36.1033 29.0972 36.4344C29.3747 36.1769 29.6523 35.8458 29.9802 35.5147C31.3931 34.0064 33.0834 32.2407 34.3449 32.4982C35.4802 32.7557 36.1362 34.0432 35.8334 37.0965C35.455 40.812 35.4802 42.0259 35.6821 42.0627C36.01 42.1363 36.8678 41.4006 37.7761 40.5913C38.76 39.7452 39.7692 38.8623 40.8036 38.4944C43.0995 37.6851 44.0077 39.0462 44.3862 41.327C44.5628 42.357 44.5628 43.571 44.5628 44.8217C44.5628 46.146 44.5628 47.5807 44.7898 48.5372C44.9664 49.3097 44.6889 50.1926 44.1591 50.4501C43.6293 50.7076 43.0238 50.3029 42.8472 49.5304C42.494 48.059 42.494 46.4036 42.494 44.8217C42.494 43.7549 42.494 42.7249 42.3678 41.9892C42.2921 41.4374 42.0146 41.1431 41.283 41.4006C40.5765 41.6581 39.6935 42.4306 38.8357 43.1295C37.5995 44.1964 36.4389 45.1896 35.4045 44.9689C33.9412 44.6378 33.1844 42.541 33.7899 36.5815C33.8655 35.7354 34.1683 35.4411 34.0674 35.4411C33.6385 35.3308 32.3013 36.7287 31.1912 37.9058C30.6614 38.4576 30.1568 39.0094 29.7532 39.3405C29.4252 39.6348 29.0972 39.7084 28.7692 39.6348C28.189 39.5244 27.7348 38.9359 27.3816 38.053C27.1293 37.4276 26.9527 36.6183 26.8013 35.6986C26.549 33.9697 26.4986 31.7257 26.8013 29.6288C25.1362 29.776 23.6981 30.9164 22.689 31.6889C21.5789 32.535 20.822 33.1236 20.0651 32.351C18.4504 30.6589 19.9137 26.8698 20.9986 24.4787C19.611 24.3315 18.4252 24.5523 17.1133 25.5455C16.3059 25.9134 15.65 26.2445 15.0445 26.2445C13.9596 26.2445 13.3541 25.5455 13.3541 23.6694C13.3289 21.3886 14.0858 20.3218 14.6913 19.0343C14.994 18.4457 15.2463 17.8939 15.2463 17.8203C15.2463 17.526 11.689 18.5928 11.2096 18.8503C9.67064 19.6964 8.4344 21.0575 7.60184 20.2482C5.58349 18.2617 8.51009 14.5095 9.7211 13.4427C8.00551 13.5898 6.16377 15.2084 5.35643 16.312Z" fill="#B96B0B"/>
<path d="M4.04452 14.0218C4.1202 13.9115 4.19589 13.8011 4.29681 13.6908C5.4069 12.7343 7.4757 11.1893 9.39313 10.7478C10.8564 10.4167 12.2693 10.711 13.3037 12.2193C13.6064 12.6607 13.7073 13.1022 13.6569 13.5436C13.6064 13.6172 13.5812 13.6908 13.5307 13.7643C13.3541 14.0218 13.0514 14.2058 12.5973 14.4633C12.2945 14.6104 8.38396 17.2591 9.56973 17.1855C9.56973 17.2223 9.54451 17.2223 9.54451 17.2591C10.9826 16.3762 12.7234 15.199 14.3128 15.2358C16.5835 15.3094 17.3151 16.2658 17.2899 17.8477C17.2899 18.142 17.2394 18.3995 17.189 18.6202C16.8105 19.5031 16.3564 19.9077 15.8266 21.1952C15.6248 21.6735 15.4229 22.4092 15.4734 23.0714C15.4986 23.6232 16.0789 22.8139 16.4573 22.6299C18.2991 21.232 20.5949 20.6802 23.0422 22.0413C23.0674 22.0413 23.0926 22.0781 23.1179 22.0781C23.6981 22.446 23.8748 23.0346 23.6729 23.8807C23.5972 24.0646 23.4963 24.2485 23.3954 24.506C22.9413 25.4993 21.8312 27.5961 21.6798 28.2951C21.4023 28.9572 21.3266 29.3251 21.705 29.0308C23.1936 27.8904 25.4894 26.0879 28.3403 26.7133C28.8954 26.8236 29.2991 27.5961 29.2234 28.4422C29.1981 28.5894 29.1729 28.7365 29.1477 28.8469C28.5926 30.8334 28.5926 33.2981 28.8449 35.1006C28.9206 35.6156 29.0215 36.0571 29.1224 36.3882C29.4 36.1306 29.6775 35.7996 30.0055 35.4685C31.4183 33.9602 33.1087 32.1945 34.3701 32.452C35.5055 32.7095 36.1614 33.997 35.8587 37.0503C35.4802 40.7658 35.5055 41.9797 35.7073 42.0165C36.0353 42.0901 36.8931 41.3544 37.8013 40.545C38.7853 39.699 39.7944 38.8161 40.8289 38.4482C43.1247 37.6389 44.033 39 44.4114 41.2808C44.588 42.3108 44.588 43.5248 44.588 44.7755C44.588 46.0998 44.588 47.5345 44.8151 48.491C44.8908 48.7853 44.8908 49.0428 44.8403 49.3371C44.7142 49.5578 44.5628 49.7049 44.3862 49.7785C43.8564 50.036 43.2509 49.6314 43.0743 48.8588C42.7211 47.3874 42.7211 45.732 42.7211 44.1501C42.7211 43.0833 42.7211 42.0533 42.5949 41.3176C42.5192 40.7658 42.2417 40.4715 41.51 40.729C40.8036 40.9865 39.9206 41.759 39.0628 42.458C37.8266 43.5248 36.666 44.518 35.6316 44.2973C34.1683 43.9662 33.4114 41.8694 34.0169 35.9099C34.0926 35.0638 34.3954 34.7695 34.2945 34.7695C33.8656 34.6592 32.5284 36.0571 31.4183 37.2342C30.8885 37.786 30.3839 38.3378 29.9802 38.6689C29.6523 38.9632 29.3243 39.0368 28.9963 38.9632C28.416 38.8529 27.9619 38.2643 27.6087 37.3814C27.3564 36.756 27.1798 35.9467 27.0284 35.027C26.5995 32.5991 27.4825 29.1044 27.0284 28.9572C25.3633 29.1044 23.9 29.9873 22.8908 30.7966C21.7807 31.6427 21.0491 32.4888 20.2922 31.7162C19.2073 30.5759 19.5101 28.5158 20.1408 26.5661C20.494 25.5729 20.8472 24.69 21.2004 23.8439C18.9803 22.5564 13.556 28.5158 13.556 23.0346C13.556 22.1517 13.6569 21.416 13.8335 20.8274C14.0858 20.1652 14.4138 19.6502 14.6913 19.0248C14.767 18.8409 15.4482 17.4798 15.4482 17.1855C15.4482 16.8912 13.9596 17.1119 11.2601 18.0684C9.72111 18.9145 8.63625 20.4227 7.80368 19.6502C7.0468 18.9145 6.97112 17.9212 7.24864 16.928C7.85414 15.4565 9.03992 14.0586 9.69588 13.47C10.478 13.1022 10.3771 12.8815 9.92295 12.8447C8.28304 12.9918 6.4413 14.6104 5.63396 15.714C5.15461 16.1555 4.49864 15.898 4.22112 15.199C4.01929 14.7944 3.96883 14.3897 4.04452 14.0218Z" fill="#FFCB05"/>
<path fill-rule="evenodd" clip-rule="evenodd" d="M4.7025 13.9122C4.55113 14.1329 4.62682 14.6111 4.90434 14.6111C5.18186 14.6111 5.10617 14.1697 5.63599 13.9858C6.1658 13.765 7.78048 12.5143 8.23461 12.22C8.68874 11.9257 9.77359 11.705 8.94103 11.705C8.10846 11.705 6.69562 12.735 6.11535 13.1029C5.5603 13.4707 5.28278 13.4707 5.08094 13.6179C4.90434 13.765 4.7025 13.9122 4.7025 13.9122Z" fill="#F8E5A8"/>
<path fill-rule="evenodd" clip-rule="evenodd" d="M9.94705 13.9116C9.59384 14.4634 9.2154 15.1255 8.81173 15.567C8.33237 16.0452 7.39889 17.3327 7.67641 18.3628C7.95393 19.4296 8.98834 18.7306 9.46769 18.3628C10.0732 17.8845 9.59384 17.7374 9.13971 17.8478C8.00439 18.1788 8.93788 16.4499 9.19017 15.9349C9.392 15.4934 9.61907 15.1255 9.8209 14.7209C9.84613 14.6473 10.1237 13.9484 9.94705 13.9116Z" fill="#F8E5A8"/>
<path fill-rule="evenodd" clip-rule="evenodd" d="M14.8945 19.6136C14.844 20.239 14.3395 21.3426 14.1628 22.0047C13.9106 22.8876 13.9862 24.5798 14.844 24.6166C15.1216 24.6166 15.4243 24.727 15.6514 24.543C16.0551 24.2487 15.0963 23.9912 14.9954 23.9912C14.4656 23.8809 14.617 21.968 14.7431 21.4529C14.844 21.0483 15.0459 20.5701 15.0459 20.1286C15.0459 19.6136 14.9197 19.6872 14.8945 19.6136Z" fill="#F8E5A8"/>
<path fill-rule="evenodd" clip-rule="evenodd" d="M16.1585 23.5503C15.881 24.286 16.537 23.8814 16.8145 23.5871C17.2182 23.1824 17.5714 22.9985 18.0003 22.7042C18.303 22.4835 18.2273 22.2628 17.8994 22.2996C17.2434 22.3731 16.3856 22.9249 16.1585 23.5503Z" fill="#F8E5A8"/>
<path fill-rule="evenodd" clip-rule="evenodd" d="M20.8763 25.7572C20.4222 26.7504 20.0438 28.4794 20.0438 29.6934C20.0438 30.7234 20.624 31.0545 21.2548 30.613C21.4314 30.5027 22.5667 29.6198 22.0116 29.583C21.2548 29.5094 20.3465 30.2452 20.5231 28.369C20.5736 27.7437 20.8511 27.2286 20.9268 26.6033C20.952 26.3826 21.0277 26.1986 21.0277 25.9411C21.0529 25.794 20.8511 25.6836 20.8763 25.7572Z" fill="#F8E5A8"/>
<path fill-rule="evenodd" clip-rule="evenodd" d="M27.3338 32.3789C27.2328 33.0043 27.4851 36.168 27.914 36.9037C28.6709 38.228 30.3108 36.5358 30.9668 35.7265C31.9255 34.5493 30.8406 35.0644 30.3865 35.5794C29.9071 36.1312 27.914 37.4923 27.8383 35.5794C27.8383 35.1011 27.6365 32.2686 27.3338 32.3789Z" fill="#F8E5A8"/>
<path fill-rule="evenodd" clip-rule="evenodd" d="M34.8004 41.1339C34.8004 42.679 36.0114 43.3411 36.8439 42.4214C37.071 42.1639 38.6352 40.8028 38.6604 40.5453C38.6857 40.251 38.1811 40.5453 38.1054 40.5453C37.7522 40.7293 37.2981 41.3178 36.9196 41.5754C36.6169 41.7961 35.8852 42.3847 35.532 42.0904C35.1788 41.8329 35.1283 41.2075 34.8004 41.1339Z" fill="#F8E5A8"/>
<path fill-rule="evenodd" clip-rule="evenodd" d="M12.9343 14.2795C13.2119 14.1323 13.4137 13.9852 13.5398 13.7644C13.5903 13.6909 13.6408 13.6173 13.666 13.5437C13.7164 13.1023 13.6155 12.6608 13.3128 12.2194C13.1866 12.0355 13.0605 11.8515 12.9091 11.7044V14.2795H12.9343ZM12.9343 15.8613V15.4198C13.3885 15.2727 13.8426 15.1991 14.2967 15.1991C16.5674 15.2727 17.299 16.2291 17.2738 17.811C17.2738 18.1053 17.2233 18.3628 17.1729 18.5835C16.8197 19.3928 16.416 19.7975 15.9366 20.8643C15.9366 20.8643 15.9366 19.7239 15.8862 19.5032C15.7348 18.9881 15.5834 18.6203 15.205 18.4731C15.0788 18.4363 14.9779 18.4731 14.8518 18.5467C15.0788 18.0685 15.4068 17.3327 15.4068 17.112C15.4068 16.9281 14.7004 16.9649 13.4137 17.296C13.4137 17.1856 13.4137 17.112 13.4137 17.0752C13.4137 16.5602 13.338 16.5602 13.1866 16.1924C13.1362 16.0452 13.0353 15.9349 12.9343 15.8613ZM18.182 21.6C18.2577 21.6 18.3334 21.6368 18.4091 21.6736C18.8128 21.8575 19.0651 22.5565 19.2164 23.0715C19.2921 23.329 19.3426 23.5497 19.3426 23.8072C20.049 23.5865 20.6797 23.5129 21.1591 23.8072C20.8816 24.3958 20.6545 25.0212 20.4022 25.6833C20.7302 25.1683 21.2348 25.058 21.6889 25.3522C21.8655 25.4626 22.0926 25.6833 22.2187 25.904C22.244 25.9408 22.3701 26.2351 22.3953 26.4558C22.7485 25.7201 23.127 24.9844 23.354 24.5062C23.455 24.2486 23.5559 24.0647 23.6316 23.8808C23.8334 23.0347 23.6568 22.4093 23.0765 22.0782C23.0513 22.0782 23.0261 22.0414 23.0008 22.0414C21.2852 21.0482 19.6453 21.0482 18.182 21.6ZM24.5398 27.1548C24.6155 27.1916 24.7164 27.2284 24.8426 27.3019C25.4985 27.6698 25.7004 28.4055 25.5995 29.2884C26.0536 29.1413 26.5077 29.0309 26.9871 28.9941C27.1384 29.0309 27.1384 29.4724 27.088 30.1345C27.5421 29.9874 28.0215 30.1713 28.3999 30.6495C28.5008 30.7967 28.627 30.9438 28.7027 31.1645C28.7783 30.3552 28.9045 29.5827 29.1063 28.847C29.1568 28.7366 29.182 28.5895 29.182 28.4423C29.2577 27.633 28.8793 26.8605 28.299 26.7134C26.9114 26.3455 25.6499 26.6398 24.5398 27.1548ZM31.5536 33.7764C31.7302 33.6293 31.9068 33.6293 32.1591 33.6293C32.5375 33.6293 32.8655 34.0707 33.0421 34.4018C33.0926 34.5121 33.143 34.8432 33.143 34.9904C33.143 35.1007 33.1682 35.3214 33.143 35.4318C33.6224 34.9904 34.026 34.7329 34.2279 34.7696C34.3288 34.8064 34.0765 35.0271 33.9756 35.7629C34.0008 35.7997 34.0008 35.7997 33.9756 35.7629C34.2531 35.6157 34.3288 35.4686 34.6568 35.4686C35.0857 35.4686 35.4389 35.6893 35.7416 36.0572C35.7669 36.094 35.8173 36.1675 35.8426 36.2779C35.9939 33.7396 35.3632 32.636 34.3036 32.4153C33.4962 32.2314 32.5123 32.8935 31.5536 33.7764ZM39.6017 39.0001C40.6109 38.4115 42.0742 39.368 42.8563 40.1405C43.3104 40.5819 43.5123 41.1337 43.7898 41.7591C43.9412 42.0902 44.0925 42.4948 44.2691 42.7891C44.3448 42.8995 44.4205 43.0099 44.4962 43.1202C44.471 42.4581 44.4457 41.8327 44.3448 41.2809C43.9664 39.0001 43.0581 37.639 40.7623 38.4483C40.3838 38.5219 39.9802 38.7426 39.6017 39.0001ZM8.39307 11.079C8.64536 11.1158 8.82196 11.1894 9.04903 11.5204C9.37701 11.9987 9.32655 12.3665 9.30132 12.9183C9.50316 12.8816 9.67976 12.8448 9.8816 12.808C10.26 12.8448 10.4114 12.9919 10.033 13.2494C10.1087 13.2494 10.1843 13.2862 10.26 13.323C10.5376 13.4701 10.8151 13.9484 10.9665 14.3162C11.0169 14.3898 11.244 15.1623 11.2187 15.4198C11.8747 14.9416 12.4802 14.537 12.6064 14.4634C12.7325 14.3898 12.8334 14.353 12.9343 14.2795V11.7412C11.9504 10.6744 10.7142 10.4904 9.42747 10.7847C9.07426 10.8583 8.74628 10.9686 8.39307 11.079ZM12.9343 15.4198V15.8613C12.7073 15.7141 12.4298 15.6773 12.1775 15.7141C12.4045 15.6038 12.682 15.4934 12.9343 15.4198Z" fill="#B96B0B"/>
<path fill-rule="evenodd" clip-rule="evenodd" d="M8.13066 10.5274C17.7683 21.4163 28.188 30.5394 40.7521 38.5221C45.9998 41.8329 49.6581 44.7391 52.3324 43.3412C54.931 42.0168 52.0549 33.9238 49.204 30.6497C40.2476 20.3127 32.8049 11.1896 20.3164 2.76543C11.2843 -3.34116 -0.0184083 1.29396 8.13066 10.5274Z" fill="#E47B06"/>
<path fill-rule="evenodd" clip-rule="evenodd" d="M50.7712 32.8575C50.2919 32.0114 49.7621 31.2389 49.2322 30.6503C40.2506 20.3132 32.808 11.1901 20.3195 2.76595C13.1543 -2.08989 4.52592 -0.140199 5.40894 5.48816C5.71169 5.89282 6.03967 6.33426 6.41811 6.73891C16.0305 17.6278 26.4754 26.7509 39.0396 34.7336C44.2873 38.0444 47.9455 40.9505 50.6199 39.5526C52.1336 38.8169 51.8309 35.874 50.7712 32.8575Z" fill="#FC9E14"/>
<path fill-rule="evenodd" clip-rule="evenodd" d="M19.4135 3.24372C15.2506 0.44793 3.49379 0.300784 8.79194 6.29701C13.1566 11.2632 40.7827 32.7834 45.0465 30.9073C48.9065 28.7737 23.4249 5.96593 19.4135 3.24372Z" fill="#FEBD30"/>
<path d="M16.0072 12.6615C16.3834 12.6615 16.6884 12.4144 16.6884 12.1097C16.6884 11.8049 16.3834 11.5579 16.0072 11.5579C15.631 11.5579 15.326 11.8049 15.326 12.1097C15.326 12.4144 15.631 12.6615 16.0072 12.6615Z" fill="#E47B06"/>
<path d="M16.1625 12.3668C16.5387 12.3668 16.8436 12.1197 16.8436 11.815C16.8436 11.5102 16.5387 11.2632 16.1625 11.2632C15.7862 11.2632 15.4813 11.5102 15.4813 11.815C15.4813 12.1197 15.7862 12.3668 16.1625 12.3668Z" fill="#F8DAB0"/>
<path d="M20.6117 9.60488C20.6909 9.32286 20.4729 8.92566 20.1248 8.71771C19.7766 8.50975 19.4302 8.56979 19.3509 8.85181C19.2717 9.13382 19.4897 9.53102 19.8378 9.73898C20.186 9.94694 20.5324 9.8869 20.6117 9.60488Z" fill="#E47B06"/>
<path d="M20.8146 9.39074C20.8938 9.10872 20.6758 8.71157 20.3276 8.50366C19.9795 8.29576 19.633 8.35584 19.5538 8.63786C19.4746 8.91988 19.6926 9.31704 20.0408 9.52494C20.3889 9.73284 20.7354 9.67276 20.8146 9.39074Z" fill="#F8DAB0"/>
<path fill-rule="evenodd" clip-rule="evenodd" d="M12.6582 6.92264C13.0114 7.14336 13.2132 7.47444 13.1123 7.73195C13.0114 7.98945 12.6834 8.02624 12.3302 7.80552C11.977 7.5848 11.7752 7.25372 11.8761 6.99621C11.977 6.73871 12.3302 6.70192 12.6582 6.92264Z" fill="#E47B06"/>
<path fill-rule="evenodd" clip-rule="evenodd" d="M12.886 6.77528C13.2392 6.996 13.441 7.32709 13.3401 7.58459C13.2392 7.8421 12.9112 7.87889 12.558 7.65817C12.2048 7.43745 12.0029 7.10637 12.1039 6.84886C12.2048 6.59135 12.5328 6.55456 12.886 6.77528Z" fill="#F8DAB0"/>
<path d="M16.6323 1.42337C16.5982 1.1227 16.2696 0.951626 15.8984 1.04126C15.5273 1.13089 15.254 1.44729 15.2882 1.74796C15.3224 2.04863 15.6509 2.2197 16.0221 2.13007C16.3933 2.04044 16.6665 1.72404 16.6323 1.42337Z" fill="#E47B06"/>
<path d="M16.7637 1.07802C16.7295 0.777357 16.4009 0.60628 16.0298 0.695914C15.6586 0.785547 15.3854 1.10195 15.4195 1.40262C15.4537 1.70328 15.7823 1.87436 16.1534 1.78473C16.5246 1.69509 16.7978 1.37869 16.7637 1.07802Z" fill="#F8DAB0"/>
<path fill-rule="evenodd" clip-rule="evenodd" d="M19.4677 5.672C19.7957 5.45128 20.1237 5.48807 20.1994 5.78236C20.2498 6.03987 20.0228 6.44452 19.6948 6.66524C19.3668 6.88596 19.0388 6.84918 18.9631 6.55488C18.9127 6.26059 19.1397 5.85594 19.4677 5.672Z" fill="#E47B06"/>
<path fill-rule="evenodd" clip-rule="evenodd" d="M19.5393 5.30366C19.8673 5.08294 20.1953 5.11972 20.271 5.41402C20.3214 5.67153 20.0944 6.07618 19.7664 6.2969C19.4384 6.51762 19.1104 6.48083 19.0347 6.18654C18.9843 5.92903 19.2113 5.52438 19.5393 5.30366Z" fill="#F8DAB0"/>
<path fill-rule="evenodd" clip-rule="evenodd" d="M9.93416 1.9195C10.2874 1.73557 10.6406 1.80914 10.691 2.02986C10.7667 2.25058 10.5144 2.61845 10.1612 2.7656C9.80801 2.94953 9.4548 2.87596 9.40434 2.65524C9.32865 2.39773 9.58095 2.06665 9.93416 1.9195Z" fill="#E47B06"/>
<path fill-rule="evenodd" clip-rule="evenodd" d="M10.0182 1.62473C10.3714 1.4408 10.7246 1.51437 10.7751 1.73509C10.8508 1.95581 10.5985 2.32368 10.2453 2.47083C9.89205 2.65476 9.53884 2.58119 9.48838 2.36047C9.43792 2.10296 9.66499 1.77188 10.0182 1.62473Z" fill="#F8DAB0"/>
<path d="M14.2345 4.37688C14.1413 4.1041 13.7928 4.08125 13.456 4.32585C13.1193 4.57045 12.9218 4.98987 13.015 5.26265C13.1082 5.53543 13.4568 5.55828 13.7935 5.31368C14.1303 5.06908 14.3277 4.64966 14.2345 4.37688Z" fill="#E47B06"/>
<path d="M14.271 4.01352C14.1777 3.7408 13.8292 3.71813 13.4925 3.9629C13.1558 4.20766 12.9585 4.62717 13.0518 4.89989C13.145 5.17261 13.4936 5.19527 13.8302 4.95051C14.1669 4.70575 14.3642 4.28624 14.271 4.01352Z" fill="#F8DAB0"/>
<path fill-rule="evenodd" clip-rule="evenodd" d="M17.2415 6.88538C17.6704 6.8486 18.0488 6.99574 18.0488 7.29004C18.0488 7.54755 17.6956 7.80505 17.2667 7.87863C16.8378 7.91541 16.4594 7.76827 16.4594 7.47397C16.4594 7.17968 16.8126 6.92217 17.2415 6.88538Z" fill="#E47B06"/>
<path fill-rule="evenodd" clip-rule="evenodd" d="M17.4125 6.62755C17.8414 6.59076 18.2199 6.73791 18.2199 7.0322C18.2199 7.28971 17.8667 7.54722 17.4378 7.62079C17.0089 7.65758 16.6304 7.51043 16.6304 7.21614C16.6304 6.92184 16.9584 6.66434 17.4125 6.62755Z" fill="#F8DAB0"/>
<path d="M29.2676 13.0483C29.3469 12.7663 29.1288 12.3691 28.7807 12.1612C28.4326 11.9533 28.0861 12.0134 28.0069 12.2954C27.9277 12.5775 28.1457 12.9746 28.4938 13.1825C28.842 13.3904 29.1884 13.3303 29.2676 13.0483Z" fill="#E47B06"/>
<path d="M29.4905 12.8443C29.5698 12.5623 29.3518 12.1651 29.0036 11.9572C28.6555 11.7492 28.309 11.8092 28.2298 12.0913C28.1505 12.3733 28.3685 12.7705 28.7167 12.9784C29.0648 13.1864 29.4113 13.1264 29.4905 12.8443Z" fill="#F8DAB0"/>
<path fill-rule="evenodd" clip-rule="evenodd" d="M28.1463 9.09386C28.4743 8.87314 28.8023 8.90992 28.878 9.20422C28.9284 9.46172 28.7014 9.86638 28.3734 10.0871C28.0454 10.3078 27.7174 10.271 27.6418 9.97674C27.5661 9.68244 27.7931 9.31458 28.1463 9.09386Z" fill="#E47B06"/>
<path fill-rule="evenodd" clip-rule="evenodd" d="M28.219 8.76216C28.547 8.54144 28.8749 8.57823 28.9506 8.87252C29.0011 9.13003 28.774 9.53469 28.446 9.75541C28.1181 9.97613 27.7901 9.93934 27.7144 9.64505C27.6387 9.35075 27.8658 8.98288 28.219 8.76216Z" fill="#F8DAB0"/>
<path d="M23.6203 8.48261C23.6617 8.1839 23.3963 7.85378 23.0275 7.74527C22.6587 7.63677 22.3263 7.79097 22.2849 8.08969C22.2436 8.3884 22.509 8.71852 22.8778 8.82703C23.2465 8.93553 23.579 8.78133 23.6203 8.48261Z" fill="#E47B06"/>
<path d="M23.7996 8.21275C23.8409 7.91401 23.5754 7.58386 23.2066 7.47536C22.8378 7.36686 22.5054 7.52108 22.464 7.81983C22.4227 8.11857 22.6881 8.44872 23.0569 8.55722C23.4257 8.66572 23.7582 8.5115 23.7996 8.21275Z" fill="#F8DAB0"/>
<path fill-rule="evenodd" clip-rule="evenodd" d="M25.924 10.307C26.3529 10.2703 26.7313 10.4174 26.7313 10.7117C26.7313 10.9692 26.3781 11.2267 25.9492 11.3003C25.5203 11.3371 25.1419 11.1899 25.1419 10.8956C25.1167 10.6013 25.4699 10.3806 25.924 10.307Z" fill="#E47B06"/>
<path fill-rule="evenodd" clip-rule="evenodd" d="M26.0789 10.0492C26.5078 10.0124 26.8863 10.1596 26.8863 10.4539C26.8863 10.7114 26.533 10.9689 26.1042 11.0425C25.6753 11.0792 25.2968 10.9321 25.2968 10.6378C25.2968 10.3435 25.65 10.086 26.0789 10.0492Z" fill="#F8DAB0"/>
<path d="M25.1893 19.945C25.5655 19.945 25.8705 19.6979 25.8705 19.3932C25.8705 19.0884 25.5655 18.8414 25.1893 18.8414C24.8131 18.8414 24.5081 19.0884 24.5081 19.3932C24.5081 19.6979 24.8131 19.945 25.1893 19.945Z" fill="#E47B06"/>
<path d="M25.3445 19.6502C25.7207 19.6502 26.0257 19.4031 26.0257 19.0984C26.0257 18.7936 25.7207 18.5466 25.3445 18.5466C24.9683 18.5466 24.6633 18.7936 24.6633 19.0984C24.6633 19.4031 24.9683 19.6502 25.3445 19.6502Z" fill="#F8DAB0"/>
<path fill-rule="evenodd" clip-rule="evenodd" d="M21.8402 14.2429C22.1934 14.4636 22.3952 14.7947 22.2943 15.0522C22.1934 15.3097 21.8654 15.3465 21.5122 15.1258C21.159 14.905 20.9572 14.574 21.0581 14.3164C21.159 14.0589 21.5122 14.0222 21.8402 14.2429Z" fill="#E47B06"/>
<path fill-rule="evenodd" clip-rule="evenodd" d="M22.068 14.0958C22.4212 14.3165 22.623 14.6476 22.5221 14.9051C22.4212 15.1626 22.0932 15.1994 21.74 14.9787C21.3868 14.758 21.1849 14.4269 21.2859 14.1694C21.3616 13.9119 21.7148 13.8751 22.068 14.0958Z" fill="#F8DAB0"/>
<path d="M20.9835 10.9811C20.8903 10.7083 20.5418 10.6856 20.2051 10.9302C19.8684 11.1749 19.671 11.5943 19.7642 11.8671C19.8574 12.1398 20.2059 12.1626 20.5426 11.9179C20.8794 11.6733 21.0767 11.2538 20.9835 10.9811Z" fill="#E47B06"/>
<path d="M21.0191 10.615C20.9258 10.3423 20.5772 10.3197 20.2406 10.5645C19.9039 10.8093 19.7066 11.2288 19.7999 11.5016C19.8931 11.7743 20.2417 11.7969 20.5783 11.5521C20.915 11.3073 21.1123 10.8877 21.0191 10.615Z" fill="#F8DAB0"/>
<path fill-rule="evenodd" clip-rule="evenodd" d="M26.4347 14.2066C26.8636 14.1698 27.242 14.3169 27.242 14.6112C27.242 14.8687 26.8888 15.1262 26.4599 15.1998C26.031 15.2366 25.6526 15.0894 25.6526 14.7951C25.6526 14.5009 26.0058 14.2433 26.4347 14.2066Z" fill="#E47B06"/>
<path fill-rule="evenodd" clip-rule="evenodd" d="M26.6061 13.9118C27.035 13.875 27.4134 14.0222 27.4134 14.3165C27.4134 14.574 27.0602 14.8315 26.6313 14.905C26.2024 14.9418 25.824 14.7947 25.824 14.5004C25.7987 14.2429 26.1519 13.9854 26.6061 13.9118Z" fill="#F8DAB0"/>
<path fill-rule="evenodd" clip-rule="evenodd" d="M31.8251 22.3365C32.1783 22.5572 32.3802 22.8883 32.2793 23.1458C32.1783 23.4033 31.8504 23.4401 31.4971 23.2194C31.1439 22.9987 30.9421 22.6676 31.043 22.4101C31.1187 22.1894 31.4719 22.1526 31.8251 22.3365Z" fill="#E47B06"/>
<path fill-rule="evenodd" clip-rule="evenodd" d="M32.0281 22.1889C32.3813 22.4097 32.5831 22.7407 32.4822 22.9983C32.3813 23.2558 32.0533 23.2925 31.7001 23.0718C31.3469 22.8511 31.145 22.52 31.2459 22.2625C31.3469 22.005 31.7001 21.9682 32.0281 22.1889Z" fill="#F8DAB0"/>
<path d="M33.6563 15.8883C33.6222 15.5876 33.2936 15.4165 32.9224 15.5061C32.5512 15.5958 32.278 15.9122 32.3122 16.2128C32.3463 16.5135 32.6749 16.6846 33.0461 16.595C33.4173 16.5053 33.6905 16.1889 33.6563 15.8883Z" fill="#E47B06"/>
<path d="M33.7665 15.587C33.7323 15.2863 33.4037 15.1154 33.0325 15.2052C32.6614 15.295 32.3883 15.6115 32.4225 15.9121C32.4567 16.2128 32.7853 16.3837 33.1564 16.2939C33.5276 16.2041 33.8007 15.8876 33.7665 15.587Z" fill="#F8DAB0"/>
<path fill-rule="evenodd" clip-rule="evenodd" d="M29.0764 17.3335C29.4296 17.1496 29.7828 17.2232 29.8332 17.4439C29.9089 17.6646 29.6566 18.0325 29.3034 18.1796C28.9502 18.3636 28.597 18.29 28.5465 18.0693C28.4961 17.8486 28.7232 17.4807 29.0764 17.3335Z" fill="#E47B06"/>
<path fill-rule="evenodd" clip-rule="evenodd" d="M29.1794 17.0388C29.5326 16.8548 29.8858 16.9284 29.9363 17.1491C30.012 17.3699 29.7597 17.7377 29.4065 17.8849C29.0532 18.0688 28.7 17.9952 28.6496 17.7745C28.5739 17.5538 28.801 17.1859 29.1794 17.0388Z" fill="#F8DAB0"/>
<path d="M33.3842 19.7822C33.291 19.5094 32.9425 19.4865 32.6058 19.7311C32.269 19.9756 32.0716 20.395 32.1647 20.6678C32.2579 20.9405 32.6064 20.9634 32.9432 20.7189C33.2799 20.4743 33.4774 20.055 33.3842 19.7822Z" fill="#E47B06"/>
<path d="M33.4327 19.4483C33.3395 19.1755 32.9909 19.1528 32.6542 19.3975C32.3175 19.6422 32.1201 20.0617 32.2134 20.3345C32.3066 20.6072 32.6552 20.63 32.9919 20.3852C33.3286 20.1405 33.526 19.721 33.4327 19.4483Z" fill="#F8DAB0"/>
<path d="M39.9448 26.2007C40.024 25.9187 39.806 25.5215 39.4579 25.3136C39.1097 25.1057 38.7633 25.1658 38.6841 25.4478C38.6049 25.7299 38.8229 26.127 39.171 26.3349C39.5192 26.5428 39.8656 26.4827 39.9448 26.2007Z" fill="#E47B06"/>
<path d="M40.1568 26.0298C40.236 25.7478 40.018 25.3506 39.6699 25.1427C39.3217 24.9347 38.9753 24.9947 38.896 25.2768C38.8168 25.5588 39.0348 25.956 39.3829 26.1639C39.7311 26.3719 40.0775 26.3119 40.1568 26.0298Z" fill="#F8DAB0"/>
<path fill-rule="evenodd" clip-rule="evenodd" d="M38.8175 22.2632C39.1455 22.0425 39.4735 22.0792 39.5492 22.3735C39.5997 22.631 39.3726 23.0357 39.0446 23.2564C38.7166 23.4771 38.3886 23.4403 38.313 23.1461C38.2373 22.8885 38.4643 22.4839 38.8175 22.2632Z" fill="#E47B06"/>
<path fill-rule="evenodd" clip-rule="evenodd" d="M38.9015 21.9315C39.2295 21.7108 39.5575 21.7475 39.6331 22.0418C39.6836 22.2993 39.4565 22.704 39.1286 22.9247C38.8006 23.1454 38.4726 23.1086 38.3969 22.8144C38.3465 22.5568 38.5735 22.1522 38.9015 21.9315Z" fill="#F8DAB0"/>
<path fill-rule="evenodd" clip-rule="evenodd" d="M36.5962 23.5137C37.0251 23.4769 37.4035 23.6241 37.4035 23.9183C37.4035 24.1759 37.0503 24.4334 36.6214 24.5069C36.1925 24.5437 35.8141 24.3966 35.8141 24.1023C35.7888 23.808 36.1421 23.5505 36.5962 23.5137Z" fill="#E47B06"/>
<path fill-rule="evenodd" clip-rule="evenodd" d="M36.7511 23.2189C37.18 23.1821 37.5584 23.3293 37.5584 23.6236C37.5584 23.8811 37.2052 24.1386 36.7763 24.2122C36.3474 24.249 35.969 24.1018 35.969 23.8075C35.969 23.55 36.3222 23.2925 36.7511 23.2189Z" fill="#F8DAB0"/>
<path d="M42.9698 25.0818C43.0111 24.783 42.7457 24.453 42.3769 24.3445C42.0081 24.2361 41.6756 24.3903 41.6343 24.6891C41.5929 24.9878 41.8584 25.3179 42.2272 25.4264C42.596 25.5348 42.9285 25.3805 42.9698 25.0818Z" fill="#E47B06"/>
<path d="M43.1428 24.8578C43.1841 24.5591 42.9187 24.229 42.55 24.1204C42.1812 24.0119 41.8487 24.1661 41.8074 24.4649C41.7661 24.7636 42.0315 25.0937 42.4002 25.2022C42.769 25.3107 43.1015 25.1565 43.1428 24.8578Z" fill="#F8DAB0"/>
<defs>
<linearGradient id="paint0_linear_2_2020" x1="8.41131" y1="9.68111" x2="7.37243" y2="23.2768" gradientUnits="userSpaceOnUse">
<stop stop-color="#EB262B"/>
<stop offset="0.69" stop-color="#EB262B"/>
<stop offset="1" stop-color="white"/>
</linearGradient>
<linearGradient id="paint1_linear_2_2020" x1="15.9862" y1="17.0211" x2="17.368" y2="30.5732" gradientUnits="userSpaceOnUse">
<stop stop-color="#EB262B"/>
<stop offset="0.69" stop-color="#EB262B"/>
<stop offset="1" stop-color="white"/>
</linearGradient>
<linearGradient id="paint2_linear_2_2020" x1="25.1701" y1="25.1806" x2="24.1312" y2="38.7762" gradientUnits="userSpaceOnUse">
<stop stop-color="#EB262B"/>
<stop offset="0.69" stop-color="#EB262B"/>
<stop offset="1" stop-color="white"/>
</linearGradient>
<linearGradient id="paint3_linear_2_2020" x1="33.1232" y1="32.9737" x2="34.505" y2="46.5256" gradientUnits="userSpaceOnUse">
<stop stop-color="#EB262B"/>
<stop offset="0.69" stop-color="#EB262B"/>
<stop offset="1" stop-color="white"/>
</linearGradient>
<linearGradient id="paint4_linear_2_2020" x1="42.5906" y1="38.3846" x2="41.5516" y2="51.9803" gradientUnits="userSpaceOnUse">
<stop stop-color="#EB262B"/>
<stop offset="0.69" stop-color="#EB262B"/>
<stop offset="1" stop-color="white"/>
</linearGradient>
</defs>
</svg>
