<svg width="64" height="61" viewBox="0 0 64 61" fill="none" xmlns="http://www.w3.org/2000/svg">
<path fill-rule="evenodd" clip-rule="evenodd" d="M0.964641 56.4493C1.64677 53.4362 10.675 53.6903 10.2737 56.8123C10.2336 57.1753 9.55148 58.0465 8.38784 58.0465C7.42483 58.0828 7.2242 57.6109 6.46182 57.502C5.53894 57.3931 3.73329 57.865 2.77028 57.8287C1.92765 57.8287 0.723889 57.4294 0.964641 56.4493Z" fill="#A89986"/>
<path fill-rule="evenodd" clip-rule="evenodd" d="M63.9211 16.6263L53.3681 49.4067L31.9412 60.3699V0.254158L63.9211 16.6263Z" fill="#A2B3BC"/>
<path fill-rule="evenodd" clip-rule="evenodd" d="M0.00170898 16.6263L10.5547 49.4067L31.9415 60.3699V0.254158L0.00170898 16.6263Z" fill="#D7DFE2"/>
<path fill-rule="evenodd" clip-rule="evenodd" d="M0.00170898 16.6262L10.5547 49.4067L31.9415 60.3698V32.9983L0.00170898 16.6262Z" fill="#A82A30"/>
<path fill-rule="evenodd" clip-rule="evenodd" d="M9.75232 46.9019L10.5548 49.4067L31.9417 60.3699V58.3007L9.75232 46.9019Z" fill="#CAD5DD"/>
<path fill-rule="evenodd" clip-rule="evenodd" d="M9.23056 54.2349C8.58855 50.1691 1.04498 51.367 1.44623 55.6506C1.48636 56.1226 2.08824 57.2479 3.05125 57.1753C3.85376 57.1027 4.01426 56.4493 4.65626 56.2678C5.45877 56.0499 6.94341 56.5219 7.74592 56.3767C8.42805 56.2315 9.43119 55.578 9.23056 54.2349Z" fill="#E3BF52"/>
<path fill-rule="evenodd" clip-rule="evenodd" d="M6.74253 55.2513C6.30115 53.7992 4.09425 53.4362 3.01087 54.126C2.44911 54.489 2.00773 55.3239 2.16823 55.8321C2.56949 57.139 3.41212 55.8684 4.45538 55.7595C5.41839 55.6506 7.10366 56.3767 6.74253 55.2513Z" fill="#DE940C"/>
<path fill-rule="evenodd" clip-rule="evenodd" d="M63.9211 16.6262L53.3681 49.4067L31.9412 60.3698V32.9983L63.9211 16.6262Z" fill="#ED1C24"/>
<path d="M31.9414 32.7442L63.0787 16.6262L31.9414 0.508225V0C31.9816 0 32.0217 0 32.0618 0.0363018L63.7207 16.4084C63.7609 16.4447 63.801 16.4447 63.8411 16.481C63.9214 16.5899 63.8812 16.7351 63.7609 16.8077L32.1019 33.2161C32.0618 33.2524 32.0217 33.2524 31.9414 33.2524V32.7442ZM0.844259 16.6262L31.9816 32.7442V33.2524C31.9414 33.2524 31.9013 33.2524 31.8612 33.2161L0.162127 16.844C0.122002 16.8077 0.0818766 16.8077 0.0417512 16.7351C-0.0384996 16.6262 0.00162581 16.481 0.122002 16.4084L31.8211 0.0363018C31.8612 0 31.9013 0 31.9414 0V0.508225L0.844259 16.6262Z" fill="white"/>
<path fill-rule="evenodd" clip-rule="evenodd" d="M4.01423 18.2598C3.89385 17.9331 3.8136 17.6427 3.8136 17.316V17.207C3.85372 15.4646 5.69949 14.1577 7.62551 14.7748C7.78601 13.9762 8.26752 13.1413 8.90952 12.4152L13.0023 10.3097C14.0054 10.2371 15.0487 10.5638 15.9315 11.3625C15.8111 9.54738 18.6199 6.31652 21.8299 7.9138C21.7898 6.78844 22.512 5.66309 23.6355 4.79185L26.0832 3.55759C28.4506 2.79525 31.2995 2.94046 33.386 4.93705C35.7133 4.35622 41.4512 4.46513 41.4512 8.24051C43.1365 8.38572 45.0625 8.71244 45.9453 10.1645C46.2663 10.6727 46.5873 13.0686 46.7879 13.1413C48.5133 13.3228 49.9979 13.6858 51.2819 14.8111C51.8437 15.3194 52.4857 16.2269 52.4857 16.9529C53.9302 17.0981 55.0938 17.5338 55.8562 18.6954C56.097 19.0947 56.3779 19.5304 56.5785 20.0023L31.9816 32.7079L4.01423 18.2598ZM31.9415 33.2524V37.2093V33.2524Z" fill="#DE940C"/>
<path fill-rule="evenodd" clip-rule="evenodd" d="M31.2595 3.5938C32.0219 3.88422 32.7441 4.31984 33.3861 4.93697C35.7134 4.35614 41.4513 4.46505 41.4513 8.24043C43.1366 8.38564 45.0626 8.71235 45.9454 10.1644C46.2664 10.6726 46.5874 13.0686 46.788 13.1412C48.5134 13.3227 49.9981 13.6857 51.2821 14.811C51.8438 15.3193 52.4858 16.2268 52.4858 16.9528C53.9303 17.0981 55.094 17.5337 55.8564 18.6953C56.0971 19.0947 56.378 19.5303 56.5786 20.0022L31.9818 32.7078L17.336 25.157C15.1692 23.2694 14.1661 21.6358 13.9655 20.2926V19.3851C14.2062 17.7878 15.8915 16.9892 18.0582 17.3159C18.62 13.9761 21.4689 10.7089 25.9629 13.0686C24.3178 11.3261 21.7899 7.87741 27.1266 8.02262C27.1266 6.20753 29.2131 4.61025 31.2595 3.5938ZM31.9416 33.2523V35.0311V33.2523Z" fill="#EABB36"/>
<path fill-rule="evenodd" clip-rule="evenodd" d="M30.1759 11.5439C27.2868 14.7385 33.426 18.9132 36.6361 15.7549C36.9972 15.3919 37.5188 14.2666 36.7966 13.6494C36.1947 13.1412 35.5527 13.5042 34.9909 13.2138C34.2687 12.8508 33.6267 11.5439 32.9445 11.072C32.3426 10.709 31.1389 10.4912 30.1759 11.5439Z" fill="#DE940C"/>
<path fill-rule="evenodd" clip-rule="evenodd" d="M37.4788 4.79182C39.124 5.04594 40.6888 5.69937 41.2506 7.07884C40.2876 9.18434 37.3986 10.6001 35.3522 8.74872C34.3089 7.80487 34.6299 6.71582 35.1114 6.2439C35.5929 5.73567 36.8769 5.30005 37.4788 4.79182Z" fill="#DE940C"/>
<path fill-rule="evenodd" clip-rule="evenodd" d="M31.6604 10.8542C28.7714 14.0488 34.9106 18.2235 38.1206 15.0652C38.4817 14.7022 39.0034 13.5769 38.2811 12.9597C37.6792 12.4515 37.0372 12.8145 36.4755 12.5241C35.7532 12.1611 35.1112 10.8542 34.4291 10.3823C33.8272 10.0193 32.5833 9.80148 31.6604 10.8542Z" fill="#FFE9AA"/>
<path fill-rule="evenodd" clip-rule="evenodd" d="M34.1882 11.8344C33.3456 13.105 34.5093 14.8111 35.7933 15.0653C36.4353 15.2105 37.4384 14.9201 37.7594 14.4481C38.5218 13.2865 36.9569 13.6132 36.1544 12.9961C35.392 12.4515 34.8303 10.818 34.1882 11.8344Z" fill="#E3BF52"/>
<path fill-rule="evenodd" clip-rule="evenodd" d="M33.787 19.7481C34.0678 23.8502 41.7318 23.1605 41.6917 18.8769C41.6917 18.405 41.2102 17.2433 40.207 17.2433C39.4045 17.2433 39.2039 17.8967 38.5619 18.0419C37.7594 18.2235 36.3149 17.6426 35.4722 17.7152C34.7098 17.8241 33.6666 18.405 33.787 19.7481Z" fill="#DE940C"/>
<path fill-rule="evenodd" clip-rule="evenodd" d="M26.4441 22.7612C29.4535 19.6755 23.5551 15.2467 20.2247 18.2961C19.8635 18.6228 19.3018 19.7481 19.9839 20.4016C20.5457 20.9098 21.2278 20.5831 21.7895 20.9098C22.4717 21.3091 23.0736 22.6523 23.7156 23.1242C24.2372 23.4872 25.441 23.7776 26.4441 22.7612Z" fill="#DE940C"/>
<path fill-rule="evenodd" clip-rule="evenodd" d="M12.0392 15.755C12.3201 19.8571 19.984 19.1674 19.9439 14.8838C19.9439 14.4119 19.4624 13.2502 18.4593 13.2502C17.6568 13.2502 17.4561 13.9036 16.8141 14.0489C16.0116 14.2304 14.5671 13.6495 13.7245 13.7221C13.0022 13.831 11.959 14.4119 12.0392 15.755Z" fill="#DE940C"/>
<path fill-rule="evenodd" clip-rule="evenodd" d="M13.4034 15.3556C14.2862 19.3851 21.7495 17.7879 21.1075 13.5769C21.0272 13.1049 20.3852 12.0159 19.4222 12.1248C18.6197 12.2337 18.4993 12.8871 17.8975 13.1049C17.1351 13.3591 15.6103 12.9597 14.8078 13.1412C14.0454 13.3227 13.0824 14.0125 13.4034 15.3556Z" fill="#FFF3AD"/>
<path fill-rule="evenodd" clip-rule="evenodd" d="M15.8109 14.194C16.3727 15.6098 18.5394 15.8639 19.5827 15.1378C20.1043 14.7748 20.5056 13.9036 20.3049 13.3953C19.8234 12.1248 19.0611 13.4317 18.0178 13.5769C17.135 13.7584 15.4096 13.1049 15.8109 14.194Z" fill="#E7B831"/>
<path fill-rule="evenodd" clip-rule="evenodd" d="M35.272 19.0221C36.1548 23.0516 43.6181 21.4543 42.9761 17.2433C42.8958 16.7714 42.2538 15.6824 41.2908 15.7913C40.4883 15.9002 40.3679 16.5536 39.766 16.7714C39.0037 17.0255 37.4789 16.6262 36.6764 16.8077C35.9541 16.9892 34.9911 17.7153 35.272 19.0221Z" fill="#FFFED9"/>
<path fill-rule="evenodd" clip-rule="evenodd" d="M37.7195 17.8967C38.2813 19.3125 40.448 19.5666 41.4913 18.8406C42.0129 18.4775 42.4142 17.6063 42.2136 17.0981C41.7321 15.8275 40.9697 17.1344 39.9264 17.2796C39.0035 17.4248 37.2781 16.8077 37.7195 17.8967Z" fill="#E7B831"/>
<path fill-rule="evenodd" clip-rule="evenodd" d="M26.0026 28.9688C28.6108 32.3449 34.75 28.0976 32.2221 24.5037C31.9412 24.1044 30.8578 23.342 30.0152 23.814C29.333 24.2133 29.5337 24.8667 29.0522 25.266C28.4503 25.7743 26.8854 25.9921 26.2434 26.464C25.7218 26.8633 25.16 27.8435 26.0026 28.9688Z" fill="#DE940C"/>
<path fill-rule="evenodd" clip-rule="evenodd" d="M28.7313 29.1866C31.9413 32.0907 37.1576 26.9359 33.9877 23.7776C33.6266 23.4146 32.4228 22.8338 31.7006 23.4509C31.0987 23.9591 31.4197 24.54 31.0586 25.0482C30.5771 25.6653 29.0924 26.1009 28.5307 26.6818C28.009 27.1537 27.688 28.2427 28.7313 29.1866Z" fill="#FFF3AD"/>
<path fill-rule="evenodd" clip-rule="evenodd" d="M30.0556 27.0085C31.3797 27.9161 33.3458 27.0085 33.7872 25.8832C33.9879 25.3024 33.7872 24.3948 33.3057 24.0681C32.102 23.2695 32.3026 24.7215 31.5402 25.375C30.8179 25.9558 29.0123 26.3188 30.0556 27.0085Z" fill="#E6A616"/>
<path fill-rule="evenodd" clip-rule="evenodd" d="M19.6229 23.0516C18.4994 20.329 14.6073 20.8735 12.922 22.9064L18.058 25.5564C18.2988 25.5201 18.4593 25.4838 18.6599 25.4112C19.3019 25.1571 20.1446 24.3222 19.6229 23.0516Z" fill="#DE940C"/>
<path fill-rule="evenodd" clip-rule="evenodd" d="M49.6769 21.9263C52.0844 18.4413 45.3835 14.9926 42.6951 18.4776C42.4142 18.8769 42.0531 20.0749 42.8556 20.5831C43.5377 21.0187 44.0995 20.5831 44.7415 20.8009C45.5039 21.0913 46.3465 22.3256 47.0688 22.6886C47.6707 23.0153 48.9145 23.0879 49.6769 21.9263Z" fill="#DE940C"/>
<path fill-rule="evenodd" clip-rule="evenodd" d="M51.1211 22.0715C54.1707 19.0222 48.3124 14.5207 44.9418 17.5338C44.5807 17.8605 43.9788 18.9859 44.661 19.603C45.2227 20.1112 45.9048 19.7845 46.4666 20.1475C47.1487 20.5468 47.7105 21.89 48.3525 22.3619C48.9142 22.7975 50.118 23.0517 51.1211 22.0715Z" fill="#FFF3AD"/>
<path fill-rule="evenodd" clip-rule="evenodd" d="M48.6734 20.9825C49.5963 19.7482 48.5129 18.0057 47.269 17.679C46.627 17.4975 45.6239 17.7516 45.2627 18.1872C44.4201 19.2763 46.0251 19.0585 46.7875 19.7119C47.4696 20.2928 47.911 21.9263 48.6734 20.9825Z" fill="#E6A616"/>
<path fill-rule="evenodd" clip-rule="evenodd" d="M36.8768 8.63985C40.0869 11.544 45.3032 6.38914 42.1333 3.23088C41.7721 2.86787 40.5684 2.28704 39.8461 2.90417C39.2442 3.41239 39.5652 3.99322 39.2041 4.50145C38.7226 5.11858 37.238 5.5542 36.6762 6.13503C36.1546 6.64325 35.7935 7.696 36.8768 8.63985Z" fill="#FFE9AA"/>
<path fill-rule="evenodd" clip-rule="evenodd" d="M38.1608 6.4617C39.4849 7.36924 41.451 6.4617 41.8523 5.33634C42.0529 4.75552 41.8523 3.84797 41.3708 3.52126C40.167 2.72262 40.3677 4.17469 39.6053 4.82812C38.9633 5.40895 37.1175 5.77197 38.1608 6.4617Z" fill="#E7B831"/>
<path fill-rule="evenodd" clip-rule="evenodd" d="M7.14392 17.2071C11.3972 18.6591 13.8449 12.0885 9.55145 10.346C9.06994 10.1645 7.70568 10.0556 7.30443 10.8906C6.98342 11.544 7.54518 12.0159 7.4248 12.5967C7.2643 13.3228 6.10066 14.3029 5.81979 14.9927C5.61916 15.6098 5.77966 16.7351 7.14392 17.2071Z" fill="#FFFED9"/>
<path fill-rule="evenodd" clip-rule="evenodd" d="M7.38461 14.7385C8.98963 15.0652 10.394 13.5043 10.2736 12.3426C10.1934 11.7255 9.59151 10.9631 9.02975 10.8542C7.58524 10.5638 8.42787 11.7981 7.98649 12.7056C7.62536 13.5043 6.14072 14.4844 7.38461 14.7385Z" fill="#EABB36"/>
<path fill-rule="evenodd" clip-rule="evenodd" d="M17.4561 10.7816C20.6662 13.6857 25.8825 8.53089 22.7126 5.37264C22.3514 5.00962 21.1477 4.42879 20.4254 5.04592C19.8235 5.55415 20.1445 6.13498 19.7834 6.6432C19.3019 7.26033 17.8173 7.69595 17.2555 8.27678C16.774 8.7487 16.4129 9.83775 17.4561 10.7816Z" fill="#FFFED9"/>
<path fill-rule="evenodd" clip-rule="evenodd" d="M18.78 8.60345C20.1042 9.511 22.0703 8.60345 22.5117 7.4781C22.7123 6.89727 22.5117 5.98973 22.0302 5.66301C20.8264 4.86437 21.0271 6.31644 20.2647 6.96988C19.5424 7.5507 17.7368 7.91372 18.78 8.60345Z" fill="#E7B831"/>
<path fill-rule="evenodd" clip-rule="evenodd" d="M20.2248 22.5798C19.6229 18.514 12.0392 19.7119 12.4405 23.9955C12.4806 24.4674 13.0825 25.5928 14.0455 25.5202C14.848 25.4476 15.0085 24.7942 15.6505 24.6127C16.453 24.3948 17.9377 24.8668 18.7402 24.7216C19.4223 24.5763 20.4254 23.9229 20.2248 22.5798Z" fill="#FFFED9"/>
<path fill-rule="evenodd" clip-rule="evenodd" d="M17.7372 23.5962C17.2958 22.1441 15.0889 21.7811 14.0056 22.4708C13.4438 22.8339 13.0024 23.6688 13.1629 24.177C13.5642 25.4839 14.4068 24.2133 15.4501 24.1044C16.4131 23.9955 18.0983 24.7215 17.7372 23.5962Z" fill="#E6A616"/>
<path fill-rule="evenodd" clip-rule="evenodd" d="M28.0894 22.253C31.1389 19.2036 25.2806 14.7022 21.9101 17.7153C21.549 18.042 20.9471 19.1673 21.6292 19.7845C22.191 20.2927 22.8731 19.966 23.4349 20.329C24.117 20.7283 24.6788 22.0715 25.3208 22.5434C25.8825 22.9427 27.0462 23.2331 28.0894 22.253Z" fill="#FFFED9"/>
<path fill-rule="evenodd" clip-rule="evenodd" d="M25.6019 21.1276C26.5248 19.8934 25.4414 18.1509 24.1975 17.8242C23.5555 17.6426 22.5524 17.8968 22.1913 18.3324C21.3486 19.4214 22.9536 19.2036 23.716 19.8571C24.4383 20.4742 24.8797 22.1078 25.6019 21.1276Z" fill="#E7B831"/>
<path fill-rule="evenodd" clip-rule="evenodd" d="M28.0491 14.7386C31.0585 11.6529 25.16 7.2241 21.8296 10.2734C21.4685 10.6002 20.9067 11.7255 21.5889 12.379C22.1506 12.8872 22.8328 12.5605 23.3945 12.8872C24.0767 13.2865 24.6785 14.6297 25.3205 15.1016C25.8422 15.4646 27.0459 15.755 28.0491 14.7386Z" fill="#DE940C"/>
<path fill-rule="evenodd" clip-rule="evenodd" d="M29.6945 14.7385C32.744 11.6892 26.8857 7.18778 23.5151 10.2008C23.154 10.5275 22.5521 11.6529 23.2343 12.27C23.796 12.7782 24.4782 12.4515 25.0399 12.8145C25.722 13.2139 26.2838 14.557 26.9258 15.029C27.4876 15.4646 28.6913 15.755 29.6945 14.7385Z" fill="#FFFED9"/>
<path fill-rule="evenodd" clip-rule="evenodd" d="M27.2467 13.6495C28.1696 12.4153 27.0862 10.6728 25.8423 10.3461C25.2003 10.1646 24.1972 10.4187 23.836 10.8543C22.9934 11.9433 24.5984 11.7255 25.3608 12.379C26.0429 12.9961 26.4843 14.6297 27.2467 13.6495Z" fill="#E6A616"/>
<path fill-rule="evenodd" clip-rule="evenodd" d="M24.2776 4.61026C22.0707 8.20413 28.9321 11.3624 31.4199 7.73221C31.7007 7.33289 31.9816 6.09863 31.1791 5.62671C30.497 5.22739 29.9352 5.69931 29.2932 5.4815C28.5308 5.22739 27.6481 4.02943 26.8857 3.70272C26.2437 3.4486 24.9998 3.4486 24.2776 4.61026Z" fill="#DE940C"/>
<path fill-rule="evenodd" clip-rule="evenodd" d="M25.6419 2.65008C22.2713 5.40902 27.6481 10.3824 31.2995 7.69603C31.7008 7.40561 32.423 6.31656 31.781 5.62683C31.2594 5.046 30.5773 5.33641 30.0556 4.93709C29.4136 4.46517 28.9723 3.0857 28.4105 2.54118C27.8889 2.10556 26.7252 1.74254 25.6419 2.65008Z" fill="#FFF3AD"/>
<path fill-rule="evenodd" clip-rule="evenodd" d="M27.9693 3.95694C26.8859 5.1186 27.8088 6.93368 29.0126 7.36931C29.6546 7.58712 30.6577 7.44191 31.059 7.04259C32.022 6.02614 30.417 6.09874 29.6947 5.37271C29.0527 4.71928 28.7718 3.0494 27.9693 3.95694Z" fill="#EABB36"/>
<path fill-rule="evenodd" clip-rule="evenodd" d="M45.3834 31.5099C49.9176 28.8962 53.569 30.0941 53.569 34.1599C53.569 38.262 49.9176 43.7073 45.3834 46.321C40.8492 48.9347 37.1978 47.7368 37.1978 43.671C37.1978 39.5689 40.8894 34.1599 45.3834 31.5099Z" fill="white"/>
<path fill-rule="evenodd" clip-rule="evenodd" d="M45.3836 33.6154C46.6676 32.8531 47.8714 32.5626 48.8344 32.6352L39.8463 40.3312C40.6889 37.7901 42.8557 35.1038 45.3836 33.6154Z" fill="#FFCB05"/>
<path fill-rule="evenodd" clip-rule="evenodd" d="M51.3619 34.7044L53.0873 33.3613L53.1675 36.1928L51.0007 38.1168L51.3619 34.7044Z" fill="white"/>
<path d="M43.2168 43.8525C42.8155 44.1792 42.5747 44.1066 42.5747 43.6347C42.5747 43.1627 42.8556 42.6182 43.2168 42.2915C43.4174 42.11 43.5779 42.0737 43.6983 42.0737L44.0995 41.2751C43.8989 41.2751 43.5779 41.384 43.1766 41.7107C42.4142 42.3641 41.7321 43.4532 41.7321 44.3607C41.7321 45.2682 42.3741 45.1593 43.1365 44.5059C43.5378 44.1792 43.8588 43.7436 44.0995 43.2716L43.6983 43.199C43.618 43.3806 43.4575 43.671 43.2168 43.8525Z" fill="#ED1C24"/>
<path d="M45.6244 39.6051C44.8219 40.3312 44.2601 41.275 44.2601 42.1826C44.2601 43.0538 44.8219 43.0901 45.6244 42.4004C46.4269 41.6743 46.9887 40.6942 46.9887 39.8229C47.0288 38.9154 46.467 38.8791 45.6244 39.6051ZM45.6244 41.7469C45.2633 42.0374 45.0626 41.9284 45.0626 41.4565C45.0626 40.9846 45.2633 40.5127 45.6244 40.186C45.9855 39.8955 46.1861 39.9682 46.1861 40.4401C46.2263 40.9483 45.9855 41.4565 45.6244 41.7469Z" fill="#ED1C24"/>
<path d="M49.8374 36.8825C49.8374 36.2291 49.3158 36.4832 48.7139 36.9914L48.6738 37.0277L47.5503 38.0079V40.6942L48.3127 40.0045V39.0969L48.5936 38.8428L48.6738 38.9154L49.1152 39.3148L49.9979 38.5524L49.3559 38.0805C49.6368 37.6812 49.8374 37.2456 49.8374 36.8825ZM48.7139 38.2257C48.6738 38.262 48.6337 38.2983 48.6337 38.2983L48.3528 38.5524V37.899L48.6337 37.6449C48.6738 37.6086 48.7139 37.5723 48.7139 37.5723C48.9547 37.3908 49.0751 37.3545 49.0751 37.536C49.0751 37.7175 48.9547 37.9716 48.7139 38.2257Z" fill="#ED1C24"/>
<path d="M52.0446 34.0873V34.8496C52.0446 35.1764 52.1248 35.5394 52.1248 35.7935L51.8439 35.4305L51.2019 34.8133L50.3994 35.5031V38.1894L51.1618 37.536V36.7736C51.1618 36.4469 51.0815 36.1202 51.0414 35.8298L51.3223 36.1928L51.9643 36.8099L52.7668 36.1202V33.4339L52.0446 34.0873Z" fill="#ED1C24"/>
<path fill-rule="evenodd" clip-rule="evenodd" d="M45.3834 32.127C41.732 34.2325 38.6824 38.3709 38.0003 41.8922L38.8429 41.1662C39.6053 38.0805 42.2536 34.5955 45.3834 32.7804C49.115 30.6023 52.1646 31.6188 52.1646 34.9949C52.1646 38.3709 49.115 42.8723 45.3834 45.0504C42.5746 46.684 40.1671 46.5388 39.1238 44.9052L38.4016 45.5224C39.5251 47.3738 42.2135 47.5553 45.3834 45.7402C49.5564 43.3443 52.8868 38.3346 52.8868 34.5955C52.927 30.8201 49.5564 29.7311 45.3834 32.127Z" fill="#ED1C24"/>
<path d="M39.5652 41.8922L39.4849 41.9648L38.4016 42.9087V45.595L39.1639 44.9053V44.0703L39.4849 43.7799L39.5251 43.7436C40.1269 43.1991 40.6486 42.473 40.6486 41.8196C40.6887 41.1299 40.2072 41.384 39.5652 41.8922ZM39.5652 43.1628C39.5251 43.1991 39.5251 43.1991 39.4849 43.2354L39.2041 43.4895V42.7998L39.4849 42.582C39.5251 42.5457 39.5652 42.5094 39.6053 42.5094C39.8461 42.3278 39.9664 42.2915 39.9664 42.5094C39.9263 42.6909 39.8461 42.9087 39.5652 43.1628Z" fill="#ED1C24"/>
<path d="M42.4541 39.351C41.6516 40.0771 41.0898 41.0209 41.0898 41.9285C41.0898 42.7997 41.6516 42.836 42.4541 42.1463C43.2566 41.4202 43.8184 40.4401 43.8184 39.5688C43.8184 38.6613 43.2566 38.6613 42.4541 39.351ZM42.4541 41.5291C42.093 41.8196 41.8924 41.7106 41.8924 41.2387C41.8924 40.7668 42.093 40.2949 42.4541 39.9682C42.8152 39.6777 43.0159 39.7504 43.0159 40.2223C43.0159 40.7305 42.7751 41.2387 42.4541 41.5291Z" fill="#ED1C24"/>
<path d="M45.5038 36.7737L45.4236 36.8463L44.3402 37.7901V40.4764L45.1026 39.7867V38.9518L45.4236 38.6613L45.4637 38.625C46.0656 38.0805 46.5872 37.3545 46.5872 36.701C46.6274 36.0476 46.1057 36.2654 45.5038 36.7737ZM45.5038 38.0442C45.4637 38.0805 45.4637 38.0805 45.4236 38.1168L45.1427 38.3709V37.6449L45.4236 37.4271C45.4637 37.3908 45.5038 37.3545 45.544 37.3545C45.7847 37.173 45.9051 37.1367 45.9051 37.3545C45.865 37.5723 45.7446 37.7901 45.5038 38.0442Z" fill="#ED1C24"/>
<path fill-rule="evenodd" clip-rule="evenodd" d="M48.6736 34.3051L48.9946 34.9586L50.0378 34.0873L49.1952 35.3216L49.5162 35.975L48.6736 36.0839L47.831 37.3182L48.152 36.1928L47.3093 36.3017L48.3526 35.4668L48.6736 34.3051Z" fill="#ED1C24"/>
<path fill-rule="evenodd" clip-rule="evenodd" d="M19.3423 31.4374C23.8764 34.1237 27.5278 39.6416 27.5278 43.7437C27.5278 47.8458 23.8764 48.9711 19.3423 46.2485C14.8081 43.5622 11.1567 38.0443 11.1567 33.9422C11.1567 29.8764 14.8081 28.751 19.3423 31.4374Z" fill="#E2E7EB"/>
<path fill-rule="evenodd" clip-rule="evenodd" d="M19.3425 33.5429C20.6265 34.3052 21.8303 35.3943 22.7933 36.6285L13.8052 33.7607C14.6478 32.1997 16.7745 32.0182 19.3425 33.5429Z" fill="#EAB329"/>
<path fill-rule="evenodd" clip-rule="evenodd" d="M25.2809 41.6382L27.0063 42.2917L27.0866 45.2321L24.9198 44.615L25.2809 41.6382Z" fill="#E2E7EB"/>
<path d="M17.1756 41.2026C16.7744 41.0937 16.5336 40.7306 16.5336 40.2224C16.5336 39.7505 16.8145 39.5327 17.1756 39.6416C17.3762 39.7142 17.5367 39.8231 17.6571 40.0046L18.0584 39.6779C17.8578 39.4238 17.5367 39.1697 17.1355 39.0245C16.3731 38.8067 15.691 39.0971 15.691 40.0046C15.691 40.9121 16.333 41.5656 17.0954 41.8197C17.4966 41.9286 17.8176 41.9286 18.0584 41.7108L17.6571 41.13C17.5769 41.2389 17.3762 41.2752 17.1756 41.2026Z" fill="#A82A30"/>
<path d="M19.5833 39.7867C18.7807 39.5326 18.219 39.8593 18.219 40.7306C18.219 41.6018 18.7807 42.2916 19.5833 42.5457C20.3858 42.7998 20.9475 42.4368 20.9475 41.5655C20.9475 40.7306 20.3858 40.0408 19.5833 39.7867ZM19.5833 41.9648C19.2221 41.8559 19.0215 41.4929 19.0215 40.9847C19.0215 40.4765 19.2221 40.295 19.5833 40.4039C19.9444 40.5128 20.145 40.8758 20.145 41.3477C20.145 41.8559 19.9444 42.0737 19.5833 41.9648Z" fill="#A82A30"/>
<path d="M23.7963 42.0375C23.7963 41.3841 23.2747 41.021 22.6728 40.8032H22.6327L21.5092 40.4402V43.1265L22.3117 43.3807V42.4731L22.5925 42.582L22.6728 42.7272L23.1142 43.6348L23.9969 43.8889L23.3549 42.6546C23.5957 42.582 23.7963 42.4005 23.7963 42.0375ZM22.6327 42.0012C22.5925 42.0012 22.5524 42.0012 22.5524 41.9649L22.2715 41.8923V41.2389L22.5524 41.3115C22.5925 41.3115 22.6327 41.3478 22.6327 41.3478C22.8734 41.4567 22.9938 41.5656 22.9938 41.7834C23.0339 42.0012 22.8734 42.0738 22.6327 42.0012Z" fill="#A82A30"/>
<path d="M26.0034 41.856V42.6183C26.0034 42.945 26.0837 43.3806 26.0837 43.6711L25.8028 42.9813L25.1608 41.6019L24.3583 41.3477V44.0341L25.1207 44.2519V43.4895C25.1207 43.1628 25.0404 42.7635 25.0003 42.4368L25.2812 43.1265L25.9232 44.5423L26.7257 44.7964V42.1101L26.0034 41.856Z" fill="#A82A30"/>
<path fill-rule="evenodd" clip-rule="evenodd" d="M19.3422 32.0546C15.6908 29.8765 12.6413 30.421 11.9592 33.1436L12.8018 33.3977C13.5642 31.2196 16.2125 30.8203 19.3422 32.708C23.0739 34.9224 26.1234 39.4964 26.1234 42.8725C26.1234 46.2485 23.0739 47.1924 19.3422 44.9417C16.5335 43.2718 14.1259 40.2588 13.0827 37.4635L12.3604 37.2457C13.4839 40.404 16.1723 43.7437 19.3422 45.6314C23.4752 48.0999 26.8457 47.0835 26.8457 43.3081C26.8457 39.569 23.4752 34.5231 19.3422 32.0546Z" fill="#A82A30"/>
<path d="M13.524 34.9587C13.4839 34.9587 13.4839 34.9587 13.4438 34.9224L12.3604 34.5956V37.282L13.1228 37.5361V36.6648L13.4438 36.7737H13.4839C14.0858 36.9553 14.6074 36.81 14.6074 36.1929C14.6476 35.5395 14.1259 35.1765 13.524 34.9587ZM13.524 36.2292C13.4839 36.2292 13.4839 36.2292 13.4438 36.1929L13.1629 36.1203V35.4306L13.4438 35.5032C13.4839 35.5032 13.524 35.5395 13.5642 35.5395C13.8049 35.6484 13.9253 35.7573 13.9253 35.9751C13.8852 36.1929 13.7648 36.2655 13.524 36.2292Z" fill="#A82A30"/>
<path d="M16.3732 35.7936C15.5707 35.5395 15.0089 35.8662 15.0089 36.7374C15.0089 37.6087 15.5707 38.2984 16.3732 38.5525C17.1757 38.8066 17.7374 38.4436 17.7374 37.5724C17.7374 36.7374 17.2158 36.0477 16.3732 35.7936ZM16.3732 37.9717C16.012 37.8628 15.8114 37.4998 15.8114 36.9916C15.8114 36.5196 16.012 36.3018 16.3732 36.4107C16.7343 36.5196 16.9349 36.8826 16.9349 37.3546C16.9349 37.8265 16.7343 38.0806 16.3732 37.9717Z" fill="#A82A30"/>
<path d="M19.4224 36.8101C19.3822 36.8101 19.3822 36.8101 19.3421 36.7738L18.2587 36.4471V39.1334L19.0211 39.3875V38.5526L19.3421 38.6615H19.3822C19.9841 38.843 20.5057 38.6978 20.5057 38.0807C20.5459 37.391 20.0644 37.0279 19.4224 36.8101ZM19.4224 38.0807C19.3822 38.0807 19.3822 38.0807 19.3421 38.0444L19.0612 37.9718V37.2821L19.3421 37.3547C19.3822 37.3547 19.4224 37.391 19.4625 37.391C19.7032 37.4999 19.8236 37.6088 19.8236 37.8266C19.7835 38.0081 19.6631 38.117 19.4224 38.0807Z" fill="#A82A30"/>
<path fill-rule="evenodd" clip-rule="evenodd" d="M22.6325 38.0806L22.9535 39.097L23.9967 39.4963L23.1541 39.7141L23.4751 40.7306L22.6325 39.8957L21.7898 40.1135L22.1108 39.3511L21.2682 38.4799L22.3114 38.8792L22.6325 38.0806Z" fill="#A82A30"/>
<path fill-rule="evenodd" clip-rule="evenodd" d="M46.2662 11.1446C46.4669 12.0159 46.6675 13.0686 46.7879 13.1049C47.5101 13.1775 48.2324 13.2864 48.8744 13.4679C46.9885 16.6988 40.4079 15.3193 41.3308 11.5803C41.6518 10.2734 42.8556 9.98298 43.5778 10.0919C44.3402 10.2008 45.4236 10.9994 46.2662 11.1446Z" fill="#DE940C"/>
<path fill-rule="evenodd" clip-rule="evenodd" d="M42.4945 11.4351C41.4914 15.4283 49.0349 16.7352 50.319 12.5968C50.4795 12.1249 50.3591 10.8906 49.4362 10.6728C48.6738 10.4913 48.2726 11.0358 47.5904 10.9995C46.7879 10.9632 45.544 10.0557 44.7415 9.91047C44.0193 9.80156 42.8155 10.092 42.4945 11.4351Z" fill="#FFFED9"/>
<path fill-rule="evenodd" clip-rule="evenodd" d="M45.223 11.2899C45.1026 12.7783 46.9885 13.831 48.2725 13.5406C48.9145 13.3954 49.6769 12.742 49.717 12.1974C49.8374 10.8543 48.5935 11.7618 47.5502 11.544C46.6273 11.3262 45.3433 10.0919 45.223 11.2899Z" fill="#E6A616"/>
<path fill-rule="evenodd" clip-rule="evenodd" d="M54.1706 46.9019L53.3681 49.4067L31.9412 60.3699V58.3007L54.1706 46.9019Z" fill="white"/>
<path fill-rule="evenodd" clip-rule="evenodd" d="M9.99301 58.228C11.0363 61.1684 19.9842 60.0067 19.2219 56.9211C19.1416 56.5944 18.3391 55.7957 17.2156 55.8683C16.2526 55.941 16.1322 56.4492 15.3698 56.5944C14.4469 56.7759 12.6012 56.4855 11.6382 56.6307C10.7955 56.7759 9.63189 57.2841 9.99301 58.228Z" fill="#A89986"/>
<path fill-rule="evenodd" clip-rule="evenodd" d="M10.434 56.8123C11.3168 60.8418 18.7801 59.2445 18.1381 55.0335C18.0579 54.5616 17.4159 53.4725 16.4529 53.5814C15.6503 53.6903 15.53 54.3438 14.9281 54.5616C14.1657 54.8157 12.6409 54.4164 11.8384 54.5979C11.1162 54.7794 10.1532 55.5054 10.434 56.8123Z" fill="#FFFED9"/>
<path fill-rule="evenodd" clip-rule="evenodd" d="M12.8816 55.6869C13.4433 57.1026 15.6101 57.3567 16.6533 56.6307C17.175 56.2677 17.5762 55.3964 17.3756 54.8882C16.8941 53.6177 16.1317 54.9245 15.0885 55.0697C14.1656 55.2149 12.4402 54.5615 12.8816 55.6869Z" fill="#DE940C"/>
</svg>
