<svg width="56" height="62" viewBox="0 0 56 62" fill="none" xmlns="http://www.w3.org/2000/svg">
<path fill-rule="evenodd" clip-rule="evenodd" d="M2.99347 28.7957L52.0486 27.9413L43.3811 49.0894C41.5206 53.6609 35.1221 57.506 26.6361 57.506C18.1956 57.506 11.4794 53.789 9.89113 49.1322L2.99347 28.7957Z" fill="#CAD5DD"/>
<path fill-rule="evenodd" clip-rule="evenodd" d="M38.935 54.1308C37.1198 55.3271 34.8509 56.3097 32.2642 56.8652C30.4037 57.2497 28.407 57.4206 26.3196 57.4206C25.8658 57.4206 25.3666 57.4206 24.9128 57.3778C20.7379 57.1215 17.1075 55.968 14.4302 54.259L10.4368 30.6328L45.1066 30.0774L38.935 54.1308Z" fill="#D7DFE2"/>
<path fill-rule="evenodd" clip-rule="evenodd" d="M36.6198 55.4126C35.3038 56.0107 33.8063 56.5234 32.218 56.8652C30.3575 57.2497 28.3608 57.4206 26.2733 57.4206C25.8195 57.4206 25.3204 57.4206 24.8666 57.3779C22.5976 57.2497 20.4648 56.8224 18.5588 56.1816L18.1958 30.5474L40.6132 30.1629L36.6198 55.4126Z" fill="#F3F6F9"/>
<path fill-rule="evenodd" clip-rule="evenodd" d="M2.99347 28.7957L52.0486 27.9413L44.0164 47.0387C41.3844 51.1829 34.8044 54.1736 26.8176 54.1736C18.2863 54.1736 11.1164 50.7557 9.07431 46.1415L2.99347 28.7957Z" fill="#C8252F"/>
<path fill-rule="evenodd" clip-rule="evenodd" d="M39.708 51.012C36.3953 52.9773 31.9027 54.1736 26.8202 54.1736C21.7378 54.1736 17.1091 52.9773 13.7964 51.012L10.3475 30.6756L45.0174 30.1201L39.708 51.012Z" fill="#DA242C"/>
<path fill-rule="evenodd" clip-rule="evenodd" d="M36.8924 52.3792C34.0335 53.49 30.5847 54.1736 26.8635 54.1736C23.8685 54.1736 21.055 53.7463 18.5591 53.02L18.1507 30.5474L31.3107 30.3338L40.6135 30.2056L36.8924 52.3792Z" fill="#ED1C24"/>
<path fill-rule="evenodd" clip-rule="evenodd" d="M2.99347 28.7957H51.6855L49.1443 34.8625C44.1526 38.7076 36.2112 41.1856 27.3168 41.1856C18.1048 41.1856 9.93651 38.494 4.94478 34.4352L2.99347 28.7957Z" fill="#C8252F"/>
<path fill-rule="evenodd" clip-rule="evenodd" d="M27.4091 32.0427C42.4751 32.0427 54.8183 24.8651 54.8183 16.0214C54.8183 7.17757 42.4751 0 27.4091 0C12.3432 0 0 7.17757 0 16.0214C0 24.8651 12.2978 32.0427 27.4091 32.0427Z" fill="url(#paint0_linear_2_1877)"/>
<path fill-rule="evenodd" clip-rule="evenodd" d="M27.4091 30.8037C41.2952 30.8037 52.64 24.1388 52.64 16.0214C52.64 7.90387 41.2952 1.23898 27.4091 1.23898C13.4777 1.23898 2.13281 7.86115 2.13281 16.0214C2.13281 24.1816 13.4777 30.8037 27.4091 30.8037Z" fill="#CAD5DD"/>
<path fill-rule="evenodd" clip-rule="evenodd" d="M27.4091 5.93857C39.707 5.93857 48.0568 11.4072 51.5056 17.9439H54.7275V20.7209C54.7729 21.1482 54.8183 21.5327 54.8183 21.9599C54.8183 30.8037 42.5659 37.9813 27.4091 37.9813C12.2524 37.9813 0 30.8037 0 21.9599V17.9439H4.26566C7.71449 11.4072 15.066 5.93857 27.4091 5.93857Z" fill="#E2E7EB"/>
<path fill-rule="evenodd" clip-rule="evenodd" d="M41.5202 2.1789C41.5202 4.3578 41.8379 6.1522 41.611 3.97329C41.5656 3.37516 44.606 2.05073 44.9691 2.73431C45.3775 3.50333 45.3321 4.65687 44.8783 4.99866C42.564 6.83577 45.7859 4.82776 47.1927 4.48597C47.9641 4.27236 48.1456 3.8024 48.2818 3.84512C48.6902 4.01601 47.2834 7.04939 46.6027 7.34846C45.1052 8.07476 45.6498 7.39118 47.3288 6.19492C47.8733 5.81041 48.6902 5.04138 49.0078 5.16955C49.2347 5.255 49.3255 7.77569 48.8263 8.45927C47.5557 10.1682 48.4633 9.14285 49.5524 7.22029C50.1877 6.10947 50.7776 5.46862 50.9591 5.68224C51.3222 6.06675 51.3676 8.71561 50.2331 8.03204C49.9608 7.86114 55.5425 9.14285 55.0433 9.39919C54.3626 9.74098 53.3189 10.04 51.8214 10.4673C52.0482 11.0227 54.9525 10.3391 54.6803 10.6382C52.4113 13.0734 56.2232 11.4499 55.8147 12.0481C54.0903 14.7396 51.8667 18.542 50.1877 21.0627C49.8247 21.6609 49.0986 22.729 48.3271 22.7717C47.7372 22.8144 47.1927 22.9853 46.4666 22.9426C46.0582 22.9426 44.243 22.8144 44.2884 22.8571C39.7958 19.781 40.1588 17.7303 40.6126 14.0988C40.9757 11.0227 40.3857 8.80106 39.4782 5.59679C39.0697 3.67423 38.9336 1.53804 41.5202 2.1789Z" fill="#699B42"/>
<path fill-rule="evenodd" clip-rule="evenodd" d="M41.5223 2.17888C38.9357 2.3925 40.2063 4.10145 41.3862 3.41787C41.8854 3.1188 43.519 1.75165 44.5174 2.34978C45.1073 2.69157 45.1527 2.94791 44.7443 3.2897C42.4299 5.12681 45.6065 4.22962 46.9679 3.88783C49.736 3.16153 47.5578 4.44324 46.6048 4.87047C45.1073 5.59677 45.4703 6.79304 47.1494 5.59677C48.057 4.95592 49.8721 4.35779 48.6469 6.06673C47.3763 7.77568 48.3292 8.5447 49.4183 6.62214C50.8705 4.05872 51.9596 6.02401 50.099 7.43389C49.9175 7.56206 57.7228 9.52735 54.3193 9.48462C53.3663 9.48462 51.2789 8.28836 51.7327 9.31373C51.9596 9.86914 56.5883 10.5954 54.1832 10.6382C50.099 10.7236 56.679 11.5354 55.953 12.0053C53.4117 13.6288 51.7781 17.9439 50.099 20.4646C49.736 21.0627 49.0099 22.1308 48.2385 22.1735C47.6485 22.2163 47.104 22.3872 46.3779 22.3444C45.9695 22.3444 44.1543 22.2163 44.1997 22.259C39.7071 19.1829 40.0702 17.1322 40.524 13.5006C40.887 10.4245 40.2971 8.20291 39.3895 4.99864C38.8449 3.07608 38.9357 1.53803 41.5223 2.17888Z" fill="#99CC33"/>
<path fill-rule="evenodd" clip-rule="evenodd" d="M39.7962 3.50331C39.7508 5.93855 40.7945 7.51933 41.2937 9.18555C41.4752 9.8264 41.3844 10.4673 41.5206 11.0654C41.6113 11.4926 41.5206 12.048 41.6567 11.2363C42.0198 9.05738 41.0214 6.9212 41.2029 4.82774C41.2937 3.97327 42.7004 3.28969 41.8836 3.50331C41.3844 3.63148 40.1138 3.93054 39.7962 3.50331Z" fill="#D1DB39"/>
<path fill-rule="evenodd" clip-rule="evenodd" d="M43.8363 4.48596C43.2918 5.38316 43.3372 6.49397 43.2464 7.17755C43.0195 8.54471 42.7926 9.95459 42.4296 11.3217C42.0212 12.8598 42.9287 10.04 43.0649 9.69825C43.5641 8.37381 43.7002 7.64751 44.2901 6.3658C44.4263 6.10946 45.1977 4.95592 45.1977 4.78503C44.7893 4.52869 44.154 4.82775 43.8363 4.48596Z" fill="#D1DB39"/>
<path fill-rule="evenodd" clip-rule="evenodd" d="M45.6071 6.15221C45.1079 7.13485 45.0625 8.11749 44.9264 8.80107C44.8356 9.10014 44.6995 9.35648 44.6087 9.65555C44.4726 9.99733 44.3818 10.2537 44.6541 9.82644C45.1533 9.05741 45.6978 8.33111 46.1516 7.56209L47.0138 6.15221C47.1046 6.02404 46.0155 6.53672 45.6071 6.15221Z" fill="#D1DB39"/>
<path fill-rule="evenodd" clip-rule="evenodd" d="M51.5056 9.0574C51.0971 9.44192 50.8702 9.91188 50.4618 10.3391L47.5576 13.2016L46.65 14.1415L47.3307 13.5861L51.7325 10.1255C52.5493 9.39919 51.4602 9.9546 51.5056 9.0574Z" fill="#D1DB39"/>
<path fill-rule="evenodd" clip-rule="evenodd" d="M52.5968 10.9372C52.3699 11.279 52.0522 11.9199 51.7346 12.1762C51.0539 12.7316 50.6001 13.287 50.0102 13.9706C49.1933 14.996 51.4623 12.8598 51.9161 12.6034C52.3245 12.3471 53.0506 12.1762 53.5498 12.0053C54.2304 11.7917 54.2304 11.749 53.4136 11.4926C53.1413 11.4072 52.5514 10.7663 52.5968 10.9372Z" fill="#D1DB39"/>
<path fill-rule="evenodd" clip-rule="evenodd" d="M50.0553 7.60477C49.2838 8.24562 49.193 9.39916 48.3308 9.86912C47.7409 10.2109 47.6501 10.9799 47.4232 11.4499C47.1963 11.9199 47.877 11.1081 47.9678 11.0227C48.6939 10.2109 49.9645 9.31371 50.9175 8.67286C51.2351 8.45924 51.5982 8.41652 50.7359 8.11745C50.4637 8.11745 50.0553 7.60477 50.0553 7.60477Z" fill="#D1DB39"/>
<path fill-rule="evenodd" clip-rule="evenodd" d="M15.6567 1.79437C15.6567 3.97327 15.3391 5.72494 15.566 3.58876C15.6114 2.99063 12.5709 1.15351 12.2079 1.70892C11.7995 2.3925 11.8449 3.54603 12.2987 3.97327C14.613 6.23762 11.3911 3.67421 9.98431 3.07607C9.21286 2.73429 9.03134 2.2216 8.8952 2.26433C8.48679 2.34977 9.89355 5.63949 10.5742 6.06673C12.0718 7.04937 11.5272 6.28035 9.84817 4.78502C9.30362 4.31506 8.48679 3.41786 8.16913 3.50331C7.94224 3.54603 7.85148 6.06673 8.35065 6.83575C9.62127 8.75832 8.71369 7.56206 7.62458 5.4686C6.98927 4.22961 6.39934 3.50331 6.21782 3.67421C5.85478 4.01599 5.80941 6.66486 6.94389 6.15218C7.21617 6.02401 1.6345 6.36579 2.13368 6.70758C2.81437 7.17754 3.85809 7.6475 5.35561 8.33108C5.12871 8.84377 2.22443 7.69023 2.49671 7.98929C4.76568 10.8091 0.953812 8.50198 1.36223 9.22828C3.08664 12.2189 5.31023 16.4058 6.98927 19.2256C7.3523 19.8665 8.07837 21.0627 8.84982 21.2336C9.43976 21.3618 9.98431 21.6181 10.7104 21.7463C11.1188 21.789 12.934 22.0026 12.8886 22.0026C17.3811 19.6956 17.0181 17.6021 16.5643 13.8424C16.2013 10.6809 16.7912 8.58742 17.6988 5.51132C18.1072 3.71693 18.2434 1.62347 15.6567 1.79437Z" fill="#699B42"/>
<path fill-rule="evenodd" clip-rule="evenodd" d="M15.6586 1.79439C18.2453 2.43524 16.9747 3.97329 15.7948 3.03337C15.2956 2.64886 13.662 1.02536 12.6636 1.40988C12.0737 1.66622 12.0283 1.87984 12.4367 2.30707C14.7511 4.57142 11.5745 3.11882 10.2131 2.52069C7.44498 1.32443 9.62319 2.94793 10.5762 3.58878C12.0737 4.57142 11.7106 5.72496 10.0316 4.22964C9.12402 3.41789 7.30884 2.52069 8.53408 4.44325C9.80471 6.36582 8.85174 7.00667 7.76263 4.87049C6.31049 2.05073 5.22139 3.84512 7.08194 5.55407C7.26346 5.72496 -0.541796 6.32309 2.86166 6.83578C3.81463 6.96395 5.8567 6.1522 5.44828 7.13484C5.22139 7.64753 0.592689 7.56208 2.9978 8.03204C7.08194 8.84379 0.50193 8.502 1.228 9.10013C3.76925 11.1936 5.44828 15.8077 7.08194 18.6275C7.44498 19.2684 8.17105 20.4646 8.9425 20.6355C9.53243 20.7637 10.077 21.02 10.8031 21.1482C11.2115 21.1909 13.0266 21.4045 12.9813 21.4045C17.4738 19.0975 17.1108 17.004 16.657 13.2443C16.294 10.0828 16.8839 7.98932 17.7915 4.91321C18.336 3.16155 18.2453 1.62349 15.6586 1.79439Z" fill="#99CC33"/>
<path fill-rule="evenodd" clip-rule="evenodd" d="M17.3802 3.41788C17.4256 5.85313 16.3819 7.22028 15.8827 8.84378C15.7012 9.44191 15.792 10.1255 15.6558 10.6809C15.5651 11.1081 15.6558 11.6635 15.5197 10.8518C15.1567 8.58744 16.155 6.62215 15.9735 4.52869C15.8827 3.67422 14.476 2.7343 15.2928 3.11881C15.792 3.28971 17.0626 3.80239 17.3802 3.41788Z" fill="#D1DB39"/>
<path fill-rule="evenodd" clip-rule="evenodd" d="M13.3415 3.71693C13.886 4.7423 13.8407 5.76767 13.9314 6.49397C14.1583 7.90385 14.3852 9.35645 14.7482 10.7663C15.1567 12.3898 14.2491 9.39918 14.1129 9.05739C13.6138 7.64751 13.4776 6.87848 12.8877 5.51133C12.7516 5.25498 11.9801 3.97328 11.9801 3.75966C12.3885 3.58876 13.0238 3.97328 13.3415 3.71693Z" fill="#D1DB39"/>
<path fill-rule="evenodd" clip-rule="evenodd" d="M11.5723 5.0841C12.0715 6.15219 12.1168 7.17756 12.253 7.86114C12.3437 8.1602 12.4799 8.45927 12.5706 8.80106C12.6614 9.10012 12.7522 9.39919 12.4799 8.92923C11.9807 8.07475 11.4362 7.26301 10.9824 6.40853L10.1202 4.82776C10.0748 4.65686 11.1639 5.38317 11.5723 5.0841Z" fill="#D1DB39"/>
<path fill-rule="evenodd" clip-rule="evenodd" d="M5.67284 6.96396C6.08125 7.43392 6.30815 7.9466 6.71657 8.41656L9.62084 11.749L10.5284 12.8171L9.84774 12.1335L5.44594 7.90388C4.62911 7.09213 5.71822 7.86115 5.67284 6.96396Z" fill="#D1DB39"/>
<path fill-rule="evenodd" clip-rule="evenodd" d="M4.58551 8.63016C4.8124 9.01467 5.13006 9.69825 5.44772 10.04C6.12841 10.7236 6.5822 11.3217 7.17213 12.1335C7.98896 13.287 5.71999 10.7663 5.2662 10.4246C4.85778 10.1255 4.13171 9.7837 3.63254 9.57008C2.95185 9.22829 2.95185 9.18557 3.76868 9.0574C4.04096 9.01467 4.63089 8.50199 4.58551 8.63016Z" fill="#D1DB39"/>
<path fill-rule="evenodd" clip-rule="evenodd" d="M7.12422 5.76768C7.89567 6.5367 7.98643 7.69024 8.84864 8.3311C9.43857 8.75833 9.52933 9.52736 9.75623 10.04C9.98313 10.5527 9.30243 9.65553 9.21167 9.52736C8.48561 8.58744 7.21498 7.47662 6.26202 6.7076C5.94436 6.45126 5.58133 6.32308 6.44353 6.19491C6.71581 6.15219 7.12422 5.72495 7.12422 5.76768Z" fill="#D1DB39"/>
<path fill-rule="evenodd" clip-rule="evenodd" d="M19.3775 2.60617C20.1036 4.91325 21.1019 6.62219 20.1036 4.44329C19.7859 3.84516 23.0986 0.854501 23.7793 1.36718C24.5508 1.96532 24.8684 3.2043 24.46 3.80243C22.2364 6.96398 25.5491 3.16158 27.1374 2.05076C28.045 1.40991 28.045 0.811778 28.2719 0.811778C28.8618 0.769054 28.0904 4.69963 27.3643 5.42593C25.776 6.96398 26.2298 5.93861 27.8635 3.80243C28.408 3.11885 29.1341 1.87987 29.5879 1.87987C29.9055 1.83714 30.8585 4.44329 30.4955 5.42593C29.5425 7.9039 30.2686 6.32313 30.9946 3.71698C31.403 2.22166 31.9022 1.23901 32.2199 1.36718C32.8098 1.5808 33.7174 4.35784 32.1291 4.18694C31.7207 4.14422 39.0268 2.56345 38.4822 3.11885C37.7562 3.84516 36.5763 4.69963 34.8519 5.93861C35.3057 6.40857 38.6184 4.18694 38.4368 4.61418C36.4855 8.37386 40.6151 4.61418 40.3428 5.51138C39.1175 9.22833 37.6654 14.4406 36.4855 17.944C36.2133 18.7557 35.7141 20.251 34.7611 20.721C34.035 21.0628 33.4451 21.5327 32.5375 21.8745C32.0384 22.0881 29.724 22.8999 29.8601 22.8999C23.3255 22.0027 23.0986 19.6529 22.4179 15.5942C21.8734 12.1335 20.3759 10.1255 18.1976 7.22032C16.8816 5.42593 15.9741 3.28975 19.3775 2.60617Z" fill="#699B42"/>
<path fill-rule="evenodd" clip-rule="evenodd" d="M19.3765 2.60616C16.2453 4.18694 18.4235 5.34048 19.6487 3.97332C20.1479 3.37519 21.7362 1.11084 23.143 1.23901C23.9598 1.28173 24.1413 1.53807 23.7329 2.1362C21.5093 5.29775 25.0943 2.69161 26.6826 1.5808C29.8591 -0.640833 27.5901 1.83714 26.5464 2.81978C24.9581 4.35783 25.775 5.46865 27.454 3.33246C28.3616 2.17893 30.4037 0.598152 29.4507 3.0334C28.4977 5.51137 29.9045 5.81044 30.5852 3.24702C31.5381 -0.213597 33.5348 1.28173 31.7197 3.71698C31.5381 3.97332 41.7485 1.92258 37.5282 3.67425C36.3484 4.14421 33.4441 4.01604 34.2609 4.87052C34.7147 5.34048 40.6594 3.67425 37.7097 4.99869C32.7634 7.22031 41.0678 4.6569 40.3417 5.51137C37.8005 8.54475 37.2106 13.9706 36.0307 17.4313C35.7584 18.243 35.2593 19.7383 34.3063 20.2083C33.5802 20.5501 32.9903 21.02 32.0827 21.3618C31.5835 21.5755 29.2692 22.3872 29.4053 22.3872C22.8707 21.49 22.6438 19.1402 21.9631 15.0815C21.4185 11.6208 19.921 9.61284 17.7428 6.70763C16.4268 4.95596 15.973 3.28974 19.3765 2.60616Z" fill="#99CC33"/>
<path fill-rule="evenodd" clip-rule="evenodd" d="M17.6505 4.91326C18.422 7.5194 20.2371 8.58749 21.3716 10.1255C21.78 10.681 21.9162 11.45 22.2792 11.9627C22.5515 12.3472 22.5969 12.988 22.5061 12.0908C22.1885 9.61286 20.2825 7.86119 19.8287 5.55411C19.6472 4.61419 21.1901 3.11887 20.2371 3.80244C19.6926 4.22968 18.2404 5.21232 17.6505 4.91326Z" fill="#D1DB39"/>
<path fill-rule="evenodd" clip-rule="evenodd" d="M22.9645 3.84515C22.6014 5.08414 23.0552 6.19495 23.146 6.96397C23.3275 8.54475 23.509 10.1255 23.5544 11.7063C23.5998 13.5434 23.7359 10.1255 23.7813 9.69829C23.9175 8.07479 23.8721 7.22032 24.1897 5.5541C24.2351 5.25503 24.825 3.63153 24.7797 3.41791C24.1443 3.37519 23.4637 4.01604 22.9645 3.84515Z" fill="#D1DB39"/>
<path fill-rule="evenodd" clip-rule="evenodd" d="M25.6853 4.65691C25.3676 5.93862 25.6853 7.04944 25.7307 7.81846C25.7307 8.16025 25.6399 8.54476 25.5945 8.92928C25.5945 9.27107 25.5491 9.61286 25.7307 9.01472C26.0483 7.94663 26.5021 6.87854 26.7744 5.85317L27.3643 3.88789C27.5004 3.71699 26.3206 4.87053 25.6853 4.65691Z" fill="#D1DB39"/>
<path fill-rule="evenodd" clip-rule="evenodd" d="M33.8989 4.61417C33.5359 5.25502 33.3998 5.85315 33.0367 6.49401L30.4047 11.0654L29.5879 12.518L30.2232 11.5781L34.4435 5.63953C35.3057 4.44327 34.1258 5.59681 33.8989 4.61417Z" fill="#D1DB39"/>
<path fill-rule="evenodd" clip-rule="evenodd" d="M35.85 6.02405C35.6685 6.49401 35.5323 7.34848 35.2147 7.81844C34.534 8.75836 34.1709 9.57011 33.7171 10.5955C33.0364 12.0908 35.1239 8.67291 35.6231 8.16023C36.0315 7.69027 36.8483 7.09214 37.4383 6.70762C38.2097 6.10949 38.2097 6.06677 37.1206 6.19494C36.6668 6.23766 35.7592 5.89588 35.85 6.02405Z" fill="#D1DB39"/>
<path fill-rule="evenodd" clip-rule="evenodd" d="M31.6766 3.88789C30.9051 4.95598 31.2228 6.19497 30.3152 7.22034C29.6799 7.86119 29.8614 8.71566 29.7252 9.31379C29.5891 9.95465 30.179 8.75839 30.2244 8.63022C30.8597 7.39123 32.085 5.81046 33.0379 4.65692C33.3556 4.27241 33.8094 4.05879 32.6295 4.18696C32.3119 4.14423 31.6312 3.84517 31.6766 3.88789Z" fill="#D1DB39"/>
<path fill-rule="evenodd" clip-rule="evenodd" d="M5.08294 14.8251C5.08294 12.9025 6.17204 13.4152 7.8057 13.2016C8.53177 13.1161 8.21411 8.75833 12.0714 11.0654C14.2496 12.3471 16.2009 9.82642 16.2009 7.30573C16.2009 4.22963 26.139 10.5954 27.6365 8.24565C31.1761 2.56341 32.4921 12.7316 36.7577 7.94658C38.2099 6.32309 42.2033 9.0574 40.3427 10.51C38.3914 11.9626 45.2437 10.3391 45.6067 10.2537C48.3749 9.44191 47.1496 13.7997 47.6034 14.0133C49.6001 14.9533 52.1867 14.1842 52.1867 18.7129C52.1867 33.3671 31.1761 36.6569 17.1539 32.5554C11.8898 31.0173 5.21907 28.4539 2.45093 24.2243C0.681135 21.4473 1.95176 13.7143 5.08294 14.8251Z" fill="#FFF3AD"/>
<path fill-rule="evenodd" clip-rule="evenodd" d="M39.0723 14.6969C38.6185 14.6115 33.0822 17.9866 33.4906 18.6702C33.9898 19.6529 35.0789 19.3538 36.168 19.6529C37.0756 19.9092 36.8941 22.0881 38.7546 22.0881C40.5244 22.0881 39.8891 20.5501 40.6152 20.5501C41.5682 20.5501 43.1564 21.1482 44.1094 21.4045C44.6086 21.5327 48.4658 20.6782 48.7835 20.3792C49.328 19.8238 48.9196 19.1829 48.4204 18.7129C47.286 17.5167 45.8792 17.7303 48.0574 16.5768C50.5079 15.295 47.5129 14.3551 45.7431 14.4406C44.064 14.526 42.6119 14.1842 41.069 14.1842C40.5244 14.1842 40.0706 13.9706 39.4807 14.0561C39.2992 14.0561 38.8 14.6542 39.0723 14.6969Z" fill="#EABB36"/>
<path fill-rule="evenodd" clip-rule="evenodd" d="M2.63036 15.8932C2.31271 17.2604 2.31271 17.7731 3.35643 18.9693C3.81023 19.5247 5.12623 20.251 5.94306 20.251C7.07754 20.251 8.57506 23.5407 11.2978 23.5407C13.2945 23.5407 15.8358 23.8825 16.6526 21.6182C17.6963 18.5848 11.797 17.5167 9.89106 16.1068C6.66913 13.6289 4.85395 15.5942 2.63036 15.8932Z" fill="#EABB36"/>
<path fill-rule="evenodd" clip-rule="evenodd" d="M13.5664 10.8518C14.837 12.3471 16.7883 14.3124 18.8304 14.9105C22.9599 16.1923 21.6439 10.3391 20.0102 8.63017C18.8304 7.43391 16.6976 8.03204 15.3362 8.71562C14.7916 8.97196 13.9748 9.27103 13.7025 9.74099C13.2487 10.4673 13.6571 10.4673 13.5664 10.8518Z" fill="#EABB36"/>
<path d="M10.0557 17.504C10.5697 16.1735 9.13423 14.4608 6.84953 13.6785C4.56484 12.8962 2.29606 13.3406 1.78208 14.6711C1.2681 16.0016 2.70355 17.7144 4.98825 18.4967C7.27295 19.279 9.54173 18.8345 10.0557 17.504Z" fill="#ED4E28"/>
<path d="M10.2786 16.9133C10.7927 15.5828 9.35737 13.8698 7.07267 13.0873C4.78798 12.3048 2.51908 12.749 2.00495 14.0795C1.49082 15.41 2.92615 17.123 5.21085 17.9055C7.49555 18.688 9.76445 18.2438 10.2786 16.9133Z" fill="#F58220"/>
<path d="M21.2297 12.1938C22.2052 11.1793 21.5954 9.16308 19.8675 7.69042C18.1397 6.21777 15.9482 5.84636 14.9727 6.86086C13.9972 7.87537 14.607 9.89161 16.3349 11.3643C18.0627 12.8369 20.2542 13.2083 21.2297 12.1938Z" fill="#ED4E28"/>
<path d="M21.694 11.7444C22.6696 10.7299 22.0597 8.71365 20.3319 7.24099C18.6041 5.76834 16.4126 5.39693 15.4371 6.41143C14.4615 7.42593 15.0714 9.44218 16.7992 10.9148C18.527 12.3875 20.7185 12.7589 21.694 11.7444Z" fill="#F58220"/>
<path fill-rule="evenodd" clip-rule="evenodd" d="M29.1776 9.48465C27.6347 10.5955 30.1305 12.1335 31.0381 12.3471C31.8096 12.518 32.4449 12.3471 32.4449 11.5354C32.581 8.88652 30.9927 8.16022 29.1776 9.48465Z" fill="#FDB913"/>
<path fill-rule="evenodd" clip-rule="evenodd" d="M29.3603 9.99732C28.7704 10.4246 29.7233 10.98 30.041 11.0654C30.3132 11.1509 30.5401 11.0654 30.5855 10.7663C30.6309 9.7837 30.041 9.48464 29.3603 9.99732Z" fill="#FFF6BA"/>
<path fill-rule="evenodd" clip-rule="evenodd" d="M10.4818 22.6008C12.66 22.6008 14.4298 20.9346 14.4298 18.8839C14.4298 16.8331 12.66 15.1669 10.4818 15.1669C8.30361 15.1669 6.53381 16.8331 6.53381 18.8839C6.53381 20.9346 8.30361 22.6008 10.4818 22.6008Z" fill="#D00209"/>
<path fill-rule="evenodd" clip-rule="evenodd" d="M10.8918 21.02C12.5255 21.02 13.8869 19.7383 13.8869 18.2003C13.8869 16.6622 12.5255 15.3805 10.8918 15.3805C9.25817 15.3805 7.89679 16.6622 7.89679 18.2003C7.89679 19.7811 9.25817 21.02 10.8918 21.02Z" fill="#EE6305"/>
<path d="M12.3598 16.1198C11.9049 15.7866 11.3615 15.7277 11.146 15.9884C10.9305 16.2491 11.1246 16.7306 11.5795 17.0639C12.0345 17.3972 12.5779 17.456 12.7934 17.1953C13.0089 16.9346 12.8148 16.4531 12.3598 16.1198Z" fill="#FDF1DE"/>
<path fill-rule="evenodd" clip-rule="evenodd" d="M40.2954 32.2564C42.4736 32.2564 44.2434 30.5901 44.2434 28.5394C44.2434 26.4887 42.4736 24.8224 40.2954 24.8224C38.1172 24.8224 36.3474 26.4887 36.3474 28.5394C36.3474 30.5901 38.1172 32.2564 40.2954 32.2564Z" fill="#D00209"/>
<path fill-rule="evenodd" clip-rule="evenodd" d="M40.7046 30.6756C42.3383 30.6756 43.6997 29.3939 43.6997 27.8558C43.6997 26.3178 42.3383 25.0361 40.7046 25.0361C39.071 25.0361 37.7096 26.3178 37.7096 27.8558C37.7096 29.3939 39.0256 30.6756 40.7046 30.6756Z" fill="#EE6305"/>
<path d="M42.1688 25.7573C41.7139 25.4241 41.1704 25.3652 40.9549 25.6259C40.7395 25.8866 40.9336 26.3682 41.3885 26.7014C41.8434 27.0347 42.3869 27.0935 42.6024 26.8328C42.8178 26.5721 42.6237 26.0906 42.1688 25.7573Z" fill="#FDF1DE"/>
<path fill-rule="evenodd" clip-rule="evenodd" d="M49.418 9.01467C42.2934 15.765 41.3405 17.004 40.3875 19.3111C40.7959 18.4566 42.6111 18.7984 44.4717 19.1829C46.1053 16.3204 48.8735 13.6288 54.319 8.92922C52.2315 8.41654 50.6433 8.50199 49.418 9.01467Z" fill="#B35542"/>
<path fill-rule="evenodd" clip-rule="evenodd" d="M49.4181 9.01471C48.692 8.16024 47.966 7.30577 47.2853 6.45129C40.1153 13.5861 39.843 14.9106 38.2548 17.3031C38.9808 17.9867 39.6615 18.6275 40.3876 19.3111C41.4767 16.6622 42.6566 15.5087 49.4181 9.01471Z" fill="#CC7C6C"/>
<path fill-rule="evenodd" clip-rule="evenodd" d="M47.2398 6.40855C48.465 5.85314 50.0079 5.7677 52.1408 6.40855C52.413 6.494 53.9559 7.81843 54.2736 8.88652C52.7307 8.58745 51.1424 8.41656 49.3726 8.97197C48.6919 8.1175 47.9659 7.26302 47.2398 6.40855Z" fill="#FAC5BD"/>
<path d="M48.7341 16.7698C48.2323 15.6119 46.2265 15.2875 44.254 16.0452C42.2816 16.803 41.0894 18.3559 41.5912 19.5138C42.0931 20.6717 44.0989 20.9961 46.0713 20.2384C48.0438 19.4806 49.2359 17.9277 48.7341 16.7698Z" fill="#ED4E28"/>
<path d="M48.5153 16.2603C48.0135 15.1024 46.0077 14.778 44.0353 15.5357C42.0628 16.2935 40.8706 17.8464 41.3725 19.0043C41.8743 20.1622 43.8801 20.4866 45.8526 19.7289C47.825 18.9712 49.0172 17.4182 48.5153 16.2603Z" fill="#F58220"/>
<path fill-rule="evenodd" clip-rule="evenodd" d="M39.8435 19.7383C42.0217 19.7383 43.7915 18.0721 43.7915 16.0214C43.7915 13.9706 42.0217 12.3044 39.8435 12.3044C37.6653 12.3044 35.8955 13.9706 35.8955 16.0214C35.8955 18.0294 37.6653 19.7383 39.8435 19.7383Z" fill="#D00209"/>
<path fill-rule="evenodd" clip-rule="evenodd" d="M40.253 18.1576C41.8866 18.1576 43.248 16.8758 43.248 15.3378C43.248 13.7997 41.8866 12.518 40.253 12.518C38.6193 12.518 37.2579 13.7997 37.2579 15.3378C37.2579 16.8758 38.5739 18.1576 40.253 18.1576Z" fill="#EE6305"/>
<path d="M41.721 13.2264C41.2661 12.8931 40.7226 12.8343 40.5071 13.095C40.2917 13.3557 40.4858 13.8372 40.9407 14.1705C41.3956 14.5038 41.9391 14.5626 42.1545 14.3019C42.37 14.0412 42.1759 13.5597 41.721 13.2264Z" fill="#FDF1DE"/>
<path fill-rule="evenodd" clip-rule="evenodd" d="M38.2087 19.2683C36.6658 20.3792 39.1617 21.9172 40.0693 22.1308C40.8407 22.3017 41.4761 22.1308 41.4761 21.3191C41.6122 18.6702 40.0693 17.9439 38.2087 19.2683Z" fill="#FDB913"/>
<path fill-rule="evenodd" clip-rule="evenodd" d="M38.3915 19.781C37.8015 20.2083 38.7545 20.7637 39.0722 20.8491C39.3444 20.9346 39.5713 20.8491 39.6167 20.5501C39.6621 19.5247 39.0722 19.2683 38.3915 19.781Z" fill="#FFF6BA"/>
<path fill-rule="evenodd" clip-rule="evenodd" d="M45.4246 19.9947C45.6969 21.7891 48.3289 20.5074 49.0096 19.8665C49.5541 19.3111 49.6903 18.713 48.9642 18.2857C46.5591 16.9186 45.1523 17.8158 45.4246 19.9947Z" fill="#FDB913"/>
<path fill-rule="evenodd" clip-rule="evenodd" d="M46.6039 18.7984C46.6947 19.482 47.693 19.012 47.9199 18.7557C48.1468 18.5421 48.1922 18.3285 47.9199 18.1576C47.0124 17.6449 46.4678 17.9867 46.6039 18.7984Z" fill="#FFF6BA"/>
<path fill-rule="evenodd" clip-rule="evenodd" d="M9.62048 12.9453C11.1634 14.0561 8.66751 15.5941 7.75992 15.8077C6.98847 15.9786 6.35316 15.8077 6.35316 14.996C6.21702 12.3471 7.75992 11.6208 9.62048 12.9453Z" fill="#FDB913"/>
<path fill-rule="evenodd" clip-rule="evenodd" d="M9.43961 13.4579C10.0295 13.8852 9.07658 14.4406 8.75892 14.526C8.48665 14.6115 8.25975 14.526 8.21437 14.227C8.16899 13.2016 8.75892 12.9453 9.43961 13.4579Z" fill="#FFFAC0"/>
<path fill-rule="evenodd" clip-rule="evenodd" d="M22.9147 16.534C22.8693 14.6542 23.0055 13.4152 23.55 11.6635C23.9131 10.5955 22.1433 10.5527 22.1433 9.86916C22.1433 9.74099 21.6441 9.86916 21.5987 9.86916C21.1449 9.69826 21.9164 9.44192 20.9634 9.35647C20.4188 9.31375 20.0558 8.33111 19.8743 8.67289C19.6474 9.14285 19.8743 9.57009 19.3297 9.65554C18.9667 9.69826 19.3751 10.3818 19.1482 10.5527C18.8759 10.7664 19.1028 10.98 19.2844 11.1509C19.5566 11.4927 18.5583 11.279 19.1936 12.0481C19.3751 12.3044 18.8306 12.1762 19.0121 12.3899L19.5113 12.988C20.1012 13.6716 20.1466 13.4152 20.8273 13.6716C21.1449 13.7997 21.0995 14.1415 21.3264 14.3551C21.508 14.526 22.234 14.7824 22.1886 15.1242C22.1433 15.3805 22.3248 15.8077 22.4155 16.0641C21.8256 15.0387 22.2794 16.1923 21.871 15.7223C21.3718 15.1242 21.3264 14.8251 21.0088 14.3124C20.8726 14.1415 19.9651 13.3298 19.602 13.6288C19.239 13.9279 19.602 13.7143 18.9213 13.4152C18.649 13.287 19.1028 13.8425 18.286 13.4152C17.9684 13.287 17.5146 14.1842 18.0591 14.3124C18.1953 14.3551 19.0121 14.4406 18.5583 14.526C18.1045 14.5688 17.5146 15.0814 18.286 15.2951C18.6944 15.4232 19.0121 15.2951 19.4205 15.3805C20.1466 15.5087 19.1936 15.8077 18.8759 15.8077C18.6037 15.8077 18.1499 15.8505 18.649 16.1068C19.1936 16.4059 18.5129 16.3204 18.7852 16.6622C18.8759 16.7904 19.1482 16.8758 19.2844 17.004C19.8289 17.4312 18.9213 17.773 19.6474 17.8585C20.5096 17.9439 21.6895 16.235 22.6878 16.8331C23.187 17.9439 23.9131 19.012 25.2291 19.9947C25.3198 19.9947 25.456 19.9947 25.5467 19.9947C24.2761 19.012 23.4593 18.0294 22.9601 17.0894V17.1322C24.4122 16.7049 24.6845 17.474 25.7736 17.6021C25.9551 17.6449 26.4089 17.6876 26.5904 17.5594C27.2711 17.1749 26.0459 17.004 26.2274 16.9186C26.5451 16.7904 26.8627 16.9613 27.0896 16.7904C27.3619 16.5768 26.9535 16.3631 27.4073 16.235C27.7249 16.1495 27.6342 16.0641 27.3619 15.765C27.0442 15.466 28.2695 15.3378 27.9518 14.9533C27.8157 14.7824 28.1787 14.4406 28.2241 14.1415C28.2695 13.9279 27.9064 13.9279 27.9972 13.6288C28.2241 12.9025 27.9518 13.1162 27.3165 13.0734C26.9535 13.0307 26.9535 13.0307 26.5451 13.3298C26.2728 13.5434 26.2728 12.9453 26.0459 12.988C25.2744 13.1162 24.14 13.0307 24.14 14.3551C24.0946 14.9105 23.3231 16.2777 22.9147 16.534Z" fill="#A6CE39"/>
<path fill-rule="evenodd" clip-rule="evenodd" d="M20.0115 9.14284C20.2384 10.4673 21.9175 12.1335 22.1897 13.8424C22.2805 14.3551 22.5528 14.996 22.462 15.5514C22.3713 16.1495 22.6435 15.8505 22.3259 15.0814C22.0536 14.4833 21.6452 14.3124 21.3729 13.7143C21.2821 13.5007 20.6468 13.4579 20.4199 13.3725C19.9661 13.2016 21.1006 13.2443 21.2368 13.2443C21.4637 13.2443 20.1477 12.7316 19.9208 12.6462C19.1947 12.4326 20.3292 12.4753 20.4653 12.4753C20.8737 12.4326 19.9661 12.0481 19.7846 11.8344C19.7392 11.749 19.6485 11.279 19.6939 11.1936C19.9208 10.7236 19.3762 10.6382 19.6485 10.1255C19.7392 9.95459 20.0115 9.10012 20.0115 9.14284Z" fill="#82B941"/>
<path fill-rule="evenodd" clip-rule="evenodd" d="M18.5158 13.7997C19.1057 14.0133 19.2419 13.9706 19.8772 14.0561C20.6486 14.1415 21.0117 15.466 21.6016 15.9359C22.1915 16.4486 21.3747 15.9786 21.1478 15.765C21.057 15.6796 20.1495 15.1242 20.1948 15.1669C20.5579 15.5087 20.331 15.466 19.9679 15.2523C19.6957 15.0814 19.4234 15.0814 19.1057 15.0387C19.015 15.0387 18.425 14.9533 18.6066 14.9533C19.3326 14.996 18.7427 14.3979 18.5158 14.1842C18.425 14.0988 18.2435 13.9706 18.2889 13.8425C18.2889 13.757 18.6519 13.757 18.5158 13.7997Z" fill="#82B941"/>
<path fill-rule="evenodd" clip-rule="evenodd" d="M23.7771 16.5768C24.0947 15.8932 24.9569 15.9359 25.3654 15.4659C25.7284 15.0814 26.0914 14.6542 26.5906 14.4406C26.999 14.2697 27.3167 13.8852 27.5436 13.6715C27.8612 13.4152 27.2713 13.6288 27.1805 13.7143C26.5906 14.0561 27.1352 13.3725 27.0444 13.4152C26.6814 13.6288 26.3637 13.8424 26.0914 14.0561C26.0007 14.1415 25.4561 14.7824 25.5469 14.4406C25.5923 14.2269 25.7284 14.0561 25.7738 13.8424C25.9099 13.1161 25.5469 13.5861 25.32 13.9706C25.2746 14.0561 25.2292 13.6715 25.1838 13.6288C25.1838 13.6288 24.5939 15.5087 24.6393 14.6542C24.6393 14.5687 24.4124 14.0988 24.5032 14.4406C24.6393 15.2096 23.9132 15.6796 23.7771 16.1922C23.7317 16.3631 23.2779 16.7049 23.1418 16.7904C23.0056 16.8758 23.4594 16.7049 23.5048 16.6622C23.5956 16.534 23.8225 16.4913 23.7771 16.5768Z" fill="#82B941"/>
<path fill-rule="evenodd" clip-rule="evenodd" d="M13.2015 10.1255C17.4217 18.7557 17.8755 20.251 17.9209 22.729C17.8755 21.789 16.015 21.5327 14.1544 21.2764C13.7006 18.0294 12.0216 14.6542 8.66351 8.45927C10.751 8.63017 12.2485 9.2283 13.2015 10.1255Z" fill="#B35542"/>
<path fill-rule="evenodd" clip-rule="evenodd" d="M13.2062 10.1255C14.2045 9.52738 15.2029 8.97197 16.1558 8.37384C20.24 17.4312 20.0131 18.7557 20.6484 21.5327C19.7408 21.9172 18.8332 22.3017 17.9256 22.729C17.8349 19.8665 17.1542 18.4139 13.2062 10.1255Z" fill="#CC7C6C"/>
<path fill-rule="evenodd" clip-rule="evenodd" d="M16.1535 8.37383C15.2006 7.47664 13.7938 6.87851 11.5248 6.75034C11.2525 6.75034 9.30124 7.47664 8.62054 8.41656C10.2088 8.6729 11.7517 9.01469 13.2039 10.0828C14.2022 9.52737 15.2006 8.97196 16.1535 8.37383Z" fill="#FAC5BD"/>
<path fill-rule="evenodd" clip-rule="evenodd" d="M29.0867 15.2951C27.3169 24.6515 27.2715 26.1896 27.9068 28.6248C27.7253 27.6849 29.4497 27.0013 31.1741 26.3178C30.7657 23.0708 31.4464 19.3965 33.0347 12.6035C31.038 13.2871 29.8127 14.227 29.0867 15.2951Z" fill="#CC7C6C"/>
<path fill-rule="evenodd" clip-rule="evenodd" d="M29.09 15.2951C28.0009 14.9533 26.8664 14.6542 25.7773 14.3124C24.2344 24.0534 24.8243 25.2497 24.9605 28.1122C25.9588 28.2831 26.9118 28.4539 27.9101 28.5821C27.2294 25.8478 27.4563 24.267 29.09 15.2951Z" fill="#B35542"/>
<path fill-rule="evenodd" clip-rule="evenodd" d="M25.7772 14.3552C26.4579 13.2444 27.6378 12.3472 29.816 11.7063C30.0883 11.6209 32.1303 11.8772 33.0833 12.6035C31.6312 13.2016 30.2244 13.9279 29.1353 15.2951C27.9554 14.996 26.8663 14.6542 25.7772 14.3552Z" fill="#FAC5BD"/>
<path fill-rule="evenodd" clip-rule="evenodd" d="M34.9867 17.0468C31.8101 26.1042 31.5832 27.5995 31.8101 30.0775C31.7648 29.1376 33.5799 28.6676 35.3951 28.2404C35.4859 24.9934 36.7111 21.4046 39.2977 14.9106C37.2557 15.3378 35.8489 16.1068 34.9867 17.0468Z" fill="#CC7C6C"/>
<path fill-rule="evenodd" clip-rule="evenodd" d="M34.9882 17.0468C33.9445 16.5768 32.9007 16.1068 31.857 15.6369C28.862 25.0788 29.2704 26.3605 28.9981 29.1803C29.9511 29.4793 30.904 29.7784 31.857 30.0775C31.5847 27.2577 32.0839 25.7196 34.9882 17.0468Z" fill="#B35542"/>
<path fill-rule="evenodd" clip-rule="evenodd" d="M31.8554 15.6796C32.6722 14.6969 33.9882 13.9279 36.2572 13.5861C36.5295 13.5434 38.5262 14.0561 39.343 14.9106C37.8001 15.3378 36.3026 15.8505 35.032 17.0895C33.9429 16.5768 32.8991 16.1495 31.8554 15.6796Z" fill="#FAC5BD"/>
<path d="M30.8259 29.9702C30.9952 28.611 29.2562 27.2998 26.9417 27.0414C24.6271 26.7831 22.6135 27.6756 22.4442 29.0348C22.2748 30.394 24.0139 31.7052 26.3284 31.9636C28.643 32.2219 30.6566 31.3294 30.8259 29.9702Z" fill="#ED4E28"/>
<path d="M30.9077 29.3546C31.0772 27.9954 29.3383 26.6839 27.0237 26.4254C24.7092 26.1669 22.6955 27.0592 22.526 28.4184C22.3565 29.7776 24.0954 31.089 26.41 31.3475C28.7245 31.6061 30.7382 30.7138 30.9077 29.3546Z" fill="#F58220"/>
<path fill-rule="evenodd" clip-rule="evenodd" d="M6.39917 21.2336C7.71517 22.8144 9.07656 24.0107 7.57904 22.5154C7.17062 22.0881 8.89504 19.6529 9.57573 19.9519C10.3926 20.2937 11.0279 21.1909 10.8917 21.6609C10.1203 24.1388 11.5724 21.1055 12.48 20.1656C12.9792 19.6529 12.843 19.1829 13.0246 19.1829C13.4784 19.0975 14.159 22.0027 13.796 22.6008C13.0246 23.8398 13.0699 23.0708 13.7053 21.4045C13.9321 20.8491 14.1137 19.9092 14.4767 19.8665C14.7036 19.8238 16.3373 21.6182 16.3373 22.3445C16.3373 24.2243 16.4734 23.028 16.2011 21.0627C16.0196 19.9092 16.1104 19.1829 16.428 19.2256C16.9726 19.3538 18.6062 21.2764 17.2448 21.2764C16.9272 21.2764 22.2819 19.5247 22.0551 19.9519C21.692 20.5073 21.0567 21.2764 20.0584 22.3017C20.5575 22.6008 22.5542 20.721 22.5088 21.02C22.1458 23.9252 24.2786 20.8491 24.324 21.5327C24.5509 24.3097 25.0501 28.2403 25.2316 30.8465C25.277 31.4446 25.3224 32.5981 24.7324 32.9826C24.2786 33.2817 23.9156 33.6662 23.3257 34.008C23.008 34.2216 21.4197 34.9907 21.5105 34.9907C15.9742 34.9052 15.0213 33.239 13.1607 30.3338C11.6178 27.8985 9.71187 26.5314 7.03448 24.6515C5.31007 23.498 3.90331 22.0027 6.39917 21.2336Z" fill="#699B42"/>
<path fill-rule="evenodd" clip-rule="evenodd" d="M6.39539 21.2336C4.3987 22.6435 6.48615 23.2844 7.0307 22.2163C7.2576 21.7463 7.80215 19.9519 8.93664 19.9092C9.61733 19.8665 9.84423 20.0374 9.70809 20.5073C8.93664 22.9853 10.9787 20.8064 11.9317 19.8665C13.7922 17.9866 12.7485 19.9946 12.2493 20.7637C11.4779 22.0026 12.4762 22.7289 13.1115 21.0627C13.4746 20.1655 14.6091 18.8411 14.6091 20.6782C14.6091 22.5581 15.8797 22.6435 15.6074 20.7209C15.2444 18.1148 17.3318 19.0547 16.6511 20.9773C16.6058 21.1482 24.1841 18.7984 21.3252 20.3791C20.5538 20.8064 18.1487 20.9773 19.1016 21.5327C19.6008 21.8317 23.8665 20.1228 21.9151 21.3191C18.6478 23.3698 24.5018 20.7637 24.2295 21.4472C23.1404 23.8398 24.411 27.8131 24.5925 30.4619C24.6379 31.0601 24.6833 32.2136 24.0934 32.5981C23.6396 32.8972 23.2765 33.2817 22.6866 33.6235C22.3236 33.8371 20.7807 34.6061 20.8714 34.6061C15.2898 34.5634 14.3368 32.8972 12.4762 29.992C10.9333 27.5567 9.0274 26.1896 6.35001 24.3097C4.80711 23.1989 3.89953 22.0026 6.39539 21.2336Z" fill="#99CC33"/>
<path fill-rule="evenodd" clip-rule="evenodd" d="M5.8089 23.028C7.26104 24.8224 9.07622 25.4633 10.483 26.4887C11.0275 26.8732 11.3452 27.3858 11.799 27.7704C12.162 28.0267 12.3889 28.4967 12.0259 27.8558C10.9821 26.0614 8.8947 24.9933 7.76021 23.3698C7.30642 22.6862 8.07787 21.49 7.53332 22.0881C7.21566 22.3872 6.35345 23.1989 5.8089 23.028Z" fill="#D1DB39"/>
<path fill-rule="evenodd" clip-rule="evenodd" d="M9.70807 21.789C9.79883 22.7289 10.5249 23.498 10.8426 24.0534C11.5232 25.1642 12.1586 26.3177 12.7031 27.4713C13.3384 28.7957 12.3401 26.3177 12.2039 25.9759C11.7955 24.7797 11.4779 24.1388 11.2056 22.9426C11.1602 22.7289 11.0695 21.49 10.9787 21.3191C10.5249 21.3618 10.1619 21.8745 9.70807 21.789Z" fill="#D1DB39"/>
<path fill-rule="evenodd" clip-rule="evenodd" d="M12.2074 22.1735C12.3889 23.1135 12.9788 23.8825 13.2511 24.4806C13.3873 24.737 13.3873 25.036 13.5234 25.2924C13.6142 25.5487 13.7049 25.805 13.6595 25.3351C13.5688 24.5661 13.5688 23.7543 13.5234 22.9853L13.3873 21.5327C13.3419 21.3618 12.7519 22.259 12.2074 22.1735Z" fill="#D1DB39"/>
<path fill-rule="evenodd" clip-rule="evenodd" d="M18.7853 21.4472C18.6945 21.9172 18.7853 22.3872 18.6945 22.8998L18.0592 26.4032L17.8777 27.514L18.1046 26.7877L19.5567 22.1308C19.8744 21.1909 19.2844 22.1308 18.7853 21.4472Z" fill="#D1DB39"/>
<path fill-rule="evenodd" clip-rule="evenodd" d="M20.8274 22.3017C20.8274 22.6862 21.0089 23.2843 20.8727 23.6261C20.6459 24.3524 20.6005 24.9933 20.5551 25.7623C20.5097 26.9159 21.0996 24.267 21.2812 23.8398C21.4627 23.4552 21.9165 22.9853 22.2341 22.6008C22.6879 22.1308 22.6425 22.0881 21.8257 22.259C21.5534 22.3872 20.6912 22.2163 20.8274 22.3017Z" fill="#D1DB39"/>
<path fill-rule="evenodd" clip-rule="evenodd" d="M16.7422 21.0627C16.4699 21.9172 17.1506 22.7717 16.6968 23.5834C16.4245 24.0961 16.8329 24.6942 16.9237 25.1642C17.0144 25.6341 17.1052 24.6942 17.1052 24.6088C17.196 23.6689 17.6951 22.4299 18.1036 21.49C18.2397 21.1909 18.512 20.9773 17.6498 21.1909C17.3775 21.2336 16.6968 21.0627 16.7422 21.0627Z" fill="#D1DB39"/>
<path fill-rule="evenodd" clip-rule="evenodd" d="M54.6821 17.5167V20.7637C54.7275 21.1909 54.7729 21.5754 54.7729 22.0027C54.7729 30.8465 42.5205 38.024 27.3638 38.024C12.2524 37.9813 0 30.8037 0 21.96V17.5167H2.26897C3.53959 24.9933 14.2945 30.8037 27.4091 30.8037C40.5238 30.8037 51.2787 24.9933 52.5493 17.5167H54.6821Z" fill="#CAD5DD"/>
<path fill-rule="evenodd" clip-rule="evenodd" d="M54.6369 17.5167C53.3662 25.6342 41.6584 32.0427 27.4092 32.0427C13.1601 32.0427 1.40685 25.6342 0.13623 17.5167H2.26906C3.53968 24.9933 14.2946 30.8037 27.4092 30.8037C40.5239 30.8037 51.2788 24.9933 52.5494 17.5167H54.6369Z" fill="#F7F8F9"/>
<path fill-rule="evenodd" clip-rule="evenodd" d="M54.6822 21.2336V21.7036C54.6822 21.789 54.6822 21.8745 54.7275 21.9599C53.8653 30.3338 41.9305 36.9559 27.4091 36.9559C12.2524 36.9559 0 29.8211 0 20.9773C0 20.8064 0 20.6355 0 20.5073C0.453794 29.0948 12.5247 36.016 27.4091 36.016C41.7944 36.016 53.6384 29.4793 54.6822 21.2336Z" fill="#A2B3BC"/>
<path fill-rule="evenodd" clip-rule="evenodd" d="M44.3375 22.7717C46.1527 23.5834 47.2872 24.2243 48.6939 25.4633C49.5562 26.2323 50.373 24.737 51.0083 25.0788C51.1444 25.1215 51.2352 24.6515 51.2352 24.6515C51.5982 24.3525 51.5075 25.1215 52.0066 24.3525C52.2789 23.9252 53.4134 24.0534 53.1411 23.7116C52.7781 23.3271 52.2789 23.3271 52.4151 22.8144C52.5058 22.5154 51.689 22.5153 51.6436 22.259C51.5528 21.9599 51.2806 22.0454 51.0083 22.0881C50.5545 22.1736 51.1898 21.4045 50.1915 21.6182C49.8738 21.7036 50.2368 21.2336 49.9192 21.3191L49.1477 21.49C48.2402 21.6609 48.467 21.8318 47.9225 22.3017C47.6956 22.5154 47.3326 22.3017 47.0603 22.3872C46.8334 22.4726 46.2435 22.9853 45.9712 22.7717C45.7443 22.6008 45.2451 22.5581 45.0182 22.5581C46.2435 22.5153 44.9275 22.3872 45.6082 22.259C46.425 22.0881 46.6973 22.2163 47.2872 22.1736C47.5141 22.1736 48.6939 21.7463 48.5578 21.3191C48.467 20.8919 48.467 21.2764 49.057 20.8491C49.3293 20.6782 48.5578 20.8491 49.3293 20.3364C49.6015 20.1655 48.9208 19.3538 48.5578 19.7383C48.467 19.8665 48.0133 20.4646 48.1494 20.0801C48.2855 19.6529 48.0586 18.9693 47.5595 19.5247C47.2872 19.8238 47.2418 20.1228 47.0149 20.4219C46.6065 20.9773 46.6973 20.0374 46.8788 19.781C47.0149 19.5674 47.151 19.1829 46.6973 19.4392C46.1527 19.7383 46.5611 19.2256 46.1073 19.3111C45.9258 19.3538 45.7443 19.5247 45.5628 19.6101C44.9275 19.9092 44.9728 18.9693 44.5644 19.5247C44.0653 20.2083 45.2451 21.9599 44.2014 22.5581C42.9308 22.4726 41.5694 22.6008 40.0719 23.3271C40.0265 23.4125 39.9811 23.498 39.9357 23.5834C41.4786 22.9426 42.7039 22.6862 43.8384 22.6862H43.793C43.5661 24.1388 42.7039 24.0107 42.1139 24.8224C42.0232 24.9933 41.7509 25.3351 41.7963 25.5487C41.887 26.275 42.5677 25.3351 42.5677 25.5487C42.5224 25.8478 42.2501 26.0614 42.2955 26.3178C42.3862 26.6595 42.7493 26.4032 42.6585 26.8304C42.6131 27.1295 42.7493 27.1295 43.1123 27.0013C43.5207 26.8732 43.1123 27.984 43.6115 27.8558C43.8384 27.8131 44.0199 28.283 44.2468 28.4539C44.4283 28.5821 44.6098 28.283 44.8367 28.4967C45.4266 29.0093 45.3359 28.7103 45.6989 28.1976C45.8804 27.8985 45.9258 27.9413 45.7897 27.4713C45.6989 27.1722 46.2435 27.3858 46.3342 27.1722C46.5611 26.4886 47.1057 25.5487 45.8804 24.9506C45.3813 24.4806 44.4283 23.2417 44.3375 22.7717Z" fill="#A6CE39"/>
<path fill-rule="evenodd" clip-rule="evenodd" d="M52.6848 23.6262C51.3234 23.1989 49.0091 23.8825 47.2393 23.4125C46.6947 23.2416 46.014 23.1989 45.5149 22.8998C44.9703 22.5581 45.1518 22.9426 46.014 22.9853C46.6947 23.028 47.0578 22.7717 47.7384 22.7717C48.0107 22.7717 48.3284 22.259 48.5099 22.0881C48.8729 21.7463 48.3284 22.729 48.2376 22.8571C48.1469 23.028 49.236 22.1735 49.3721 22.0027C49.8713 21.49 49.3267 22.4299 49.2813 22.5153C49.1452 22.8999 49.9167 22.259 50.1889 22.259C50.2797 22.259 50.7335 22.3872 50.8242 22.4726C51.1419 22.8998 51.5049 22.4299 51.868 22.8998C52.0041 23.028 52.7302 23.6262 52.6848 23.6262Z" fill="#82B941"/>
<path fill-rule="evenodd" clip-rule="evenodd" d="M48.9199 20.251C48.4207 20.6782 48.4207 20.8064 48.0577 21.2764C47.6039 21.8745 46.2425 21.6182 45.5164 21.8745C44.745 22.1736 45.5618 21.6609 45.8795 21.5754C46.0156 21.5327 46.9232 21.02 46.8778 21.02C46.3786 21.1909 46.5602 20.9773 46.9232 20.8064C47.1955 20.6782 47.3316 20.4219 47.5131 20.1656C47.5585 20.0801 47.8762 19.6101 47.7854 19.781C47.4224 20.3792 48.2846 20.1656 48.5569 20.0374C48.693 19.9947 48.8745 19.9092 49.0106 20.0374C49.056 20.0801 48.8745 20.4219 48.9199 20.251Z" fill="#82B941"/>
<path fill-rule="evenodd" clip-rule="evenodd" d="M43.9301 23.498C44.4292 24.0534 44.0208 24.7797 44.2931 25.3351C44.52 25.805 44.7469 26.3177 44.7469 26.8304C44.7469 27.2576 44.9738 27.6849 45.0645 27.984C45.2007 28.3685 45.2007 27.7703 45.2007 27.6422C45.1553 27.0013 45.5183 27.7703 45.5183 27.6849C45.4729 27.3004 45.4276 26.9159 45.3368 26.5741C45.2914 26.4459 44.9284 25.7196 45.2007 25.9332C45.3822 26.0614 45.4729 26.2323 45.6998 26.4032C46.3352 26.8304 46.0629 26.3177 45.7452 25.9759C45.6998 25.8905 46.0629 26.0187 46.1536 26.0187C46.1536 26.0187 44.6561 24.6942 45.4276 25.1215C45.5183 25.1642 46.0629 25.1642 45.6998 25.0787C44.9284 24.8651 44.7923 24.0534 44.3385 23.6689C44.2023 23.5407 44.0662 23.028 44.0662 22.8998C44.0662 22.7717 44.0208 23.1989 44.0662 23.2844C44.0208 23.3698 43.9754 23.5834 43.9301 23.498Z" fill="#82B941"/>
<path fill-rule="evenodd" clip-rule="evenodd" d="M6.6709 55.2417C8.48608 56.0534 9.62056 56.6943 11.0273 57.9333C11.8895 58.7023 12.7064 57.207 13.3417 57.5487C13.4778 57.5915 13.5686 57.1215 13.5686 57.1215C13.9316 56.8224 13.8408 57.5915 14.34 56.8224C14.6123 56.3952 15.7468 56.5234 15.4745 56.1816C15.1115 55.7971 14.6123 55.7971 14.7484 55.2844C14.8392 54.9853 14.0224 54.9853 13.977 54.729C13.8862 54.4299 13.6139 54.5154 13.3417 54.5581C12.8879 54.6435 13.5232 53.8745 12.5248 54.0881C12.2072 54.1736 12.5702 53.7036 12.2526 53.7891L11.4811 53.96C10.5735 54.1309 10.8004 54.3017 10.2559 54.7717C10.029 54.9853 9.66594 54.7717 9.39367 54.8571C9.16677 54.9426 8.57684 55.4553 8.30456 55.2417C8.07766 55.0708 7.57849 55.028 7.3516 55.028C8.57684 54.9853 7.26084 54.8572 7.94153 54.729C8.75836 54.5581 9.03063 54.6863 9.62056 54.6435C9.84746 54.6435 11.0273 54.2163 10.8912 53.7891C10.8004 53.3618 10.8004 53.7463 11.3904 53.3191C11.6626 53.1482 10.8912 53.3191 11.6626 52.8064C11.9349 52.6355 11.2542 51.8238 10.8912 52.2083C10.8004 52.2937 10.3466 52.9346 10.4828 52.5501C10.6189 52.1228 10.392 51.4393 9.89284 51.9947C9.62056 52.2937 9.57519 52.5928 9.34829 52.8919C8.93987 53.4473 9.03063 52.5074 9.21215 52.251C9.34829 52.0374 9.48443 51.6529 9.03063 51.9092C8.48608 52.2083 8.89449 51.6956 8.4407 51.781C8.25918 51.8238 8.07767 51.9947 7.89615 52.0801C7.26084 52.3792 7.30622 51.4393 6.8978 51.9947C6.39863 52.6782 7.57849 54.4299 6.53477 55.028C5.26414 54.9426 3.90276 55.0708 2.40524 55.7971C2.35986 55.8825 2.31448 55.968 2.2691 56.0534C3.812 55.4126 5.03725 55.1562 6.17173 55.1562H6.12635C5.89945 56.6088 4.99187 56.4807 4.44731 57.2924C4.35656 57.4633 4.08428 57.8051 4.12966 58.0187C4.22042 58.745 4.90111 57.8051 4.90111 58.0187C4.85573 58.3178 4.58345 58.5314 4.62883 58.7877C4.71959 59.1295 5.08263 58.8732 4.99187 59.3004C4.94649 59.5995 5.08263 59.5995 5.44566 59.4713C5.85408 59.3431 5.44566 60.4539 5.94483 60.3258C6.17173 60.2831 6.35325 60.753 6.58015 60.9239C6.76166 61.0521 6.94318 60.753 7.17008 60.9666C7.76001 61.4793 7.66925 61.1803 8.03229 60.6676C8.2138 60.3685 8.25918 60.4112 8.12304 59.9413C8.03229 59.6422 8.57684 59.8558 8.6676 59.6422C8.89449 58.9586 9.43905 58.0187 8.2138 57.4206C7.71463 56.9506 6.71628 55.7543 6.6709 55.2417Z" fill="#A6CE39"/>
<path fill-rule="evenodd" clip-rule="evenodd" d="M14.9753 56.0961C13.614 55.6689 11.2996 56.3525 9.52981 55.8825C8.98525 55.7116 8.30456 55.6689 7.80539 55.3698C7.26084 55.028 7.44235 55.4125 8.30456 55.4553C8.98525 55.498 9.34829 55.2417 10.029 55.2417C10.3013 55.2417 10.6189 54.729 10.8004 54.6008C11.1635 54.259 10.6189 55.2417 10.5282 55.3698C10.4374 55.5407 11.5265 54.6862 11.6626 54.5154C12.1618 54.0027 11.6173 54.9426 11.5719 55.028C11.4357 55.4125 12.2072 54.7717 12.4795 54.7717C12.5702 54.7717 13.024 54.8999 13.1148 54.9853C13.4324 55.4125 13.7955 54.9426 14.1585 55.3698C14.34 55.498 15.0207 56.0961 14.9753 56.0961Z" fill="#82B941"/>
<path fill-rule="evenodd" clip-rule="evenodd" d="M11.2066 52.7637C10.7074 53.1909 10.7074 53.3191 10.3444 53.7891C9.89058 54.3872 8.52919 54.1309 7.80312 54.3872C7.03167 54.6863 7.8485 54.1736 8.16616 54.0881C8.3023 54.0454 9.20989 53.5327 9.16451 53.5327C8.66533 53.7036 8.84685 53.49 9.20989 53.3191C9.48216 53.1909 9.6183 52.9346 9.79982 52.6782C9.8452 52.5928 10.1629 52.1228 10.0721 52.2937C9.70906 52.8919 10.5713 52.6782 10.8435 52.5501C10.9797 52.5074 11.1612 52.4219 11.2973 52.5501C11.3427 52.5501 11.2066 52.8919 11.2066 52.7637Z" fill="#82B941"/>
<path fill-rule="evenodd" clip-rule="evenodd" d="M6.21387 56.0107C6.71304 56.5661 6.30463 57.2924 6.5769 57.8478C6.8038 58.3178 7.0307 58.8305 7.0307 59.3431C7.0307 59.7704 7.25759 60.1976 7.34835 60.4967C7.48449 60.8812 7.48449 60.2831 7.48449 60.1549C7.43911 59.514 7.80214 60.2831 7.80214 60.1976C7.75677 59.8131 7.71139 59.4286 7.62063 59.0868C7.57525 58.9586 7.21221 58.2323 7.48449 58.4459C7.66601 58.5741 7.75676 58.745 7.98366 58.9159C8.61897 59.3431 8.3467 58.8305 8.02904 58.4887C7.98366 58.4032 8.3467 58.5314 8.43745 58.5314C8.43745 58.5314 6.93994 57.207 7.71139 57.6342C7.80214 57.6769 8.3467 57.6769 7.98366 57.5915C7.21221 57.3779 7.07607 56.5661 6.62228 56.1816C6.48614 56.0534 6.35001 55.5407 6.35001 55.4126C6.35001 55.2844 6.30463 55.7116 6.35001 55.7971C6.35001 55.8825 6.25925 56.0534 6.21387 56.0107Z" fill="#82B941"/>
<path fill-rule="evenodd" clip-rule="evenodd" d="M37.8464 11.279C38.1186 11.279 38.3455 10.9373 38.3455 10.51C38.3455 10.0828 38.1186 9.741 37.8464 9.741C37.5741 9.741 37.3472 10.0828 37.3472 10.51C37.3018 10.9373 37.5287 11.279 37.8464 11.279Z" fill="#EABB36"/>
<path d="M25.0942 11.4352C24.8435 11.0821 24.4545 10.9128 24.2253 11.057C23.9961 11.2012 24.0135 11.6044 24.2642 11.9575C24.5149 12.3106 24.9039 12.48 25.1331 12.3357C25.3623 12.1915 25.3449 11.7883 25.0942 11.4352Z" fill="#EABB36"/>
<path d="M36.6262 11.5424C36.35 11.2066 35.9494 11.0631 35.7314 11.222C35.5134 11.3809 35.5606 11.782 35.8368 12.1178C36.113 12.4536 36.5136 12.5971 36.7315 12.4382C36.9495 12.2793 36.9024 11.8782 36.6262 11.5424Z" fill="#EABB36"/>
<path d="M22.117 18.1966C21.8663 17.8435 21.4773 17.6741 21.2481 17.8184C21.0189 17.9626 21.0363 18.3658 21.287 18.7189C21.5377 19.072 21.9267 19.2414 22.1559 19.0971C22.3851 18.9529 22.3677 18.5497 22.117 18.1966Z" fill="#EABB36"/>
<path d="M38.1272 23.1548C37.7621 22.9054 37.3348 22.8735 37.1729 23.0836C37.011 23.2936 37.1757 23.6662 37.5409 23.9156C37.906 24.165 38.3333 24.1969 38.4952 23.9869C38.6571 23.7768 38.4924 23.4043 38.1272 23.1548Z" fill="#EABB36"/>
<path d="M37.5307 24.3503C37.428 23.9368 37.1271 23.6494 36.8587 23.7085C36.5903 23.7676 36.4559 24.1508 36.5586 24.5643C36.6614 24.9779 36.9622 25.2652 37.2307 25.2061C37.4991 25.147 37.6334 24.7639 37.5307 24.3503Z" fill="#EABB36"/>
<path d="M25.2 8.38538C25.0973 7.97183 24.7964 7.68449 24.528 7.74359C24.2596 7.80269 24.1252 8.18585 24.2279 8.5994C24.3307 9.01295 24.6316 9.3003 24.9 9.2412C25.1684 9.1821 25.3028 8.79894 25.2 8.38538Z" fill="#EABB36"/>
<path d="M32.2104 8.45593C32.6587 8.50329 33.0471 8.33258 33.0778 8.07464C33.1086 7.81669 32.77 7.5692 32.3217 7.52184C31.8734 7.47449 31.485 7.6452 31.4543 7.90314C31.4236 8.16109 31.7621 8.40858 32.2104 8.45593Z" fill="#EABB36"/>
<path d="M40.5134 11.103C40.9617 11.1503 41.3501 10.9796 41.3808 10.7217C41.4115 10.4637 41.073 10.2162 40.6247 10.1689C40.1764 10.1215 39.788 10.2922 39.7573 10.5502C39.7265 10.8081 40.0651 11.0556 40.5134 11.103Z" fill="#EABB36"/>
<path fill-rule="evenodd" clip-rule="evenodd" d="M38.8468 39.6903C38.6199 39.733 38.393 39.8184 38.1661 39.8612C38.2115 39.6903 38.2115 39.5194 38.2568 39.3485C38.2568 39.1349 38.3022 38.964 38.3022 38.8785C38.3022 38.7076 38.3022 38.6222 38.2568 38.5794C38.2115 38.5367 38.2115 38.5367 38.1207 38.5794C38.0299 38.6222 37.9392 38.7503 37.8938 38.8785C37.803 39.0494 37.7577 39.2203 37.7123 39.4339L37.5761 40.0321C37.3039 40.1175 37.0316 40.1602 36.7139 40.2029C36.7593 39.9893 36.8501 39.7757 36.8954 39.6048C37.0316 39.263 37.1677 38.964 37.3039 38.7076C37.44 38.4513 37.6215 38.1949 37.7577 37.9813C37.9392 37.7677 38.0753 37.6395 38.2568 37.5114C38.393 37.4259 38.4837 37.4259 38.5745 37.4259C38.6653 37.4259 38.756 37.4686 38.8014 37.5541C38.8468 37.6395 38.8922 37.725 38.9375 37.8959C38.9829 38.024 38.9829 38.1949 38.9829 38.3231C38.9829 38.4085 38.9829 38.5367 38.9829 38.6222C38.9375 39.0067 38.8921 39.3485 38.8468 39.6903Z" fill="#FFCB05"/>
<path fill-rule="evenodd" clip-rule="evenodd" d="M38.8468 39.6903C38.6199 39.733 38.393 39.8184 38.1661 39.8612C38.2115 39.6903 38.2115 39.5194 38.2568 39.3485C38.2568 39.1349 38.3022 38.964 38.3022 38.8785C38.3022 38.7076 38.3022 38.6222 38.2568 38.5794C38.2115 38.5367 38.2115 38.5367 38.1207 38.5794C38.0299 38.6222 37.9392 38.7503 37.8938 38.8785C37.803 39.0494 37.7577 39.2203 37.7123 39.4339L37.5761 40.0321C37.3039 40.1175 37.0316 40.1602 36.7139 40.2029C36.7593 39.9893 36.8501 39.7757 36.8954 39.6048C37.0316 39.263 37.1677 38.964 37.3039 38.7076C37.44 38.4513 37.6215 38.1949 37.7577 37.9813C37.9392 37.7677 38.0753 37.6395 38.2568 37.5114C38.393 37.4259 38.4837 37.4259 38.5745 37.4259C38.6653 37.4259 38.756 37.4686 38.8014 37.5541C38.8468 37.6395 38.8922 37.725 38.9375 37.8959C38.9829 38.024 38.9829 38.1949 38.9829 38.3231C38.9829 38.4085 38.9829 38.5367 38.9829 38.6222C38.9375 39.0067 38.8921 39.3485 38.8468 39.6903Z" fill="#EAB129"/>
<path fill-rule="evenodd" clip-rule="evenodd" d="M25.9119 41.9119L26.411 43.4072H28.0447L26.7287 44.3044L27.2279 45.7998L25.9119 44.8598L24.5505 45.7998L25.095 44.3044L23.7336 43.4072H25.3673L25.9119 41.9119Z" fill="#B2D33C"/>
<path fill-rule="evenodd" clip-rule="evenodd" d="M38.9819 43.4072C38.8004 43.6636 38.6642 43.8772 38.5281 44.0908C38.4827 44.1762 38.3919 44.2617 38.3012 44.3471C38.2104 44.4326 38.165 44.518 38.0743 44.6035C37.9835 44.6889 37.9381 44.7316 37.8928 44.8171C37.8474 44.8598 37.8474 44.8598 37.802 44.8598C37.7566 44.9025 37.7566 44.9025 37.7112 44.9453H37.6659C37.6205 44.9453 37.6205 44.9453 37.5751 44.9453C37.5751 44.9453 37.5751 44.9453 37.5297 44.9453C37.5297 44.9453 37.4844 44.9025 37.4844 44.8598C37.4844 44.8171 37.439 44.7744 37.439 44.6889C37.439 44.6462 37.439 44.5608 37.439 44.4753C37.439 44.3899 37.439 44.3471 37.439 44.2617C37.439 44.1762 37.439 44.1335 37.4844 44.0481C37.4844 43.9626 37.5297 43.9199 37.5297 43.8344C37.5297 43.749 37.5751 43.7063 37.5751 43.6636C37.6205 43.5781 37.6659 43.4072 37.7112 43.1936C37.802 42.98 37.8928 42.6809 38.0289 42.3818C38.165 41.9546 38.3012 41.5274 38.4373 41.1429C38.5281 40.7584 38.6642 40.3311 38.755 39.9039C38.8911 39.4766 38.9365 39.0921 38.9365 38.6649C38.9365 38.5794 38.9365 38.4513 38.9365 38.3658C38.9365 38.1949 38.9365 38.0668 38.8911 37.9386C38.8911 37.8531 38.8457 37.8104 38.8457 37.725C38.8457 37.6822 38.8004 37.6395 38.8004 37.5968C38.755 37.5114 38.6642 37.4686 38.5735 37.4686C38.5281 37.4686 38.5281 37.4686 38.4827 37.4686C38.3919 37.4686 38.3466 37.5114 38.2558 37.5541C38.0743 37.6395 37.8928 37.8104 37.7566 38.024C37.5751 38.2377 37.439 38.4513 37.3028 38.7503C37.2121 38.9212 37.1213 39.1349 37.0306 39.3485C36.9852 39.4339 36.9398 39.5621 36.8944 39.6475C36.7583 39.9893 36.6675 40.3311 36.5768 40.6729C36.486 41.0147 36.4406 41.3565 36.3499 41.6983C36.3045 41.9973 36.2591 42.2964 36.2591 42.6382C36.2591 42.6809 36.2591 42.6809 36.2591 42.7236C36.0776 42.8518 35.8961 42.98 35.7599 43.1081L35.7146 43.1509C35.7146 43.1509 35.7146 43.1509 35.6692 43.1936C35.4877 43.3645 35.3061 43.5781 35.1246 43.7917C34.9431 44.0481 34.807 44.2617 34.7162 44.518C34.6255 44.7316 34.5347 44.9025 34.4893 45.0734L34.4439 45.2016C34.4439 45.2443 34.3986 45.2871 34.3986 45.3298C34.3532 45.5007 34.2624 45.6716 34.2624 45.8425C34.2624 45.9279 34.217 46.0134 34.217 46.0988C34.217 46.1843 34.217 46.2697 34.217 46.3124C34.1717 46.3979 34.1263 46.4833 34.0809 46.526C34.0809 46.5688 34.0355 46.5688 34.0355 46.6115C33.9901 46.6542 33.9448 46.7397 33.8994 46.7824C33.854 46.8678 33.7632 46.9106 33.7179 46.996C33.6725 47.0387 33.5817 47.0814 33.5364 47.1242C33.4456 47.1669 33.4002 47.1242 33.4002 47.0814C33.4002 47.0387 33.3548 46.9533 33.3548 46.8251V46.7824C33.3548 46.6115 33.4002 46.4406 33.4456 46.1842C33.491 45.9279 33.5363 45.7143 33.5817 45.5434C33.6271 45.3725 33.6271 45.1589 33.6725 44.988C33.6725 44.9025 33.6725 44.8598 33.7179 44.7744C33.7179 44.6889 33.7179 44.6035 33.7179 44.518C33.7179 44.4326 33.7179 44.3471 33.7179 44.3044C33.7179 44.2617 33.6725 44.219 33.6725 44.219C33.6725 44.219 33.6271 44.219 33.5817 44.219C33.5817 44.219 33.5817 44.219 33.5364 44.219C33.491 44.219 33.491 44.219 33.4456 44.2617C33.4002 44.2617 33.4002 44.3044 33.3548 44.3044H33.3095C33.3095 44.3044 33.2641 44.3044 33.2641 44.3471C33.2187 44.3471 33.1733 44.3899 33.1733 44.3899C33.1279 44.3899 33.0826 44.3899 33.0826 44.3899C33.0372 44.3899 33.0372 44.3899 32.9918 44.3471C32.9918 44.3044 32.9464 44.3044 32.901 44.2617C32.901 44.2617 32.8557 44.219 32.8103 44.219C32.8103 44.219 32.8103 44.219 32.7649 44.219C32.7195 44.219 32.6741 44.219 32.6288 44.2617C32.5834 44.2617 32.538 44.3044 32.4926 44.3471C32.3565 44.4326 32.2203 44.518 32.0388 44.6462C31.8573 44.8171 31.6758 44.988 31.4943 45.2016C31.4489 45.2443 31.4489 45.2871 31.4035 45.3298C31.2674 45.5007 31.1312 45.6716 31.0405 45.8852C30.9951 45.9706 30.9497 46.0988 30.859 46.1842C30.8136 46.2697 30.7682 46.3979 30.7228 46.4833C30.6774 46.5688 30.6774 46.6115 30.6321 46.6969C30.5413 46.9533 30.4506 47.1669 30.4052 47.3805C30.4052 47.4232 30.4052 47.466 30.3598 47.5087V47.5514V47.5941C30.3144 47.765 30.3144 47.9359 30.3144 48.1068C30.269 48.1495 30.2237 48.1923 30.1783 48.235C30.1329 48.2777 30.0875 48.3204 30.0421 48.3632C29.9968 48.4059 29.9968 48.4059 29.9514 48.4486L29.906 48.4913C29.8606 48.534 29.7699 48.5768 29.7245 48.6195C29.6337 48.6622 29.5883 48.7049 29.543 48.7049C29.543 48.7049 29.4976 48.7049 29.4522 48.6622C29.4522 48.6622 29.4068 48.6195 29.4068 48.5768C29.4068 48.5768 29.4068 48.5768 29.4068 48.534C29.4068 48.4913 29.3614 48.4486 29.3614 48.3632C29.3614 48.2777 29.3614 48.235 29.3614 48.1495V48.1068C29.3614 48.1068 29.3614 48.1068 29.3614 48.0641C29.3614 48.0214 29.3614 47.9786 29.4068 47.8932C29.4068 47.8077 29.4522 47.765 29.4522 47.7223C29.4522 47.6796 29.4976 47.5941 29.4976 47.5514C29.4976 47.5087 29.543 47.466 29.543 47.4232C29.6791 47.1242 29.8152 46.8251 29.9514 46.4833V46.4406C30.0421 46.2697 30.1329 46.0988 30.1783 45.8852C30.2237 45.757 30.3144 45.6288 30.3598 45.4579L30.4052 45.3725L30.4506 45.2443C30.4959 45.1162 30.5867 44.9453 30.6321 44.8171C30.6774 44.6889 30.7228 44.5608 30.7682 44.4753C30.8136 44.3899 30.859 44.2617 30.9043 44.1762C30.9951 43.9626 31.0859 43.749 31.1312 43.4927C31.1766 43.4072 31.1766 43.279 31.222 43.1936C31.2674 42.98 31.3581 42.7664 31.4035 42.5527C31.4035 42.51 31.4489 42.4246 31.4489 42.3818C31.4943 42.1682 31.4943 41.9119 31.4943 41.6983C31.4943 41.5701 31.4943 41.4847 31.4489 41.3992C31.4489 41.3565 31.4489 41.3138 31.4035 41.271C31.4035 41.2283 31.3581 41.1856 31.3128 41.1429C31.3128 41.1001 31.2674 41.1001 31.222 41.0574C31.222 41.0574 31.1766 41.0147 31.1312 41.0147C31.1312 41.0147 31.0859 41.0147 31.0859 40.972C31.0405 40.972 30.9497 40.972 30.859 40.972H30.8136H30.7682C30.6321 41.0147 30.4959 41.1001 30.3598 41.2283C30.3144 41.271 30.269 41.271 30.269 41.3138C30.1329 41.4419 29.9968 41.6128 29.8606 41.7837C29.8152 41.8264 29.8152 41.8692 29.7699 41.9119C29.6337 42.0828 29.543 42.2964 29.4068 42.5527C29.3614 42.5955 29.3614 42.6382 29.3161 42.7236C29.2707 42.8091 29.2253 42.8945 29.2253 42.9373C29.1346 43.1509 29.0438 43.3645 28.953 43.6208C28.9077 43.7063 28.9077 43.749 28.8623 43.8344C28.7715 44.1335 28.6808 44.4326 28.59 44.8171C28.4539 45.3298 28.4085 45.5861 28.4085 45.5861V45.6288L28.3177 46.3124C28.227 46.7824 28.1816 47.1669 28.1816 47.466C28.1816 47.5941 28.1816 47.7223 28.1816 47.8505C28.1816 47.9786 28.227 48.0641 28.227 48.1923C28.1816 48.2777 28.0908 48.4059 28.0454 48.4913C28.0001 48.534 27.9547 48.5768 27.9547 48.6195C27.9093 48.6622 27.9093 48.7049 27.8639 48.7049C27.8186 48.7904 27.7278 48.8758 27.6824 48.9186C27.637 49.004 27.5463 49.0467 27.5009 49.0895C27.4555 49.1322 27.3648 49.1749 27.3194 49.1749C27.274 49.1749 27.2286 49.1749 27.2286 49.1749C27.1832 49.1749 27.1832 49.1322 27.1832 49.0895C27.1832 49.0467 27.1379 48.9186 27.1379 48.7904C27.1379 48.6195 27.1832 48.4486 27.2286 48.1923C27.2286 48.1068 27.274 48.0214 27.274 47.9359C27.274 47.8932 27.274 47.8505 27.3194 47.8077C27.3194 47.7223 27.3648 47.6369 27.3648 47.5941C27.4101 47.4232 27.4101 47.2523 27.4555 47.0814V47.0387C27.5009 46.8678 27.5009 46.7397 27.5009 46.6115C27.5009 46.5688 27.5009 46.4833 27.5009 46.4833V46.4406C27.5009 46.3979 27.4555 46.3551 27.4555 46.3551C27.4101 46.3551 27.4101 46.3124 27.3648 46.3124C27.3194 46.3124 27.274 46.3124 27.2286 46.3124C27.1832 46.3124 27.1832 46.3124 27.1379 46.3551C27.0925 46.3551 27.0925 46.3551 27.0471 46.3979C27.0017 46.3979 26.9563 46.3979 26.9563 46.4406C26.911 46.4406 26.8656 46.4406 26.8656 46.4406C26.8202 46.4406 26.8202 46.4406 26.7748 46.3979L26.7294 46.3551C26.7294 46.3551 26.7294 46.3551 26.7294 46.3124C26.6841 46.2697 26.6841 46.2697 26.6387 46.2697H26.5933C26.5479 46.2697 26.5479 46.2697 26.5025 46.2697C26.4572 46.2697 26.4118 46.3124 26.3664 46.3124C26.321 46.3551 26.2303 46.3551 26.1849 46.3979C26.0941 46.4406 26.0488 46.4833 25.958 46.526C25.7765 46.6542 25.595 46.8251 25.4588 46.996C25.3681 47.0814 25.3227 47.1669 25.2319 47.2523C25.1412 47.3805 25.0504 47.466 25.005 47.5941C24.9596 47.6796 24.9143 47.765 24.8235 47.8932C24.7781 47.9359 24.7781 48.0214 24.7328 48.0641C24.6874 48.1495 24.642 48.2777 24.5966 48.3632C24.5512 48.4913 24.5059 48.6195 24.4605 48.7049C24.4151 48.8331 24.3697 49.004 24.3243 49.1322C24.279 49.3458 24.2336 49.6021 24.2336 49.8158C24.2336 49.9867 24.279 50.1575 24.3243 50.2857C24.3697 50.4139 24.4605 50.5421 24.5512 50.6275C24.5966 50.6702 24.642 50.713 24.7328 50.713C24.7781 50.7557 24.8235 50.7557 24.9143 50.7557C24.9597 50.7557 25.005 50.7557 25.0504 50.7557C25.0958 50.7557 25.1412 50.7557 25.1865 50.7557C25.2319 50.7557 25.2773 50.7557 25.3227 50.7557C25.3681 50.7557 25.4134 50.713 25.4588 50.713C25.5496 50.6702 25.595 50.6702 25.6857 50.5848C25.7765 50.5421 25.9126 50.4566 26.0034 50.3712L26.0488 50.3284C26.1849 50.243 26.2757 50.1148 26.3664 50.0294C26.4572 49.9439 26.5479 49.8158 26.5933 49.7303C26.6841 49.9012 26.7294 49.9867 26.8202 50.0721C26.8656 50.1148 26.8656 50.1148 26.911 50.1575C26.911 50.1575 26.9563 50.2003 27.0017 50.2003C27.0017 50.2003 27.0017 50.2003 27.0471 50.2003C27.1379 50.243 27.1832 50.243 27.274 50.243C27.3194 50.243 27.3648 50.243 27.4101 50.2003C27.5009 50.1575 27.637 50.1148 27.7278 50.0294C27.7732 49.9867 27.8186 49.9867 27.8639 49.9439C27.9093 49.9439 27.9093 49.9012 27.9547 49.8585C28.0908 49.773 28.1816 49.6449 28.3177 49.5167C28.3631 49.474 28.4085 49.3885 28.4539 49.3458C28.5446 49.2604 28.59 49.1749 28.6808 49.0895V49.0467C28.6808 49.004 28.7261 49.004 28.7261 48.9613C28.7261 48.9613 28.7261 49.004 28.7715 49.0467C28.8623 49.2604 28.9984 49.3885 29.0892 49.474C29.1799 49.5594 29.3161 49.5594 29.4068 49.5594C29.4522 49.5594 29.4522 49.5594 29.4976 49.5594C29.543 49.5594 29.5883 49.5167 29.6337 49.5167C29.6791 49.474 29.7699 49.474 29.8152 49.4312C29.906 49.3885 30.0421 49.3031 30.1329 49.2176C30.1329 49.2176 30.1329 49.2176 30.1783 49.2176C30.3144 49.1322 30.4052 49.0467 30.5413 48.9613C30.5867 48.9186 30.5867 48.9186 30.6321 48.8758L30.7228 48.7904C30.7682 48.7477 30.7682 48.7477 30.8136 48.7049C30.8136 48.7049 30.8136 48.7049 30.859 48.6622L30.9043 48.7049C30.9043 48.7049 30.9043 48.7049 30.9497 48.7477C31.0405 48.7904 31.1312 48.8331 31.222 48.8758H31.2674C31.3581 48.8758 31.4489 48.8758 31.4943 48.8331C31.5397 48.8331 31.585 48.8331 31.6304 48.7904C31.6758 48.7904 31.6758 48.7904 31.7212 48.7477C31.8119 48.7049 31.9027 48.6622 31.9935 48.5768C32.1296 48.4913 32.2203 48.4059 32.3565 48.2777C32.4472 48.1495 32.5834 48.0641 32.6741 47.9359C32.7649 47.8077 32.8557 47.7223 32.901 47.5941C32.9918 47.765 33.0826 47.9359 33.2187 47.9786C33.2641 48.0214 33.3548 48.0214 33.4456 48.0214C33.5363 48.0214 33.6271 47.9786 33.7179 47.9786C33.8086 47.9359 33.9448 47.8505 34.0355 47.765C34.0809 47.7223 34.1263 47.7223 34.1717 47.6796C34.217 47.6369 34.217 47.6369 34.217 47.5941C34.3532 47.466 34.4439 47.3378 34.5801 47.2096C34.6255 47.1242 34.6708 47.0387 34.7616 46.996C34.7616 47.0387 34.807 47.0387 34.807 47.0814L34.8524 47.1242C34.8977 47.1669 34.9431 47.1669 34.9885 47.2096C35.0339 47.2096 35.0792 47.2523 35.1246 47.2523C35.2608 47.2523 35.3969 47.2523 35.5784 47.1242C35.7146 47.0814 35.8507 46.996 35.9415 46.8678C35.9868 46.8251 36.0322 46.7824 36.123 46.7397C36.1684 46.6969 36.1684 46.6542 36.2137 46.6542C36.2591 46.6115 36.3045 46.5688 36.3045 46.526C36.4406 46.3979 36.5314 46.2697 36.6675 46.0988C36.8037 45.9279 36.8944 45.7997 36.9852 45.6288C37.0306 45.6716 37.0306 45.757 37.0759 45.7997C37.1213 45.8425 37.1667 45.8852 37.2121 45.8852C37.2575 45.8852 37.2575 45.9279 37.3028 45.9279C37.3482 45.9706 37.439 45.9706 37.4844 45.9706C37.5751 45.9706 37.6205 45.9706 37.7112 45.9279H37.7566C37.8474 45.8852 37.8928 45.8852 37.9381 45.8425C37.9835 45.7997 38.0743 45.757 38.1197 45.7143L38.165 45.6716C38.2558 45.5861 38.3466 45.5007 38.3919 45.4152C38.4373 45.3298 38.5281 45.2871 38.5735 45.2016C38.6188 45.1589 38.6188 45.1589 38.6188 45.1162C38.7096 45.0307 38.8004 44.9025 38.8457 44.8171C39.0273 44.5608 39.2088 44.3044 39.4357 44.0481C39.0726 43.9199 39.0273 43.6636 38.9819 43.4072ZM37.2575 43.0227C37.2575 42.98 37.2575 43.0227 37.2575 43.0227C37.2575 42.9373 37.2575 42.8945 37.2575 42.8091C37.2575 42.7664 37.2575 42.7236 37.2575 42.6809C37.2575 42.6382 37.2575 42.5955 37.2575 42.51C37.2575 42.3818 37.2575 42.2964 37.2575 42.1255C37.2575 41.9973 37.2575 41.8692 37.3028 41.6983C37.3028 41.6128 37.3028 41.5274 37.3482 41.3565C37.3482 41.1856 37.3936 41.0147 37.3936 40.7583C37.439 40.5447 37.439 40.3311 37.5297 40.0748C37.5751 39.8184 37.6205 39.6048 37.6659 39.3912C37.7113 39.263 37.7112 39.1776 37.7566 39.0494C37.802 38.964 37.802 38.9212 37.8474 38.8358C37.8928 38.7931 37.8928 38.7503 37.9381 38.7076C37.9381 38.7076 37.9381 38.6649 37.9835 38.6649C38.0289 38.6222 38.0743 38.5794 38.0743 38.5794C38.1197 38.5794 38.1197 38.5794 38.1197 38.5794C38.1197 38.5794 38.165 38.5794 38.165 38.6222C38.2104 38.6649 38.2104 38.7503 38.2104 38.9212C38.2104 39.0494 38.2104 39.1776 38.165 39.3912C38.165 39.5194 38.1197 39.6475 38.1197 39.7757C38.1197 39.8184 38.1197 39.8612 38.0743 39.9039C38.0743 39.9893 38.0289 40.1175 37.9835 40.2029C37.9835 40.2884 37.9381 40.3738 37.9381 40.4593C37.8928 40.6729 37.8474 40.8438 37.802 41.0574C37.7566 41.1856 37.7566 41.3138 37.7112 41.3992C37.7112 41.4847 37.6659 41.5701 37.6659 41.6128C37.5297 42.1255 37.3936 42.5527 37.2575 43.0227ZM36.123 45.4579C36.0776 45.5007 36.0776 45.5861 36.0322 45.6716C35.9868 45.757 35.9415 45.7997 35.8961 45.8425C35.8961 45.8852 35.8507 45.8852 35.8507 45.9279C35.8053 45.9706 35.8053 45.9706 35.7599 46.0134C35.7146 46.0561 35.6692 46.0561 35.6692 46.0988C35.6692 46.0988 35.6692 46.0988 35.6238 46.0988C35.5784 46.0988 35.5784 46.1415 35.533 46.1415C35.4877 46.1415 35.4423 46.1842 35.3969 46.1842C35.3515 46.1842 35.3061 46.1842 35.2608 46.1842C35.2154 46.1842 35.2154 46.1415 35.17 46.0988C35.17 46.0561 35.17 46.0134 35.17 45.9706C35.17 45.8425 35.2154 45.6716 35.2154 45.5007C35.2154 45.5007 35.2154 45.5007 35.2154 45.4579C35.2608 45.2443 35.3515 45.0307 35.4423 44.7316C35.4877 44.6035 35.533 44.518 35.5784 44.3899C35.5784 44.3471 35.6238 44.3471 35.6238 44.3044C35.6692 44.219 35.7146 44.1335 35.7599 44.0481C35.7599 44.0053 35.8053 44.0053 35.8053 43.9626C35.9415 43.749 36.123 43.5354 36.3045 43.3645C36.3045 43.3645 36.3045 43.4072 36.3045 43.4499C36.3045 43.4927 36.3045 43.5354 36.3045 43.5781C36.3045 43.6208 36.3045 43.6208 36.3045 43.6636C36.3045 43.749 36.3045 43.8345 36.3045 43.9626C36.3045 44.0908 36.3045 44.219 36.3045 44.3899C36.3045 44.5608 36.3045 44.6889 36.3045 44.7744C36.3045 44.8598 36.3045 44.9025 36.3045 44.9453C36.2591 45.0734 36.2137 45.2016 36.123 45.3298C36.123 45.3725 36.123 45.4152 36.123 45.4579ZM29.1799 46.227C29.1799 46.2697 29.1799 46.2697 29.1346 46.3124C29.1346 46.227 29.1346 46.1415 29.1346 46.0561C29.1346 45.8425 29.1799 45.5861 29.2253 45.3298C29.2253 45.2871 29.2253 45.2871 29.2253 45.2443C29.2253 45.2016 29.2253 45.1589 29.2253 45.1589C29.2707 44.8171 29.3161 44.6462 29.3161 44.6462C29.3161 44.6462 29.3161 44.6035 29.3161 44.5608C29.3614 44.4753 29.4068 44.2617 29.4976 43.9626C29.543 43.8345 29.543 43.7063 29.5883 43.6208C29.5883 43.5354 29.6337 43.4927 29.6337 43.4072C29.6337 43.3645 29.6791 43.279 29.6791 43.2363C29.7245 43.1509 29.7245 43.0654 29.7699 42.98C29.8152 42.8945 29.8152 42.8518 29.8606 42.7664C29.906 42.7236 29.906 42.6382 29.9514 42.5955C29.9968 42.5527 29.9968 42.51 30.0421 42.4673C30.0875 42.3818 30.1329 42.2964 30.2237 42.2537C30.269 42.211 30.269 42.211 30.3144 42.211C30.3144 42.211 30.3598 42.211 30.3598 42.2964C30.3598 42.3391 30.3598 42.4246 30.3598 42.51C30.3598 42.5527 30.3598 42.5955 30.3598 42.5955C30.3598 42.7664 30.3144 42.98 30.269 43.1936C30.269 43.2363 30.2237 43.3218 30.2237 43.3645C30.1329 43.7063 30.0421 44.0481 29.906 44.3899C29.8606 44.518 29.8152 44.6462 29.7699 44.7744C29.6791 44.988 29.5883 45.2016 29.543 45.4152C29.4976 45.5007 29.4522 45.5861 29.4522 45.6716C29.3614 45.8852 29.2707 46.0561 29.1799 46.227ZM26.321 47.5087C26.2303 47.8505 26.1849 48.235 26.0941 48.5768C26.0941 48.6622 26.0488 48.7904 26.0034 48.9186C25.958 49.0467 25.9126 49.2176 25.8672 49.3458C25.8219 49.4312 25.7765 49.5594 25.7311 49.6449C25.7311 49.6876 25.6857 49.7303 25.6403 49.7303C25.595 49.773 25.5496 49.8158 25.5042 49.8585C25.4588 49.9012 25.4134 49.9012 25.3681 49.9439C25.3227 49.9439 25.2319 49.9439 25.2319 49.9439C25.1865 49.9012 25.1412 49.9012 25.1412 49.8585V49.8158C25.1412 49.773 25.0958 49.7303 25.0958 49.6876C25.0958 49.6449 25.0958 49.5594 25.0958 49.474C25.0958 49.3458 25.0958 49.2176 25.1412 49.0467C25.1412 48.9613 25.1865 48.8331 25.2319 48.7049C25.2319 48.6622 25.2773 48.5768 25.2773 48.534C25.3681 48.3204 25.4134 48.1495 25.5042 48.0214C25.5496 47.9359 25.595 47.8932 25.6403 47.8077C25.6857 47.765 25.6857 47.7223 25.7311 47.6796V47.6369V47.5941C25.7765 47.5514 25.8219 47.466 25.8672 47.4232C25.9126 47.3805 25.958 47.2951 26.0488 47.2523C26.1395 47.1669 26.2757 47.1242 26.3664 47.0814C26.3664 47.2523 26.321 47.3805 26.321 47.5087ZM31.6758 47.9359C31.6304 47.9786 31.6304 47.9786 31.585 47.9786C31.5397 47.9786 31.4943 48.0214 31.4489 47.9786C31.4035 47.9786 31.3581 47.9359 31.3581 47.8932C31.3581 47.8505 31.3128 47.8077 31.3128 47.7223C31.3128 47.6796 31.3128 47.5941 31.3128 47.5087C31.3128 47.3805 31.3128 47.2523 31.3581 47.0814V47.0387C31.4035 46.9106 31.4489 46.7397 31.4943 46.526C31.585 46.3124 31.6304 46.1415 31.7212 45.9706C31.8119 45.7997 31.9027 45.6716 31.9935 45.5434C32.0842 45.4152 32.175 45.2871 32.3111 45.2016C32.4019 45.1162 32.4472 45.0734 32.538 45.0307C32.5834 45.0307 32.5834 44.988 32.6288 44.988C32.538 45.4152 32.4472 45.7997 32.3565 46.227C32.3565 46.3124 32.3111 46.3979 32.3111 46.4833C32.3111 46.5688 32.2657 46.6115 32.2657 46.7397C32.2657 46.7824 32.2657 46.8251 32.2203 46.8678C32.2203 46.9533 32.175 47.0387 32.1296 47.1242C32.1296 47.1669 32.0842 47.2523 32.0842 47.2951C32.0388 47.4232 31.9481 47.5941 31.8573 47.7223C31.8119 47.8505 31.7212 47.8932 31.6758 47.9359Z" fill="#FFCB05"/>
<path fill-rule="evenodd" clip-rule="evenodd" d="M23.3711 44.8598C23.235 44.6462 23.0535 44.518 22.8719 44.3899C22.7812 44.3471 22.6904 44.3044 22.5543 44.2617C22.4635 44.219 22.4182 44.219 22.3274 44.219C22.282 44.219 22.1913 44.1762 22.1459 44.1762H22.1005C21.8282 44.1335 21.5559 44.1335 21.2837 44.1762C21.1929 44.1762 21.1475 44.219 21.1022 44.219C20.9206 44.2617 20.6937 44.3044 20.5122 44.3471C20.3761 44.3899 20.2399 44.4326 20.1038 44.4753C19.9677 44.518 19.8315 44.6035 19.7408 44.6889C19.5593 44.7744 19.4231 44.9025 19.287 45.0307C19.0601 45.2443 18.8786 45.458 18.7878 45.6716C18.697 45.8852 18.6063 46.1415 18.6063 46.3552C18.6063 46.5688 18.6517 46.7397 18.7424 46.9106C18.7424 46.9533 18.7424 46.996 18.7878 46.996C18.8332 47.0815 18.8786 47.1242 18.9239 47.2096C19.0147 47.3378 19.1055 47.4232 19.1962 47.5087C19.3777 47.6369 19.5593 47.8078 19.7861 47.8932C20.013 48.0214 20.2399 48.1068 20.4668 48.1923C20.5122 48.1923 20.5576 48.235 20.603 48.235C20.7845 48.3204 20.966 48.4059 21.1475 48.4486C21.3744 48.5341 21.5559 48.6195 21.7375 48.7477C21.8282 48.8331 21.9644 48.8758 22.0097 48.9613C22.0551 49.004 22.1005 49.0467 22.1459 49.0895C22.1459 49.1322 22.1913 49.1749 22.1913 49.1749C22.2366 49.3031 22.282 49.4313 22.282 49.6021C22.282 49.773 22.2366 49.9439 22.1459 50.0721C22.1459 50.1148 22.1005 50.1576 22.1005 50.2003C22.0551 50.243 22.0551 50.2857 22.0097 50.3285C21.919 50.4566 21.7828 50.5848 21.6467 50.713C21.5106 50.8411 21.329 50.9266 21.1475 51.012C21.1022 51.0548 21.0568 51.0548 21.0114 51.0975C20.7845 51.1829 20.5576 51.2256 20.2853 51.2684C20.1038 51.3111 19.8769 51.2684 19.6954 51.2684C19.65 51.2684 19.6046 51.2256 19.5593 51.2256C19.4231 51.1829 19.3324 51.1402 19.1962 51.0975C19.1508 51.0548 19.1055 51.0548 19.0601 51.012C18.9693 50.9266 18.8786 50.8839 18.8332 50.7557C18.7424 50.6275 18.697 50.4566 18.697 50.243C18.697 50.1576 18.697 50.0721 18.697 49.9867C18.697 49.9439 18.697 49.9012 18.697 49.8585C18.697 49.8158 18.697 49.8158 18.697 49.773C18.697 49.7303 18.7424 49.6449 18.7424 49.6021C18.7424 49.5594 18.7424 49.5167 18.7424 49.5167V49.474C18.7424 49.3885 18.697 49.3031 18.6517 49.2604C18.6063 49.2176 18.5155 49.1749 18.4248 49.1749C18.3794 49.1749 18.3794 49.1749 18.334 49.1749C18.2886 49.1749 18.1979 49.2176 18.1525 49.2604C18.0617 49.3031 17.971 49.3885 17.8802 49.474C17.7895 49.5594 17.7441 49.6876 17.6533 49.8158C17.6079 49.9439 17.5626 50.1148 17.5626 50.2857C17.5626 50.6275 17.6533 50.9266 17.7895 51.1829C17.9256 51.4393 18.1071 51.6102 18.3794 51.7811L18.4248 51.8238C18.697 51.9947 18.9693 52.1228 19.287 52.1656C19.6046 52.2083 19.9677 52.251 20.2853 52.2083C20.3307 52.2083 20.3307 52.2083 20.3761 52.2083C20.5576 52.1656 20.7391 52.1656 20.9206 52.0801C20.966 52.0801 21.0114 52.0801 21.0568 52.0374C21.2837 51.952 21.5106 51.8665 21.7375 51.7383C21.7828 51.6956 21.8282 51.6956 21.8736 51.6529C22.0551 51.5674 22.1913 51.4393 22.3728 51.3111C22.5543 51.1402 22.7358 50.9693 22.8719 50.7557C22.9173 50.713 22.9627 50.6275 23.0081 50.5848C23.0988 50.4566 23.1442 50.2857 23.235 50.1576C23.2804 50.0294 23.3257 49.9439 23.3257 49.8158C23.3257 49.6876 23.3711 49.5594 23.3711 49.4313C23.3711 49.4313 23.3711 49.4313 23.3711 49.3885C23.3711 49.1749 23.3257 49.0467 23.2804 48.8758C23.2804 48.8331 23.235 48.7477 23.235 48.705C23.1896 48.6195 23.1442 48.5341 23.0535 48.4486C22.9627 48.3632 22.9173 48.2777 22.7812 48.1923C22.5997 48.0641 22.4182 47.9359 22.1913 47.8505C22.1005 47.8078 21.9644 47.765 21.8736 47.7223C21.7375 47.6796 21.6467 47.6369 21.5106 47.5514C21.329 47.466 21.1475 47.4232 20.966 47.3378C20.9206 47.3378 20.8753 47.2951 20.8299 47.2951C20.603 47.2096 20.4215 47.1242 20.2399 46.996C20.0584 46.9106 19.9223 46.7824 19.8315 46.6115C19.7408 46.4833 19.6954 46.3124 19.6954 46.1415C19.6954 46.0988 19.6954 46.0561 19.6954 46.0134V45.9706C19.6954 45.9279 19.7408 45.8852 19.7408 45.8425C19.7861 45.7997 19.7861 45.757 19.8315 45.7143C19.8769 45.6716 19.9223 45.6288 19.9677 45.5861L20.013 45.5434C20.0584 45.5007 20.1038 45.458 20.1492 45.458L20.1946 45.4152C20.2853 45.3725 20.3307 45.3298 20.4215 45.2871C20.5576 45.2443 20.6937 45.2016 20.8753 45.1589C20.9206 45.1589 21.0114 45.1162 21.0568 45.1162C21.2837 45.0734 21.4652 45.0734 21.6921 45.0734C21.8282 45.0734 21.9644 45.1162 22.0551 45.1162C22.1005 45.1162 22.1459 45.1162 22.1913 45.1589C22.282 45.2016 22.3274 45.2443 22.3728 45.2871C22.4182 45.3298 22.4635 45.3725 22.5089 45.4152C22.5089 45.458 22.5543 45.458 22.5543 45.5007C22.5997 45.5861 22.6451 45.6716 22.6451 45.757C22.6451 45.8425 22.645 45.9706 22.5997 46.0561C22.5997 46.0988 22.5543 46.1415 22.5543 46.1843C22.5543 46.227 22.5089 46.3124 22.4635 46.3552C22.4635 46.3979 22.4182 46.3979 22.4182 46.4406C22.4182 46.4833 22.3728 46.4833 22.3728 46.526C22.3274 46.6115 22.282 46.6969 22.2366 46.7824V46.8251C22.2366 46.8678 22.1913 46.9106 22.1913 46.9533V46.996C22.1913 47.0387 22.1913 47.0815 22.1913 47.1242V47.1669C22.1913 47.2523 22.2366 47.2951 22.282 47.3378C22.3274 47.3378 22.3274 47.3805 22.3728 47.3805C22.4182 47.3805 22.4182 47.3805 22.4635 47.3805C22.5543 47.3805 22.6904 47.2951 22.8266 47.1669C22.8719 47.1242 22.9173 47.0815 22.9173 47.0387C23.0081 46.9533 23.0988 46.8251 23.1896 46.6969C23.3257 46.4833 23.3711 46.3124 23.4619 46.0988C23.4619 46.0561 23.4619 46.0134 23.5073 45.9706C23.5526 45.8425 23.5526 45.7143 23.5526 45.5861C23.5526 45.2871 23.5073 45.0307 23.3711 44.8598Z" fill="#FFCB05"/>
<defs>
<linearGradient id="paint0_linear_2_1877" x1="27.3873" y1="0" x2="27.3873" y2="32.0239" gradientUnits="userSpaceOnUse">
<stop stop-color="#F4F4F7"/>
<stop offset="1" stop-color="white"/>
</linearGradient>
</defs>
</svg>
